G04 #@! TF.GenerationSoftware,KiCad,Pcbnew,5.1.0-unknown-567bdd9~82~ubuntu18.10.1*
G04 #@! TF.CreationDate,2019-04-01T09:59:20+02:00*
G04 #@! TF.ProjectId,weather,77656174-6865-4722-9e6b-696361645f70,1.2*
G04 #@! TF.SameCoordinates,Original*
G04 #@! TF.FileFunction,Copper,L2,Bot*
G04 #@! TF.FilePolarity,Positive*
%FSLAX46Y46*%
G04 Gerber Fmt 4.6, Leading zero omitted, Abs format (unit mm)*
G04 Created by KiCad (PCBNEW 5.1.0-unknown-567bdd9~82~ubuntu18.10.1) date 2019-04-01 09:59:20*
%MOMM*%
%LPD*%
G04 APERTURE LIST*
%ADD10C,2.000000*%
%ADD11C,2.300000*%
%ADD12C,17.800000*%
%ADD13C,0.800000*%
%ADD14C,0.600000*%
%ADD15C,0.100000*%
G04 APERTURE END LIST*
D10*
X120525000Y-76275000D03*
D11*
X101770000Y-74700000D03*
X101770000Y-77800000D03*
X122570000Y-77800000D03*
X122570000Y-74700000D03*
D12*
X112170000Y-76200000D03*
D13*
X113150000Y-69350000D03*
X107075000Y-81325000D03*
X107075000Y-85400000D03*
X107075000Y-83050000D03*
X111625000Y-80000000D03*
X118975000Y-81450000D03*
X117600000Y-82875000D03*
X115425000Y-84200000D03*
X112950000Y-84800000D03*
X111625000Y-83500000D03*
X108425000Y-75675000D03*
X110875000Y-73250000D03*
X108425000Y-73300000D03*
X110825000Y-75700000D03*
X114500000Y-74475000D03*
X113400000Y-77700000D03*
X120000000Y-79800000D03*
X111625000Y-81800000D03*
X116400000Y-81900000D03*
X114200000Y-80200000D03*
X114550000Y-71400000D03*
X118200000Y-72900000D03*
X118225000Y-70100000D03*
X115750000Y-69300000D03*
X109600000Y-74500000D03*
X107075000Y-87050000D03*
X121700000Y-79350000D03*
X107100000Y-79675000D03*
X105150000Y-77100000D03*
D14*
X101770000Y-74700000D02*
X101770000Y-77800000D01*
X122570000Y-74700000D02*
X122570000Y-77800000D01*
X109953623Y-65764130D02*
X109747924Y-65806084D01*
X122427694Y-71858237D02*
X122331004Y-71672028D01*
X103110385Y-69933704D02*
X102981794Y-70099624D01*
X120917484Y-69593927D02*
X120779737Y-69435502D01*
X102385540Y-70962464D02*
X102275825Y-71141395D01*
X122230898Y-71487538D02*
X122127458Y-71304914D01*
X114744265Y-65847242D02*
X114539378Y-65801925D01*
X109339155Y-65901157D02*
X109136177Y-65954250D01*
X116782790Y-66550000D02*
X116734971Y-66502181D01*
X103943133Y-68990086D02*
X103797289Y-69140914D01*
X102275825Y-71141395D02*
X102169376Y-71322310D01*
X102733892Y-70438203D02*
X102614586Y-70610849D01*
X101777176Y-72064201D02*
X101770000Y-72079411D01*
X105372431Y-67758729D02*
X105203919Y-67883747D01*
X122570000Y-72149629D02*
X122521001Y-72046222D01*
X110366908Y-65691535D02*
X110159937Y-65725951D01*
X117492349Y-66863684D02*
X117305480Y-66768138D01*
X119417613Y-68130352D02*
X119253492Y-67999528D01*
X120049383Y-68682801D02*
X119895187Y-68540349D01*
X113920183Y-65688449D02*
X113712542Y-65658165D01*
X122521001Y-72046222D02*
X122427694Y-71858237D01*
X115554623Y-66065599D02*
X115353584Y-66005492D01*
X102856337Y-70267735D02*
X102733892Y-70438203D01*
X112667864Y-65563688D02*
X112631920Y-65562410D01*
X115151438Y-65949042D02*
X114948312Y-65896287D01*
X107361959Y-66595654D02*
X107171935Y-66684640D01*
X117305480Y-66768138D02*
X117116982Y-66676049D01*
X119895187Y-68540349D02*
X119738523Y-68400817D01*
X119253492Y-67999528D02*
X119087025Y-67871722D01*
X102169376Y-71322310D02*
X102066297Y-71505034D01*
X102498450Y-70785632D02*
X102385540Y-70962464D01*
X117860641Y-67064865D02*
X117677443Y-66962615D01*
X105037642Y-68011866D02*
X104873817Y-68142920D01*
X101770000Y-73073655D02*
X101770000Y-74700000D01*
X104712342Y-68276986D02*
X104553348Y-68413962D01*
X102614586Y-70610849D02*
X102498450Y-70785632D01*
X118041989Y-67170460D02*
X117860641Y-67064865D01*
X113086764Y-65590060D02*
X112877434Y-65574967D01*
X107746765Y-66428113D02*
X107553617Y-66510124D01*
X120495860Y-69126480D02*
X120349748Y-68975899D01*
X121438729Y-70251634D02*
X121312954Y-70083705D01*
X111200230Y-65591692D02*
X110991222Y-65610960D01*
X103241934Y-69770205D02*
X103110385Y-69933704D01*
X121312954Y-70083705D02*
X121184055Y-69917982D01*
X106796822Y-66872961D02*
X106611940Y-66972191D01*
X112248327Y-65552589D02*
X112038574Y-65552771D01*
X114127250Y-65722511D02*
X113920183Y-65688449D01*
X122127458Y-71304914D02*
X122020788Y-71124339D01*
X101966537Y-71689652D02*
X101870143Y-71876080D01*
X105716240Y-67517938D02*
X105543194Y-67636800D01*
X116842626Y-66550000D02*
X116782790Y-66550000D01*
X104553348Y-68413962D02*
X104396894Y-68553793D01*
X121561471Y-70421889D02*
X121438729Y-70251634D01*
X118747271Y-67625328D02*
X118574063Y-67506796D01*
X116346871Y-66342336D02*
X116150677Y-66267733D01*
X116926773Y-66587378D02*
X116842626Y-66550000D01*
X103376450Y-69609117D02*
X103241934Y-69770205D01*
X110991222Y-65610960D02*
X110782719Y-65634017D01*
X112631920Y-65562410D02*
X112458178Y-65556230D01*
X114948312Y-65896287D02*
X114744265Y-65847242D01*
X107171935Y-66684640D02*
X106983529Y-66777088D01*
X108533376Y-66135617D02*
X108334772Y-66203351D01*
X116150677Y-66267733D02*
X116149206Y-66267204D01*
X103797289Y-69140914D02*
X103654148Y-69294447D01*
X103513875Y-69450507D02*
X103376450Y-69609117D01*
X103654148Y-69294447D02*
X103513875Y-69450507D01*
X113504331Y-65631661D02*
X113295731Y-65608958D01*
X115953305Y-66196767D02*
X115754500Y-66129348D01*
X108137374Y-66274714D02*
X107941373Y-66349635D01*
X104243010Y-68696452D02*
X104091687Y-68841950D01*
X113712542Y-65658165D02*
X113504331Y-65631661D01*
X116149206Y-66267204D02*
X115953305Y-66196767D01*
X108334772Y-66203351D02*
X108137374Y-66274714D01*
X110782719Y-65634017D02*
X110574552Y-65660883D01*
X116734971Y-66502181D02*
X116541665Y-66420498D01*
X109136177Y-65954250D02*
X108934140Y-66011046D01*
X122570000Y-74700000D02*
X122570000Y-72149629D01*
X104396894Y-68553793D02*
X104243010Y-68696452D01*
X111619001Y-65564599D02*
X111409537Y-65576236D01*
X118574063Y-67506796D02*
X118398823Y-67391502D01*
X122020788Y-71124339D02*
X121910741Y-70945562D01*
X106247682Y-67180709D02*
X106068512Y-67289877D01*
X104091687Y-68841950D02*
X103943133Y-68990086D01*
X120200831Y-68827913D02*
X120049383Y-68682801D01*
X117677443Y-66962615D02*
X117492349Y-66863684D01*
X110574552Y-65660883D02*
X110366908Y-65691535D01*
X121052292Y-69754798D02*
X120917484Y-69593927D01*
X106983529Y-66777088D02*
X106796822Y-66872961D01*
X112458178Y-65556230D02*
X112248327Y-65552589D01*
X120349748Y-68975899D02*
X120200831Y-68827913D01*
X119738523Y-68400817D02*
X119579255Y-68264086D01*
X116541665Y-66420498D02*
X116346871Y-66342336D01*
X108934140Y-66011046D02*
X108733193Y-66071506D01*
X111828771Y-65556774D02*
X111619001Y-65564599D01*
X106428853Y-67074797D02*
X106247682Y-67180709D01*
X118221409Y-67279354D02*
X118041989Y-67170460D01*
X121184055Y-69917982D02*
X121052292Y-69754798D01*
X122331004Y-71672028D02*
X122230898Y-71487538D01*
X114539378Y-65801925D02*
X114333685Y-65760343D01*
X101870143Y-71876080D02*
X101777176Y-72064201D01*
X105543194Y-67636800D02*
X105372431Y-67758729D01*
X102981794Y-70099624D02*
X102856337Y-70267735D01*
X107553617Y-66510124D02*
X107361959Y-66595654D01*
X115353584Y-66005492D02*
X115151438Y-65949042D01*
X112877434Y-65574967D02*
X112667864Y-65563688D01*
X115754500Y-66129348D02*
X115554623Y-66065599D01*
X120779737Y-69435502D02*
X120639246Y-69279744D01*
X119579255Y-68264086D02*
X119417613Y-68130352D01*
X109543178Y-65851743D02*
X109339155Y-65901157D01*
X119087025Y-67871722D02*
X118918304Y-67747003D01*
X117116982Y-66676049D02*
X116926773Y-66587378D01*
X102066297Y-71505034D02*
X101966537Y-71689652D01*
X105891286Y-67402337D02*
X105716240Y-67517938D01*
X113295731Y-65608958D02*
X113086764Y-65590060D01*
X121681045Y-70594284D02*
X121561471Y-70421889D01*
X107941373Y-66349635D02*
X107746765Y-66428113D01*
X106611940Y-66972191D02*
X106428853Y-67074797D01*
X114333685Y-65760343D02*
X114127250Y-65722511D01*
X112038574Y-65552771D02*
X111828771Y-65556774D01*
X104873817Y-68142920D02*
X104712342Y-68276986D01*
X101770000Y-72079411D02*
X101770000Y-73073655D01*
X105203919Y-67883747D02*
X105037642Y-68011866D01*
X110159937Y-65725951D02*
X109953623Y-65764130D01*
X121910741Y-70945562D02*
X121797520Y-70768920D01*
X109747924Y-65806084D02*
X109543178Y-65851743D01*
X120639246Y-69279744D02*
X120495860Y-69126480D01*
X121797520Y-70768920D02*
X121681045Y-70594284D01*
X108733193Y-66071506D02*
X108533376Y-66135617D01*
X118918304Y-67747003D02*
X118747271Y-67625328D01*
X111409537Y-65576236D02*
X111200230Y-65591692D01*
X118398823Y-67391502D02*
X118221409Y-67279354D01*
X106068512Y-67289877D02*
X105891286Y-67402337D01*
D15*
G36*
X112443634Y-66106060D02*
G01*
X112585370Y-66111101D01*
X112585376Y-66111102D01*
X112620962Y-66112367D01*
X112639369Y-66113022D01*
X112639372Y-66113022D01*
X112643283Y-66113161D01*
X112842920Y-66123905D01*
X113042177Y-66138272D01*
X113241205Y-66156271D01*
X113439864Y-66177892D01*
X113638156Y-66203134D01*
X113835888Y-66231973D01*
X114032993Y-66264397D01*
X114229604Y-66300428D01*
X114425505Y-66340030D01*
X114620600Y-66383181D01*
X114814912Y-66429887D01*
X115008341Y-66480123D01*
X115200842Y-66533880D01*
X115392299Y-66591123D01*
X115582600Y-66651818D01*
X115771932Y-66716025D01*
X115959905Y-66783612D01*
X116146708Y-66854644D01*
X116332237Y-66929089D01*
X116426040Y-66968726D01*
X116475748Y-67009521D01*
X116571296Y-67060592D01*
X116674971Y-67092042D01*
X116716369Y-67096119D01*
X116880079Y-67172438D01*
X117059557Y-67260120D01*
X117237472Y-67351087D01*
X117413745Y-67445303D01*
X117588211Y-67542679D01*
X117760880Y-67643220D01*
X117931773Y-67746938D01*
X118100703Y-67853724D01*
X118267587Y-67963520D01*
X118432524Y-68076392D01*
X118595383Y-68192252D01*
X118756073Y-68311034D01*
X118914576Y-68432725D01*
X119070881Y-68557320D01*
X119224792Y-68684657D01*
X119376461Y-68814865D01*
X119525667Y-68947755D01*
X119672485Y-69083391D01*
X119816713Y-69221585D01*
X119958508Y-69362494D01*
X120097656Y-69505898D01*
X120234192Y-69651840D01*
X120367978Y-69800165D01*
X120499154Y-69951033D01*
X120627526Y-70104223D01*
X120752966Y-70259576D01*
X120875748Y-70417435D01*
X120995501Y-70577323D01*
X121112389Y-70739457D01*
X121226252Y-70903619D01*
X121337180Y-71069937D01*
X121444989Y-71238135D01*
X121549787Y-71408385D01*
X121651372Y-71580353D01*
X121749862Y-71754237D01*
X121845202Y-71929944D01*
X121937270Y-72107253D01*
X122020001Y-72273931D01*
X122020001Y-73412468D01*
X121906851Y-73459336D01*
X121677552Y-73612549D01*
X121482549Y-73807552D01*
X121329336Y-74036851D01*
X121223801Y-74291635D01*
X121170000Y-74562112D01*
X121170000Y-74837888D01*
X121223801Y-75108365D01*
X121329336Y-75363149D01*
X121482549Y-75592448D01*
X121677552Y-75787451D01*
X121906851Y-75940664D01*
X122020000Y-75987532D01*
X122020001Y-76512468D01*
X121906851Y-76559336D01*
X121677552Y-76712549D01*
X121482549Y-76907552D01*
X121329336Y-77136851D01*
X121223801Y-77391635D01*
X121170000Y-77662112D01*
X121170000Y-77937888D01*
X121223801Y-78208365D01*
X121329336Y-78463149D01*
X121482549Y-78692448D01*
X121677552Y-78887451D01*
X121906851Y-79040664D01*
X122161635Y-79146199D01*
X122432112Y-79200000D01*
X122707888Y-79200000D01*
X122978365Y-79146199D01*
X123233149Y-79040664D01*
X123462448Y-78887451D01*
X123657451Y-78692448D01*
X123810664Y-78463149D01*
X123832241Y-78411057D01*
X123781328Y-78916677D01*
X123600396Y-79750000D01*
X120500000Y-79750000D01*
X120493746Y-79750393D01*
X120484189Y-79752566D01*
X120475238Y-79756562D01*
X120467240Y-79762227D01*
X120460500Y-79769344D01*
X120455279Y-79777639D01*
X119757959Y-81172279D01*
X118663948Y-82465201D01*
X117570192Y-83459525D01*
X115878669Y-84454538D01*
X114636807Y-84901608D01*
X112816669Y-85245959D01*
X111250000Y-83679290D01*
X111250000Y-77500000D01*
X111249039Y-77490245D01*
X111246194Y-77480866D01*
X111241573Y-77472221D01*
X111235355Y-77464645D01*
X111227779Y-77458427D01*
X111219134Y-77453806D01*
X111209755Y-77450961D01*
X111200000Y-77450000D01*
X107500000Y-77450000D01*
X107490245Y-77450961D01*
X107480866Y-77453806D01*
X107472221Y-77458427D01*
X107464645Y-77464645D01*
X107458427Y-77472221D01*
X107453806Y-77480866D01*
X107450961Y-77490245D01*
X107450000Y-77500000D01*
X107450000Y-83737810D01*
X107374983Y-83662793D01*
X107252914Y-83581229D01*
X107117278Y-83525047D01*
X106973288Y-83496405D01*
X106826476Y-83496405D01*
X106682486Y-83525047D01*
X106546850Y-83581229D01*
X106424781Y-83662793D01*
X106320970Y-83766604D01*
X106239406Y-83888673D01*
X106183224Y-84024309D01*
X106154582Y-84168299D01*
X106154582Y-84315111D01*
X106183224Y-84459101D01*
X106239406Y-84594737D01*
X106320970Y-84716806D01*
X106424781Y-84820617D01*
X106546850Y-84902181D01*
X106682486Y-84958363D01*
X106826476Y-84987005D01*
X106973288Y-84987005D01*
X107117278Y-84958363D01*
X107252914Y-84902181D01*
X107374983Y-84820617D01*
X107450000Y-84745600D01*
X107450000Y-87860944D01*
X106356219Y-87321551D01*
X105233542Y-86599421D01*
X104199829Y-85754842D01*
X103644031Y-85184299D01*
X104394818Y-85184299D01*
X104394818Y-85331111D01*
X104423460Y-85475101D01*
X104479642Y-85610737D01*
X104561206Y-85732806D01*
X104665017Y-85836617D01*
X104787086Y-85918181D01*
X104922722Y-85974363D01*
X105066712Y-86003005D01*
X105213524Y-86003005D01*
X105357514Y-85974363D01*
X105493150Y-85918181D01*
X105615219Y-85836617D01*
X105719030Y-85732806D01*
X105800594Y-85610737D01*
X105856776Y-85475101D01*
X105885418Y-85331111D01*
X105885418Y-85184299D01*
X105856776Y-85040309D01*
X105800594Y-84904673D01*
X105719030Y-84782604D01*
X105615219Y-84678793D01*
X105493150Y-84597229D01*
X105357514Y-84541047D01*
X105213524Y-84512405D01*
X105066712Y-84512405D01*
X104922722Y-84541047D01*
X104787086Y-84597229D01*
X104665017Y-84678793D01*
X104561206Y-84782604D01*
X104479642Y-84904673D01*
X104423460Y-85040309D01*
X104394818Y-85184299D01*
X103644031Y-85184299D01*
X103268370Y-84798673D01*
X102451140Y-83743205D01*
X101758645Y-82602010D01*
X101199789Y-81389757D01*
X100832821Y-80276889D01*
X102734700Y-80276889D01*
X102734700Y-80423701D01*
X102763342Y-80567691D01*
X102819524Y-80703327D01*
X102901088Y-80825396D01*
X103004899Y-80929207D01*
X103126968Y-81010771D01*
X103262604Y-81066953D01*
X103406594Y-81095595D01*
X103553406Y-81095595D01*
X103697396Y-81066953D01*
X103833032Y-81010771D01*
X103955101Y-80929207D01*
X104058912Y-80825396D01*
X104140476Y-80703327D01*
X104196658Y-80567691D01*
X104225300Y-80423701D01*
X104225300Y-80276889D01*
X104196658Y-80132899D01*
X104140476Y-79997263D01*
X104058912Y-79875194D01*
X103955101Y-79771383D01*
X103833032Y-79689819D01*
X103697396Y-79633637D01*
X103553406Y-79604995D01*
X103406594Y-79604995D01*
X103262604Y-79633637D01*
X103126968Y-79689819D01*
X103004899Y-79771383D01*
X102901088Y-79875194D01*
X102819524Y-79997263D01*
X102763342Y-80132899D01*
X102734700Y-80276889D01*
X100832821Y-80276889D01*
X100781757Y-80122033D01*
X100509921Y-78815135D01*
X100462823Y-78302574D01*
X100529336Y-78463149D01*
X100682549Y-78692448D01*
X100877552Y-78887451D01*
X101106851Y-79040664D01*
X101361635Y-79146199D01*
X101632112Y-79200000D01*
X101907888Y-79200000D01*
X102178365Y-79146199D01*
X102433149Y-79040664D01*
X102662448Y-78887451D01*
X102857451Y-78692448D01*
X103010664Y-78463149D01*
X103116199Y-78208365D01*
X103170000Y-77937888D01*
X103170000Y-77662112D01*
X103116199Y-77391635D01*
X103010664Y-77136851D01*
X102857451Y-76907552D01*
X102662448Y-76712549D01*
X102433149Y-76559336D01*
X102320000Y-76512468D01*
X102320000Y-75987532D01*
X102433149Y-75940664D01*
X102662448Y-75787451D01*
X102857451Y-75592448D01*
X103010664Y-75363149D01*
X103116199Y-75108365D01*
X103170000Y-74837888D01*
X103170000Y-74562112D01*
X103116199Y-74291635D01*
X103010664Y-74036851D01*
X102857451Y-73807552D01*
X102662448Y-73612549D01*
X102433149Y-73459336D01*
X102320000Y-73412468D01*
X102320000Y-72207206D01*
X102361003Y-72124236D01*
X102452786Y-71946725D01*
X102547796Y-71770896D01*
X102645953Y-71596899D01*
X102747295Y-71424662D01*
X102851788Y-71254247D01*
X102959319Y-71085838D01*
X103069898Y-70919420D01*
X103183516Y-70755004D01*
X103276896Y-70625000D01*
X111025000Y-70625000D01*
X111034755Y-70624039D01*
X111044134Y-70621194D01*
X111052779Y-70616573D01*
X111060355Y-70610355D01*
X111066573Y-70602779D01*
X111071194Y-70594134D01*
X111074039Y-70584755D01*
X111075000Y-70575000D01*
X111075000Y-66155568D01*
X111245715Y-66139830D01*
X111445048Y-66125110D01*
X111644524Y-66114029D01*
X111844253Y-66106578D01*
X112044045Y-66102766D01*
X112243808Y-66102593D01*
X112443634Y-66106060D01*
X112443634Y-66106060D01*
G37*
X112443634Y-66106060D02*
X112585370Y-66111101D01*
X112585376Y-66111102D01*
X112620962Y-66112367D01*
X112639369Y-66113022D01*
X112639372Y-66113022D01*
X112643283Y-66113161D01*
X112842920Y-66123905D01*
X113042177Y-66138272D01*
X113241205Y-66156271D01*
X113439864Y-66177892D01*
X113638156Y-66203134D01*
X113835888Y-66231973D01*
X114032993Y-66264397D01*
X114229604Y-66300428D01*
X114425505Y-66340030D01*
X114620600Y-66383181D01*
X114814912Y-66429887D01*
X115008341Y-66480123D01*
X115200842Y-66533880D01*
X115392299Y-66591123D01*
X115582600Y-66651818D01*
X115771932Y-66716025D01*
X115959905Y-66783612D01*
X116146708Y-66854644D01*
X116332237Y-66929089D01*
X116426040Y-66968726D01*
X116475748Y-67009521D01*
X116571296Y-67060592D01*
X116674971Y-67092042D01*
X116716369Y-67096119D01*
X116880079Y-67172438D01*
X117059557Y-67260120D01*
X117237472Y-67351087D01*
X117413745Y-67445303D01*
X117588211Y-67542679D01*
X117760880Y-67643220D01*
X117931773Y-67746938D01*
X118100703Y-67853724D01*
X118267587Y-67963520D01*
X118432524Y-68076392D01*
X118595383Y-68192252D01*
X118756073Y-68311034D01*
X118914576Y-68432725D01*
X119070881Y-68557320D01*
X119224792Y-68684657D01*
X119376461Y-68814865D01*
X119525667Y-68947755D01*
X119672485Y-69083391D01*
X119816713Y-69221585D01*
X119958508Y-69362494D01*
X120097656Y-69505898D01*
X120234192Y-69651840D01*
X120367978Y-69800165D01*
X120499154Y-69951033D01*
X120627526Y-70104223D01*
X120752966Y-70259576D01*
X120875748Y-70417435D01*
X120995501Y-70577323D01*
X121112389Y-70739457D01*
X121226252Y-70903619D01*
X121337180Y-71069937D01*
X121444989Y-71238135D01*
X121549787Y-71408385D01*
X121651372Y-71580353D01*
X121749862Y-71754237D01*
X121845202Y-71929944D01*
X121937270Y-72107253D01*
X122020001Y-72273931D01*
X122020001Y-73412468D01*
X121906851Y-73459336D01*
X121677552Y-73612549D01*
X121482549Y-73807552D01*
X121329336Y-74036851D01*
X121223801Y-74291635D01*
X121170000Y-74562112D01*
X121170000Y-74837888D01*
X121223801Y-75108365D01*
X121329336Y-75363149D01*
X121482549Y-75592448D01*
X121677552Y-75787451D01*
X121906851Y-75940664D01*
X122020000Y-75987532D01*
X122020001Y-76512468D01*
X121906851Y-76559336D01*
X121677552Y-76712549D01*
X121482549Y-76907552D01*
X121329336Y-77136851D01*
X121223801Y-77391635D01*
X121170000Y-77662112D01*
X121170000Y-77937888D01*
X121223801Y-78208365D01*
X121329336Y-78463149D01*
X121482549Y-78692448D01*
X121677552Y-78887451D01*
X121906851Y-79040664D01*
X122161635Y-79146199D01*
X122432112Y-79200000D01*
X122707888Y-79200000D01*
X122978365Y-79146199D01*
X123233149Y-79040664D01*
X123462448Y-78887451D01*
X123657451Y-78692448D01*
X123810664Y-78463149D01*
X123832241Y-78411057D01*
X123781328Y-78916677D01*
X123600396Y-79750000D01*
X120500000Y-79750000D01*
X120493746Y-79750393D01*
X120484189Y-79752566D01*
X120475238Y-79756562D01*
X120467240Y-79762227D01*
X120460500Y-79769344D01*
X120455279Y-79777639D01*
X119757959Y-81172279D01*
X118663948Y-82465201D01*
X117570192Y-83459525D01*
X115878669Y-84454538D01*
X114636807Y-84901608D01*
X112816669Y-85245959D01*
X111250000Y-83679290D01*
X111250000Y-77500000D01*
X111249039Y-77490245D01*
X111246194Y-77480866D01*
X111241573Y-77472221D01*
X111235355Y-77464645D01*
X111227779Y-77458427D01*
X111219134Y-77453806D01*
X111209755Y-77450961D01*
X111200000Y-77450000D01*
X107500000Y-77450000D01*
X107490245Y-77450961D01*
X107480866Y-77453806D01*
X107472221Y-77458427D01*
X107464645Y-77464645D01*
X107458427Y-77472221D01*
X107453806Y-77480866D01*
X107450961Y-77490245D01*
X107450000Y-77500000D01*
X107450000Y-83737810D01*
X107374983Y-83662793D01*
X107252914Y-83581229D01*
X107117278Y-83525047D01*
X106973288Y-83496405D01*
X106826476Y-83496405D01*
X106682486Y-83525047D01*
X106546850Y-83581229D01*
X106424781Y-83662793D01*
X106320970Y-83766604D01*
X106239406Y-83888673D01*
X106183224Y-84024309D01*
X106154582Y-84168299D01*
X106154582Y-84315111D01*
X106183224Y-84459101D01*
X106239406Y-84594737D01*
X106320970Y-84716806D01*
X106424781Y-84820617D01*
X106546850Y-84902181D01*
X106682486Y-84958363D01*
X106826476Y-84987005D01*
X106973288Y-84987005D01*
X107117278Y-84958363D01*
X107252914Y-84902181D01*
X107374983Y-84820617D01*
X107450000Y-84745600D01*
X107450000Y-87860944D01*
X106356219Y-87321551D01*
X105233542Y-86599421D01*
X104199829Y-85754842D01*
X103644031Y-85184299D01*
X104394818Y-85184299D01*
X104394818Y-85331111D01*
X104423460Y-85475101D01*
X104479642Y-85610737D01*
X104561206Y-85732806D01*
X104665017Y-85836617D01*
X104787086Y-85918181D01*
X104922722Y-85974363D01*
X105066712Y-86003005D01*
X105213524Y-86003005D01*
X105357514Y-85974363D01*
X105493150Y-85918181D01*
X105615219Y-85836617D01*
X105719030Y-85732806D01*
X105800594Y-85610737D01*
X105856776Y-85475101D01*
X105885418Y-85331111D01*
X105885418Y-85184299D01*
X105856776Y-85040309D01*
X105800594Y-84904673D01*
X105719030Y-84782604D01*
X105615219Y-84678793D01*
X105493150Y-84597229D01*
X105357514Y-84541047D01*
X105213524Y-84512405D01*
X105066712Y-84512405D01*
X104922722Y-84541047D01*
X104787086Y-84597229D01*
X104665017Y-84678793D01*
X104561206Y-84782604D01*
X104479642Y-84904673D01*
X104423460Y-85040309D01*
X104394818Y-85184299D01*
X103644031Y-85184299D01*
X103268370Y-84798673D01*
X102451140Y-83743205D01*
X101758645Y-82602010D01*
X101199789Y-81389757D01*
X100832821Y-80276889D01*
X102734700Y-80276889D01*
X102734700Y-80423701D01*
X102763342Y-80567691D01*
X102819524Y-80703327D01*
X102901088Y-80825396D01*
X103004899Y-80929207D01*
X103126968Y-81010771D01*
X103262604Y-81066953D01*
X103406594Y-81095595D01*
X103553406Y-81095595D01*
X103697396Y-81066953D01*
X103833032Y-81010771D01*
X103955101Y-80929207D01*
X104058912Y-80825396D01*
X104140476Y-80703327D01*
X104196658Y-80567691D01*
X104225300Y-80423701D01*
X104225300Y-80276889D01*
X104196658Y-80132899D01*
X104140476Y-79997263D01*
X104058912Y-79875194D01*
X103955101Y-79771383D01*
X103833032Y-79689819D01*
X103697396Y-79633637D01*
X103553406Y-79604995D01*
X103406594Y-79604995D01*
X103262604Y-79633637D01*
X103126968Y-79689819D01*
X103004899Y-79771383D01*
X102901088Y-79875194D01*
X102819524Y-79997263D01*
X102763342Y-80132899D01*
X102734700Y-80276889D01*
X100832821Y-80276889D01*
X100781757Y-80122033D01*
X100509921Y-78815135D01*
X100462823Y-78302574D01*
X100529336Y-78463149D01*
X100682549Y-78692448D01*
X100877552Y-78887451D01*
X101106851Y-79040664D01*
X101361635Y-79146199D01*
X101632112Y-79200000D01*
X101907888Y-79200000D01*
X102178365Y-79146199D01*
X102433149Y-79040664D01*
X102662448Y-78887451D01*
X102857451Y-78692448D01*
X103010664Y-78463149D01*
X103116199Y-78208365D01*
X103170000Y-77937888D01*
X103170000Y-77662112D01*
X103116199Y-77391635D01*
X103010664Y-77136851D01*
X102857451Y-76907552D01*
X102662448Y-76712549D01*
X102433149Y-76559336D01*
X102320000Y-76512468D01*
X102320000Y-75987532D01*
X102433149Y-75940664D01*
X102662448Y-75787451D01*
X102857451Y-75592448D01*
X103010664Y-75363149D01*
X103116199Y-75108365D01*
X103170000Y-74837888D01*
X103170000Y-74562112D01*
X103116199Y-74291635D01*
X103010664Y-74036851D01*
X102857451Y-73807552D01*
X102662448Y-73612549D01*
X102433149Y-73459336D01*
X102320000Y-73412468D01*
X102320000Y-72207206D01*
X102361003Y-72124236D01*
X102452786Y-71946725D01*
X102547796Y-71770896D01*
X102645953Y-71596899D01*
X102747295Y-71424662D01*
X102851788Y-71254247D01*
X102959319Y-71085838D01*
X103069898Y-70919420D01*
X103183516Y-70755004D01*
X103276896Y-70625000D01*
X111025000Y-70625000D01*
X111034755Y-70624039D01*
X111044134Y-70621194D01*
X111052779Y-70616573D01*
X111060355Y-70610355D01*
X111066573Y-70602779D01*
X111071194Y-70594134D01*
X111074039Y-70584755D01*
X111075000Y-70575000D01*
X111075000Y-66155568D01*
X111245715Y-66139830D01*
X111445048Y-66125110D01*
X111644524Y-66114029D01*
X111844253Y-66106578D01*
X112044045Y-66102766D01*
X112243808Y-66102593D01*
X112443634Y-66106060D01*
M02*
