G04 #@! TF.GenerationSoftware,KiCad,Pcbnew,5.1.0-unknown-567bdd9~82~ubuntu18.10.1*
G04 #@! TF.CreationDate,2019-04-01T09:59:20+02:00*
G04 #@! TF.ProjectId,weather,77656174-6865-4722-9e6b-696361645f70,1.2*
G04 #@! TF.SameCoordinates,Original*
G04 #@! TF.FileFunction,Legend,Top*
G04 #@! TF.FilePolarity,Positive*
%FSLAX46Y46*%
G04 Gerber Fmt 4.6, Leading zero omitted, Abs format (unit mm)*
G04 Created by KiCad (PCBNEW 5.1.0-unknown-567bdd9~82~ubuntu18.10.1) date 2019-04-01 09:59:20*
%MOMM*%
%LPD*%
G04 APERTURE LIST*
%ADD10C,0.100000*%
%ADD11C,0.120000*%
%ADD12C,0.150000*%
G04 APERTURE END LIST*
D10*
X103288095Y-78552380D02*
X103288095Y-77885714D01*
X103288095Y-78076190D02*
X103335714Y-77980952D01*
X103383333Y-77933333D01*
X103478571Y-77885714D01*
X103573809Y-77885714D01*
X104430952Y-78552380D02*
X103859523Y-78552380D01*
X104145238Y-78552380D02*
X104145238Y-77552380D01*
X104050000Y-77695238D01*
X103954761Y-77790476D01*
X103859523Y-77838095D01*
X104859523Y-78457142D02*
X104907142Y-78504761D01*
X104859523Y-78552380D01*
X104811904Y-78504761D01*
X104859523Y-78457142D01*
X104859523Y-78552380D01*
X105288095Y-77647619D02*
X105335714Y-77600000D01*
X105430952Y-77552380D01*
X105669047Y-77552380D01*
X105764285Y-77600000D01*
X105811904Y-77647619D01*
X105859523Y-77742857D01*
X105859523Y-77838095D01*
X105811904Y-77980952D01*
X105240476Y-78552380D01*
X105859523Y-78552380D01*
X103445238Y-84007142D02*
X104054761Y-84007142D01*
X103750000Y-84311904D02*
X103750000Y-83702380D01*
X106695238Y-83157142D02*
X107304761Y-83157142D01*
X102140476Y-82461904D02*
X102597619Y-82461904D01*
X102369047Y-83261904D02*
X102369047Y-82461904D01*
X102788095Y-82461904D02*
X103321428Y-83261904D01*
X103321428Y-82461904D02*
X102788095Y-83261904D01*
X101866666Y-82061904D02*
X101600000Y-81680952D01*
X101409523Y-82061904D02*
X101409523Y-81261904D01*
X101714285Y-81261904D01*
X101790476Y-81300000D01*
X101828571Y-81338095D01*
X101866666Y-81414285D01*
X101866666Y-81528571D01*
X101828571Y-81604761D01*
X101790476Y-81642857D01*
X101714285Y-81680952D01*
X101409523Y-81680952D01*
X102133333Y-81261904D02*
X102666666Y-82061904D01*
X102666666Y-81261904D02*
X102133333Y-82061904D01*
X105955952Y-82236904D02*
X105955952Y-81436904D01*
X106489285Y-81436904D02*
X106641666Y-81436904D01*
X106717857Y-81475000D01*
X106794047Y-81551190D01*
X106832142Y-81703571D01*
X106832142Y-81970238D01*
X106794047Y-82122619D01*
X106717857Y-82198809D01*
X106641666Y-82236904D01*
X106489285Y-82236904D01*
X106413095Y-82198809D01*
X106336904Y-82122619D01*
X106298809Y-81970238D01*
X106298809Y-81703571D01*
X106336904Y-81551190D01*
X106413095Y-81475000D01*
X106489285Y-81436904D01*
X105623809Y-80860714D02*
X105585714Y-80898809D01*
X105471428Y-80936904D01*
X105395238Y-80936904D01*
X105280952Y-80898809D01*
X105204761Y-80822619D01*
X105166666Y-80746428D01*
X105128571Y-80594047D01*
X105128571Y-80479761D01*
X105166666Y-80327380D01*
X105204761Y-80251190D01*
X105280952Y-80175000D01*
X105395238Y-80136904D01*
X105471428Y-80136904D01*
X105585714Y-80175000D01*
X105623809Y-80213095D01*
X106347619Y-80936904D02*
X105966666Y-80936904D01*
X105966666Y-80136904D01*
X106614285Y-80936904D02*
X106614285Y-80136904D01*
X107071428Y-80936904D02*
X106728571Y-80479761D01*
X107071428Y-80136904D02*
X106614285Y-80594047D01*
X114489683Y-85933138D02*
X115289146Y-86838278D01*
X115072510Y-85943590D01*
X115663615Y-86576071D01*
X115332240Y-85343174D01*
X116619673Y-85836874D02*
X116552980Y-85953331D01*
X116365745Y-86084435D01*
X116245203Y-86099080D01*
X116144545Y-86030045D01*
X115929148Y-85622800D01*
X115922107Y-85488212D01*
X115988800Y-85371755D01*
X116176034Y-85240652D01*
X116296576Y-85226006D01*
X116397234Y-85295042D01*
X116451084Y-85396853D01*
X116036846Y-85826422D01*
X117535963Y-85265040D02*
X117239791Y-84705077D01*
X117139133Y-84636042D01*
X117018591Y-84650688D01*
X116831356Y-84781791D01*
X116764663Y-84898248D01*
X117509038Y-85214134D02*
X117442345Y-85330591D01*
X117208302Y-85494470D01*
X117087760Y-85509116D01*
X116987102Y-85440081D01*
X116933252Y-85338269D01*
X116926211Y-85203682D01*
X116992904Y-85087225D01*
X117226948Y-84923346D01*
X117293640Y-84806889D01*
X117486678Y-84322930D02*
X117861147Y-84060723D01*
X117438631Y-83868263D02*
X117923275Y-84784565D01*
X118023934Y-84853600D01*
X118144476Y-84838954D01*
X118238093Y-84773403D01*
X118565754Y-84543972D02*
X118000335Y-83474953D01*
X118987032Y-84248990D02*
X118690860Y-83689028D01*
X118590202Y-83619992D01*
X118469660Y-83634638D01*
X118329234Y-83732965D01*
X118262541Y-83849423D01*
X118242657Y-83933104D01*
X119802664Y-83608120D02*
X119735971Y-83724577D01*
X119548736Y-83855680D01*
X119428194Y-83870326D01*
X119327536Y-83801291D01*
X119112138Y-83394045D01*
X119105098Y-83259458D01*
X119171790Y-83143001D01*
X119359025Y-83011898D01*
X119479567Y-82997252D01*
X119580225Y-83066287D01*
X119634075Y-83168099D01*
X119219837Y-83597668D01*
X120297675Y-83331268D02*
X119920729Y-82618588D01*
X120028428Y-82822211D02*
X120021387Y-82687624D01*
X120041271Y-82603942D01*
X120107964Y-82487485D01*
X120201581Y-82421934D01*
X123320238Y-76282142D02*
X123929761Y-76282142D01*
X123625000Y-76586904D02*
X123625000Y-75977380D01*
X100395238Y-76232142D02*
X101004761Y-76232142D01*
X100700000Y-76536904D02*
X100700000Y-75927380D01*
D11*
X107240000Y-70100000D02*
X107240000Y-67100000D01*
X110460000Y-68600000D02*
X110460000Y-67100000D01*
X121725000Y-76275000D02*
G75*
G03X121725000Y-76275000I-1200000J0D01*
G01*
X112512779Y-66090000D02*
X112187221Y-66090000D01*
X112512779Y-67110000D02*
X112187221Y-67110000D01*
X111015000Y-67515000D02*
X111015000Y-69800000D01*
X112485000Y-67515000D02*
X111015000Y-67515000D01*
X112485000Y-69800000D02*
X112485000Y-67515000D01*
X103015148Y-82085148D02*
X102697648Y-81535222D01*
X102697648Y-81535222D02*
X103247574Y-81217722D01*
X115837221Y-73410000D02*
X116162779Y-73410000D01*
X115837221Y-72390000D02*
X116162779Y-72390000D01*
X105660000Y-74837221D02*
X105660000Y-75162779D01*
X104640000Y-74837221D02*
X104640000Y-75162779D01*
X116425000Y-68425000D02*
X115075000Y-68425000D01*
X116425000Y-70175000D02*
X115075000Y-70175000D01*
X113300000Y-79450000D02*
X113300000Y-82750000D01*
X113300000Y-82750000D02*
X117300000Y-82750000D01*
X117562779Y-70890000D02*
X117237221Y-70890000D01*
X117562779Y-71910000D02*
X117237221Y-71910000D01*
X115762779Y-67660000D02*
X115437221Y-67660000D01*
X115762779Y-66640000D02*
X115437221Y-66640000D01*
X104085000Y-72012779D02*
X104085000Y-71687221D01*
X103065000Y-72012779D02*
X103065000Y-71687221D01*
X104565000Y-72012779D02*
X104565000Y-71687221D01*
X105585000Y-72012779D02*
X105585000Y-71687221D01*
X115037221Y-84210000D02*
X115362779Y-84210000D01*
X115037221Y-83190000D02*
X115362779Y-83190000D01*
X115362779Y-79110000D02*
X115037221Y-79110000D01*
X115362779Y-78090000D02*
X115037221Y-78090000D01*
X114890000Y-75762779D02*
X114890000Y-75437221D01*
X115910000Y-75762779D02*
X115910000Y-75437221D01*
X113190000Y-74237221D02*
X113190000Y-74562779D01*
X114210000Y-74237221D02*
X114210000Y-74562779D01*
X112810000Y-79637221D02*
X112810000Y-79962779D01*
X111790000Y-79637221D02*
X111790000Y-79962779D01*
X114137221Y-71910000D02*
X114462779Y-71910000D01*
X114137221Y-70890000D02*
X114462779Y-70890000D01*
X109437221Y-78490000D02*
X109762779Y-78490000D01*
X109437221Y-79510000D02*
X109762779Y-79510000D01*
X108370000Y-81662779D02*
X108370000Y-81337221D01*
X109390000Y-81662779D02*
X109390000Y-81337221D01*
D12*
X112250000Y-77125000D02*
X111725000Y-77125000D01*
X107000000Y-71875000D02*
X107525000Y-71875000D01*
X107000000Y-77125000D02*
X107525000Y-77125000D01*
X112250000Y-71875000D02*
X112250000Y-72400000D01*
X107000000Y-71875000D02*
X107000000Y-72400000D01*
X107000000Y-77125000D02*
X107000000Y-76600000D01*
X112250000Y-77125000D02*
X112250000Y-76600000D01*
D10*
X105690476Y-68011904D02*
X105690476Y-68659523D01*
X105728571Y-68735714D01*
X105766666Y-68773809D01*
X105842857Y-68811904D01*
X105995238Y-68811904D01*
X106071428Y-68773809D01*
X106109523Y-68735714D01*
X106147619Y-68659523D01*
X106147619Y-68011904D01*
X106490476Y-68088095D02*
X106528571Y-68050000D01*
X106604761Y-68011904D01*
X106795238Y-68011904D01*
X106871428Y-68050000D01*
X106909523Y-68088095D01*
X106947619Y-68164285D01*
X106947619Y-68240476D01*
X106909523Y-68354761D01*
X106452380Y-68811904D01*
X106947619Y-68811904D01*
X118245238Y-76257142D02*
X118854761Y-76257142D01*
X110241666Y-66961904D02*
X109975000Y-66580952D01*
X109784523Y-66961904D02*
X109784523Y-66161904D01*
X110089285Y-66161904D01*
X110165476Y-66200000D01*
X110203571Y-66238095D01*
X110241666Y-66314285D01*
X110241666Y-66428571D01*
X110203571Y-66504761D01*
X110165476Y-66542857D01*
X110089285Y-66580952D01*
X109784523Y-66580952D01*
X110508333Y-66161904D02*
X111003571Y-66161904D01*
X110736904Y-66466666D01*
X110851190Y-66466666D01*
X110927380Y-66504761D01*
X110965476Y-66542857D01*
X111003571Y-66619047D01*
X111003571Y-66809523D01*
X110965476Y-66885714D01*
X110927380Y-66923809D01*
X110851190Y-66961904D01*
X110622619Y-66961904D01*
X110546428Y-66923809D01*
X110508333Y-66885714D01*
X113461904Y-69490476D02*
X112661904Y-69490476D01*
X112661904Y-69300000D01*
X112700000Y-69185714D01*
X112776190Y-69109523D01*
X112852380Y-69071428D01*
X113004761Y-69033333D01*
X113119047Y-69033333D01*
X113271428Y-69071428D01*
X113347619Y-69109523D01*
X113423809Y-69185714D01*
X113461904Y-69300000D01*
X113461904Y-69490476D01*
X113461904Y-68271428D02*
X113461904Y-68728571D01*
X113461904Y-68500000D02*
X112661904Y-68500000D01*
X112776190Y-68576190D01*
X112852380Y-68652380D01*
X112890476Y-68728571D01*
X106271068Y-84300012D02*
X105776196Y-84585726D01*
X105658174Y-84609877D01*
X105554096Y-84581990D01*
X105463962Y-84502063D01*
X105425866Y-84436080D01*
X105978247Y-85392832D02*
X105749676Y-84996935D01*
X105863962Y-85194883D02*
X106556782Y-84794883D01*
X106419712Y-84786043D01*
X106315634Y-84758156D01*
X106244548Y-84711220D01*
X118085714Y-73185714D02*
X118047619Y-73223809D01*
X117933333Y-73261904D01*
X117857142Y-73261904D01*
X117742857Y-73223809D01*
X117666666Y-73147619D01*
X117628571Y-73071428D01*
X117590476Y-72919047D01*
X117590476Y-72804761D01*
X117628571Y-72652380D01*
X117666666Y-72576190D01*
X117742857Y-72500000D01*
X117857142Y-72461904D01*
X117933333Y-72461904D01*
X118047619Y-72500000D01*
X118085714Y-72538095D01*
X118847619Y-73261904D02*
X118390476Y-73261904D01*
X118619047Y-73261904D02*
X118619047Y-72461904D01*
X118542857Y-72576190D01*
X118466666Y-72652380D01*
X118390476Y-72690476D01*
X119342857Y-72461904D02*
X119419047Y-72461904D01*
X119495238Y-72500000D01*
X119533333Y-72538095D01*
X119571428Y-72614285D01*
X119609523Y-72766666D01*
X119609523Y-72957142D01*
X119571428Y-73109523D01*
X119533333Y-73185714D01*
X119495238Y-73223809D01*
X119419047Y-73261904D01*
X119342857Y-73261904D01*
X119266666Y-73223809D01*
X119228571Y-73185714D01*
X119190476Y-73109523D01*
X119152380Y-72957142D01*
X119152380Y-72766666D01*
X119190476Y-72614285D01*
X119228571Y-72538095D01*
X119266666Y-72500000D01*
X119342857Y-72461904D01*
X104310714Y-75614285D02*
X104348809Y-75652380D01*
X104386904Y-75766666D01*
X104386904Y-75842857D01*
X104348809Y-75957142D01*
X104272619Y-76033333D01*
X104196428Y-76071428D01*
X104044047Y-76109523D01*
X103929761Y-76109523D01*
X103777380Y-76071428D01*
X103701190Y-76033333D01*
X103625000Y-75957142D01*
X103586904Y-75842857D01*
X103586904Y-75766666D01*
X103625000Y-75652380D01*
X103663095Y-75614285D01*
X104386904Y-74852380D02*
X104386904Y-75309523D01*
X104386904Y-75080952D02*
X103586904Y-75080952D01*
X103701190Y-75157142D01*
X103777380Y-75233333D01*
X103815476Y-75309523D01*
X104386904Y-74090476D02*
X104386904Y-74547619D01*
X104386904Y-74319047D02*
X103586904Y-74319047D01*
X103701190Y-74395238D01*
X103777380Y-74471428D01*
X103815476Y-74547619D01*
X117969047Y-69380952D02*
X117969047Y-69761904D01*
X117702380Y-68961904D02*
X117969047Y-69380952D01*
X118235714Y-68961904D01*
X118464285Y-69038095D02*
X118502380Y-69000000D01*
X118578571Y-68961904D01*
X118769047Y-68961904D01*
X118845238Y-69000000D01*
X118883333Y-69038095D01*
X118921428Y-69114285D01*
X118921428Y-69190476D01*
X118883333Y-69304761D01*
X118426190Y-69761904D01*
X118921428Y-69761904D01*
X117719047Y-81080952D02*
X117719047Y-81461904D01*
X117452380Y-80661904D02*
X117719047Y-81080952D01*
X117985714Y-80661904D01*
X118671428Y-81461904D02*
X118214285Y-81461904D01*
X118442857Y-81461904D02*
X118442857Y-80661904D01*
X118366666Y-80776190D01*
X118290476Y-80852380D01*
X118214285Y-80890476D01*
X119466666Y-71685714D02*
X119428571Y-71723809D01*
X119314285Y-71761904D01*
X119238095Y-71761904D01*
X119123809Y-71723809D01*
X119047619Y-71647619D01*
X119009523Y-71571428D01*
X118971428Y-71419047D01*
X118971428Y-71304761D01*
X119009523Y-71152380D01*
X119047619Y-71076190D01*
X119123809Y-71000000D01*
X119238095Y-70961904D01*
X119314285Y-70961904D01*
X119428571Y-71000000D01*
X119466666Y-71038095D01*
X119923809Y-71304761D02*
X119847619Y-71266666D01*
X119809523Y-71228571D01*
X119771428Y-71152380D01*
X119771428Y-71114285D01*
X119809523Y-71038095D01*
X119847619Y-71000000D01*
X119923809Y-70961904D01*
X120076190Y-70961904D01*
X120152380Y-71000000D01*
X120190476Y-71038095D01*
X120228571Y-71114285D01*
X120228571Y-71152380D01*
X120190476Y-71228571D01*
X120152380Y-71266666D01*
X120076190Y-71304761D01*
X119923809Y-71304761D01*
X119847619Y-71342857D01*
X119809523Y-71380952D01*
X119771428Y-71457142D01*
X119771428Y-71609523D01*
X119809523Y-71685714D01*
X119847619Y-71723809D01*
X119923809Y-71761904D01*
X120076190Y-71761904D01*
X120152380Y-71723809D01*
X120190476Y-71685714D01*
X120228571Y-71609523D01*
X120228571Y-71457142D01*
X120190476Y-71380952D01*
X120152380Y-71342857D01*
X120076190Y-71304761D01*
X117666666Y-67785714D02*
X117628571Y-67823809D01*
X117514285Y-67861904D01*
X117438095Y-67861904D01*
X117323809Y-67823809D01*
X117247619Y-67747619D01*
X117209523Y-67671428D01*
X117171428Y-67519047D01*
X117171428Y-67404761D01*
X117209523Y-67252380D01*
X117247619Y-67176190D01*
X117323809Y-67100000D01*
X117438095Y-67061904D01*
X117514285Y-67061904D01*
X117628571Y-67100000D01*
X117666666Y-67138095D01*
X118047619Y-67861904D02*
X118200000Y-67861904D01*
X118276190Y-67823809D01*
X118314285Y-67785714D01*
X118390476Y-67671428D01*
X118428571Y-67519047D01*
X118428571Y-67214285D01*
X118390476Y-67138095D01*
X118352380Y-67100000D01*
X118276190Y-67061904D01*
X118123809Y-67061904D01*
X118047619Y-67100000D01*
X118009523Y-67138095D01*
X117971428Y-67214285D01*
X117971428Y-67404761D01*
X118009523Y-67480952D01*
X118047619Y-67519047D01*
X118123809Y-67557142D01*
X118276190Y-67557142D01*
X118352380Y-67519047D01*
X118390476Y-67480952D01*
X118428571Y-67404761D01*
X103961904Y-69933333D02*
X103580952Y-70200000D01*
X103961904Y-70390476D02*
X103161904Y-70390476D01*
X103161904Y-70085714D01*
X103200000Y-70009523D01*
X103238095Y-69971428D01*
X103314285Y-69933333D01*
X103428571Y-69933333D01*
X103504761Y-69971428D01*
X103542857Y-70009523D01*
X103580952Y-70085714D01*
X103580952Y-70390476D01*
X103961904Y-69171428D02*
X103961904Y-69628571D01*
X103961904Y-69400000D02*
X103161904Y-69400000D01*
X103276190Y-69476190D01*
X103352380Y-69552380D01*
X103390476Y-69628571D01*
X105461904Y-69958333D02*
X105080952Y-70225000D01*
X105461904Y-70415476D02*
X104661904Y-70415476D01*
X104661904Y-70110714D01*
X104700000Y-70034523D01*
X104738095Y-69996428D01*
X104814285Y-69958333D01*
X104928571Y-69958333D01*
X105004761Y-69996428D01*
X105042857Y-70034523D01*
X105080952Y-70110714D01*
X105080952Y-70415476D01*
X104738095Y-69653571D02*
X104700000Y-69615476D01*
X104661904Y-69539285D01*
X104661904Y-69348809D01*
X104700000Y-69272619D01*
X104738095Y-69234523D01*
X104814285Y-69196428D01*
X104890476Y-69196428D01*
X105004761Y-69234523D01*
X105461904Y-69691666D01*
X105461904Y-69196428D01*
X112891666Y-84010714D02*
X112853571Y-84048809D01*
X112739285Y-84086904D01*
X112663095Y-84086904D01*
X112548809Y-84048809D01*
X112472619Y-83972619D01*
X112434523Y-83896428D01*
X112396428Y-83744047D01*
X112396428Y-83629761D01*
X112434523Y-83477380D01*
X112472619Y-83401190D01*
X112548809Y-83325000D01*
X112663095Y-83286904D01*
X112739285Y-83286904D01*
X112853571Y-83325000D01*
X112891666Y-83363095D01*
X113653571Y-84086904D02*
X113196428Y-84086904D01*
X113425000Y-84086904D02*
X113425000Y-83286904D01*
X113348809Y-83401190D01*
X113272619Y-83477380D01*
X113196428Y-83515476D01*
X117266666Y-78885714D02*
X117228571Y-78923809D01*
X117114285Y-78961904D01*
X117038095Y-78961904D01*
X116923809Y-78923809D01*
X116847619Y-78847619D01*
X116809523Y-78771428D01*
X116771428Y-78619047D01*
X116771428Y-78504761D01*
X116809523Y-78352380D01*
X116847619Y-78276190D01*
X116923809Y-78200000D01*
X117038095Y-78161904D01*
X117114285Y-78161904D01*
X117228571Y-78200000D01*
X117266666Y-78238095D01*
X117571428Y-78238095D02*
X117609523Y-78200000D01*
X117685714Y-78161904D01*
X117876190Y-78161904D01*
X117952380Y-78200000D01*
X117990476Y-78238095D01*
X118028571Y-78314285D01*
X118028571Y-78390476D01*
X117990476Y-78504761D01*
X117533333Y-78961904D01*
X118028571Y-78961904D01*
X116885714Y-75733333D02*
X116923809Y-75771428D01*
X116961904Y-75885714D01*
X116961904Y-75961904D01*
X116923809Y-76076190D01*
X116847619Y-76152380D01*
X116771428Y-76190476D01*
X116619047Y-76228571D01*
X116504761Y-76228571D01*
X116352380Y-76190476D01*
X116276190Y-76152380D01*
X116200000Y-76076190D01*
X116161904Y-75961904D01*
X116161904Y-75885714D01*
X116200000Y-75771428D01*
X116238095Y-75733333D01*
X116161904Y-75466666D02*
X116161904Y-74971428D01*
X116466666Y-75238095D01*
X116466666Y-75123809D01*
X116504761Y-75047619D01*
X116542857Y-75009523D01*
X116619047Y-74971428D01*
X116809523Y-74971428D01*
X116885714Y-75009523D01*
X116923809Y-75047619D01*
X116961904Y-75123809D01*
X116961904Y-75352380D01*
X116923809Y-75428571D01*
X116885714Y-75466666D01*
X113985714Y-76533333D02*
X114023809Y-76571428D01*
X114061904Y-76685714D01*
X114061904Y-76761904D01*
X114023809Y-76876190D01*
X113947619Y-76952380D01*
X113871428Y-76990476D01*
X113719047Y-77028571D01*
X113604761Y-77028571D01*
X113452380Y-76990476D01*
X113376190Y-76952380D01*
X113300000Y-76876190D01*
X113261904Y-76761904D01*
X113261904Y-76685714D01*
X113300000Y-76571428D01*
X113338095Y-76533333D01*
X113528571Y-75847619D02*
X114061904Y-75847619D01*
X113223809Y-76038095D02*
X113795238Y-76228571D01*
X113795238Y-75733333D01*
X112585714Y-82133333D02*
X112623809Y-82171428D01*
X112661904Y-82285714D01*
X112661904Y-82361904D01*
X112623809Y-82476190D01*
X112547619Y-82552380D01*
X112471428Y-82590476D01*
X112319047Y-82628571D01*
X112204761Y-82628571D01*
X112052380Y-82590476D01*
X111976190Y-82552380D01*
X111900000Y-82476190D01*
X111861904Y-82361904D01*
X111861904Y-82285714D01*
X111900000Y-82171428D01*
X111938095Y-82133333D01*
X111861904Y-81409523D02*
X111861904Y-81790476D01*
X112242857Y-81828571D01*
X112204761Y-81790476D01*
X112166666Y-81714285D01*
X112166666Y-81523809D01*
X112204761Y-81447619D01*
X112242857Y-81409523D01*
X112319047Y-81371428D01*
X112509523Y-81371428D01*
X112585714Y-81409523D01*
X112623809Y-81447619D01*
X112661904Y-81523809D01*
X112661904Y-81714285D01*
X112623809Y-81790476D01*
X112585714Y-81828571D01*
X112116666Y-71685714D02*
X112078571Y-71723809D01*
X111964285Y-71761904D01*
X111888095Y-71761904D01*
X111773809Y-71723809D01*
X111697619Y-71647619D01*
X111659523Y-71571428D01*
X111621428Y-71419047D01*
X111621428Y-71304761D01*
X111659523Y-71152380D01*
X111697619Y-71076190D01*
X111773809Y-71000000D01*
X111888095Y-70961904D01*
X111964285Y-70961904D01*
X112078571Y-71000000D01*
X112116666Y-71038095D01*
X112802380Y-70961904D02*
X112650000Y-70961904D01*
X112573809Y-71000000D01*
X112535714Y-71038095D01*
X112459523Y-71152380D01*
X112421428Y-71304761D01*
X112421428Y-71609523D01*
X112459523Y-71685714D01*
X112497619Y-71723809D01*
X112573809Y-71761904D01*
X112726190Y-71761904D01*
X112802380Y-71723809D01*
X112840476Y-71685714D01*
X112878571Y-71609523D01*
X112878571Y-71419047D01*
X112840476Y-71342857D01*
X112802380Y-71304761D01*
X112726190Y-71266666D01*
X112573809Y-71266666D01*
X112497619Y-71304761D01*
X112459523Y-71342857D01*
X112421428Y-71419047D01*
X109466666Y-78185714D02*
X109428571Y-78223809D01*
X109314285Y-78261904D01*
X109238095Y-78261904D01*
X109123809Y-78223809D01*
X109047619Y-78147619D01*
X109009523Y-78071428D01*
X108971428Y-77919047D01*
X108971428Y-77804761D01*
X109009523Y-77652380D01*
X109047619Y-77576190D01*
X109123809Y-77500000D01*
X109238095Y-77461904D01*
X109314285Y-77461904D01*
X109428571Y-77500000D01*
X109466666Y-77538095D01*
X109733333Y-77461904D02*
X110266666Y-77461904D01*
X109923809Y-78261904D01*
X110511904Y-81608333D02*
X110511904Y-81989285D01*
X109711904Y-81989285D01*
X110511904Y-80922619D02*
X110511904Y-81379761D01*
X110511904Y-81151190D02*
X109711904Y-81151190D01*
X109826190Y-81227380D01*
X109902380Y-81303571D01*
X109940476Y-81379761D01*
X108990476Y-70761904D02*
X108990476Y-71409523D01*
X109028571Y-71485714D01*
X109066666Y-71523809D01*
X109142857Y-71561904D01*
X109295238Y-71561904D01*
X109371428Y-71523809D01*
X109409523Y-71485714D01*
X109447619Y-71409523D01*
X109447619Y-70761904D01*
X110247619Y-71561904D02*
X109790476Y-71561904D01*
X110019047Y-71561904D02*
X110019047Y-70761904D01*
X109942857Y-70876190D01*
X109866666Y-70952380D01*
X109790476Y-70990476D01*
M02*
