G04 #@! TF.GenerationSoftware,KiCad,Pcbnew,5.1.0-unknown-567bdd9~82~ubuntu18.10.1*
G04 #@! TF.CreationDate,2019-03-29T13:42:26+01:00*
G04 #@! TF.ProjectId,weather,77656174-6865-4722-9e6b-696361645f70,1.0*
G04 #@! TF.SameCoordinates,Original*
G04 #@! TF.FileFunction,Paste,Top*
G04 #@! TF.FilePolarity,Positive*
%FSLAX46Y46*%
G04 Gerber Fmt 4.6, Leading zero omitted, Abs format (unit mm)*
G04 Created by KiCad (PCBNEW 5.1.0-unknown-567bdd9~82~ubuntu18.10.1) date 2019-03-29 13:42:26*
%MOMM*%
%LPD*%
G04 APERTURE LIST*
%ADD10R,0.600000X0.400000*%
%ADD11R,1.500000X2.400000*%
%ADD12C,0.100000*%
%ADD13C,0.875000*%
%ADD14R,1.000000X1.800000*%
%ADD15R,1.400000X1.200000*%
%ADD16R,0.250000X0.825000*%
%ADD17R,0.825000X0.250000*%
%ADD18R,0.920000X0.920000*%
G04 APERTURE END LIST*
D10*
X106500000Y-69850000D03*
X106500000Y-68900000D03*
X106500000Y-67950000D03*
X109300000Y-67950000D03*
X109300000Y-68900000D03*
X109300000Y-69850000D03*
D11*
X107900000Y-68900000D03*
D12*
G36*
X111802691Y-66126053D02*
G01*
X111823926Y-66129203D01*
X111844750Y-66134419D01*
X111864962Y-66141651D01*
X111884368Y-66150830D01*
X111902781Y-66161866D01*
X111920024Y-66174654D01*
X111935930Y-66189070D01*
X111950346Y-66204976D01*
X111963134Y-66222219D01*
X111974170Y-66240632D01*
X111983349Y-66260038D01*
X111990581Y-66280250D01*
X111995797Y-66301074D01*
X111998947Y-66322309D01*
X112000000Y-66343750D01*
X112000000Y-66856250D01*
X111998947Y-66877691D01*
X111995797Y-66898926D01*
X111990581Y-66919750D01*
X111983349Y-66939962D01*
X111974170Y-66959368D01*
X111963134Y-66977781D01*
X111950346Y-66995024D01*
X111935930Y-67010930D01*
X111920024Y-67025346D01*
X111902781Y-67038134D01*
X111884368Y-67049170D01*
X111864962Y-67058349D01*
X111844750Y-67065581D01*
X111823926Y-67070797D01*
X111802691Y-67073947D01*
X111781250Y-67075000D01*
X111343750Y-67075000D01*
X111322309Y-67073947D01*
X111301074Y-67070797D01*
X111280250Y-67065581D01*
X111260038Y-67058349D01*
X111240632Y-67049170D01*
X111222219Y-67038134D01*
X111204976Y-67025346D01*
X111189070Y-67010930D01*
X111174654Y-66995024D01*
X111161866Y-66977781D01*
X111150830Y-66959368D01*
X111141651Y-66939962D01*
X111134419Y-66919750D01*
X111129203Y-66898926D01*
X111126053Y-66877691D01*
X111125000Y-66856250D01*
X111125000Y-66343750D01*
X111126053Y-66322309D01*
X111129203Y-66301074D01*
X111134419Y-66280250D01*
X111141651Y-66260038D01*
X111150830Y-66240632D01*
X111161866Y-66222219D01*
X111174654Y-66204976D01*
X111189070Y-66189070D01*
X111204976Y-66174654D01*
X111222219Y-66161866D01*
X111240632Y-66150830D01*
X111260038Y-66141651D01*
X111280250Y-66134419D01*
X111301074Y-66129203D01*
X111322309Y-66126053D01*
X111343750Y-66125000D01*
X111781250Y-66125000D01*
X111802691Y-66126053D01*
X111802691Y-66126053D01*
G37*
D13*
X111562500Y-66600000D03*
D12*
G36*
X113377691Y-66126053D02*
G01*
X113398926Y-66129203D01*
X113419750Y-66134419D01*
X113439962Y-66141651D01*
X113459368Y-66150830D01*
X113477781Y-66161866D01*
X113495024Y-66174654D01*
X113510930Y-66189070D01*
X113525346Y-66204976D01*
X113538134Y-66222219D01*
X113549170Y-66240632D01*
X113558349Y-66260038D01*
X113565581Y-66280250D01*
X113570797Y-66301074D01*
X113573947Y-66322309D01*
X113575000Y-66343750D01*
X113575000Y-66856250D01*
X113573947Y-66877691D01*
X113570797Y-66898926D01*
X113565581Y-66919750D01*
X113558349Y-66939962D01*
X113549170Y-66959368D01*
X113538134Y-66977781D01*
X113525346Y-66995024D01*
X113510930Y-67010930D01*
X113495024Y-67025346D01*
X113477781Y-67038134D01*
X113459368Y-67049170D01*
X113439962Y-67058349D01*
X113419750Y-67065581D01*
X113398926Y-67070797D01*
X113377691Y-67073947D01*
X113356250Y-67075000D01*
X112918750Y-67075000D01*
X112897309Y-67073947D01*
X112876074Y-67070797D01*
X112855250Y-67065581D01*
X112835038Y-67058349D01*
X112815632Y-67049170D01*
X112797219Y-67038134D01*
X112779976Y-67025346D01*
X112764070Y-67010930D01*
X112749654Y-66995024D01*
X112736866Y-66977781D01*
X112725830Y-66959368D01*
X112716651Y-66939962D01*
X112709419Y-66919750D01*
X112704203Y-66898926D01*
X112701053Y-66877691D01*
X112700000Y-66856250D01*
X112700000Y-66343750D01*
X112701053Y-66322309D01*
X112704203Y-66301074D01*
X112709419Y-66280250D01*
X112716651Y-66260038D01*
X112725830Y-66240632D01*
X112736866Y-66222219D01*
X112749654Y-66204976D01*
X112764070Y-66189070D01*
X112779976Y-66174654D01*
X112797219Y-66161866D01*
X112815632Y-66150830D01*
X112835038Y-66141651D01*
X112855250Y-66134419D01*
X112876074Y-66129203D01*
X112897309Y-66126053D01*
X112918750Y-66125000D01*
X113356250Y-66125000D01*
X113377691Y-66126053D01*
X113377691Y-66126053D01*
G37*
D13*
X113137500Y-66600000D03*
D12*
G36*
X112027691Y-69351053D02*
G01*
X112048926Y-69354203D01*
X112069750Y-69359419D01*
X112089962Y-69366651D01*
X112109368Y-69375830D01*
X112127781Y-69386866D01*
X112145024Y-69399654D01*
X112160930Y-69414070D01*
X112175346Y-69429976D01*
X112188134Y-69447219D01*
X112199170Y-69465632D01*
X112208349Y-69485038D01*
X112215581Y-69505250D01*
X112220797Y-69526074D01*
X112223947Y-69547309D01*
X112225000Y-69568750D01*
X112225000Y-70006250D01*
X112223947Y-70027691D01*
X112220797Y-70048926D01*
X112215581Y-70069750D01*
X112208349Y-70089962D01*
X112199170Y-70109368D01*
X112188134Y-70127781D01*
X112175346Y-70145024D01*
X112160930Y-70160930D01*
X112145024Y-70175346D01*
X112127781Y-70188134D01*
X112109368Y-70199170D01*
X112089962Y-70208349D01*
X112069750Y-70215581D01*
X112048926Y-70220797D01*
X112027691Y-70223947D01*
X112006250Y-70225000D01*
X111493750Y-70225000D01*
X111472309Y-70223947D01*
X111451074Y-70220797D01*
X111430250Y-70215581D01*
X111410038Y-70208349D01*
X111390632Y-70199170D01*
X111372219Y-70188134D01*
X111354976Y-70175346D01*
X111339070Y-70160930D01*
X111324654Y-70145024D01*
X111311866Y-70127781D01*
X111300830Y-70109368D01*
X111291651Y-70089962D01*
X111284419Y-70069750D01*
X111279203Y-70048926D01*
X111276053Y-70027691D01*
X111275000Y-70006250D01*
X111275000Y-69568750D01*
X111276053Y-69547309D01*
X111279203Y-69526074D01*
X111284419Y-69505250D01*
X111291651Y-69485038D01*
X111300830Y-69465632D01*
X111311866Y-69447219D01*
X111324654Y-69429976D01*
X111339070Y-69414070D01*
X111354976Y-69399654D01*
X111372219Y-69386866D01*
X111390632Y-69375830D01*
X111410038Y-69366651D01*
X111430250Y-69359419D01*
X111451074Y-69354203D01*
X111472309Y-69351053D01*
X111493750Y-69350000D01*
X112006250Y-69350000D01*
X112027691Y-69351053D01*
X112027691Y-69351053D01*
G37*
D13*
X111750000Y-69787500D03*
D12*
G36*
X112027691Y-67776053D02*
G01*
X112048926Y-67779203D01*
X112069750Y-67784419D01*
X112089962Y-67791651D01*
X112109368Y-67800830D01*
X112127781Y-67811866D01*
X112145024Y-67824654D01*
X112160930Y-67839070D01*
X112175346Y-67854976D01*
X112188134Y-67872219D01*
X112199170Y-67890632D01*
X112208349Y-67910038D01*
X112215581Y-67930250D01*
X112220797Y-67951074D01*
X112223947Y-67972309D01*
X112225000Y-67993750D01*
X112225000Y-68431250D01*
X112223947Y-68452691D01*
X112220797Y-68473926D01*
X112215581Y-68494750D01*
X112208349Y-68514962D01*
X112199170Y-68534368D01*
X112188134Y-68552781D01*
X112175346Y-68570024D01*
X112160930Y-68585930D01*
X112145024Y-68600346D01*
X112127781Y-68613134D01*
X112109368Y-68624170D01*
X112089962Y-68633349D01*
X112069750Y-68640581D01*
X112048926Y-68645797D01*
X112027691Y-68648947D01*
X112006250Y-68650000D01*
X111493750Y-68650000D01*
X111472309Y-68648947D01*
X111451074Y-68645797D01*
X111430250Y-68640581D01*
X111410038Y-68633349D01*
X111390632Y-68624170D01*
X111372219Y-68613134D01*
X111354976Y-68600346D01*
X111339070Y-68585930D01*
X111324654Y-68570024D01*
X111311866Y-68552781D01*
X111300830Y-68534368D01*
X111291651Y-68514962D01*
X111284419Y-68494750D01*
X111279203Y-68473926D01*
X111276053Y-68452691D01*
X111275000Y-68431250D01*
X111275000Y-67993750D01*
X111276053Y-67972309D01*
X111279203Y-67951074D01*
X111284419Y-67930250D01*
X111291651Y-67910038D01*
X111300830Y-67890632D01*
X111311866Y-67872219D01*
X111324654Y-67854976D01*
X111339070Y-67839070D01*
X111354976Y-67824654D01*
X111372219Y-67811866D01*
X111390632Y-67800830D01*
X111410038Y-67791651D01*
X111430250Y-67784419D01*
X111451074Y-67779203D01*
X111472309Y-67776053D01*
X111493750Y-67775000D01*
X112006250Y-67775000D01*
X112027691Y-67776053D01*
X112027691Y-67776053D01*
G37*
D13*
X111750000Y-68212500D03*
D12*
G36*
X117027691Y-72426053D02*
G01*
X117048926Y-72429203D01*
X117069750Y-72434419D01*
X117089962Y-72441651D01*
X117109368Y-72450830D01*
X117127781Y-72461866D01*
X117145024Y-72474654D01*
X117160930Y-72489070D01*
X117175346Y-72504976D01*
X117188134Y-72522219D01*
X117199170Y-72540632D01*
X117208349Y-72560038D01*
X117215581Y-72580250D01*
X117220797Y-72601074D01*
X117223947Y-72622309D01*
X117225000Y-72643750D01*
X117225000Y-73156250D01*
X117223947Y-73177691D01*
X117220797Y-73198926D01*
X117215581Y-73219750D01*
X117208349Y-73239962D01*
X117199170Y-73259368D01*
X117188134Y-73277781D01*
X117175346Y-73295024D01*
X117160930Y-73310930D01*
X117145024Y-73325346D01*
X117127781Y-73338134D01*
X117109368Y-73349170D01*
X117089962Y-73358349D01*
X117069750Y-73365581D01*
X117048926Y-73370797D01*
X117027691Y-73373947D01*
X117006250Y-73375000D01*
X116568750Y-73375000D01*
X116547309Y-73373947D01*
X116526074Y-73370797D01*
X116505250Y-73365581D01*
X116485038Y-73358349D01*
X116465632Y-73349170D01*
X116447219Y-73338134D01*
X116429976Y-73325346D01*
X116414070Y-73310930D01*
X116399654Y-73295024D01*
X116386866Y-73277781D01*
X116375830Y-73259368D01*
X116366651Y-73239962D01*
X116359419Y-73219750D01*
X116354203Y-73198926D01*
X116351053Y-73177691D01*
X116350000Y-73156250D01*
X116350000Y-72643750D01*
X116351053Y-72622309D01*
X116354203Y-72601074D01*
X116359419Y-72580250D01*
X116366651Y-72560038D01*
X116375830Y-72540632D01*
X116386866Y-72522219D01*
X116399654Y-72504976D01*
X116414070Y-72489070D01*
X116429976Y-72474654D01*
X116447219Y-72461866D01*
X116465632Y-72450830D01*
X116485038Y-72441651D01*
X116505250Y-72434419D01*
X116526074Y-72429203D01*
X116547309Y-72426053D01*
X116568750Y-72425000D01*
X117006250Y-72425000D01*
X117027691Y-72426053D01*
X117027691Y-72426053D01*
G37*
D13*
X116787500Y-72900000D03*
D12*
G36*
X115452691Y-72426053D02*
G01*
X115473926Y-72429203D01*
X115494750Y-72434419D01*
X115514962Y-72441651D01*
X115534368Y-72450830D01*
X115552781Y-72461866D01*
X115570024Y-72474654D01*
X115585930Y-72489070D01*
X115600346Y-72504976D01*
X115613134Y-72522219D01*
X115624170Y-72540632D01*
X115633349Y-72560038D01*
X115640581Y-72580250D01*
X115645797Y-72601074D01*
X115648947Y-72622309D01*
X115650000Y-72643750D01*
X115650000Y-73156250D01*
X115648947Y-73177691D01*
X115645797Y-73198926D01*
X115640581Y-73219750D01*
X115633349Y-73239962D01*
X115624170Y-73259368D01*
X115613134Y-73277781D01*
X115600346Y-73295024D01*
X115585930Y-73310930D01*
X115570024Y-73325346D01*
X115552781Y-73338134D01*
X115534368Y-73349170D01*
X115514962Y-73358349D01*
X115494750Y-73365581D01*
X115473926Y-73370797D01*
X115452691Y-73373947D01*
X115431250Y-73375000D01*
X114993750Y-73375000D01*
X114972309Y-73373947D01*
X114951074Y-73370797D01*
X114930250Y-73365581D01*
X114910038Y-73358349D01*
X114890632Y-73349170D01*
X114872219Y-73338134D01*
X114854976Y-73325346D01*
X114839070Y-73310930D01*
X114824654Y-73295024D01*
X114811866Y-73277781D01*
X114800830Y-73259368D01*
X114791651Y-73239962D01*
X114784419Y-73219750D01*
X114779203Y-73198926D01*
X114776053Y-73177691D01*
X114775000Y-73156250D01*
X114775000Y-72643750D01*
X114776053Y-72622309D01*
X114779203Y-72601074D01*
X114784419Y-72580250D01*
X114791651Y-72560038D01*
X114800830Y-72540632D01*
X114811866Y-72522219D01*
X114824654Y-72504976D01*
X114839070Y-72489070D01*
X114854976Y-72474654D01*
X114872219Y-72461866D01*
X114890632Y-72450830D01*
X114910038Y-72441651D01*
X114930250Y-72434419D01*
X114951074Y-72429203D01*
X114972309Y-72426053D01*
X114993750Y-72425000D01*
X115431250Y-72425000D01*
X115452691Y-72426053D01*
X115452691Y-72426053D01*
G37*
D13*
X115212500Y-72900000D03*
D12*
G36*
X105427691Y-73776053D02*
G01*
X105448926Y-73779203D01*
X105469750Y-73784419D01*
X105489962Y-73791651D01*
X105509368Y-73800830D01*
X105527781Y-73811866D01*
X105545024Y-73824654D01*
X105560930Y-73839070D01*
X105575346Y-73854976D01*
X105588134Y-73872219D01*
X105599170Y-73890632D01*
X105608349Y-73910038D01*
X105615581Y-73930250D01*
X105620797Y-73951074D01*
X105623947Y-73972309D01*
X105625000Y-73993750D01*
X105625000Y-74431250D01*
X105623947Y-74452691D01*
X105620797Y-74473926D01*
X105615581Y-74494750D01*
X105608349Y-74514962D01*
X105599170Y-74534368D01*
X105588134Y-74552781D01*
X105575346Y-74570024D01*
X105560930Y-74585930D01*
X105545024Y-74600346D01*
X105527781Y-74613134D01*
X105509368Y-74624170D01*
X105489962Y-74633349D01*
X105469750Y-74640581D01*
X105448926Y-74645797D01*
X105427691Y-74648947D01*
X105406250Y-74650000D01*
X104893750Y-74650000D01*
X104872309Y-74648947D01*
X104851074Y-74645797D01*
X104830250Y-74640581D01*
X104810038Y-74633349D01*
X104790632Y-74624170D01*
X104772219Y-74613134D01*
X104754976Y-74600346D01*
X104739070Y-74585930D01*
X104724654Y-74570024D01*
X104711866Y-74552781D01*
X104700830Y-74534368D01*
X104691651Y-74514962D01*
X104684419Y-74494750D01*
X104679203Y-74473926D01*
X104676053Y-74452691D01*
X104675000Y-74431250D01*
X104675000Y-73993750D01*
X104676053Y-73972309D01*
X104679203Y-73951074D01*
X104684419Y-73930250D01*
X104691651Y-73910038D01*
X104700830Y-73890632D01*
X104711866Y-73872219D01*
X104724654Y-73854976D01*
X104739070Y-73839070D01*
X104754976Y-73824654D01*
X104772219Y-73811866D01*
X104790632Y-73800830D01*
X104810038Y-73791651D01*
X104830250Y-73784419D01*
X104851074Y-73779203D01*
X104872309Y-73776053D01*
X104893750Y-73775000D01*
X105406250Y-73775000D01*
X105427691Y-73776053D01*
X105427691Y-73776053D01*
G37*
D13*
X105150000Y-74212500D03*
D12*
G36*
X105427691Y-75351053D02*
G01*
X105448926Y-75354203D01*
X105469750Y-75359419D01*
X105489962Y-75366651D01*
X105509368Y-75375830D01*
X105527781Y-75386866D01*
X105545024Y-75399654D01*
X105560930Y-75414070D01*
X105575346Y-75429976D01*
X105588134Y-75447219D01*
X105599170Y-75465632D01*
X105608349Y-75485038D01*
X105615581Y-75505250D01*
X105620797Y-75526074D01*
X105623947Y-75547309D01*
X105625000Y-75568750D01*
X105625000Y-76006250D01*
X105623947Y-76027691D01*
X105620797Y-76048926D01*
X105615581Y-76069750D01*
X105608349Y-76089962D01*
X105599170Y-76109368D01*
X105588134Y-76127781D01*
X105575346Y-76145024D01*
X105560930Y-76160930D01*
X105545024Y-76175346D01*
X105527781Y-76188134D01*
X105509368Y-76199170D01*
X105489962Y-76208349D01*
X105469750Y-76215581D01*
X105448926Y-76220797D01*
X105427691Y-76223947D01*
X105406250Y-76225000D01*
X104893750Y-76225000D01*
X104872309Y-76223947D01*
X104851074Y-76220797D01*
X104830250Y-76215581D01*
X104810038Y-76208349D01*
X104790632Y-76199170D01*
X104772219Y-76188134D01*
X104754976Y-76175346D01*
X104739070Y-76160930D01*
X104724654Y-76145024D01*
X104711866Y-76127781D01*
X104700830Y-76109368D01*
X104691651Y-76089962D01*
X104684419Y-76069750D01*
X104679203Y-76048926D01*
X104676053Y-76027691D01*
X104675000Y-76006250D01*
X104675000Y-75568750D01*
X104676053Y-75547309D01*
X104679203Y-75526074D01*
X104684419Y-75505250D01*
X104691651Y-75485038D01*
X104700830Y-75465632D01*
X104711866Y-75447219D01*
X104724654Y-75429976D01*
X104739070Y-75414070D01*
X104754976Y-75399654D01*
X104772219Y-75386866D01*
X104790632Y-75375830D01*
X104810038Y-75366651D01*
X104830250Y-75359419D01*
X104851074Y-75354203D01*
X104872309Y-75351053D01*
X104893750Y-75350000D01*
X105406250Y-75350000D01*
X105427691Y-75351053D01*
X105427691Y-75351053D01*
G37*
D13*
X105150000Y-75787500D03*
D14*
X114500000Y-69300000D03*
X117000000Y-69300000D03*
D15*
X114200000Y-81950000D03*
X116400000Y-81950000D03*
X116400000Y-80250000D03*
X114200000Y-80250000D03*
D12*
G36*
X116852691Y-70926053D02*
G01*
X116873926Y-70929203D01*
X116894750Y-70934419D01*
X116914962Y-70941651D01*
X116934368Y-70950830D01*
X116952781Y-70961866D01*
X116970024Y-70974654D01*
X116985930Y-70989070D01*
X117000346Y-71004976D01*
X117013134Y-71022219D01*
X117024170Y-71040632D01*
X117033349Y-71060038D01*
X117040581Y-71080250D01*
X117045797Y-71101074D01*
X117048947Y-71122309D01*
X117050000Y-71143750D01*
X117050000Y-71656250D01*
X117048947Y-71677691D01*
X117045797Y-71698926D01*
X117040581Y-71719750D01*
X117033349Y-71739962D01*
X117024170Y-71759368D01*
X117013134Y-71777781D01*
X117000346Y-71795024D01*
X116985930Y-71810930D01*
X116970024Y-71825346D01*
X116952781Y-71838134D01*
X116934368Y-71849170D01*
X116914962Y-71858349D01*
X116894750Y-71865581D01*
X116873926Y-71870797D01*
X116852691Y-71873947D01*
X116831250Y-71875000D01*
X116393750Y-71875000D01*
X116372309Y-71873947D01*
X116351074Y-71870797D01*
X116330250Y-71865581D01*
X116310038Y-71858349D01*
X116290632Y-71849170D01*
X116272219Y-71838134D01*
X116254976Y-71825346D01*
X116239070Y-71810930D01*
X116224654Y-71795024D01*
X116211866Y-71777781D01*
X116200830Y-71759368D01*
X116191651Y-71739962D01*
X116184419Y-71719750D01*
X116179203Y-71698926D01*
X116176053Y-71677691D01*
X116175000Y-71656250D01*
X116175000Y-71143750D01*
X116176053Y-71122309D01*
X116179203Y-71101074D01*
X116184419Y-71080250D01*
X116191651Y-71060038D01*
X116200830Y-71040632D01*
X116211866Y-71022219D01*
X116224654Y-71004976D01*
X116239070Y-70989070D01*
X116254976Y-70974654D01*
X116272219Y-70961866D01*
X116290632Y-70950830D01*
X116310038Y-70941651D01*
X116330250Y-70934419D01*
X116351074Y-70929203D01*
X116372309Y-70926053D01*
X116393750Y-70925000D01*
X116831250Y-70925000D01*
X116852691Y-70926053D01*
X116852691Y-70926053D01*
G37*
D13*
X116612500Y-71400000D03*
D12*
G36*
X118427691Y-70926053D02*
G01*
X118448926Y-70929203D01*
X118469750Y-70934419D01*
X118489962Y-70941651D01*
X118509368Y-70950830D01*
X118527781Y-70961866D01*
X118545024Y-70974654D01*
X118560930Y-70989070D01*
X118575346Y-71004976D01*
X118588134Y-71022219D01*
X118599170Y-71040632D01*
X118608349Y-71060038D01*
X118615581Y-71080250D01*
X118620797Y-71101074D01*
X118623947Y-71122309D01*
X118625000Y-71143750D01*
X118625000Y-71656250D01*
X118623947Y-71677691D01*
X118620797Y-71698926D01*
X118615581Y-71719750D01*
X118608349Y-71739962D01*
X118599170Y-71759368D01*
X118588134Y-71777781D01*
X118575346Y-71795024D01*
X118560930Y-71810930D01*
X118545024Y-71825346D01*
X118527781Y-71838134D01*
X118509368Y-71849170D01*
X118489962Y-71858349D01*
X118469750Y-71865581D01*
X118448926Y-71870797D01*
X118427691Y-71873947D01*
X118406250Y-71875000D01*
X117968750Y-71875000D01*
X117947309Y-71873947D01*
X117926074Y-71870797D01*
X117905250Y-71865581D01*
X117885038Y-71858349D01*
X117865632Y-71849170D01*
X117847219Y-71838134D01*
X117829976Y-71825346D01*
X117814070Y-71810930D01*
X117799654Y-71795024D01*
X117786866Y-71777781D01*
X117775830Y-71759368D01*
X117766651Y-71739962D01*
X117759419Y-71719750D01*
X117754203Y-71698926D01*
X117751053Y-71677691D01*
X117750000Y-71656250D01*
X117750000Y-71143750D01*
X117751053Y-71122309D01*
X117754203Y-71101074D01*
X117759419Y-71080250D01*
X117766651Y-71060038D01*
X117775830Y-71040632D01*
X117786866Y-71022219D01*
X117799654Y-71004976D01*
X117814070Y-70989070D01*
X117829976Y-70974654D01*
X117847219Y-70961866D01*
X117865632Y-70950830D01*
X117885038Y-70941651D01*
X117905250Y-70934419D01*
X117926074Y-70929203D01*
X117947309Y-70926053D01*
X117968750Y-70925000D01*
X118406250Y-70925000D01*
X118427691Y-70926053D01*
X118427691Y-70926053D01*
G37*
D13*
X118187500Y-71400000D03*
D12*
G36*
X116627691Y-66676053D02*
G01*
X116648926Y-66679203D01*
X116669750Y-66684419D01*
X116689962Y-66691651D01*
X116709368Y-66700830D01*
X116727781Y-66711866D01*
X116745024Y-66724654D01*
X116760930Y-66739070D01*
X116775346Y-66754976D01*
X116788134Y-66772219D01*
X116799170Y-66790632D01*
X116808349Y-66810038D01*
X116815581Y-66830250D01*
X116820797Y-66851074D01*
X116823947Y-66872309D01*
X116825000Y-66893750D01*
X116825000Y-67406250D01*
X116823947Y-67427691D01*
X116820797Y-67448926D01*
X116815581Y-67469750D01*
X116808349Y-67489962D01*
X116799170Y-67509368D01*
X116788134Y-67527781D01*
X116775346Y-67545024D01*
X116760930Y-67560930D01*
X116745024Y-67575346D01*
X116727781Y-67588134D01*
X116709368Y-67599170D01*
X116689962Y-67608349D01*
X116669750Y-67615581D01*
X116648926Y-67620797D01*
X116627691Y-67623947D01*
X116606250Y-67625000D01*
X116168750Y-67625000D01*
X116147309Y-67623947D01*
X116126074Y-67620797D01*
X116105250Y-67615581D01*
X116085038Y-67608349D01*
X116065632Y-67599170D01*
X116047219Y-67588134D01*
X116029976Y-67575346D01*
X116014070Y-67560930D01*
X115999654Y-67545024D01*
X115986866Y-67527781D01*
X115975830Y-67509368D01*
X115966651Y-67489962D01*
X115959419Y-67469750D01*
X115954203Y-67448926D01*
X115951053Y-67427691D01*
X115950000Y-67406250D01*
X115950000Y-66893750D01*
X115951053Y-66872309D01*
X115954203Y-66851074D01*
X115959419Y-66830250D01*
X115966651Y-66810038D01*
X115975830Y-66790632D01*
X115986866Y-66772219D01*
X115999654Y-66754976D01*
X116014070Y-66739070D01*
X116029976Y-66724654D01*
X116047219Y-66711866D01*
X116065632Y-66700830D01*
X116085038Y-66691651D01*
X116105250Y-66684419D01*
X116126074Y-66679203D01*
X116147309Y-66676053D01*
X116168750Y-66675000D01*
X116606250Y-66675000D01*
X116627691Y-66676053D01*
X116627691Y-66676053D01*
G37*
D13*
X116387500Y-67150000D03*
D12*
G36*
X115052691Y-66676053D02*
G01*
X115073926Y-66679203D01*
X115094750Y-66684419D01*
X115114962Y-66691651D01*
X115134368Y-66700830D01*
X115152781Y-66711866D01*
X115170024Y-66724654D01*
X115185930Y-66739070D01*
X115200346Y-66754976D01*
X115213134Y-66772219D01*
X115224170Y-66790632D01*
X115233349Y-66810038D01*
X115240581Y-66830250D01*
X115245797Y-66851074D01*
X115248947Y-66872309D01*
X115250000Y-66893750D01*
X115250000Y-67406250D01*
X115248947Y-67427691D01*
X115245797Y-67448926D01*
X115240581Y-67469750D01*
X115233349Y-67489962D01*
X115224170Y-67509368D01*
X115213134Y-67527781D01*
X115200346Y-67545024D01*
X115185930Y-67560930D01*
X115170024Y-67575346D01*
X115152781Y-67588134D01*
X115134368Y-67599170D01*
X115114962Y-67608349D01*
X115094750Y-67615581D01*
X115073926Y-67620797D01*
X115052691Y-67623947D01*
X115031250Y-67625000D01*
X114593750Y-67625000D01*
X114572309Y-67623947D01*
X114551074Y-67620797D01*
X114530250Y-67615581D01*
X114510038Y-67608349D01*
X114490632Y-67599170D01*
X114472219Y-67588134D01*
X114454976Y-67575346D01*
X114439070Y-67560930D01*
X114424654Y-67545024D01*
X114411866Y-67527781D01*
X114400830Y-67509368D01*
X114391651Y-67489962D01*
X114384419Y-67469750D01*
X114379203Y-67448926D01*
X114376053Y-67427691D01*
X114375000Y-67406250D01*
X114375000Y-66893750D01*
X114376053Y-66872309D01*
X114379203Y-66851074D01*
X114384419Y-66830250D01*
X114391651Y-66810038D01*
X114400830Y-66790632D01*
X114411866Y-66772219D01*
X114424654Y-66754976D01*
X114439070Y-66739070D01*
X114454976Y-66724654D01*
X114472219Y-66711866D01*
X114490632Y-66700830D01*
X114510038Y-66691651D01*
X114530250Y-66684419D01*
X114551074Y-66679203D01*
X114572309Y-66676053D01*
X114593750Y-66675000D01*
X115031250Y-66675000D01*
X115052691Y-66676053D01*
X115052691Y-66676053D01*
G37*
D13*
X114812500Y-67150000D03*
D12*
G36*
X103852691Y-70626053D02*
G01*
X103873926Y-70629203D01*
X103894750Y-70634419D01*
X103914962Y-70641651D01*
X103934368Y-70650830D01*
X103952781Y-70661866D01*
X103970024Y-70674654D01*
X103985930Y-70689070D01*
X104000346Y-70704976D01*
X104013134Y-70722219D01*
X104024170Y-70740632D01*
X104033349Y-70760038D01*
X104040581Y-70780250D01*
X104045797Y-70801074D01*
X104048947Y-70822309D01*
X104050000Y-70843750D01*
X104050000Y-71281250D01*
X104048947Y-71302691D01*
X104045797Y-71323926D01*
X104040581Y-71344750D01*
X104033349Y-71364962D01*
X104024170Y-71384368D01*
X104013134Y-71402781D01*
X104000346Y-71420024D01*
X103985930Y-71435930D01*
X103970024Y-71450346D01*
X103952781Y-71463134D01*
X103934368Y-71474170D01*
X103914962Y-71483349D01*
X103894750Y-71490581D01*
X103873926Y-71495797D01*
X103852691Y-71498947D01*
X103831250Y-71500000D01*
X103318750Y-71500000D01*
X103297309Y-71498947D01*
X103276074Y-71495797D01*
X103255250Y-71490581D01*
X103235038Y-71483349D01*
X103215632Y-71474170D01*
X103197219Y-71463134D01*
X103179976Y-71450346D01*
X103164070Y-71435930D01*
X103149654Y-71420024D01*
X103136866Y-71402781D01*
X103125830Y-71384368D01*
X103116651Y-71364962D01*
X103109419Y-71344750D01*
X103104203Y-71323926D01*
X103101053Y-71302691D01*
X103100000Y-71281250D01*
X103100000Y-70843750D01*
X103101053Y-70822309D01*
X103104203Y-70801074D01*
X103109419Y-70780250D01*
X103116651Y-70760038D01*
X103125830Y-70740632D01*
X103136866Y-70722219D01*
X103149654Y-70704976D01*
X103164070Y-70689070D01*
X103179976Y-70674654D01*
X103197219Y-70661866D01*
X103215632Y-70650830D01*
X103235038Y-70641651D01*
X103255250Y-70634419D01*
X103276074Y-70629203D01*
X103297309Y-70626053D01*
X103318750Y-70625000D01*
X103831250Y-70625000D01*
X103852691Y-70626053D01*
X103852691Y-70626053D01*
G37*
D13*
X103575000Y-71062500D03*
D12*
G36*
X103852691Y-72201053D02*
G01*
X103873926Y-72204203D01*
X103894750Y-72209419D01*
X103914962Y-72216651D01*
X103934368Y-72225830D01*
X103952781Y-72236866D01*
X103970024Y-72249654D01*
X103985930Y-72264070D01*
X104000346Y-72279976D01*
X104013134Y-72297219D01*
X104024170Y-72315632D01*
X104033349Y-72335038D01*
X104040581Y-72355250D01*
X104045797Y-72376074D01*
X104048947Y-72397309D01*
X104050000Y-72418750D01*
X104050000Y-72856250D01*
X104048947Y-72877691D01*
X104045797Y-72898926D01*
X104040581Y-72919750D01*
X104033349Y-72939962D01*
X104024170Y-72959368D01*
X104013134Y-72977781D01*
X104000346Y-72995024D01*
X103985930Y-73010930D01*
X103970024Y-73025346D01*
X103952781Y-73038134D01*
X103934368Y-73049170D01*
X103914962Y-73058349D01*
X103894750Y-73065581D01*
X103873926Y-73070797D01*
X103852691Y-73073947D01*
X103831250Y-73075000D01*
X103318750Y-73075000D01*
X103297309Y-73073947D01*
X103276074Y-73070797D01*
X103255250Y-73065581D01*
X103235038Y-73058349D01*
X103215632Y-73049170D01*
X103197219Y-73038134D01*
X103179976Y-73025346D01*
X103164070Y-73010930D01*
X103149654Y-72995024D01*
X103136866Y-72977781D01*
X103125830Y-72959368D01*
X103116651Y-72939962D01*
X103109419Y-72919750D01*
X103104203Y-72898926D01*
X103101053Y-72877691D01*
X103100000Y-72856250D01*
X103100000Y-72418750D01*
X103101053Y-72397309D01*
X103104203Y-72376074D01*
X103109419Y-72355250D01*
X103116651Y-72335038D01*
X103125830Y-72315632D01*
X103136866Y-72297219D01*
X103149654Y-72279976D01*
X103164070Y-72264070D01*
X103179976Y-72249654D01*
X103197219Y-72236866D01*
X103215632Y-72225830D01*
X103235038Y-72216651D01*
X103255250Y-72209419D01*
X103276074Y-72204203D01*
X103297309Y-72201053D01*
X103318750Y-72200000D01*
X103831250Y-72200000D01*
X103852691Y-72201053D01*
X103852691Y-72201053D01*
G37*
D13*
X103575000Y-72637500D03*
D12*
G36*
X105352691Y-72201053D02*
G01*
X105373926Y-72204203D01*
X105394750Y-72209419D01*
X105414962Y-72216651D01*
X105434368Y-72225830D01*
X105452781Y-72236866D01*
X105470024Y-72249654D01*
X105485930Y-72264070D01*
X105500346Y-72279976D01*
X105513134Y-72297219D01*
X105524170Y-72315632D01*
X105533349Y-72335038D01*
X105540581Y-72355250D01*
X105545797Y-72376074D01*
X105548947Y-72397309D01*
X105550000Y-72418750D01*
X105550000Y-72856250D01*
X105548947Y-72877691D01*
X105545797Y-72898926D01*
X105540581Y-72919750D01*
X105533349Y-72939962D01*
X105524170Y-72959368D01*
X105513134Y-72977781D01*
X105500346Y-72995024D01*
X105485930Y-73010930D01*
X105470024Y-73025346D01*
X105452781Y-73038134D01*
X105434368Y-73049170D01*
X105414962Y-73058349D01*
X105394750Y-73065581D01*
X105373926Y-73070797D01*
X105352691Y-73073947D01*
X105331250Y-73075000D01*
X104818750Y-73075000D01*
X104797309Y-73073947D01*
X104776074Y-73070797D01*
X104755250Y-73065581D01*
X104735038Y-73058349D01*
X104715632Y-73049170D01*
X104697219Y-73038134D01*
X104679976Y-73025346D01*
X104664070Y-73010930D01*
X104649654Y-72995024D01*
X104636866Y-72977781D01*
X104625830Y-72959368D01*
X104616651Y-72939962D01*
X104609419Y-72919750D01*
X104604203Y-72898926D01*
X104601053Y-72877691D01*
X104600000Y-72856250D01*
X104600000Y-72418750D01*
X104601053Y-72397309D01*
X104604203Y-72376074D01*
X104609419Y-72355250D01*
X104616651Y-72335038D01*
X104625830Y-72315632D01*
X104636866Y-72297219D01*
X104649654Y-72279976D01*
X104664070Y-72264070D01*
X104679976Y-72249654D01*
X104697219Y-72236866D01*
X104715632Y-72225830D01*
X104735038Y-72216651D01*
X104755250Y-72209419D01*
X104776074Y-72204203D01*
X104797309Y-72201053D01*
X104818750Y-72200000D01*
X105331250Y-72200000D01*
X105352691Y-72201053D01*
X105352691Y-72201053D01*
G37*
D13*
X105075000Y-72637500D03*
D12*
G36*
X105352691Y-70626053D02*
G01*
X105373926Y-70629203D01*
X105394750Y-70634419D01*
X105414962Y-70641651D01*
X105434368Y-70650830D01*
X105452781Y-70661866D01*
X105470024Y-70674654D01*
X105485930Y-70689070D01*
X105500346Y-70704976D01*
X105513134Y-70722219D01*
X105524170Y-70740632D01*
X105533349Y-70760038D01*
X105540581Y-70780250D01*
X105545797Y-70801074D01*
X105548947Y-70822309D01*
X105550000Y-70843750D01*
X105550000Y-71281250D01*
X105548947Y-71302691D01*
X105545797Y-71323926D01*
X105540581Y-71344750D01*
X105533349Y-71364962D01*
X105524170Y-71384368D01*
X105513134Y-71402781D01*
X105500346Y-71420024D01*
X105485930Y-71435930D01*
X105470024Y-71450346D01*
X105452781Y-71463134D01*
X105434368Y-71474170D01*
X105414962Y-71483349D01*
X105394750Y-71490581D01*
X105373926Y-71495797D01*
X105352691Y-71498947D01*
X105331250Y-71500000D01*
X104818750Y-71500000D01*
X104797309Y-71498947D01*
X104776074Y-71495797D01*
X104755250Y-71490581D01*
X104735038Y-71483349D01*
X104715632Y-71474170D01*
X104697219Y-71463134D01*
X104679976Y-71450346D01*
X104664070Y-71435930D01*
X104649654Y-71420024D01*
X104636866Y-71402781D01*
X104625830Y-71384368D01*
X104616651Y-71364962D01*
X104609419Y-71344750D01*
X104604203Y-71323926D01*
X104601053Y-71302691D01*
X104600000Y-71281250D01*
X104600000Y-70843750D01*
X104601053Y-70822309D01*
X104604203Y-70801074D01*
X104609419Y-70780250D01*
X104616651Y-70760038D01*
X104625830Y-70740632D01*
X104636866Y-70722219D01*
X104649654Y-70704976D01*
X104664070Y-70689070D01*
X104679976Y-70674654D01*
X104697219Y-70661866D01*
X104715632Y-70650830D01*
X104735038Y-70641651D01*
X104755250Y-70634419D01*
X104776074Y-70629203D01*
X104797309Y-70626053D01*
X104818750Y-70625000D01*
X105331250Y-70625000D01*
X105352691Y-70626053D01*
X105352691Y-70626053D01*
G37*
D13*
X105075000Y-71062500D03*
D12*
G36*
X116227691Y-83226053D02*
G01*
X116248926Y-83229203D01*
X116269750Y-83234419D01*
X116289962Y-83241651D01*
X116309368Y-83250830D01*
X116327781Y-83261866D01*
X116345024Y-83274654D01*
X116360930Y-83289070D01*
X116375346Y-83304976D01*
X116388134Y-83322219D01*
X116399170Y-83340632D01*
X116408349Y-83360038D01*
X116415581Y-83380250D01*
X116420797Y-83401074D01*
X116423947Y-83422309D01*
X116425000Y-83443750D01*
X116425000Y-83956250D01*
X116423947Y-83977691D01*
X116420797Y-83998926D01*
X116415581Y-84019750D01*
X116408349Y-84039962D01*
X116399170Y-84059368D01*
X116388134Y-84077781D01*
X116375346Y-84095024D01*
X116360930Y-84110930D01*
X116345024Y-84125346D01*
X116327781Y-84138134D01*
X116309368Y-84149170D01*
X116289962Y-84158349D01*
X116269750Y-84165581D01*
X116248926Y-84170797D01*
X116227691Y-84173947D01*
X116206250Y-84175000D01*
X115768750Y-84175000D01*
X115747309Y-84173947D01*
X115726074Y-84170797D01*
X115705250Y-84165581D01*
X115685038Y-84158349D01*
X115665632Y-84149170D01*
X115647219Y-84138134D01*
X115629976Y-84125346D01*
X115614070Y-84110930D01*
X115599654Y-84095024D01*
X115586866Y-84077781D01*
X115575830Y-84059368D01*
X115566651Y-84039962D01*
X115559419Y-84019750D01*
X115554203Y-83998926D01*
X115551053Y-83977691D01*
X115550000Y-83956250D01*
X115550000Y-83443750D01*
X115551053Y-83422309D01*
X115554203Y-83401074D01*
X115559419Y-83380250D01*
X115566651Y-83360038D01*
X115575830Y-83340632D01*
X115586866Y-83322219D01*
X115599654Y-83304976D01*
X115614070Y-83289070D01*
X115629976Y-83274654D01*
X115647219Y-83261866D01*
X115665632Y-83250830D01*
X115685038Y-83241651D01*
X115705250Y-83234419D01*
X115726074Y-83229203D01*
X115747309Y-83226053D01*
X115768750Y-83225000D01*
X116206250Y-83225000D01*
X116227691Y-83226053D01*
X116227691Y-83226053D01*
G37*
D13*
X115987500Y-83700000D03*
D12*
G36*
X114652691Y-83226053D02*
G01*
X114673926Y-83229203D01*
X114694750Y-83234419D01*
X114714962Y-83241651D01*
X114734368Y-83250830D01*
X114752781Y-83261866D01*
X114770024Y-83274654D01*
X114785930Y-83289070D01*
X114800346Y-83304976D01*
X114813134Y-83322219D01*
X114824170Y-83340632D01*
X114833349Y-83360038D01*
X114840581Y-83380250D01*
X114845797Y-83401074D01*
X114848947Y-83422309D01*
X114850000Y-83443750D01*
X114850000Y-83956250D01*
X114848947Y-83977691D01*
X114845797Y-83998926D01*
X114840581Y-84019750D01*
X114833349Y-84039962D01*
X114824170Y-84059368D01*
X114813134Y-84077781D01*
X114800346Y-84095024D01*
X114785930Y-84110930D01*
X114770024Y-84125346D01*
X114752781Y-84138134D01*
X114734368Y-84149170D01*
X114714962Y-84158349D01*
X114694750Y-84165581D01*
X114673926Y-84170797D01*
X114652691Y-84173947D01*
X114631250Y-84175000D01*
X114193750Y-84175000D01*
X114172309Y-84173947D01*
X114151074Y-84170797D01*
X114130250Y-84165581D01*
X114110038Y-84158349D01*
X114090632Y-84149170D01*
X114072219Y-84138134D01*
X114054976Y-84125346D01*
X114039070Y-84110930D01*
X114024654Y-84095024D01*
X114011866Y-84077781D01*
X114000830Y-84059368D01*
X113991651Y-84039962D01*
X113984419Y-84019750D01*
X113979203Y-83998926D01*
X113976053Y-83977691D01*
X113975000Y-83956250D01*
X113975000Y-83443750D01*
X113976053Y-83422309D01*
X113979203Y-83401074D01*
X113984419Y-83380250D01*
X113991651Y-83360038D01*
X114000830Y-83340632D01*
X114011866Y-83322219D01*
X114024654Y-83304976D01*
X114039070Y-83289070D01*
X114054976Y-83274654D01*
X114072219Y-83261866D01*
X114090632Y-83250830D01*
X114110038Y-83241651D01*
X114130250Y-83234419D01*
X114151074Y-83229203D01*
X114172309Y-83226053D01*
X114193750Y-83225000D01*
X114631250Y-83225000D01*
X114652691Y-83226053D01*
X114652691Y-83226053D01*
G37*
D13*
X114412500Y-83700000D03*
D12*
G36*
X116227691Y-78126053D02*
G01*
X116248926Y-78129203D01*
X116269750Y-78134419D01*
X116289962Y-78141651D01*
X116309368Y-78150830D01*
X116327781Y-78161866D01*
X116345024Y-78174654D01*
X116360930Y-78189070D01*
X116375346Y-78204976D01*
X116388134Y-78222219D01*
X116399170Y-78240632D01*
X116408349Y-78260038D01*
X116415581Y-78280250D01*
X116420797Y-78301074D01*
X116423947Y-78322309D01*
X116425000Y-78343750D01*
X116425000Y-78856250D01*
X116423947Y-78877691D01*
X116420797Y-78898926D01*
X116415581Y-78919750D01*
X116408349Y-78939962D01*
X116399170Y-78959368D01*
X116388134Y-78977781D01*
X116375346Y-78995024D01*
X116360930Y-79010930D01*
X116345024Y-79025346D01*
X116327781Y-79038134D01*
X116309368Y-79049170D01*
X116289962Y-79058349D01*
X116269750Y-79065581D01*
X116248926Y-79070797D01*
X116227691Y-79073947D01*
X116206250Y-79075000D01*
X115768750Y-79075000D01*
X115747309Y-79073947D01*
X115726074Y-79070797D01*
X115705250Y-79065581D01*
X115685038Y-79058349D01*
X115665632Y-79049170D01*
X115647219Y-79038134D01*
X115629976Y-79025346D01*
X115614070Y-79010930D01*
X115599654Y-78995024D01*
X115586866Y-78977781D01*
X115575830Y-78959368D01*
X115566651Y-78939962D01*
X115559419Y-78919750D01*
X115554203Y-78898926D01*
X115551053Y-78877691D01*
X115550000Y-78856250D01*
X115550000Y-78343750D01*
X115551053Y-78322309D01*
X115554203Y-78301074D01*
X115559419Y-78280250D01*
X115566651Y-78260038D01*
X115575830Y-78240632D01*
X115586866Y-78222219D01*
X115599654Y-78204976D01*
X115614070Y-78189070D01*
X115629976Y-78174654D01*
X115647219Y-78161866D01*
X115665632Y-78150830D01*
X115685038Y-78141651D01*
X115705250Y-78134419D01*
X115726074Y-78129203D01*
X115747309Y-78126053D01*
X115768750Y-78125000D01*
X116206250Y-78125000D01*
X116227691Y-78126053D01*
X116227691Y-78126053D01*
G37*
D13*
X115987500Y-78600000D03*
D12*
G36*
X114652691Y-78126053D02*
G01*
X114673926Y-78129203D01*
X114694750Y-78134419D01*
X114714962Y-78141651D01*
X114734368Y-78150830D01*
X114752781Y-78161866D01*
X114770024Y-78174654D01*
X114785930Y-78189070D01*
X114800346Y-78204976D01*
X114813134Y-78222219D01*
X114824170Y-78240632D01*
X114833349Y-78260038D01*
X114840581Y-78280250D01*
X114845797Y-78301074D01*
X114848947Y-78322309D01*
X114850000Y-78343750D01*
X114850000Y-78856250D01*
X114848947Y-78877691D01*
X114845797Y-78898926D01*
X114840581Y-78919750D01*
X114833349Y-78939962D01*
X114824170Y-78959368D01*
X114813134Y-78977781D01*
X114800346Y-78995024D01*
X114785930Y-79010930D01*
X114770024Y-79025346D01*
X114752781Y-79038134D01*
X114734368Y-79049170D01*
X114714962Y-79058349D01*
X114694750Y-79065581D01*
X114673926Y-79070797D01*
X114652691Y-79073947D01*
X114631250Y-79075000D01*
X114193750Y-79075000D01*
X114172309Y-79073947D01*
X114151074Y-79070797D01*
X114130250Y-79065581D01*
X114110038Y-79058349D01*
X114090632Y-79049170D01*
X114072219Y-79038134D01*
X114054976Y-79025346D01*
X114039070Y-79010930D01*
X114024654Y-78995024D01*
X114011866Y-78977781D01*
X114000830Y-78959368D01*
X113991651Y-78939962D01*
X113984419Y-78919750D01*
X113979203Y-78898926D01*
X113976053Y-78877691D01*
X113975000Y-78856250D01*
X113975000Y-78343750D01*
X113976053Y-78322309D01*
X113979203Y-78301074D01*
X113984419Y-78280250D01*
X113991651Y-78260038D01*
X114000830Y-78240632D01*
X114011866Y-78222219D01*
X114024654Y-78204976D01*
X114039070Y-78189070D01*
X114054976Y-78174654D01*
X114072219Y-78161866D01*
X114090632Y-78150830D01*
X114110038Y-78141651D01*
X114130250Y-78134419D01*
X114151074Y-78129203D01*
X114172309Y-78126053D01*
X114193750Y-78125000D01*
X114631250Y-78125000D01*
X114652691Y-78126053D01*
X114652691Y-78126053D01*
G37*
D13*
X114412500Y-78600000D03*
D12*
G36*
X115677691Y-75951053D02*
G01*
X115698926Y-75954203D01*
X115719750Y-75959419D01*
X115739962Y-75966651D01*
X115759368Y-75975830D01*
X115777781Y-75986866D01*
X115795024Y-75999654D01*
X115810930Y-76014070D01*
X115825346Y-76029976D01*
X115838134Y-76047219D01*
X115849170Y-76065632D01*
X115858349Y-76085038D01*
X115865581Y-76105250D01*
X115870797Y-76126074D01*
X115873947Y-76147309D01*
X115875000Y-76168750D01*
X115875000Y-76606250D01*
X115873947Y-76627691D01*
X115870797Y-76648926D01*
X115865581Y-76669750D01*
X115858349Y-76689962D01*
X115849170Y-76709368D01*
X115838134Y-76727781D01*
X115825346Y-76745024D01*
X115810930Y-76760930D01*
X115795024Y-76775346D01*
X115777781Y-76788134D01*
X115759368Y-76799170D01*
X115739962Y-76808349D01*
X115719750Y-76815581D01*
X115698926Y-76820797D01*
X115677691Y-76823947D01*
X115656250Y-76825000D01*
X115143750Y-76825000D01*
X115122309Y-76823947D01*
X115101074Y-76820797D01*
X115080250Y-76815581D01*
X115060038Y-76808349D01*
X115040632Y-76799170D01*
X115022219Y-76788134D01*
X115004976Y-76775346D01*
X114989070Y-76760930D01*
X114974654Y-76745024D01*
X114961866Y-76727781D01*
X114950830Y-76709368D01*
X114941651Y-76689962D01*
X114934419Y-76669750D01*
X114929203Y-76648926D01*
X114926053Y-76627691D01*
X114925000Y-76606250D01*
X114925000Y-76168750D01*
X114926053Y-76147309D01*
X114929203Y-76126074D01*
X114934419Y-76105250D01*
X114941651Y-76085038D01*
X114950830Y-76065632D01*
X114961866Y-76047219D01*
X114974654Y-76029976D01*
X114989070Y-76014070D01*
X115004976Y-75999654D01*
X115022219Y-75986866D01*
X115040632Y-75975830D01*
X115060038Y-75966651D01*
X115080250Y-75959419D01*
X115101074Y-75954203D01*
X115122309Y-75951053D01*
X115143750Y-75950000D01*
X115656250Y-75950000D01*
X115677691Y-75951053D01*
X115677691Y-75951053D01*
G37*
D13*
X115400000Y-76387500D03*
D12*
G36*
X115677691Y-74376053D02*
G01*
X115698926Y-74379203D01*
X115719750Y-74384419D01*
X115739962Y-74391651D01*
X115759368Y-74400830D01*
X115777781Y-74411866D01*
X115795024Y-74424654D01*
X115810930Y-74439070D01*
X115825346Y-74454976D01*
X115838134Y-74472219D01*
X115849170Y-74490632D01*
X115858349Y-74510038D01*
X115865581Y-74530250D01*
X115870797Y-74551074D01*
X115873947Y-74572309D01*
X115875000Y-74593750D01*
X115875000Y-75031250D01*
X115873947Y-75052691D01*
X115870797Y-75073926D01*
X115865581Y-75094750D01*
X115858349Y-75114962D01*
X115849170Y-75134368D01*
X115838134Y-75152781D01*
X115825346Y-75170024D01*
X115810930Y-75185930D01*
X115795024Y-75200346D01*
X115777781Y-75213134D01*
X115759368Y-75224170D01*
X115739962Y-75233349D01*
X115719750Y-75240581D01*
X115698926Y-75245797D01*
X115677691Y-75248947D01*
X115656250Y-75250000D01*
X115143750Y-75250000D01*
X115122309Y-75248947D01*
X115101074Y-75245797D01*
X115080250Y-75240581D01*
X115060038Y-75233349D01*
X115040632Y-75224170D01*
X115022219Y-75213134D01*
X115004976Y-75200346D01*
X114989070Y-75185930D01*
X114974654Y-75170024D01*
X114961866Y-75152781D01*
X114950830Y-75134368D01*
X114941651Y-75114962D01*
X114934419Y-75094750D01*
X114929203Y-75073926D01*
X114926053Y-75052691D01*
X114925000Y-75031250D01*
X114925000Y-74593750D01*
X114926053Y-74572309D01*
X114929203Y-74551074D01*
X114934419Y-74530250D01*
X114941651Y-74510038D01*
X114950830Y-74490632D01*
X114961866Y-74472219D01*
X114974654Y-74454976D01*
X114989070Y-74439070D01*
X115004976Y-74424654D01*
X115022219Y-74411866D01*
X115040632Y-74400830D01*
X115060038Y-74391651D01*
X115080250Y-74384419D01*
X115101074Y-74379203D01*
X115122309Y-74376053D01*
X115143750Y-74375000D01*
X115656250Y-74375000D01*
X115677691Y-74376053D01*
X115677691Y-74376053D01*
G37*
D13*
X115400000Y-74812500D03*
D12*
G36*
X113977691Y-74751053D02*
G01*
X113998926Y-74754203D01*
X114019750Y-74759419D01*
X114039962Y-74766651D01*
X114059368Y-74775830D01*
X114077781Y-74786866D01*
X114095024Y-74799654D01*
X114110930Y-74814070D01*
X114125346Y-74829976D01*
X114138134Y-74847219D01*
X114149170Y-74865632D01*
X114158349Y-74885038D01*
X114165581Y-74905250D01*
X114170797Y-74926074D01*
X114173947Y-74947309D01*
X114175000Y-74968750D01*
X114175000Y-75406250D01*
X114173947Y-75427691D01*
X114170797Y-75448926D01*
X114165581Y-75469750D01*
X114158349Y-75489962D01*
X114149170Y-75509368D01*
X114138134Y-75527781D01*
X114125346Y-75545024D01*
X114110930Y-75560930D01*
X114095024Y-75575346D01*
X114077781Y-75588134D01*
X114059368Y-75599170D01*
X114039962Y-75608349D01*
X114019750Y-75615581D01*
X113998926Y-75620797D01*
X113977691Y-75623947D01*
X113956250Y-75625000D01*
X113443750Y-75625000D01*
X113422309Y-75623947D01*
X113401074Y-75620797D01*
X113380250Y-75615581D01*
X113360038Y-75608349D01*
X113340632Y-75599170D01*
X113322219Y-75588134D01*
X113304976Y-75575346D01*
X113289070Y-75560930D01*
X113274654Y-75545024D01*
X113261866Y-75527781D01*
X113250830Y-75509368D01*
X113241651Y-75489962D01*
X113234419Y-75469750D01*
X113229203Y-75448926D01*
X113226053Y-75427691D01*
X113225000Y-75406250D01*
X113225000Y-74968750D01*
X113226053Y-74947309D01*
X113229203Y-74926074D01*
X113234419Y-74905250D01*
X113241651Y-74885038D01*
X113250830Y-74865632D01*
X113261866Y-74847219D01*
X113274654Y-74829976D01*
X113289070Y-74814070D01*
X113304976Y-74799654D01*
X113322219Y-74786866D01*
X113340632Y-74775830D01*
X113360038Y-74766651D01*
X113380250Y-74759419D01*
X113401074Y-74754203D01*
X113422309Y-74751053D01*
X113443750Y-74750000D01*
X113956250Y-74750000D01*
X113977691Y-74751053D01*
X113977691Y-74751053D01*
G37*
D13*
X113700000Y-75187500D03*
D12*
G36*
X113977691Y-73176053D02*
G01*
X113998926Y-73179203D01*
X114019750Y-73184419D01*
X114039962Y-73191651D01*
X114059368Y-73200830D01*
X114077781Y-73211866D01*
X114095024Y-73224654D01*
X114110930Y-73239070D01*
X114125346Y-73254976D01*
X114138134Y-73272219D01*
X114149170Y-73290632D01*
X114158349Y-73310038D01*
X114165581Y-73330250D01*
X114170797Y-73351074D01*
X114173947Y-73372309D01*
X114175000Y-73393750D01*
X114175000Y-73831250D01*
X114173947Y-73852691D01*
X114170797Y-73873926D01*
X114165581Y-73894750D01*
X114158349Y-73914962D01*
X114149170Y-73934368D01*
X114138134Y-73952781D01*
X114125346Y-73970024D01*
X114110930Y-73985930D01*
X114095024Y-74000346D01*
X114077781Y-74013134D01*
X114059368Y-74024170D01*
X114039962Y-74033349D01*
X114019750Y-74040581D01*
X113998926Y-74045797D01*
X113977691Y-74048947D01*
X113956250Y-74050000D01*
X113443750Y-74050000D01*
X113422309Y-74048947D01*
X113401074Y-74045797D01*
X113380250Y-74040581D01*
X113360038Y-74033349D01*
X113340632Y-74024170D01*
X113322219Y-74013134D01*
X113304976Y-74000346D01*
X113289070Y-73985930D01*
X113274654Y-73970024D01*
X113261866Y-73952781D01*
X113250830Y-73934368D01*
X113241651Y-73914962D01*
X113234419Y-73894750D01*
X113229203Y-73873926D01*
X113226053Y-73852691D01*
X113225000Y-73831250D01*
X113225000Y-73393750D01*
X113226053Y-73372309D01*
X113229203Y-73351074D01*
X113234419Y-73330250D01*
X113241651Y-73310038D01*
X113250830Y-73290632D01*
X113261866Y-73272219D01*
X113274654Y-73254976D01*
X113289070Y-73239070D01*
X113304976Y-73224654D01*
X113322219Y-73211866D01*
X113340632Y-73200830D01*
X113360038Y-73191651D01*
X113380250Y-73184419D01*
X113401074Y-73179203D01*
X113422309Y-73176053D01*
X113443750Y-73175000D01*
X113956250Y-73175000D01*
X113977691Y-73176053D01*
X113977691Y-73176053D01*
G37*
D13*
X113700000Y-73612500D03*
D12*
G36*
X112577691Y-78576053D02*
G01*
X112598926Y-78579203D01*
X112619750Y-78584419D01*
X112639962Y-78591651D01*
X112659368Y-78600830D01*
X112677781Y-78611866D01*
X112695024Y-78624654D01*
X112710930Y-78639070D01*
X112725346Y-78654976D01*
X112738134Y-78672219D01*
X112749170Y-78690632D01*
X112758349Y-78710038D01*
X112765581Y-78730250D01*
X112770797Y-78751074D01*
X112773947Y-78772309D01*
X112775000Y-78793750D01*
X112775000Y-79231250D01*
X112773947Y-79252691D01*
X112770797Y-79273926D01*
X112765581Y-79294750D01*
X112758349Y-79314962D01*
X112749170Y-79334368D01*
X112738134Y-79352781D01*
X112725346Y-79370024D01*
X112710930Y-79385930D01*
X112695024Y-79400346D01*
X112677781Y-79413134D01*
X112659368Y-79424170D01*
X112639962Y-79433349D01*
X112619750Y-79440581D01*
X112598926Y-79445797D01*
X112577691Y-79448947D01*
X112556250Y-79450000D01*
X112043750Y-79450000D01*
X112022309Y-79448947D01*
X112001074Y-79445797D01*
X111980250Y-79440581D01*
X111960038Y-79433349D01*
X111940632Y-79424170D01*
X111922219Y-79413134D01*
X111904976Y-79400346D01*
X111889070Y-79385930D01*
X111874654Y-79370024D01*
X111861866Y-79352781D01*
X111850830Y-79334368D01*
X111841651Y-79314962D01*
X111834419Y-79294750D01*
X111829203Y-79273926D01*
X111826053Y-79252691D01*
X111825000Y-79231250D01*
X111825000Y-78793750D01*
X111826053Y-78772309D01*
X111829203Y-78751074D01*
X111834419Y-78730250D01*
X111841651Y-78710038D01*
X111850830Y-78690632D01*
X111861866Y-78672219D01*
X111874654Y-78654976D01*
X111889070Y-78639070D01*
X111904976Y-78624654D01*
X111922219Y-78611866D01*
X111940632Y-78600830D01*
X111960038Y-78591651D01*
X111980250Y-78584419D01*
X112001074Y-78579203D01*
X112022309Y-78576053D01*
X112043750Y-78575000D01*
X112556250Y-78575000D01*
X112577691Y-78576053D01*
X112577691Y-78576053D01*
G37*
D13*
X112300000Y-79012500D03*
D12*
G36*
X112577691Y-80151053D02*
G01*
X112598926Y-80154203D01*
X112619750Y-80159419D01*
X112639962Y-80166651D01*
X112659368Y-80175830D01*
X112677781Y-80186866D01*
X112695024Y-80199654D01*
X112710930Y-80214070D01*
X112725346Y-80229976D01*
X112738134Y-80247219D01*
X112749170Y-80265632D01*
X112758349Y-80285038D01*
X112765581Y-80305250D01*
X112770797Y-80326074D01*
X112773947Y-80347309D01*
X112775000Y-80368750D01*
X112775000Y-80806250D01*
X112773947Y-80827691D01*
X112770797Y-80848926D01*
X112765581Y-80869750D01*
X112758349Y-80889962D01*
X112749170Y-80909368D01*
X112738134Y-80927781D01*
X112725346Y-80945024D01*
X112710930Y-80960930D01*
X112695024Y-80975346D01*
X112677781Y-80988134D01*
X112659368Y-80999170D01*
X112639962Y-81008349D01*
X112619750Y-81015581D01*
X112598926Y-81020797D01*
X112577691Y-81023947D01*
X112556250Y-81025000D01*
X112043750Y-81025000D01*
X112022309Y-81023947D01*
X112001074Y-81020797D01*
X111980250Y-81015581D01*
X111960038Y-81008349D01*
X111940632Y-80999170D01*
X111922219Y-80988134D01*
X111904976Y-80975346D01*
X111889070Y-80960930D01*
X111874654Y-80945024D01*
X111861866Y-80927781D01*
X111850830Y-80909368D01*
X111841651Y-80889962D01*
X111834419Y-80869750D01*
X111829203Y-80848926D01*
X111826053Y-80827691D01*
X111825000Y-80806250D01*
X111825000Y-80368750D01*
X111826053Y-80347309D01*
X111829203Y-80326074D01*
X111834419Y-80305250D01*
X111841651Y-80285038D01*
X111850830Y-80265632D01*
X111861866Y-80247219D01*
X111874654Y-80229976D01*
X111889070Y-80214070D01*
X111904976Y-80199654D01*
X111922219Y-80186866D01*
X111940632Y-80175830D01*
X111960038Y-80166651D01*
X111980250Y-80159419D01*
X112001074Y-80154203D01*
X112022309Y-80151053D01*
X112043750Y-80150000D01*
X112556250Y-80150000D01*
X112577691Y-80151053D01*
X112577691Y-80151053D01*
G37*
D13*
X112300000Y-80587500D03*
D12*
G36*
X115327691Y-70926053D02*
G01*
X115348926Y-70929203D01*
X115369750Y-70934419D01*
X115389962Y-70941651D01*
X115409368Y-70950830D01*
X115427781Y-70961866D01*
X115445024Y-70974654D01*
X115460930Y-70989070D01*
X115475346Y-71004976D01*
X115488134Y-71022219D01*
X115499170Y-71040632D01*
X115508349Y-71060038D01*
X115515581Y-71080250D01*
X115520797Y-71101074D01*
X115523947Y-71122309D01*
X115525000Y-71143750D01*
X115525000Y-71656250D01*
X115523947Y-71677691D01*
X115520797Y-71698926D01*
X115515581Y-71719750D01*
X115508349Y-71739962D01*
X115499170Y-71759368D01*
X115488134Y-71777781D01*
X115475346Y-71795024D01*
X115460930Y-71810930D01*
X115445024Y-71825346D01*
X115427781Y-71838134D01*
X115409368Y-71849170D01*
X115389962Y-71858349D01*
X115369750Y-71865581D01*
X115348926Y-71870797D01*
X115327691Y-71873947D01*
X115306250Y-71875000D01*
X114868750Y-71875000D01*
X114847309Y-71873947D01*
X114826074Y-71870797D01*
X114805250Y-71865581D01*
X114785038Y-71858349D01*
X114765632Y-71849170D01*
X114747219Y-71838134D01*
X114729976Y-71825346D01*
X114714070Y-71810930D01*
X114699654Y-71795024D01*
X114686866Y-71777781D01*
X114675830Y-71759368D01*
X114666651Y-71739962D01*
X114659419Y-71719750D01*
X114654203Y-71698926D01*
X114651053Y-71677691D01*
X114650000Y-71656250D01*
X114650000Y-71143750D01*
X114651053Y-71122309D01*
X114654203Y-71101074D01*
X114659419Y-71080250D01*
X114666651Y-71060038D01*
X114675830Y-71040632D01*
X114686866Y-71022219D01*
X114699654Y-71004976D01*
X114714070Y-70989070D01*
X114729976Y-70974654D01*
X114747219Y-70961866D01*
X114765632Y-70950830D01*
X114785038Y-70941651D01*
X114805250Y-70934419D01*
X114826074Y-70929203D01*
X114847309Y-70926053D01*
X114868750Y-70925000D01*
X115306250Y-70925000D01*
X115327691Y-70926053D01*
X115327691Y-70926053D01*
G37*
D13*
X115087500Y-71400000D03*
D12*
G36*
X113752691Y-70926053D02*
G01*
X113773926Y-70929203D01*
X113794750Y-70934419D01*
X113814962Y-70941651D01*
X113834368Y-70950830D01*
X113852781Y-70961866D01*
X113870024Y-70974654D01*
X113885930Y-70989070D01*
X113900346Y-71004976D01*
X113913134Y-71022219D01*
X113924170Y-71040632D01*
X113933349Y-71060038D01*
X113940581Y-71080250D01*
X113945797Y-71101074D01*
X113948947Y-71122309D01*
X113950000Y-71143750D01*
X113950000Y-71656250D01*
X113948947Y-71677691D01*
X113945797Y-71698926D01*
X113940581Y-71719750D01*
X113933349Y-71739962D01*
X113924170Y-71759368D01*
X113913134Y-71777781D01*
X113900346Y-71795024D01*
X113885930Y-71810930D01*
X113870024Y-71825346D01*
X113852781Y-71838134D01*
X113834368Y-71849170D01*
X113814962Y-71858349D01*
X113794750Y-71865581D01*
X113773926Y-71870797D01*
X113752691Y-71873947D01*
X113731250Y-71875000D01*
X113293750Y-71875000D01*
X113272309Y-71873947D01*
X113251074Y-71870797D01*
X113230250Y-71865581D01*
X113210038Y-71858349D01*
X113190632Y-71849170D01*
X113172219Y-71838134D01*
X113154976Y-71825346D01*
X113139070Y-71810930D01*
X113124654Y-71795024D01*
X113111866Y-71777781D01*
X113100830Y-71759368D01*
X113091651Y-71739962D01*
X113084419Y-71719750D01*
X113079203Y-71698926D01*
X113076053Y-71677691D01*
X113075000Y-71656250D01*
X113075000Y-71143750D01*
X113076053Y-71122309D01*
X113079203Y-71101074D01*
X113084419Y-71080250D01*
X113091651Y-71060038D01*
X113100830Y-71040632D01*
X113111866Y-71022219D01*
X113124654Y-71004976D01*
X113139070Y-70989070D01*
X113154976Y-70974654D01*
X113172219Y-70961866D01*
X113190632Y-70950830D01*
X113210038Y-70941651D01*
X113230250Y-70934419D01*
X113251074Y-70929203D01*
X113272309Y-70926053D01*
X113293750Y-70925000D01*
X113731250Y-70925000D01*
X113752691Y-70926053D01*
X113752691Y-70926053D01*
G37*
D13*
X113512500Y-71400000D03*
D12*
G36*
X109052691Y-78526053D02*
G01*
X109073926Y-78529203D01*
X109094750Y-78534419D01*
X109114962Y-78541651D01*
X109134368Y-78550830D01*
X109152781Y-78561866D01*
X109170024Y-78574654D01*
X109185930Y-78589070D01*
X109200346Y-78604976D01*
X109213134Y-78622219D01*
X109224170Y-78640632D01*
X109233349Y-78660038D01*
X109240581Y-78680250D01*
X109245797Y-78701074D01*
X109248947Y-78722309D01*
X109250000Y-78743750D01*
X109250000Y-79256250D01*
X109248947Y-79277691D01*
X109245797Y-79298926D01*
X109240581Y-79319750D01*
X109233349Y-79339962D01*
X109224170Y-79359368D01*
X109213134Y-79377781D01*
X109200346Y-79395024D01*
X109185930Y-79410930D01*
X109170024Y-79425346D01*
X109152781Y-79438134D01*
X109134368Y-79449170D01*
X109114962Y-79458349D01*
X109094750Y-79465581D01*
X109073926Y-79470797D01*
X109052691Y-79473947D01*
X109031250Y-79475000D01*
X108593750Y-79475000D01*
X108572309Y-79473947D01*
X108551074Y-79470797D01*
X108530250Y-79465581D01*
X108510038Y-79458349D01*
X108490632Y-79449170D01*
X108472219Y-79438134D01*
X108454976Y-79425346D01*
X108439070Y-79410930D01*
X108424654Y-79395024D01*
X108411866Y-79377781D01*
X108400830Y-79359368D01*
X108391651Y-79339962D01*
X108384419Y-79319750D01*
X108379203Y-79298926D01*
X108376053Y-79277691D01*
X108375000Y-79256250D01*
X108375000Y-78743750D01*
X108376053Y-78722309D01*
X108379203Y-78701074D01*
X108384419Y-78680250D01*
X108391651Y-78660038D01*
X108400830Y-78640632D01*
X108411866Y-78622219D01*
X108424654Y-78604976D01*
X108439070Y-78589070D01*
X108454976Y-78574654D01*
X108472219Y-78561866D01*
X108490632Y-78550830D01*
X108510038Y-78541651D01*
X108530250Y-78534419D01*
X108551074Y-78529203D01*
X108572309Y-78526053D01*
X108593750Y-78525000D01*
X109031250Y-78525000D01*
X109052691Y-78526053D01*
X109052691Y-78526053D01*
G37*
D13*
X108812500Y-79000000D03*
D12*
G36*
X110627691Y-78526053D02*
G01*
X110648926Y-78529203D01*
X110669750Y-78534419D01*
X110689962Y-78541651D01*
X110709368Y-78550830D01*
X110727781Y-78561866D01*
X110745024Y-78574654D01*
X110760930Y-78589070D01*
X110775346Y-78604976D01*
X110788134Y-78622219D01*
X110799170Y-78640632D01*
X110808349Y-78660038D01*
X110815581Y-78680250D01*
X110820797Y-78701074D01*
X110823947Y-78722309D01*
X110825000Y-78743750D01*
X110825000Y-79256250D01*
X110823947Y-79277691D01*
X110820797Y-79298926D01*
X110815581Y-79319750D01*
X110808349Y-79339962D01*
X110799170Y-79359368D01*
X110788134Y-79377781D01*
X110775346Y-79395024D01*
X110760930Y-79410930D01*
X110745024Y-79425346D01*
X110727781Y-79438134D01*
X110709368Y-79449170D01*
X110689962Y-79458349D01*
X110669750Y-79465581D01*
X110648926Y-79470797D01*
X110627691Y-79473947D01*
X110606250Y-79475000D01*
X110168750Y-79475000D01*
X110147309Y-79473947D01*
X110126074Y-79470797D01*
X110105250Y-79465581D01*
X110085038Y-79458349D01*
X110065632Y-79449170D01*
X110047219Y-79438134D01*
X110029976Y-79425346D01*
X110014070Y-79410930D01*
X109999654Y-79395024D01*
X109986866Y-79377781D01*
X109975830Y-79359368D01*
X109966651Y-79339962D01*
X109959419Y-79319750D01*
X109954203Y-79298926D01*
X109951053Y-79277691D01*
X109950000Y-79256250D01*
X109950000Y-78743750D01*
X109951053Y-78722309D01*
X109954203Y-78701074D01*
X109959419Y-78680250D01*
X109966651Y-78660038D01*
X109975830Y-78640632D01*
X109986866Y-78622219D01*
X109999654Y-78604976D01*
X110014070Y-78589070D01*
X110029976Y-78574654D01*
X110047219Y-78561866D01*
X110065632Y-78550830D01*
X110085038Y-78541651D01*
X110105250Y-78534419D01*
X110126074Y-78529203D01*
X110147309Y-78526053D01*
X110168750Y-78525000D01*
X110606250Y-78525000D01*
X110627691Y-78526053D01*
X110627691Y-78526053D01*
G37*
D13*
X110387500Y-79000000D03*
D12*
G36*
X109157691Y-81851053D02*
G01*
X109178926Y-81854203D01*
X109199750Y-81859419D01*
X109219962Y-81866651D01*
X109239368Y-81875830D01*
X109257781Y-81886866D01*
X109275024Y-81899654D01*
X109290930Y-81914070D01*
X109305346Y-81929976D01*
X109318134Y-81947219D01*
X109329170Y-81965632D01*
X109338349Y-81985038D01*
X109345581Y-82005250D01*
X109350797Y-82026074D01*
X109353947Y-82047309D01*
X109355000Y-82068750D01*
X109355000Y-82506250D01*
X109353947Y-82527691D01*
X109350797Y-82548926D01*
X109345581Y-82569750D01*
X109338349Y-82589962D01*
X109329170Y-82609368D01*
X109318134Y-82627781D01*
X109305346Y-82645024D01*
X109290930Y-82660930D01*
X109275024Y-82675346D01*
X109257781Y-82688134D01*
X109239368Y-82699170D01*
X109219962Y-82708349D01*
X109199750Y-82715581D01*
X109178926Y-82720797D01*
X109157691Y-82723947D01*
X109136250Y-82725000D01*
X108623750Y-82725000D01*
X108602309Y-82723947D01*
X108581074Y-82720797D01*
X108560250Y-82715581D01*
X108540038Y-82708349D01*
X108520632Y-82699170D01*
X108502219Y-82688134D01*
X108484976Y-82675346D01*
X108469070Y-82660930D01*
X108454654Y-82645024D01*
X108441866Y-82627781D01*
X108430830Y-82609368D01*
X108421651Y-82589962D01*
X108414419Y-82569750D01*
X108409203Y-82548926D01*
X108406053Y-82527691D01*
X108405000Y-82506250D01*
X108405000Y-82068750D01*
X108406053Y-82047309D01*
X108409203Y-82026074D01*
X108414419Y-82005250D01*
X108421651Y-81985038D01*
X108430830Y-81965632D01*
X108441866Y-81947219D01*
X108454654Y-81929976D01*
X108469070Y-81914070D01*
X108484976Y-81899654D01*
X108502219Y-81886866D01*
X108520632Y-81875830D01*
X108540038Y-81866651D01*
X108560250Y-81859419D01*
X108581074Y-81854203D01*
X108602309Y-81851053D01*
X108623750Y-81850000D01*
X109136250Y-81850000D01*
X109157691Y-81851053D01*
X109157691Y-81851053D01*
G37*
D13*
X108880000Y-82287500D03*
D12*
G36*
X109157691Y-80276053D02*
G01*
X109178926Y-80279203D01*
X109199750Y-80284419D01*
X109219962Y-80291651D01*
X109239368Y-80300830D01*
X109257781Y-80311866D01*
X109275024Y-80324654D01*
X109290930Y-80339070D01*
X109305346Y-80354976D01*
X109318134Y-80372219D01*
X109329170Y-80390632D01*
X109338349Y-80410038D01*
X109345581Y-80430250D01*
X109350797Y-80451074D01*
X109353947Y-80472309D01*
X109355000Y-80493750D01*
X109355000Y-80931250D01*
X109353947Y-80952691D01*
X109350797Y-80973926D01*
X109345581Y-80994750D01*
X109338349Y-81014962D01*
X109329170Y-81034368D01*
X109318134Y-81052781D01*
X109305346Y-81070024D01*
X109290930Y-81085930D01*
X109275024Y-81100346D01*
X109257781Y-81113134D01*
X109239368Y-81124170D01*
X109219962Y-81133349D01*
X109199750Y-81140581D01*
X109178926Y-81145797D01*
X109157691Y-81148947D01*
X109136250Y-81150000D01*
X108623750Y-81150000D01*
X108602309Y-81148947D01*
X108581074Y-81145797D01*
X108560250Y-81140581D01*
X108540038Y-81133349D01*
X108520632Y-81124170D01*
X108502219Y-81113134D01*
X108484976Y-81100346D01*
X108469070Y-81085930D01*
X108454654Y-81070024D01*
X108441866Y-81052781D01*
X108430830Y-81034368D01*
X108421651Y-81014962D01*
X108414419Y-80994750D01*
X108409203Y-80973926D01*
X108406053Y-80952691D01*
X108405000Y-80931250D01*
X108405000Y-80493750D01*
X108406053Y-80472309D01*
X108409203Y-80451074D01*
X108414419Y-80430250D01*
X108421651Y-80410038D01*
X108430830Y-80390632D01*
X108441866Y-80372219D01*
X108454654Y-80354976D01*
X108469070Y-80339070D01*
X108484976Y-80324654D01*
X108502219Y-80311866D01*
X108520632Y-80300830D01*
X108540038Y-80291651D01*
X108560250Y-80284419D01*
X108581074Y-80279203D01*
X108602309Y-80276053D01*
X108623750Y-80275000D01*
X109136250Y-80275000D01*
X109157691Y-80276053D01*
X109157691Y-80276053D01*
G37*
D13*
X108880000Y-80712500D03*
D16*
X111375000Y-72062500D03*
D17*
X107187500Y-72750000D03*
D16*
X107875000Y-76937500D03*
D17*
X112062500Y-76250000D03*
D18*
X108475000Y-75650000D03*
X108475000Y-74500000D03*
X108475000Y-73350000D03*
X109625000Y-73350000D03*
X109625000Y-74500000D03*
X109625000Y-75650000D03*
X110775000Y-73350000D03*
X110775000Y-74500000D03*
X110775000Y-75650000D03*
D16*
X110875000Y-72062500D03*
X110375000Y-72062500D03*
X109875000Y-72062500D03*
X109375000Y-72062500D03*
X108875000Y-72062500D03*
X108375000Y-72062500D03*
X107875000Y-72062500D03*
D17*
X107187500Y-73250000D03*
X107187500Y-73750000D03*
X107187500Y-74250000D03*
X107187500Y-74750000D03*
X107187500Y-75250000D03*
X107187500Y-75750000D03*
X107187500Y-76250000D03*
D16*
X108375000Y-76937500D03*
X108875000Y-76937500D03*
X109375000Y-76937500D03*
X109875000Y-76937500D03*
X110375000Y-76937500D03*
X110875000Y-76937500D03*
X111375000Y-76937500D03*
D17*
X112062500Y-75750000D03*
X112062500Y-75250000D03*
X112062500Y-74750000D03*
X112062500Y-74250000D03*
X112062500Y-73750000D03*
X112062500Y-73250000D03*
X112062500Y-72750000D03*
M02*
