M48
;DRILL file {KiCad 6.0.0-rc1-unknown-181ce46~66~ubuntu18.04.1} date Tue Sep 11 11:27:29 2018
;FORMAT={-:-/ absolute / inch / decimal}
FMAT,2
INCH,TZ
T1C0.0157
T2C0.0394
%
G90
G05
M72
T1
X4.1398Y-3.0354
X4.2156Y-3.2018
X4.2156Y-3.2697
X4.2156Y-3.3622
X4.2156Y-3.4272
X4.2165Y-3.1368
X4.2687Y-2.8858
X4.2687Y-2.9793
X4.315Y-2.9331
X4.3632Y-2.9803
X4.3652Y-2.8839
X4.3947Y-3.1496
X4.3947Y-3.2205
X4.3947Y-3.2874
X4.4469Y-3.3386
X4.4606Y-2.6841
X4.4646Y-3.0591
X4.4961Y-3.1575
X4.5079Y-2.9321
X4.5098Y-2.811
X4.5443Y-3.315
X4.5571Y-2.7283
X4.5827Y-3.2244
X4.6299Y-3.2628
X4.6535Y-2.8701
X4.6545Y-2.7598
X4.6841Y-3.2067
X4.7244Y-3.1417
X4.7913Y-3.124
T2
X4.0067Y-2.9409
X4.0067Y-3.063
X4.8256Y-2.9409
X4.8256Y-3.063
X4.7451Y-3.003
T0
M30
