G04 #@! TF.GenerationSoftware,KiCad,Pcbnew,6.0.0-rc1-unknown-181ce46~66~ubuntu18.04.1*
G04 #@! TF.CreationDate,2018-09-11T11:27:27+02:00*
G04 #@! TF.ProjectId,weather,776561746865722E6B696361645F7063,1.0*
G04 #@! TF.SameCoordinates,Original*
G04 #@! TF.FileFunction,Copper,L1,Top,Signal*
G04 #@! TF.FilePolarity,Positive*
%FSLAX46Y46*%
G04 Gerber Fmt 4.6, Leading zero omitted, Abs format (unit mm)*
G04 Created by KiCad (PCBNEW 6.0.0-rc1-unknown-181ce46~66~ubuntu18.04.1) date Tue Sep 11 11:27:27 2018*
%MOMM*%
%LPD*%
G01*
G04 APERTURE LIST*
G04 #@! TA.AperFunction,ComponentPad*
%ADD10C,2.000000*%
G04 #@! TD*
G04 #@! TA.AperFunction,Conductor*
%ADD11C,0.100000*%
G04 #@! TD*
G04 #@! TA.AperFunction,SMDPad,CuDef*
%ADD12C,0.875000*%
G04 #@! TD*
G04 #@! TA.AperFunction,ConnectorPad*
%ADD13C,0.787400*%
G04 #@! TD*
G04 #@! TA.AperFunction,ComponentPad*
%ADD14C,2.300000*%
G04 #@! TD*
G04 #@! TA.AperFunction,SMDPad,CuDef*
%ADD15R,1.000000X1.800000*%
G04 #@! TD*
G04 #@! TA.AperFunction,SMDPad,CuDef*
%ADD16R,1.400000X1.200000*%
G04 #@! TD*
G04 #@! TA.AperFunction,SMDPad,CuDef*
%ADD17R,1.500000X2.400000*%
G04 #@! TD*
G04 #@! TA.AperFunction,SMDPad,CuDef*
%ADD18R,0.600000X0.400000*%
G04 #@! TD*
G04 #@! TA.AperFunction,SMDPad,CuDef*
%ADD19R,0.250000X0.825000*%
G04 #@! TD*
G04 #@! TA.AperFunction,SMDPad,CuDef*
%ADD20R,0.825000X0.250000*%
G04 #@! TD*
G04 #@! TA.AperFunction,SMDPad,CuDef*
%ADD21R,3.600000X3.600000*%
G04 #@! TD*
G04 #@! TA.AperFunction,ViaPad*
%ADD22C,0.800000*%
G04 #@! TD*
G04 #@! TA.AperFunction,Conductor*
%ADD23C,0.200000*%
G04 #@! TD*
G04 #@! TA.AperFunction,Conductor*
%ADD24C,0.500000*%
G04 #@! TD*
G04 #@! TA.AperFunction,Conductor*
%ADD25C,0.300000*%
G04 #@! TD*
G04 #@! TA.AperFunction,Conductor*
%ADD26C,0.600000*%
G04 #@! TD*
G04 APERTURE END LIST*
D10*
G04 #@! TO.P,TP1,1*
G04 #@! TO.N,GNDREF*
X120525000Y-76275000D03*
G04 #@! TD*
D11*
G04 #@! TO.N,Net-(D1-Pad1)*
G04 #@! TO.C,R3*
G36*
X111802691Y-66126053D02*
X111823926Y-66129203D01*
X111844750Y-66134419D01*
X111864962Y-66141651D01*
X111884368Y-66150830D01*
X111902781Y-66161866D01*
X111920024Y-66174654D01*
X111935930Y-66189070D01*
X111950346Y-66204976D01*
X111963134Y-66222219D01*
X111974170Y-66240632D01*
X111983349Y-66260038D01*
X111990581Y-66280250D01*
X111995797Y-66301074D01*
X111998947Y-66322309D01*
X112000000Y-66343750D01*
X112000000Y-66856250D01*
X111998947Y-66877691D01*
X111995797Y-66898926D01*
X111990581Y-66919750D01*
X111983349Y-66939962D01*
X111974170Y-66959368D01*
X111963134Y-66977781D01*
X111950346Y-66995024D01*
X111935930Y-67010930D01*
X111920024Y-67025346D01*
X111902781Y-67038134D01*
X111884368Y-67049170D01*
X111864962Y-67058349D01*
X111844750Y-67065581D01*
X111823926Y-67070797D01*
X111802691Y-67073947D01*
X111781250Y-67075000D01*
X111343750Y-67075000D01*
X111322309Y-67073947D01*
X111301074Y-67070797D01*
X111280250Y-67065581D01*
X111260038Y-67058349D01*
X111240632Y-67049170D01*
X111222219Y-67038134D01*
X111204976Y-67025346D01*
X111189070Y-67010930D01*
X111174654Y-66995024D01*
X111161866Y-66977781D01*
X111150830Y-66959368D01*
X111141651Y-66939962D01*
X111134419Y-66919750D01*
X111129203Y-66898926D01*
X111126053Y-66877691D01*
X111125000Y-66856250D01*
X111125000Y-66343750D01*
X111126053Y-66322309D01*
X111129203Y-66301074D01*
X111134419Y-66280250D01*
X111141651Y-66260038D01*
X111150830Y-66240632D01*
X111161866Y-66222219D01*
X111174654Y-66204976D01*
X111189070Y-66189070D01*
X111204976Y-66174654D01*
X111222219Y-66161866D01*
X111240632Y-66150830D01*
X111260038Y-66141651D01*
X111280250Y-66134419D01*
X111301074Y-66129203D01*
X111322309Y-66126053D01*
X111343750Y-66125000D01*
X111781250Y-66125000D01*
X111802691Y-66126053D01*
X111802691Y-66126053D01*
G37*
D12*
G04 #@! TD*
G04 #@! TO.P,R3,2*
G04 #@! TO.N,Net-(D1-Pad1)*
X111562500Y-66600000D03*
D11*
G04 #@! TO.N,GNDREF*
G04 #@! TO.C,R3*
G36*
X113377691Y-66126053D02*
X113398926Y-66129203D01*
X113419750Y-66134419D01*
X113439962Y-66141651D01*
X113459368Y-66150830D01*
X113477781Y-66161866D01*
X113495024Y-66174654D01*
X113510930Y-66189070D01*
X113525346Y-66204976D01*
X113538134Y-66222219D01*
X113549170Y-66240632D01*
X113558349Y-66260038D01*
X113565581Y-66280250D01*
X113570797Y-66301074D01*
X113573947Y-66322309D01*
X113575000Y-66343750D01*
X113575000Y-66856250D01*
X113573947Y-66877691D01*
X113570797Y-66898926D01*
X113565581Y-66919750D01*
X113558349Y-66939962D01*
X113549170Y-66959368D01*
X113538134Y-66977781D01*
X113525346Y-66995024D01*
X113510930Y-67010930D01*
X113495024Y-67025346D01*
X113477781Y-67038134D01*
X113459368Y-67049170D01*
X113439962Y-67058349D01*
X113419750Y-67065581D01*
X113398926Y-67070797D01*
X113377691Y-67073947D01*
X113356250Y-67075000D01*
X112918750Y-67075000D01*
X112897309Y-67073947D01*
X112876074Y-67070797D01*
X112855250Y-67065581D01*
X112835038Y-67058349D01*
X112815632Y-67049170D01*
X112797219Y-67038134D01*
X112779976Y-67025346D01*
X112764070Y-67010930D01*
X112749654Y-66995024D01*
X112736866Y-66977781D01*
X112725830Y-66959368D01*
X112716651Y-66939962D01*
X112709419Y-66919750D01*
X112704203Y-66898926D01*
X112701053Y-66877691D01*
X112700000Y-66856250D01*
X112700000Y-66343750D01*
X112701053Y-66322309D01*
X112704203Y-66301074D01*
X112709419Y-66280250D01*
X112716651Y-66260038D01*
X112725830Y-66240632D01*
X112736866Y-66222219D01*
X112749654Y-66204976D01*
X112764070Y-66189070D01*
X112779976Y-66174654D01*
X112797219Y-66161866D01*
X112815632Y-66150830D01*
X112835038Y-66141651D01*
X112855250Y-66134419D01*
X112876074Y-66129203D01*
X112897309Y-66126053D01*
X112918750Y-66125000D01*
X113356250Y-66125000D01*
X113377691Y-66126053D01*
X113377691Y-66126053D01*
G37*
D12*
G04 #@! TD*
G04 #@! TO.P,R3,1*
G04 #@! TO.N,GNDREF*
X113137500Y-66600000D03*
D11*
G04 #@! TO.N,Net-(D1-Pad2)*
G04 #@! TO.C,D1*
G36*
X112027691Y-69351053D02*
X112048926Y-69354203D01*
X112069750Y-69359419D01*
X112089962Y-69366651D01*
X112109368Y-69375830D01*
X112127781Y-69386866D01*
X112145024Y-69399654D01*
X112160930Y-69414070D01*
X112175346Y-69429976D01*
X112188134Y-69447219D01*
X112199170Y-69465632D01*
X112208349Y-69485038D01*
X112215581Y-69505250D01*
X112220797Y-69526074D01*
X112223947Y-69547309D01*
X112225000Y-69568750D01*
X112225000Y-70006250D01*
X112223947Y-70027691D01*
X112220797Y-70048926D01*
X112215581Y-70069750D01*
X112208349Y-70089962D01*
X112199170Y-70109368D01*
X112188134Y-70127781D01*
X112175346Y-70145024D01*
X112160930Y-70160930D01*
X112145024Y-70175346D01*
X112127781Y-70188134D01*
X112109368Y-70199170D01*
X112089962Y-70208349D01*
X112069750Y-70215581D01*
X112048926Y-70220797D01*
X112027691Y-70223947D01*
X112006250Y-70225000D01*
X111493750Y-70225000D01*
X111472309Y-70223947D01*
X111451074Y-70220797D01*
X111430250Y-70215581D01*
X111410038Y-70208349D01*
X111390632Y-70199170D01*
X111372219Y-70188134D01*
X111354976Y-70175346D01*
X111339070Y-70160930D01*
X111324654Y-70145024D01*
X111311866Y-70127781D01*
X111300830Y-70109368D01*
X111291651Y-70089962D01*
X111284419Y-70069750D01*
X111279203Y-70048926D01*
X111276053Y-70027691D01*
X111275000Y-70006250D01*
X111275000Y-69568750D01*
X111276053Y-69547309D01*
X111279203Y-69526074D01*
X111284419Y-69505250D01*
X111291651Y-69485038D01*
X111300830Y-69465632D01*
X111311866Y-69447219D01*
X111324654Y-69429976D01*
X111339070Y-69414070D01*
X111354976Y-69399654D01*
X111372219Y-69386866D01*
X111390632Y-69375830D01*
X111410038Y-69366651D01*
X111430250Y-69359419D01*
X111451074Y-69354203D01*
X111472309Y-69351053D01*
X111493750Y-69350000D01*
X112006250Y-69350000D01*
X112027691Y-69351053D01*
X112027691Y-69351053D01*
G37*
D12*
G04 #@! TD*
G04 #@! TO.P,D1,2*
G04 #@! TO.N,Net-(D1-Pad2)*
X111750000Y-69787500D03*
D11*
G04 #@! TO.N,Net-(D1-Pad1)*
G04 #@! TO.C,D1*
G36*
X112027691Y-67776053D02*
X112048926Y-67779203D01*
X112069750Y-67784419D01*
X112089962Y-67791651D01*
X112109368Y-67800830D01*
X112127781Y-67811866D01*
X112145024Y-67824654D01*
X112160930Y-67839070D01*
X112175346Y-67854976D01*
X112188134Y-67872219D01*
X112199170Y-67890632D01*
X112208349Y-67910038D01*
X112215581Y-67930250D01*
X112220797Y-67951074D01*
X112223947Y-67972309D01*
X112225000Y-67993750D01*
X112225000Y-68431250D01*
X112223947Y-68452691D01*
X112220797Y-68473926D01*
X112215581Y-68494750D01*
X112208349Y-68514962D01*
X112199170Y-68534368D01*
X112188134Y-68552781D01*
X112175346Y-68570024D01*
X112160930Y-68585930D01*
X112145024Y-68600346D01*
X112127781Y-68613134D01*
X112109368Y-68624170D01*
X112089962Y-68633349D01*
X112069750Y-68640581D01*
X112048926Y-68645797D01*
X112027691Y-68648947D01*
X112006250Y-68650000D01*
X111493750Y-68650000D01*
X111472309Y-68648947D01*
X111451074Y-68645797D01*
X111430250Y-68640581D01*
X111410038Y-68633349D01*
X111390632Y-68624170D01*
X111372219Y-68613134D01*
X111354976Y-68600346D01*
X111339070Y-68585930D01*
X111324654Y-68570024D01*
X111311866Y-68552781D01*
X111300830Y-68534368D01*
X111291651Y-68514962D01*
X111284419Y-68494750D01*
X111279203Y-68473926D01*
X111276053Y-68452691D01*
X111275000Y-68431250D01*
X111275000Y-67993750D01*
X111276053Y-67972309D01*
X111279203Y-67951074D01*
X111284419Y-67930250D01*
X111291651Y-67910038D01*
X111300830Y-67890632D01*
X111311866Y-67872219D01*
X111324654Y-67854976D01*
X111339070Y-67839070D01*
X111354976Y-67824654D01*
X111372219Y-67811866D01*
X111390632Y-67800830D01*
X111410038Y-67791651D01*
X111430250Y-67784419D01*
X111451074Y-67779203D01*
X111472309Y-67776053D01*
X111493750Y-67775000D01*
X112006250Y-67775000D01*
X112027691Y-67776053D01*
X112027691Y-67776053D01*
G37*
D12*
G04 #@! TD*
G04 #@! TO.P,D1,1*
G04 #@! TO.N,Net-(D1-Pad1)*
X111750000Y-68212500D03*
D13*
G04 #@! TO.P,J1,6*
G04 #@! TO.N,GNDREF*
X105934926Y-83332352D03*
G04 #@! TO.P,J1,5*
G04 #@! TO.N,+BATT*
X104835074Y-83967352D03*
G04 #@! TO.P,J1,4*
G04 #@! TO.N,/SWDIO*
X105299926Y-82232500D03*
G04 #@! TO.P,J1,3*
G04 #@! TO.N,/TX*
X104200074Y-82867500D03*
G04 #@! TO.P,J1,2*
G04 #@! TO.N,/SWDCLK*
X104664926Y-81132648D03*
G04 #@! TO.P,J1,1*
G04 #@! TO.N,/RX*
X103565074Y-81767648D03*
G04 #@! TD*
D14*
G04 #@! TO.P,BT1,1*
G04 #@! TO.N,+BATT*
X101770000Y-74700000D03*
X101770000Y-77800000D03*
X122570000Y-77800000D03*
X122570000Y-74700000D03*
G04 #@! TD*
D11*
G04 #@! TO.N,GNDREF*
G04 #@! TO.C,C10*
G36*
X117027691Y-72426053D02*
X117048926Y-72429203D01*
X117069750Y-72434419D01*
X117089962Y-72441651D01*
X117109368Y-72450830D01*
X117127781Y-72461866D01*
X117145024Y-72474654D01*
X117160930Y-72489070D01*
X117175346Y-72504976D01*
X117188134Y-72522219D01*
X117199170Y-72540632D01*
X117208349Y-72560038D01*
X117215581Y-72580250D01*
X117220797Y-72601074D01*
X117223947Y-72622309D01*
X117225000Y-72643750D01*
X117225000Y-73156250D01*
X117223947Y-73177691D01*
X117220797Y-73198926D01*
X117215581Y-73219750D01*
X117208349Y-73239962D01*
X117199170Y-73259368D01*
X117188134Y-73277781D01*
X117175346Y-73295024D01*
X117160930Y-73310930D01*
X117145024Y-73325346D01*
X117127781Y-73338134D01*
X117109368Y-73349170D01*
X117089962Y-73358349D01*
X117069750Y-73365581D01*
X117048926Y-73370797D01*
X117027691Y-73373947D01*
X117006250Y-73375000D01*
X116568750Y-73375000D01*
X116547309Y-73373947D01*
X116526074Y-73370797D01*
X116505250Y-73365581D01*
X116485038Y-73358349D01*
X116465632Y-73349170D01*
X116447219Y-73338134D01*
X116429976Y-73325346D01*
X116414070Y-73310930D01*
X116399654Y-73295024D01*
X116386866Y-73277781D01*
X116375830Y-73259368D01*
X116366651Y-73239962D01*
X116359419Y-73219750D01*
X116354203Y-73198926D01*
X116351053Y-73177691D01*
X116350000Y-73156250D01*
X116350000Y-72643750D01*
X116351053Y-72622309D01*
X116354203Y-72601074D01*
X116359419Y-72580250D01*
X116366651Y-72560038D01*
X116375830Y-72540632D01*
X116386866Y-72522219D01*
X116399654Y-72504976D01*
X116414070Y-72489070D01*
X116429976Y-72474654D01*
X116447219Y-72461866D01*
X116465632Y-72450830D01*
X116485038Y-72441651D01*
X116505250Y-72434419D01*
X116526074Y-72429203D01*
X116547309Y-72426053D01*
X116568750Y-72425000D01*
X117006250Y-72425000D01*
X117027691Y-72426053D01*
X117027691Y-72426053D01*
G37*
D12*
G04 #@! TD*
G04 #@! TO.P,C10,2*
G04 #@! TO.N,GNDREF*
X116787500Y-72900000D03*
D11*
G04 #@! TO.N,+BATT*
G04 #@! TO.C,C10*
G36*
X115452691Y-72426053D02*
X115473926Y-72429203D01*
X115494750Y-72434419D01*
X115514962Y-72441651D01*
X115534368Y-72450830D01*
X115552781Y-72461866D01*
X115570024Y-72474654D01*
X115585930Y-72489070D01*
X115600346Y-72504976D01*
X115613134Y-72522219D01*
X115624170Y-72540632D01*
X115633349Y-72560038D01*
X115640581Y-72580250D01*
X115645797Y-72601074D01*
X115648947Y-72622309D01*
X115650000Y-72643750D01*
X115650000Y-73156250D01*
X115648947Y-73177691D01*
X115645797Y-73198926D01*
X115640581Y-73219750D01*
X115633349Y-73239962D01*
X115624170Y-73259368D01*
X115613134Y-73277781D01*
X115600346Y-73295024D01*
X115585930Y-73310930D01*
X115570024Y-73325346D01*
X115552781Y-73338134D01*
X115534368Y-73349170D01*
X115514962Y-73358349D01*
X115494750Y-73365581D01*
X115473926Y-73370797D01*
X115452691Y-73373947D01*
X115431250Y-73375000D01*
X114993750Y-73375000D01*
X114972309Y-73373947D01*
X114951074Y-73370797D01*
X114930250Y-73365581D01*
X114910038Y-73358349D01*
X114890632Y-73349170D01*
X114872219Y-73338134D01*
X114854976Y-73325346D01*
X114839070Y-73310930D01*
X114824654Y-73295024D01*
X114811866Y-73277781D01*
X114800830Y-73259368D01*
X114791651Y-73239962D01*
X114784419Y-73219750D01*
X114779203Y-73198926D01*
X114776053Y-73177691D01*
X114775000Y-73156250D01*
X114775000Y-72643750D01*
X114776053Y-72622309D01*
X114779203Y-72601074D01*
X114784419Y-72580250D01*
X114791651Y-72560038D01*
X114800830Y-72540632D01*
X114811866Y-72522219D01*
X114824654Y-72504976D01*
X114839070Y-72489070D01*
X114854976Y-72474654D01*
X114872219Y-72461866D01*
X114890632Y-72450830D01*
X114910038Y-72441651D01*
X114930250Y-72434419D01*
X114951074Y-72429203D01*
X114972309Y-72426053D01*
X114993750Y-72425000D01*
X115431250Y-72425000D01*
X115452691Y-72426053D01*
X115452691Y-72426053D01*
G37*
D12*
G04 #@! TD*
G04 #@! TO.P,C10,1*
G04 #@! TO.N,+BATT*
X115212500Y-72900000D03*
D11*
G04 #@! TO.N,+BATT*
G04 #@! TO.C,C11*
G36*
X105427691Y-73776053D02*
X105448926Y-73779203D01*
X105469750Y-73784419D01*
X105489962Y-73791651D01*
X105509368Y-73800830D01*
X105527781Y-73811866D01*
X105545024Y-73824654D01*
X105560930Y-73839070D01*
X105575346Y-73854976D01*
X105588134Y-73872219D01*
X105599170Y-73890632D01*
X105608349Y-73910038D01*
X105615581Y-73930250D01*
X105620797Y-73951074D01*
X105623947Y-73972309D01*
X105625000Y-73993750D01*
X105625000Y-74431250D01*
X105623947Y-74452691D01*
X105620797Y-74473926D01*
X105615581Y-74494750D01*
X105608349Y-74514962D01*
X105599170Y-74534368D01*
X105588134Y-74552781D01*
X105575346Y-74570024D01*
X105560930Y-74585930D01*
X105545024Y-74600346D01*
X105527781Y-74613134D01*
X105509368Y-74624170D01*
X105489962Y-74633349D01*
X105469750Y-74640581D01*
X105448926Y-74645797D01*
X105427691Y-74648947D01*
X105406250Y-74650000D01*
X104893750Y-74650000D01*
X104872309Y-74648947D01*
X104851074Y-74645797D01*
X104830250Y-74640581D01*
X104810038Y-74633349D01*
X104790632Y-74624170D01*
X104772219Y-74613134D01*
X104754976Y-74600346D01*
X104739070Y-74585930D01*
X104724654Y-74570024D01*
X104711866Y-74552781D01*
X104700830Y-74534368D01*
X104691651Y-74514962D01*
X104684419Y-74494750D01*
X104679203Y-74473926D01*
X104676053Y-74452691D01*
X104675000Y-74431250D01*
X104675000Y-73993750D01*
X104676053Y-73972309D01*
X104679203Y-73951074D01*
X104684419Y-73930250D01*
X104691651Y-73910038D01*
X104700830Y-73890632D01*
X104711866Y-73872219D01*
X104724654Y-73854976D01*
X104739070Y-73839070D01*
X104754976Y-73824654D01*
X104772219Y-73811866D01*
X104790632Y-73800830D01*
X104810038Y-73791651D01*
X104830250Y-73784419D01*
X104851074Y-73779203D01*
X104872309Y-73776053D01*
X104893750Y-73775000D01*
X105406250Y-73775000D01*
X105427691Y-73776053D01*
X105427691Y-73776053D01*
G37*
D12*
G04 #@! TD*
G04 #@! TO.P,C11,1*
G04 #@! TO.N,+BATT*
X105150000Y-74212500D03*
D11*
G04 #@! TO.N,GNDREF*
G04 #@! TO.C,C11*
G36*
X105427691Y-75351053D02*
X105448926Y-75354203D01*
X105469750Y-75359419D01*
X105489962Y-75366651D01*
X105509368Y-75375830D01*
X105527781Y-75386866D01*
X105545024Y-75399654D01*
X105560930Y-75414070D01*
X105575346Y-75429976D01*
X105588134Y-75447219D01*
X105599170Y-75465632D01*
X105608349Y-75485038D01*
X105615581Y-75505250D01*
X105620797Y-75526074D01*
X105623947Y-75547309D01*
X105625000Y-75568750D01*
X105625000Y-76006250D01*
X105623947Y-76027691D01*
X105620797Y-76048926D01*
X105615581Y-76069750D01*
X105608349Y-76089962D01*
X105599170Y-76109368D01*
X105588134Y-76127781D01*
X105575346Y-76145024D01*
X105560930Y-76160930D01*
X105545024Y-76175346D01*
X105527781Y-76188134D01*
X105509368Y-76199170D01*
X105489962Y-76208349D01*
X105469750Y-76215581D01*
X105448926Y-76220797D01*
X105427691Y-76223947D01*
X105406250Y-76225000D01*
X104893750Y-76225000D01*
X104872309Y-76223947D01*
X104851074Y-76220797D01*
X104830250Y-76215581D01*
X104810038Y-76208349D01*
X104790632Y-76199170D01*
X104772219Y-76188134D01*
X104754976Y-76175346D01*
X104739070Y-76160930D01*
X104724654Y-76145024D01*
X104711866Y-76127781D01*
X104700830Y-76109368D01*
X104691651Y-76089962D01*
X104684419Y-76069750D01*
X104679203Y-76048926D01*
X104676053Y-76027691D01*
X104675000Y-76006250D01*
X104675000Y-75568750D01*
X104676053Y-75547309D01*
X104679203Y-75526074D01*
X104684419Y-75505250D01*
X104691651Y-75485038D01*
X104700830Y-75465632D01*
X104711866Y-75447219D01*
X104724654Y-75429976D01*
X104739070Y-75414070D01*
X104754976Y-75399654D01*
X104772219Y-75386866D01*
X104790632Y-75375830D01*
X104810038Y-75366651D01*
X104830250Y-75359419D01*
X104851074Y-75354203D01*
X104872309Y-75351053D01*
X104893750Y-75350000D01*
X105406250Y-75350000D01*
X105427691Y-75351053D01*
X105427691Y-75351053D01*
G37*
D12*
G04 #@! TD*
G04 #@! TO.P,C11,2*
G04 #@! TO.N,GNDREF*
X105150000Y-75787500D03*
D15*
G04 #@! TO.P,Y2,1*
G04 #@! TO.N,Net-(C9-Pad2)*
X114500000Y-69300000D03*
G04 #@! TO.P,Y2,2*
G04 #@! TO.N,Net-(C8-Pad2)*
X117000000Y-69300000D03*
G04 #@! TD*
D16*
G04 #@! TO.P,Y1,1*
G04 #@! TO.N,Net-(C1-Pad1)*
X114200000Y-81950000D03*
G04 #@! TO.P,Y1,2*
G04 #@! TO.N,GNDREF*
X116400000Y-81950000D03*
G04 #@! TO.P,Y1,3*
G04 #@! TO.N,Net-(C2-Pad1)*
X116400000Y-80250000D03*
G04 #@! TO.P,Y1,4*
G04 #@! TO.N,GNDREF*
X114200000Y-80250000D03*
G04 #@! TD*
D11*
G04 #@! TO.N,Net-(C8-Pad2)*
G04 #@! TO.C,C8*
G36*
X116852691Y-70926053D02*
X116873926Y-70929203D01*
X116894750Y-70934419D01*
X116914962Y-70941651D01*
X116934368Y-70950830D01*
X116952781Y-70961866D01*
X116970024Y-70974654D01*
X116985930Y-70989070D01*
X117000346Y-71004976D01*
X117013134Y-71022219D01*
X117024170Y-71040632D01*
X117033349Y-71060038D01*
X117040581Y-71080250D01*
X117045797Y-71101074D01*
X117048947Y-71122309D01*
X117050000Y-71143750D01*
X117050000Y-71656250D01*
X117048947Y-71677691D01*
X117045797Y-71698926D01*
X117040581Y-71719750D01*
X117033349Y-71739962D01*
X117024170Y-71759368D01*
X117013134Y-71777781D01*
X117000346Y-71795024D01*
X116985930Y-71810930D01*
X116970024Y-71825346D01*
X116952781Y-71838134D01*
X116934368Y-71849170D01*
X116914962Y-71858349D01*
X116894750Y-71865581D01*
X116873926Y-71870797D01*
X116852691Y-71873947D01*
X116831250Y-71875000D01*
X116393750Y-71875000D01*
X116372309Y-71873947D01*
X116351074Y-71870797D01*
X116330250Y-71865581D01*
X116310038Y-71858349D01*
X116290632Y-71849170D01*
X116272219Y-71838134D01*
X116254976Y-71825346D01*
X116239070Y-71810930D01*
X116224654Y-71795024D01*
X116211866Y-71777781D01*
X116200830Y-71759368D01*
X116191651Y-71739962D01*
X116184419Y-71719750D01*
X116179203Y-71698926D01*
X116176053Y-71677691D01*
X116175000Y-71656250D01*
X116175000Y-71143750D01*
X116176053Y-71122309D01*
X116179203Y-71101074D01*
X116184419Y-71080250D01*
X116191651Y-71060038D01*
X116200830Y-71040632D01*
X116211866Y-71022219D01*
X116224654Y-71004976D01*
X116239070Y-70989070D01*
X116254976Y-70974654D01*
X116272219Y-70961866D01*
X116290632Y-70950830D01*
X116310038Y-70941651D01*
X116330250Y-70934419D01*
X116351074Y-70929203D01*
X116372309Y-70926053D01*
X116393750Y-70925000D01*
X116831250Y-70925000D01*
X116852691Y-70926053D01*
X116852691Y-70926053D01*
G37*
D12*
G04 #@! TD*
G04 #@! TO.P,C8,2*
G04 #@! TO.N,Net-(C8-Pad2)*
X116612500Y-71400000D03*
D11*
G04 #@! TO.N,GNDREF*
G04 #@! TO.C,C8*
G36*
X118427691Y-70926053D02*
X118448926Y-70929203D01*
X118469750Y-70934419D01*
X118489962Y-70941651D01*
X118509368Y-70950830D01*
X118527781Y-70961866D01*
X118545024Y-70974654D01*
X118560930Y-70989070D01*
X118575346Y-71004976D01*
X118588134Y-71022219D01*
X118599170Y-71040632D01*
X118608349Y-71060038D01*
X118615581Y-71080250D01*
X118620797Y-71101074D01*
X118623947Y-71122309D01*
X118625000Y-71143750D01*
X118625000Y-71656250D01*
X118623947Y-71677691D01*
X118620797Y-71698926D01*
X118615581Y-71719750D01*
X118608349Y-71739962D01*
X118599170Y-71759368D01*
X118588134Y-71777781D01*
X118575346Y-71795024D01*
X118560930Y-71810930D01*
X118545024Y-71825346D01*
X118527781Y-71838134D01*
X118509368Y-71849170D01*
X118489962Y-71858349D01*
X118469750Y-71865581D01*
X118448926Y-71870797D01*
X118427691Y-71873947D01*
X118406250Y-71875000D01*
X117968750Y-71875000D01*
X117947309Y-71873947D01*
X117926074Y-71870797D01*
X117905250Y-71865581D01*
X117885038Y-71858349D01*
X117865632Y-71849170D01*
X117847219Y-71838134D01*
X117829976Y-71825346D01*
X117814070Y-71810930D01*
X117799654Y-71795024D01*
X117786866Y-71777781D01*
X117775830Y-71759368D01*
X117766651Y-71739962D01*
X117759419Y-71719750D01*
X117754203Y-71698926D01*
X117751053Y-71677691D01*
X117750000Y-71656250D01*
X117750000Y-71143750D01*
X117751053Y-71122309D01*
X117754203Y-71101074D01*
X117759419Y-71080250D01*
X117766651Y-71060038D01*
X117775830Y-71040632D01*
X117786866Y-71022219D01*
X117799654Y-71004976D01*
X117814070Y-70989070D01*
X117829976Y-70974654D01*
X117847219Y-70961866D01*
X117865632Y-70950830D01*
X117885038Y-70941651D01*
X117905250Y-70934419D01*
X117926074Y-70929203D01*
X117947309Y-70926053D01*
X117968750Y-70925000D01*
X118406250Y-70925000D01*
X118427691Y-70926053D01*
X118427691Y-70926053D01*
G37*
D12*
G04 #@! TD*
G04 #@! TO.P,C8,1*
G04 #@! TO.N,GNDREF*
X118187500Y-71400000D03*
D11*
G04 #@! TO.N,GNDREF*
G04 #@! TO.C,C9*
G36*
X116627691Y-66676053D02*
X116648926Y-66679203D01*
X116669750Y-66684419D01*
X116689962Y-66691651D01*
X116709368Y-66700830D01*
X116727781Y-66711866D01*
X116745024Y-66724654D01*
X116760930Y-66739070D01*
X116775346Y-66754976D01*
X116788134Y-66772219D01*
X116799170Y-66790632D01*
X116808349Y-66810038D01*
X116815581Y-66830250D01*
X116820797Y-66851074D01*
X116823947Y-66872309D01*
X116825000Y-66893750D01*
X116825000Y-67406250D01*
X116823947Y-67427691D01*
X116820797Y-67448926D01*
X116815581Y-67469750D01*
X116808349Y-67489962D01*
X116799170Y-67509368D01*
X116788134Y-67527781D01*
X116775346Y-67545024D01*
X116760930Y-67560930D01*
X116745024Y-67575346D01*
X116727781Y-67588134D01*
X116709368Y-67599170D01*
X116689962Y-67608349D01*
X116669750Y-67615581D01*
X116648926Y-67620797D01*
X116627691Y-67623947D01*
X116606250Y-67625000D01*
X116168750Y-67625000D01*
X116147309Y-67623947D01*
X116126074Y-67620797D01*
X116105250Y-67615581D01*
X116085038Y-67608349D01*
X116065632Y-67599170D01*
X116047219Y-67588134D01*
X116029976Y-67575346D01*
X116014070Y-67560930D01*
X115999654Y-67545024D01*
X115986866Y-67527781D01*
X115975830Y-67509368D01*
X115966651Y-67489962D01*
X115959419Y-67469750D01*
X115954203Y-67448926D01*
X115951053Y-67427691D01*
X115950000Y-67406250D01*
X115950000Y-66893750D01*
X115951053Y-66872309D01*
X115954203Y-66851074D01*
X115959419Y-66830250D01*
X115966651Y-66810038D01*
X115975830Y-66790632D01*
X115986866Y-66772219D01*
X115999654Y-66754976D01*
X116014070Y-66739070D01*
X116029976Y-66724654D01*
X116047219Y-66711866D01*
X116065632Y-66700830D01*
X116085038Y-66691651D01*
X116105250Y-66684419D01*
X116126074Y-66679203D01*
X116147309Y-66676053D01*
X116168750Y-66675000D01*
X116606250Y-66675000D01*
X116627691Y-66676053D01*
X116627691Y-66676053D01*
G37*
D12*
G04 #@! TD*
G04 #@! TO.P,C9,1*
G04 #@! TO.N,GNDREF*
X116387500Y-67150000D03*
D11*
G04 #@! TO.N,Net-(C9-Pad2)*
G04 #@! TO.C,C9*
G36*
X115052691Y-66676053D02*
X115073926Y-66679203D01*
X115094750Y-66684419D01*
X115114962Y-66691651D01*
X115134368Y-66700830D01*
X115152781Y-66711866D01*
X115170024Y-66724654D01*
X115185930Y-66739070D01*
X115200346Y-66754976D01*
X115213134Y-66772219D01*
X115224170Y-66790632D01*
X115233349Y-66810038D01*
X115240581Y-66830250D01*
X115245797Y-66851074D01*
X115248947Y-66872309D01*
X115250000Y-66893750D01*
X115250000Y-67406250D01*
X115248947Y-67427691D01*
X115245797Y-67448926D01*
X115240581Y-67469750D01*
X115233349Y-67489962D01*
X115224170Y-67509368D01*
X115213134Y-67527781D01*
X115200346Y-67545024D01*
X115185930Y-67560930D01*
X115170024Y-67575346D01*
X115152781Y-67588134D01*
X115134368Y-67599170D01*
X115114962Y-67608349D01*
X115094750Y-67615581D01*
X115073926Y-67620797D01*
X115052691Y-67623947D01*
X115031250Y-67625000D01*
X114593750Y-67625000D01*
X114572309Y-67623947D01*
X114551074Y-67620797D01*
X114530250Y-67615581D01*
X114510038Y-67608349D01*
X114490632Y-67599170D01*
X114472219Y-67588134D01*
X114454976Y-67575346D01*
X114439070Y-67560930D01*
X114424654Y-67545024D01*
X114411866Y-67527781D01*
X114400830Y-67509368D01*
X114391651Y-67489962D01*
X114384419Y-67469750D01*
X114379203Y-67448926D01*
X114376053Y-67427691D01*
X114375000Y-67406250D01*
X114375000Y-66893750D01*
X114376053Y-66872309D01*
X114379203Y-66851074D01*
X114384419Y-66830250D01*
X114391651Y-66810038D01*
X114400830Y-66790632D01*
X114411866Y-66772219D01*
X114424654Y-66754976D01*
X114439070Y-66739070D01*
X114454976Y-66724654D01*
X114472219Y-66711866D01*
X114490632Y-66700830D01*
X114510038Y-66691651D01*
X114530250Y-66684419D01*
X114551074Y-66679203D01*
X114572309Y-66676053D01*
X114593750Y-66675000D01*
X115031250Y-66675000D01*
X115052691Y-66676053D01*
X115052691Y-66676053D01*
G37*
D12*
G04 #@! TD*
G04 #@! TO.P,C9,2*
G04 #@! TO.N,Net-(C9-Pad2)*
X114812500Y-67150000D03*
D17*
G04 #@! TO.P,U2,7*
G04 #@! TO.N,Net-(U2-Pad7)*
X107950000Y-68875000D03*
D18*
G04 #@! TO.P,U2,1*
G04 #@! TO.N,/SDA*
X109350000Y-69825000D03*
G04 #@! TO.P,U2,2*
G04 #@! TO.N,GNDREF*
X109350000Y-68875000D03*
G04 #@! TO.P,U2,3*
G04 #@! TO.N,Net-(U2-Pad3)*
X109350000Y-67925000D03*
G04 #@! TO.P,U2,4*
G04 #@! TO.N,Net-(U2-Pad4)*
X106550000Y-67925000D03*
G04 #@! TO.P,U2,5*
G04 #@! TO.N,+BATT*
X106550000Y-68875000D03*
G04 #@! TO.P,U2,6*
G04 #@! TO.N,/SCL*
X106550000Y-69825000D03*
G04 #@! TD*
D11*
G04 #@! TO.N,/SCL*
G04 #@! TO.C,R1*
G36*
X103852691Y-70626053D02*
X103873926Y-70629203D01*
X103894750Y-70634419D01*
X103914962Y-70641651D01*
X103934368Y-70650830D01*
X103952781Y-70661866D01*
X103970024Y-70674654D01*
X103985930Y-70689070D01*
X104000346Y-70704976D01*
X104013134Y-70722219D01*
X104024170Y-70740632D01*
X104033349Y-70760038D01*
X104040581Y-70780250D01*
X104045797Y-70801074D01*
X104048947Y-70822309D01*
X104050000Y-70843750D01*
X104050000Y-71281250D01*
X104048947Y-71302691D01*
X104045797Y-71323926D01*
X104040581Y-71344750D01*
X104033349Y-71364962D01*
X104024170Y-71384368D01*
X104013134Y-71402781D01*
X104000346Y-71420024D01*
X103985930Y-71435930D01*
X103970024Y-71450346D01*
X103952781Y-71463134D01*
X103934368Y-71474170D01*
X103914962Y-71483349D01*
X103894750Y-71490581D01*
X103873926Y-71495797D01*
X103852691Y-71498947D01*
X103831250Y-71500000D01*
X103318750Y-71500000D01*
X103297309Y-71498947D01*
X103276074Y-71495797D01*
X103255250Y-71490581D01*
X103235038Y-71483349D01*
X103215632Y-71474170D01*
X103197219Y-71463134D01*
X103179976Y-71450346D01*
X103164070Y-71435930D01*
X103149654Y-71420024D01*
X103136866Y-71402781D01*
X103125830Y-71384368D01*
X103116651Y-71364962D01*
X103109419Y-71344750D01*
X103104203Y-71323926D01*
X103101053Y-71302691D01*
X103100000Y-71281250D01*
X103100000Y-70843750D01*
X103101053Y-70822309D01*
X103104203Y-70801074D01*
X103109419Y-70780250D01*
X103116651Y-70760038D01*
X103125830Y-70740632D01*
X103136866Y-70722219D01*
X103149654Y-70704976D01*
X103164070Y-70689070D01*
X103179976Y-70674654D01*
X103197219Y-70661866D01*
X103215632Y-70650830D01*
X103235038Y-70641651D01*
X103255250Y-70634419D01*
X103276074Y-70629203D01*
X103297309Y-70626053D01*
X103318750Y-70625000D01*
X103831250Y-70625000D01*
X103852691Y-70626053D01*
X103852691Y-70626053D01*
G37*
D12*
G04 #@! TD*
G04 #@! TO.P,R1,2*
G04 #@! TO.N,/SCL*
X103575000Y-71062500D03*
D11*
G04 #@! TO.N,+BATT*
G04 #@! TO.C,R1*
G36*
X103852691Y-72201053D02*
X103873926Y-72204203D01*
X103894750Y-72209419D01*
X103914962Y-72216651D01*
X103934368Y-72225830D01*
X103952781Y-72236866D01*
X103970024Y-72249654D01*
X103985930Y-72264070D01*
X104000346Y-72279976D01*
X104013134Y-72297219D01*
X104024170Y-72315632D01*
X104033349Y-72335038D01*
X104040581Y-72355250D01*
X104045797Y-72376074D01*
X104048947Y-72397309D01*
X104050000Y-72418750D01*
X104050000Y-72856250D01*
X104048947Y-72877691D01*
X104045797Y-72898926D01*
X104040581Y-72919750D01*
X104033349Y-72939962D01*
X104024170Y-72959368D01*
X104013134Y-72977781D01*
X104000346Y-72995024D01*
X103985930Y-73010930D01*
X103970024Y-73025346D01*
X103952781Y-73038134D01*
X103934368Y-73049170D01*
X103914962Y-73058349D01*
X103894750Y-73065581D01*
X103873926Y-73070797D01*
X103852691Y-73073947D01*
X103831250Y-73075000D01*
X103318750Y-73075000D01*
X103297309Y-73073947D01*
X103276074Y-73070797D01*
X103255250Y-73065581D01*
X103235038Y-73058349D01*
X103215632Y-73049170D01*
X103197219Y-73038134D01*
X103179976Y-73025346D01*
X103164070Y-73010930D01*
X103149654Y-72995024D01*
X103136866Y-72977781D01*
X103125830Y-72959368D01*
X103116651Y-72939962D01*
X103109419Y-72919750D01*
X103104203Y-72898926D01*
X103101053Y-72877691D01*
X103100000Y-72856250D01*
X103100000Y-72418750D01*
X103101053Y-72397309D01*
X103104203Y-72376074D01*
X103109419Y-72355250D01*
X103116651Y-72335038D01*
X103125830Y-72315632D01*
X103136866Y-72297219D01*
X103149654Y-72279976D01*
X103164070Y-72264070D01*
X103179976Y-72249654D01*
X103197219Y-72236866D01*
X103215632Y-72225830D01*
X103235038Y-72216651D01*
X103255250Y-72209419D01*
X103276074Y-72204203D01*
X103297309Y-72201053D01*
X103318750Y-72200000D01*
X103831250Y-72200000D01*
X103852691Y-72201053D01*
X103852691Y-72201053D01*
G37*
D12*
G04 #@! TD*
G04 #@! TO.P,R1,1*
G04 #@! TO.N,+BATT*
X103575000Y-72637500D03*
D11*
G04 #@! TO.N,+BATT*
G04 #@! TO.C,R2*
G36*
X105352691Y-72201053D02*
X105373926Y-72204203D01*
X105394750Y-72209419D01*
X105414962Y-72216651D01*
X105434368Y-72225830D01*
X105452781Y-72236866D01*
X105470024Y-72249654D01*
X105485930Y-72264070D01*
X105500346Y-72279976D01*
X105513134Y-72297219D01*
X105524170Y-72315632D01*
X105533349Y-72335038D01*
X105540581Y-72355250D01*
X105545797Y-72376074D01*
X105548947Y-72397309D01*
X105550000Y-72418750D01*
X105550000Y-72856250D01*
X105548947Y-72877691D01*
X105545797Y-72898926D01*
X105540581Y-72919750D01*
X105533349Y-72939962D01*
X105524170Y-72959368D01*
X105513134Y-72977781D01*
X105500346Y-72995024D01*
X105485930Y-73010930D01*
X105470024Y-73025346D01*
X105452781Y-73038134D01*
X105434368Y-73049170D01*
X105414962Y-73058349D01*
X105394750Y-73065581D01*
X105373926Y-73070797D01*
X105352691Y-73073947D01*
X105331250Y-73075000D01*
X104818750Y-73075000D01*
X104797309Y-73073947D01*
X104776074Y-73070797D01*
X104755250Y-73065581D01*
X104735038Y-73058349D01*
X104715632Y-73049170D01*
X104697219Y-73038134D01*
X104679976Y-73025346D01*
X104664070Y-73010930D01*
X104649654Y-72995024D01*
X104636866Y-72977781D01*
X104625830Y-72959368D01*
X104616651Y-72939962D01*
X104609419Y-72919750D01*
X104604203Y-72898926D01*
X104601053Y-72877691D01*
X104600000Y-72856250D01*
X104600000Y-72418750D01*
X104601053Y-72397309D01*
X104604203Y-72376074D01*
X104609419Y-72355250D01*
X104616651Y-72335038D01*
X104625830Y-72315632D01*
X104636866Y-72297219D01*
X104649654Y-72279976D01*
X104664070Y-72264070D01*
X104679976Y-72249654D01*
X104697219Y-72236866D01*
X104715632Y-72225830D01*
X104735038Y-72216651D01*
X104755250Y-72209419D01*
X104776074Y-72204203D01*
X104797309Y-72201053D01*
X104818750Y-72200000D01*
X105331250Y-72200000D01*
X105352691Y-72201053D01*
X105352691Y-72201053D01*
G37*
D12*
G04 #@! TD*
G04 #@! TO.P,R2,1*
G04 #@! TO.N,+BATT*
X105075000Y-72637500D03*
D11*
G04 #@! TO.N,/SDA*
G04 #@! TO.C,R2*
G36*
X105352691Y-70626053D02*
X105373926Y-70629203D01*
X105394750Y-70634419D01*
X105414962Y-70641651D01*
X105434368Y-70650830D01*
X105452781Y-70661866D01*
X105470024Y-70674654D01*
X105485930Y-70689070D01*
X105500346Y-70704976D01*
X105513134Y-70722219D01*
X105524170Y-70740632D01*
X105533349Y-70760038D01*
X105540581Y-70780250D01*
X105545797Y-70801074D01*
X105548947Y-70822309D01*
X105550000Y-70843750D01*
X105550000Y-71281250D01*
X105548947Y-71302691D01*
X105545797Y-71323926D01*
X105540581Y-71344750D01*
X105533349Y-71364962D01*
X105524170Y-71384368D01*
X105513134Y-71402781D01*
X105500346Y-71420024D01*
X105485930Y-71435930D01*
X105470024Y-71450346D01*
X105452781Y-71463134D01*
X105434368Y-71474170D01*
X105414962Y-71483349D01*
X105394750Y-71490581D01*
X105373926Y-71495797D01*
X105352691Y-71498947D01*
X105331250Y-71500000D01*
X104818750Y-71500000D01*
X104797309Y-71498947D01*
X104776074Y-71495797D01*
X104755250Y-71490581D01*
X104735038Y-71483349D01*
X104715632Y-71474170D01*
X104697219Y-71463134D01*
X104679976Y-71450346D01*
X104664070Y-71435930D01*
X104649654Y-71420024D01*
X104636866Y-71402781D01*
X104625830Y-71384368D01*
X104616651Y-71364962D01*
X104609419Y-71344750D01*
X104604203Y-71323926D01*
X104601053Y-71302691D01*
X104600000Y-71281250D01*
X104600000Y-70843750D01*
X104601053Y-70822309D01*
X104604203Y-70801074D01*
X104609419Y-70780250D01*
X104616651Y-70760038D01*
X104625830Y-70740632D01*
X104636866Y-70722219D01*
X104649654Y-70704976D01*
X104664070Y-70689070D01*
X104679976Y-70674654D01*
X104697219Y-70661866D01*
X104715632Y-70650830D01*
X104735038Y-70641651D01*
X104755250Y-70634419D01*
X104776074Y-70629203D01*
X104797309Y-70626053D01*
X104818750Y-70625000D01*
X105331250Y-70625000D01*
X105352691Y-70626053D01*
X105352691Y-70626053D01*
G37*
D12*
G04 #@! TD*
G04 #@! TO.P,R2,2*
G04 #@! TO.N,/SDA*
X105075000Y-71062500D03*
D11*
G04 #@! TO.N,GNDREF*
G04 #@! TO.C,C1*
G36*
X116227691Y-83226053D02*
X116248926Y-83229203D01*
X116269750Y-83234419D01*
X116289962Y-83241651D01*
X116309368Y-83250830D01*
X116327781Y-83261866D01*
X116345024Y-83274654D01*
X116360930Y-83289070D01*
X116375346Y-83304976D01*
X116388134Y-83322219D01*
X116399170Y-83340632D01*
X116408349Y-83360038D01*
X116415581Y-83380250D01*
X116420797Y-83401074D01*
X116423947Y-83422309D01*
X116425000Y-83443750D01*
X116425000Y-83956250D01*
X116423947Y-83977691D01*
X116420797Y-83998926D01*
X116415581Y-84019750D01*
X116408349Y-84039962D01*
X116399170Y-84059368D01*
X116388134Y-84077781D01*
X116375346Y-84095024D01*
X116360930Y-84110930D01*
X116345024Y-84125346D01*
X116327781Y-84138134D01*
X116309368Y-84149170D01*
X116289962Y-84158349D01*
X116269750Y-84165581D01*
X116248926Y-84170797D01*
X116227691Y-84173947D01*
X116206250Y-84175000D01*
X115768750Y-84175000D01*
X115747309Y-84173947D01*
X115726074Y-84170797D01*
X115705250Y-84165581D01*
X115685038Y-84158349D01*
X115665632Y-84149170D01*
X115647219Y-84138134D01*
X115629976Y-84125346D01*
X115614070Y-84110930D01*
X115599654Y-84095024D01*
X115586866Y-84077781D01*
X115575830Y-84059368D01*
X115566651Y-84039962D01*
X115559419Y-84019750D01*
X115554203Y-83998926D01*
X115551053Y-83977691D01*
X115550000Y-83956250D01*
X115550000Y-83443750D01*
X115551053Y-83422309D01*
X115554203Y-83401074D01*
X115559419Y-83380250D01*
X115566651Y-83360038D01*
X115575830Y-83340632D01*
X115586866Y-83322219D01*
X115599654Y-83304976D01*
X115614070Y-83289070D01*
X115629976Y-83274654D01*
X115647219Y-83261866D01*
X115665632Y-83250830D01*
X115685038Y-83241651D01*
X115705250Y-83234419D01*
X115726074Y-83229203D01*
X115747309Y-83226053D01*
X115768750Y-83225000D01*
X116206250Y-83225000D01*
X116227691Y-83226053D01*
X116227691Y-83226053D01*
G37*
D12*
G04 #@! TD*
G04 #@! TO.P,C1,2*
G04 #@! TO.N,GNDREF*
X115987500Y-83700000D03*
D11*
G04 #@! TO.N,Net-(C1-Pad1)*
G04 #@! TO.C,C1*
G36*
X114652691Y-83226053D02*
X114673926Y-83229203D01*
X114694750Y-83234419D01*
X114714962Y-83241651D01*
X114734368Y-83250830D01*
X114752781Y-83261866D01*
X114770024Y-83274654D01*
X114785930Y-83289070D01*
X114800346Y-83304976D01*
X114813134Y-83322219D01*
X114824170Y-83340632D01*
X114833349Y-83360038D01*
X114840581Y-83380250D01*
X114845797Y-83401074D01*
X114848947Y-83422309D01*
X114850000Y-83443750D01*
X114850000Y-83956250D01*
X114848947Y-83977691D01*
X114845797Y-83998926D01*
X114840581Y-84019750D01*
X114833349Y-84039962D01*
X114824170Y-84059368D01*
X114813134Y-84077781D01*
X114800346Y-84095024D01*
X114785930Y-84110930D01*
X114770024Y-84125346D01*
X114752781Y-84138134D01*
X114734368Y-84149170D01*
X114714962Y-84158349D01*
X114694750Y-84165581D01*
X114673926Y-84170797D01*
X114652691Y-84173947D01*
X114631250Y-84175000D01*
X114193750Y-84175000D01*
X114172309Y-84173947D01*
X114151074Y-84170797D01*
X114130250Y-84165581D01*
X114110038Y-84158349D01*
X114090632Y-84149170D01*
X114072219Y-84138134D01*
X114054976Y-84125346D01*
X114039070Y-84110930D01*
X114024654Y-84095024D01*
X114011866Y-84077781D01*
X114000830Y-84059368D01*
X113991651Y-84039962D01*
X113984419Y-84019750D01*
X113979203Y-83998926D01*
X113976053Y-83977691D01*
X113975000Y-83956250D01*
X113975000Y-83443750D01*
X113976053Y-83422309D01*
X113979203Y-83401074D01*
X113984419Y-83380250D01*
X113991651Y-83360038D01*
X114000830Y-83340632D01*
X114011866Y-83322219D01*
X114024654Y-83304976D01*
X114039070Y-83289070D01*
X114054976Y-83274654D01*
X114072219Y-83261866D01*
X114090632Y-83250830D01*
X114110038Y-83241651D01*
X114130250Y-83234419D01*
X114151074Y-83229203D01*
X114172309Y-83226053D01*
X114193750Y-83225000D01*
X114631250Y-83225000D01*
X114652691Y-83226053D01*
X114652691Y-83226053D01*
G37*
D12*
G04 #@! TD*
G04 #@! TO.P,C1,1*
G04 #@! TO.N,Net-(C1-Pad1)*
X114412500Y-83700000D03*
D11*
G04 #@! TO.N,Net-(C2-Pad1)*
G04 #@! TO.C,C2*
G36*
X116227691Y-78126053D02*
X116248926Y-78129203D01*
X116269750Y-78134419D01*
X116289962Y-78141651D01*
X116309368Y-78150830D01*
X116327781Y-78161866D01*
X116345024Y-78174654D01*
X116360930Y-78189070D01*
X116375346Y-78204976D01*
X116388134Y-78222219D01*
X116399170Y-78240632D01*
X116408349Y-78260038D01*
X116415581Y-78280250D01*
X116420797Y-78301074D01*
X116423947Y-78322309D01*
X116425000Y-78343750D01*
X116425000Y-78856250D01*
X116423947Y-78877691D01*
X116420797Y-78898926D01*
X116415581Y-78919750D01*
X116408349Y-78939962D01*
X116399170Y-78959368D01*
X116388134Y-78977781D01*
X116375346Y-78995024D01*
X116360930Y-79010930D01*
X116345024Y-79025346D01*
X116327781Y-79038134D01*
X116309368Y-79049170D01*
X116289962Y-79058349D01*
X116269750Y-79065581D01*
X116248926Y-79070797D01*
X116227691Y-79073947D01*
X116206250Y-79075000D01*
X115768750Y-79075000D01*
X115747309Y-79073947D01*
X115726074Y-79070797D01*
X115705250Y-79065581D01*
X115685038Y-79058349D01*
X115665632Y-79049170D01*
X115647219Y-79038134D01*
X115629976Y-79025346D01*
X115614070Y-79010930D01*
X115599654Y-78995024D01*
X115586866Y-78977781D01*
X115575830Y-78959368D01*
X115566651Y-78939962D01*
X115559419Y-78919750D01*
X115554203Y-78898926D01*
X115551053Y-78877691D01*
X115550000Y-78856250D01*
X115550000Y-78343750D01*
X115551053Y-78322309D01*
X115554203Y-78301074D01*
X115559419Y-78280250D01*
X115566651Y-78260038D01*
X115575830Y-78240632D01*
X115586866Y-78222219D01*
X115599654Y-78204976D01*
X115614070Y-78189070D01*
X115629976Y-78174654D01*
X115647219Y-78161866D01*
X115665632Y-78150830D01*
X115685038Y-78141651D01*
X115705250Y-78134419D01*
X115726074Y-78129203D01*
X115747309Y-78126053D01*
X115768750Y-78125000D01*
X116206250Y-78125000D01*
X116227691Y-78126053D01*
X116227691Y-78126053D01*
G37*
D12*
G04 #@! TD*
G04 #@! TO.P,C2,1*
G04 #@! TO.N,Net-(C2-Pad1)*
X115987500Y-78600000D03*
D11*
G04 #@! TO.N,GNDREF*
G04 #@! TO.C,C2*
G36*
X114652691Y-78126053D02*
X114673926Y-78129203D01*
X114694750Y-78134419D01*
X114714962Y-78141651D01*
X114734368Y-78150830D01*
X114752781Y-78161866D01*
X114770024Y-78174654D01*
X114785930Y-78189070D01*
X114800346Y-78204976D01*
X114813134Y-78222219D01*
X114824170Y-78240632D01*
X114833349Y-78260038D01*
X114840581Y-78280250D01*
X114845797Y-78301074D01*
X114848947Y-78322309D01*
X114850000Y-78343750D01*
X114850000Y-78856250D01*
X114848947Y-78877691D01*
X114845797Y-78898926D01*
X114840581Y-78919750D01*
X114833349Y-78939962D01*
X114824170Y-78959368D01*
X114813134Y-78977781D01*
X114800346Y-78995024D01*
X114785930Y-79010930D01*
X114770024Y-79025346D01*
X114752781Y-79038134D01*
X114734368Y-79049170D01*
X114714962Y-79058349D01*
X114694750Y-79065581D01*
X114673926Y-79070797D01*
X114652691Y-79073947D01*
X114631250Y-79075000D01*
X114193750Y-79075000D01*
X114172309Y-79073947D01*
X114151074Y-79070797D01*
X114130250Y-79065581D01*
X114110038Y-79058349D01*
X114090632Y-79049170D01*
X114072219Y-79038134D01*
X114054976Y-79025346D01*
X114039070Y-79010930D01*
X114024654Y-78995024D01*
X114011866Y-78977781D01*
X114000830Y-78959368D01*
X113991651Y-78939962D01*
X113984419Y-78919750D01*
X113979203Y-78898926D01*
X113976053Y-78877691D01*
X113975000Y-78856250D01*
X113975000Y-78343750D01*
X113976053Y-78322309D01*
X113979203Y-78301074D01*
X113984419Y-78280250D01*
X113991651Y-78260038D01*
X114000830Y-78240632D01*
X114011866Y-78222219D01*
X114024654Y-78204976D01*
X114039070Y-78189070D01*
X114054976Y-78174654D01*
X114072219Y-78161866D01*
X114090632Y-78150830D01*
X114110038Y-78141651D01*
X114130250Y-78134419D01*
X114151074Y-78129203D01*
X114172309Y-78126053D01*
X114193750Y-78125000D01*
X114631250Y-78125000D01*
X114652691Y-78126053D01*
X114652691Y-78126053D01*
G37*
D12*
G04 #@! TD*
G04 #@! TO.P,C2,2*
G04 #@! TO.N,GNDREF*
X114412500Y-78600000D03*
D11*
G04 #@! TO.N,+BATT*
G04 #@! TO.C,C3*
G36*
X115677691Y-75951053D02*
X115698926Y-75954203D01*
X115719750Y-75959419D01*
X115739962Y-75966651D01*
X115759368Y-75975830D01*
X115777781Y-75986866D01*
X115795024Y-75999654D01*
X115810930Y-76014070D01*
X115825346Y-76029976D01*
X115838134Y-76047219D01*
X115849170Y-76065632D01*
X115858349Y-76085038D01*
X115865581Y-76105250D01*
X115870797Y-76126074D01*
X115873947Y-76147309D01*
X115875000Y-76168750D01*
X115875000Y-76606250D01*
X115873947Y-76627691D01*
X115870797Y-76648926D01*
X115865581Y-76669750D01*
X115858349Y-76689962D01*
X115849170Y-76709368D01*
X115838134Y-76727781D01*
X115825346Y-76745024D01*
X115810930Y-76760930D01*
X115795024Y-76775346D01*
X115777781Y-76788134D01*
X115759368Y-76799170D01*
X115739962Y-76808349D01*
X115719750Y-76815581D01*
X115698926Y-76820797D01*
X115677691Y-76823947D01*
X115656250Y-76825000D01*
X115143750Y-76825000D01*
X115122309Y-76823947D01*
X115101074Y-76820797D01*
X115080250Y-76815581D01*
X115060038Y-76808349D01*
X115040632Y-76799170D01*
X115022219Y-76788134D01*
X115004976Y-76775346D01*
X114989070Y-76760930D01*
X114974654Y-76745024D01*
X114961866Y-76727781D01*
X114950830Y-76709368D01*
X114941651Y-76689962D01*
X114934419Y-76669750D01*
X114929203Y-76648926D01*
X114926053Y-76627691D01*
X114925000Y-76606250D01*
X114925000Y-76168750D01*
X114926053Y-76147309D01*
X114929203Y-76126074D01*
X114934419Y-76105250D01*
X114941651Y-76085038D01*
X114950830Y-76065632D01*
X114961866Y-76047219D01*
X114974654Y-76029976D01*
X114989070Y-76014070D01*
X115004976Y-75999654D01*
X115022219Y-75986866D01*
X115040632Y-75975830D01*
X115060038Y-75966651D01*
X115080250Y-75959419D01*
X115101074Y-75954203D01*
X115122309Y-75951053D01*
X115143750Y-75950000D01*
X115656250Y-75950000D01*
X115677691Y-75951053D01*
X115677691Y-75951053D01*
G37*
D12*
G04 #@! TD*
G04 #@! TO.P,C3,1*
G04 #@! TO.N,+BATT*
X115400000Y-76387500D03*
D11*
G04 #@! TO.N,GNDREF*
G04 #@! TO.C,C3*
G36*
X115677691Y-74376053D02*
X115698926Y-74379203D01*
X115719750Y-74384419D01*
X115739962Y-74391651D01*
X115759368Y-74400830D01*
X115777781Y-74411866D01*
X115795024Y-74424654D01*
X115810930Y-74439070D01*
X115825346Y-74454976D01*
X115838134Y-74472219D01*
X115849170Y-74490632D01*
X115858349Y-74510038D01*
X115865581Y-74530250D01*
X115870797Y-74551074D01*
X115873947Y-74572309D01*
X115875000Y-74593750D01*
X115875000Y-75031250D01*
X115873947Y-75052691D01*
X115870797Y-75073926D01*
X115865581Y-75094750D01*
X115858349Y-75114962D01*
X115849170Y-75134368D01*
X115838134Y-75152781D01*
X115825346Y-75170024D01*
X115810930Y-75185930D01*
X115795024Y-75200346D01*
X115777781Y-75213134D01*
X115759368Y-75224170D01*
X115739962Y-75233349D01*
X115719750Y-75240581D01*
X115698926Y-75245797D01*
X115677691Y-75248947D01*
X115656250Y-75250000D01*
X115143750Y-75250000D01*
X115122309Y-75248947D01*
X115101074Y-75245797D01*
X115080250Y-75240581D01*
X115060038Y-75233349D01*
X115040632Y-75224170D01*
X115022219Y-75213134D01*
X115004976Y-75200346D01*
X114989070Y-75185930D01*
X114974654Y-75170024D01*
X114961866Y-75152781D01*
X114950830Y-75134368D01*
X114941651Y-75114962D01*
X114934419Y-75094750D01*
X114929203Y-75073926D01*
X114926053Y-75052691D01*
X114925000Y-75031250D01*
X114925000Y-74593750D01*
X114926053Y-74572309D01*
X114929203Y-74551074D01*
X114934419Y-74530250D01*
X114941651Y-74510038D01*
X114950830Y-74490632D01*
X114961866Y-74472219D01*
X114974654Y-74454976D01*
X114989070Y-74439070D01*
X115004976Y-74424654D01*
X115022219Y-74411866D01*
X115040632Y-74400830D01*
X115060038Y-74391651D01*
X115080250Y-74384419D01*
X115101074Y-74379203D01*
X115122309Y-74376053D01*
X115143750Y-74375000D01*
X115656250Y-74375000D01*
X115677691Y-74376053D01*
X115677691Y-74376053D01*
G37*
D12*
G04 #@! TD*
G04 #@! TO.P,C3,2*
G04 #@! TO.N,GNDREF*
X115400000Y-74812500D03*
D11*
G04 #@! TO.N,GNDREF*
G04 #@! TO.C,C4*
G36*
X113977691Y-74751053D02*
X113998926Y-74754203D01*
X114019750Y-74759419D01*
X114039962Y-74766651D01*
X114059368Y-74775830D01*
X114077781Y-74786866D01*
X114095024Y-74799654D01*
X114110930Y-74814070D01*
X114125346Y-74829976D01*
X114138134Y-74847219D01*
X114149170Y-74865632D01*
X114158349Y-74885038D01*
X114165581Y-74905250D01*
X114170797Y-74926074D01*
X114173947Y-74947309D01*
X114175000Y-74968750D01*
X114175000Y-75406250D01*
X114173947Y-75427691D01*
X114170797Y-75448926D01*
X114165581Y-75469750D01*
X114158349Y-75489962D01*
X114149170Y-75509368D01*
X114138134Y-75527781D01*
X114125346Y-75545024D01*
X114110930Y-75560930D01*
X114095024Y-75575346D01*
X114077781Y-75588134D01*
X114059368Y-75599170D01*
X114039962Y-75608349D01*
X114019750Y-75615581D01*
X113998926Y-75620797D01*
X113977691Y-75623947D01*
X113956250Y-75625000D01*
X113443750Y-75625000D01*
X113422309Y-75623947D01*
X113401074Y-75620797D01*
X113380250Y-75615581D01*
X113360038Y-75608349D01*
X113340632Y-75599170D01*
X113322219Y-75588134D01*
X113304976Y-75575346D01*
X113289070Y-75560930D01*
X113274654Y-75545024D01*
X113261866Y-75527781D01*
X113250830Y-75509368D01*
X113241651Y-75489962D01*
X113234419Y-75469750D01*
X113229203Y-75448926D01*
X113226053Y-75427691D01*
X113225000Y-75406250D01*
X113225000Y-74968750D01*
X113226053Y-74947309D01*
X113229203Y-74926074D01*
X113234419Y-74905250D01*
X113241651Y-74885038D01*
X113250830Y-74865632D01*
X113261866Y-74847219D01*
X113274654Y-74829976D01*
X113289070Y-74814070D01*
X113304976Y-74799654D01*
X113322219Y-74786866D01*
X113340632Y-74775830D01*
X113360038Y-74766651D01*
X113380250Y-74759419D01*
X113401074Y-74754203D01*
X113422309Y-74751053D01*
X113443750Y-74750000D01*
X113956250Y-74750000D01*
X113977691Y-74751053D01*
X113977691Y-74751053D01*
G37*
D12*
G04 #@! TD*
G04 #@! TO.P,C4,2*
G04 #@! TO.N,GNDREF*
X113700000Y-75187500D03*
D11*
G04 #@! TO.N,Net-(C4-Pad1)*
G04 #@! TO.C,C4*
G36*
X113977691Y-73176053D02*
X113998926Y-73179203D01*
X114019750Y-73184419D01*
X114039962Y-73191651D01*
X114059368Y-73200830D01*
X114077781Y-73211866D01*
X114095024Y-73224654D01*
X114110930Y-73239070D01*
X114125346Y-73254976D01*
X114138134Y-73272219D01*
X114149170Y-73290632D01*
X114158349Y-73310038D01*
X114165581Y-73330250D01*
X114170797Y-73351074D01*
X114173947Y-73372309D01*
X114175000Y-73393750D01*
X114175000Y-73831250D01*
X114173947Y-73852691D01*
X114170797Y-73873926D01*
X114165581Y-73894750D01*
X114158349Y-73914962D01*
X114149170Y-73934368D01*
X114138134Y-73952781D01*
X114125346Y-73970024D01*
X114110930Y-73985930D01*
X114095024Y-74000346D01*
X114077781Y-74013134D01*
X114059368Y-74024170D01*
X114039962Y-74033349D01*
X114019750Y-74040581D01*
X113998926Y-74045797D01*
X113977691Y-74048947D01*
X113956250Y-74050000D01*
X113443750Y-74050000D01*
X113422309Y-74048947D01*
X113401074Y-74045797D01*
X113380250Y-74040581D01*
X113360038Y-74033349D01*
X113340632Y-74024170D01*
X113322219Y-74013134D01*
X113304976Y-74000346D01*
X113289070Y-73985930D01*
X113274654Y-73970024D01*
X113261866Y-73952781D01*
X113250830Y-73934368D01*
X113241651Y-73914962D01*
X113234419Y-73894750D01*
X113229203Y-73873926D01*
X113226053Y-73852691D01*
X113225000Y-73831250D01*
X113225000Y-73393750D01*
X113226053Y-73372309D01*
X113229203Y-73351074D01*
X113234419Y-73330250D01*
X113241651Y-73310038D01*
X113250830Y-73290632D01*
X113261866Y-73272219D01*
X113274654Y-73254976D01*
X113289070Y-73239070D01*
X113304976Y-73224654D01*
X113322219Y-73211866D01*
X113340632Y-73200830D01*
X113360038Y-73191651D01*
X113380250Y-73184419D01*
X113401074Y-73179203D01*
X113422309Y-73176053D01*
X113443750Y-73175000D01*
X113956250Y-73175000D01*
X113977691Y-73176053D01*
X113977691Y-73176053D01*
G37*
D12*
G04 #@! TD*
G04 #@! TO.P,C4,1*
G04 #@! TO.N,Net-(C4-Pad1)*
X113700000Y-73612500D03*
D11*
G04 #@! TO.N,Net-(C5-Pad1)*
G04 #@! TO.C,C5*
G36*
X112577691Y-78576053D02*
X112598926Y-78579203D01*
X112619750Y-78584419D01*
X112639962Y-78591651D01*
X112659368Y-78600830D01*
X112677781Y-78611866D01*
X112695024Y-78624654D01*
X112710930Y-78639070D01*
X112725346Y-78654976D01*
X112738134Y-78672219D01*
X112749170Y-78690632D01*
X112758349Y-78710038D01*
X112765581Y-78730250D01*
X112770797Y-78751074D01*
X112773947Y-78772309D01*
X112775000Y-78793750D01*
X112775000Y-79231250D01*
X112773947Y-79252691D01*
X112770797Y-79273926D01*
X112765581Y-79294750D01*
X112758349Y-79314962D01*
X112749170Y-79334368D01*
X112738134Y-79352781D01*
X112725346Y-79370024D01*
X112710930Y-79385930D01*
X112695024Y-79400346D01*
X112677781Y-79413134D01*
X112659368Y-79424170D01*
X112639962Y-79433349D01*
X112619750Y-79440581D01*
X112598926Y-79445797D01*
X112577691Y-79448947D01*
X112556250Y-79450000D01*
X112043750Y-79450000D01*
X112022309Y-79448947D01*
X112001074Y-79445797D01*
X111980250Y-79440581D01*
X111960038Y-79433349D01*
X111940632Y-79424170D01*
X111922219Y-79413134D01*
X111904976Y-79400346D01*
X111889070Y-79385930D01*
X111874654Y-79370024D01*
X111861866Y-79352781D01*
X111850830Y-79334368D01*
X111841651Y-79314962D01*
X111834419Y-79294750D01*
X111829203Y-79273926D01*
X111826053Y-79252691D01*
X111825000Y-79231250D01*
X111825000Y-78793750D01*
X111826053Y-78772309D01*
X111829203Y-78751074D01*
X111834419Y-78730250D01*
X111841651Y-78710038D01*
X111850830Y-78690632D01*
X111861866Y-78672219D01*
X111874654Y-78654976D01*
X111889070Y-78639070D01*
X111904976Y-78624654D01*
X111922219Y-78611866D01*
X111940632Y-78600830D01*
X111960038Y-78591651D01*
X111980250Y-78584419D01*
X112001074Y-78579203D01*
X112022309Y-78576053D01*
X112043750Y-78575000D01*
X112556250Y-78575000D01*
X112577691Y-78576053D01*
X112577691Y-78576053D01*
G37*
D12*
G04 #@! TD*
G04 #@! TO.P,C5,1*
G04 #@! TO.N,Net-(C5-Pad1)*
X112300000Y-79012500D03*
D11*
G04 #@! TO.N,GNDREF*
G04 #@! TO.C,C5*
G36*
X112577691Y-80151053D02*
X112598926Y-80154203D01*
X112619750Y-80159419D01*
X112639962Y-80166651D01*
X112659368Y-80175830D01*
X112677781Y-80186866D01*
X112695024Y-80199654D01*
X112710930Y-80214070D01*
X112725346Y-80229976D01*
X112738134Y-80247219D01*
X112749170Y-80265632D01*
X112758349Y-80285038D01*
X112765581Y-80305250D01*
X112770797Y-80326074D01*
X112773947Y-80347309D01*
X112775000Y-80368750D01*
X112775000Y-80806250D01*
X112773947Y-80827691D01*
X112770797Y-80848926D01*
X112765581Y-80869750D01*
X112758349Y-80889962D01*
X112749170Y-80909368D01*
X112738134Y-80927781D01*
X112725346Y-80945024D01*
X112710930Y-80960930D01*
X112695024Y-80975346D01*
X112677781Y-80988134D01*
X112659368Y-80999170D01*
X112639962Y-81008349D01*
X112619750Y-81015581D01*
X112598926Y-81020797D01*
X112577691Y-81023947D01*
X112556250Y-81025000D01*
X112043750Y-81025000D01*
X112022309Y-81023947D01*
X112001074Y-81020797D01*
X111980250Y-81015581D01*
X111960038Y-81008349D01*
X111940632Y-80999170D01*
X111922219Y-80988134D01*
X111904976Y-80975346D01*
X111889070Y-80960930D01*
X111874654Y-80945024D01*
X111861866Y-80927781D01*
X111850830Y-80909368D01*
X111841651Y-80889962D01*
X111834419Y-80869750D01*
X111829203Y-80848926D01*
X111826053Y-80827691D01*
X111825000Y-80806250D01*
X111825000Y-80368750D01*
X111826053Y-80347309D01*
X111829203Y-80326074D01*
X111834419Y-80305250D01*
X111841651Y-80285038D01*
X111850830Y-80265632D01*
X111861866Y-80247219D01*
X111874654Y-80229976D01*
X111889070Y-80214070D01*
X111904976Y-80199654D01*
X111922219Y-80186866D01*
X111940632Y-80175830D01*
X111960038Y-80166651D01*
X111980250Y-80159419D01*
X112001074Y-80154203D01*
X112022309Y-80151053D01*
X112043750Y-80150000D01*
X112556250Y-80150000D01*
X112577691Y-80151053D01*
X112577691Y-80151053D01*
G37*
D12*
G04 #@! TD*
G04 #@! TO.P,C5,2*
G04 #@! TO.N,GNDREF*
X112300000Y-80587500D03*
D11*
G04 #@! TO.N,GNDREF*
G04 #@! TO.C,C6*
G36*
X115327691Y-70926053D02*
X115348926Y-70929203D01*
X115369750Y-70934419D01*
X115389962Y-70941651D01*
X115409368Y-70950830D01*
X115427781Y-70961866D01*
X115445024Y-70974654D01*
X115460930Y-70989070D01*
X115475346Y-71004976D01*
X115488134Y-71022219D01*
X115499170Y-71040632D01*
X115508349Y-71060038D01*
X115515581Y-71080250D01*
X115520797Y-71101074D01*
X115523947Y-71122309D01*
X115525000Y-71143750D01*
X115525000Y-71656250D01*
X115523947Y-71677691D01*
X115520797Y-71698926D01*
X115515581Y-71719750D01*
X115508349Y-71739962D01*
X115499170Y-71759368D01*
X115488134Y-71777781D01*
X115475346Y-71795024D01*
X115460930Y-71810930D01*
X115445024Y-71825346D01*
X115427781Y-71838134D01*
X115409368Y-71849170D01*
X115389962Y-71858349D01*
X115369750Y-71865581D01*
X115348926Y-71870797D01*
X115327691Y-71873947D01*
X115306250Y-71875000D01*
X114868750Y-71875000D01*
X114847309Y-71873947D01*
X114826074Y-71870797D01*
X114805250Y-71865581D01*
X114785038Y-71858349D01*
X114765632Y-71849170D01*
X114747219Y-71838134D01*
X114729976Y-71825346D01*
X114714070Y-71810930D01*
X114699654Y-71795024D01*
X114686866Y-71777781D01*
X114675830Y-71759368D01*
X114666651Y-71739962D01*
X114659419Y-71719750D01*
X114654203Y-71698926D01*
X114651053Y-71677691D01*
X114650000Y-71656250D01*
X114650000Y-71143750D01*
X114651053Y-71122309D01*
X114654203Y-71101074D01*
X114659419Y-71080250D01*
X114666651Y-71060038D01*
X114675830Y-71040632D01*
X114686866Y-71022219D01*
X114699654Y-71004976D01*
X114714070Y-70989070D01*
X114729976Y-70974654D01*
X114747219Y-70961866D01*
X114765632Y-70950830D01*
X114785038Y-70941651D01*
X114805250Y-70934419D01*
X114826074Y-70929203D01*
X114847309Y-70926053D01*
X114868750Y-70925000D01*
X115306250Y-70925000D01*
X115327691Y-70926053D01*
X115327691Y-70926053D01*
G37*
D12*
G04 #@! TD*
G04 #@! TO.P,C6,2*
G04 #@! TO.N,GNDREF*
X115087500Y-71400000D03*
D11*
G04 #@! TO.N,Net-(C6-Pad1)*
G04 #@! TO.C,C6*
G36*
X113752691Y-70926053D02*
X113773926Y-70929203D01*
X113794750Y-70934419D01*
X113814962Y-70941651D01*
X113834368Y-70950830D01*
X113852781Y-70961866D01*
X113870024Y-70974654D01*
X113885930Y-70989070D01*
X113900346Y-71004976D01*
X113913134Y-71022219D01*
X113924170Y-71040632D01*
X113933349Y-71060038D01*
X113940581Y-71080250D01*
X113945797Y-71101074D01*
X113948947Y-71122309D01*
X113950000Y-71143750D01*
X113950000Y-71656250D01*
X113948947Y-71677691D01*
X113945797Y-71698926D01*
X113940581Y-71719750D01*
X113933349Y-71739962D01*
X113924170Y-71759368D01*
X113913134Y-71777781D01*
X113900346Y-71795024D01*
X113885930Y-71810930D01*
X113870024Y-71825346D01*
X113852781Y-71838134D01*
X113834368Y-71849170D01*
X113814962Y-71858349D01*
X113794750Y-71865581D01*
X113773926Y-71870797D01*
X113752691Y-71873947D01*
X113731250Y-71875000D01*
X113293750Y-71875000D01*
X113272309Y-71873947D01*
X113251074Y-71870797D01*
X113230250Y-71865581D01*
X113210038Y-71858349D01*
X113190632Y-71849170D01*
X113172219Y-71838134D01*
X113154976Y-71825346D01*
X113139070Y-71810930D01*
X113124654Y-71795024D01*
X113111866Y-71777781D01*
X113100830Y-71759368D01*
X113091651Y-71739962D01*
X113084419Y-71719750D01*
X113079203Y-71698926D01*
X113076053Y-71677691D01*
X113075000Y-71656250D01*
X113075000Y-71143750D01*
X113076053Y-71122309D01*
X113079203Y-71101074D01*
X113084419Y-71080250D01*
X113091651Y-71060038D01*
X113100830Y-71040632D01*
X113111866Y-71022219D01*
X113124654Y-71004976D01*
X113139070Y-70989070D01*
X113154976Y-70974654D01*
X113172219Y-70961866D01*
X113190632Y-70950830D01*
X113210038Y-70941651D01*
X113230250Y-70934419D01*
X113251074Y-70929203D01*
X113272309Y-70926053D01*
X113293750Y-70925000D01*
X113731250Y-70925000D01*
X113752691Y-70926053D01*
X113752691Y-70926053D01*
G37*
D12*
G04 #@! TD*
G04 #@! TO.P,C6,1*
G04 #@! TO.N,Net-(C6-Pad1)*
X113512500Y-71400000D03*
D11*
G04 #@! TO.N,/ANT*
G04 #@! TO.C,C7*
G36*
X109052691Y-78526053D02*
X109073926Y-78529203D01*
X109094750Y-78534419D01*
X109114962Y-78541651D01*
X109134368Y-78550830D01*
X109152781Y-78561866D01*
X109170024Y-78574654D01*
X109185930Y-78589070D01*
X109200346Y-78604976D01*
X109213134Y-78622219D01*
X109224170Y-78640632D01*
X109233349Y-78660038D01*
X109240581Y-78680250D01*
X109245797Y-78701074D01*
X109248947Y-78722309D01*
X109250000Y-78743750D01*
X109250000Y-79256250D01*
X109248947Y-79277691D01*
X109245797Y-79298926D01*
X109240581Y-79319750D01*
X109233349Y-79339962D01*
X109224170Y-79359368D01*
X109213134Y-79377781D01*
X109200346Y-79395024D01*
X109185930Y-79410930D01*
X109170024Y-79425346D01*
X109152781Y-79438134D01*
X109134368Y-79449170D01*
X109114962Y-79458349D01*
X109094750Y-79465581D01*
X109073926Y-79470797D01*
X109052691Y-79473947D01*
X109031250Y-79475000D01*
X108593750Y-79475000D01*
X108572309Y-79473947D01*
X108551074Y-79470797D01*
X108530250Y-79465581D01*
X108510038Y-79458349D01*
X108490632Y-79449170D01*
X108472219Y-79438134D01*
X108454976Y-79425346D01*
X108439070Y-79410930D01*
X108424654Y-79395024D01*
X108411866Y-79377781D01*
X108400830Y-79359368D01*
X108391651Y-79339962D01*
X108384419Y-79319750D01*
X108379203Y-79298926D01*
X108376053Y-79277691D01*
X108375000Y-79256250D01*
X108375000Y-78743750D01*
X108376053Y-78722309D01*
X108379203Y-78701074D01*
X108384419Y-78680250D01*
X108391651Y-78660038D01*
X108400830Y-78640632D01*
X108411866Y-78622219D01*
X108424654Y-78604976D01*
X108439070Y-78589070D01*
X108454976Y-78574654D01*
X108472219Y-78561866D01*
X108490632Y-78550830D01*
X108510038Y-78541651D01*
X108530250Y-78534419D01*
X108551074Y-78529203D01*
X108572309Y-78526053D01*
X108593750Y-78525000D01*
X109031250Y-78525000D01*
X109052691Y-78526053D01*
X109052691Y-78526053D01*
G37*
D12*
G04 #@! TD*
G04 #@! TO.P,C7,1*
G04 #@! TO.N,/ANT*
X108812500Y-79000000D03*
D11*
G04 #@! TO.N,GNDREF*
G04 #@! TO.C,C7*
G36*
X110627691Y-78526053D02*
X110648926Y-78529203D01*
X110669750Y-78534419D01*
X110689962Y-78541651D01*
X110709368Y-78550830D01*
X110727781Y-78561866D01*
X110745024Y-78574654D01*
X110760930Y-78589070D01*
X110775346Y-78604976D01*
X110788134Y-78622219D01*
X110799170Y-78640632D01*
X110808349Y-78660038D01*
X110815581Y-78680250D01*
X110820797Y-78701074D01*
X110823947Y-78722309D01*
X110825000Y-78743750D01*
X110825000Y-79256250D01*
X110823947Y-79277691D01*
X110820797Y-79298926D01*
X110815581Y-79319750D01*
X110808349Y-79339962D01*
X110799170Y-79359368D01*
X110788134Y-79377781D01*
X110775346Y-79395024D01*
X110760930Y-79410930D01*
X110745024Y-79425346D01*
X110727781Y-79438134D01*
X110709368Y-79449170D01*
X110689962Y-79458349D01*
X110669750Y-79465581D01*
X110648926Y-79470797D01*
X110627691Y-79473947D01*
X110606250Y-79475000D01*
X110168750Y-79475000D01*
X110147309Y-79473947D01*
X110126074Y-79470797D01*
X110105250Y-79465581D01*
X110085038Y-79458349D01*
X110065632Y-79449170D01*
X110047219Y-79438134D01*
X110029976Y-79425346D01*
X110014070Y-79410930D01*
X109999654Y-79395024D01*
X109986866Y-79377781D01*
X109975830Y-79359368D01*
X109966651Y-79339962D01*
X109959419Y-79319750D01*
X109954203Y-79298926D01*
X109951053Y-79277691D01*
X109950000Y-79256250D01*
X109950000Y-78743750D01*
X109951053Y-78722309D01*
X109954203Y-78701074D01*
X109959419Y-78680250D01*
X109966651Y-78660038D01*
X109975830Y-78640632D01*
X109986866Y-78622219D01*
X109999654Y-78604976D01*
X110014070Y-78589070D01*
X110029976Y-78574654D01*
X110047219Y-78561866D01*
X110065632Y-78550830D01*
X110085038Y-78541651D01*
X110105250Y-78534419D01*
X110126074Y-78529203D01*
X110147309Y-78526053D01*
X110168750Y-78525000D01*
X110606250Y-78525000D01*
X110627691Y-78526053D01*
X110627691Y-78526053D01*
G37*
D12*
G04 #@! TD*
G04 #@! TO.P,C7,2*
G04 #@! TO.N,GNDREF*
X110387500Y-79000000D03*
D11*
G04 #@! TO.N,Net-(AE1-Pad1)*
G04 #@! TO.C,L1*
G36*
X109157691Y-81851053D02*
X109178926Y-81854203D01*
X109199750Y-81859419D01*
X109219962Y-81866651D01*
X109239368Y-81875830D01*
X109257781Y-81886866D01*
X109275024Y-81899654D01*
X109290930Y-81914070D01*
X109305346Y-81929976D01*
X109318134Y-81947219D01*
X109329170Y-81965632D01*
X109338349Y-81985038D01*
X109345581Y-82005250D01*
X109350797Y-82026074D01*
X109353947Y-82047309D01*
X109355000Y-82068750D01*
X109355000Y-82506250D01*
X109353947Y-82527691D01*
X109350797Y-82548926D01*
X109345581Y-82569750D01*
X109338349Y-82589962D01*
X109329170Y-82609368D01*
X109318134Y-82627781D01*
X109305346Y-82645024D01*
X109290930Y-82660930D01*
X109275024Y-82675346D01*
X109257781Y-82688134D01*
X109239368Y-82699170D01*
X109219962Y-82708349D01*
X109199750Y-82715581D01*
X109178926Y-82720797D01*
X109157691Y-82723947D01*
X109136250Y-82725000D01*
X108623750Y-82725000D01*
X108602309Y-82723947D01*
X108581074Y-82720797D01*
X108560250Y-82715581D01*
X108540038Y-82708349D01*
X108520632Y-82699170D01*
X108502219Y-82688134D01*
X108484976Y-82675346D01*
X108469070Y-82660930D01*
X108454654Y-82645024D01*
X108441866Y-82627781D01*
X108430830Y-82609368D01*
X108421651Y-82589962D01*
X108414419Y-82569750D01*
X108409203Y-82548926D01*
X108406053Y-82527691D01*
X108405000Y-82506250D01*
X108405000Y-82068750D01*
X108406053Y-82047309D01*
X108409203Y-82026074D01*
X108414419Y-82005250D01*
X108421651Y-81985038D01*
X108430830Y-81965632D01*
X108441866Y-81947219D01*
X108454654Y-81929976D01*
X108469070Y-81914070D01*
X108484976Y-81899654D01*
X108502219Y-81886866D01*
X108520632Y-81875830D01*
X108540038Y-81866651D01*
X108560250Y-81859419D01*
X108581074Y-81854203D01*
X108602309Y-81851053D01*
X108623750Y-81850000D01*
X109136250Y-81850000D01*
X109157691Y-81851053D01*
X109157691Y-81851053D01*
G37*
D12*
G04 #@! TD*
G04 #@! TO.P,L1,1*
G04 #@! TO.N,Net-(AE1-Pad1)*
X108880000Y-82287500D03*
D11*
G04 #@! TO.N,/ANT*
G04 #@! TO.C,L1*
G36*
X109157691Y-80276053D02*
X109178926Y-80279203D01*
X109199750Y-80284419D01*
X109219962Y-80291651D01*
X109239368Y-80300830D01*
X109257781Y-80311866D01*
X109275024Y-80324654D01*
X109290930Y-80339070D01*
X109305346Y-80354976D01*
X109318134Y-80372219D01*
X109329170Y-80390632D01*
X109338349Y-80410038D01*
X109345581Y-80430250D01*
X109350797Y-80451074D01*
X109353947Y-80472309D01*
X109355000Y-80493750D01*
X109355000Y-80931250D01*
X109353947Y-80952691D01*
X109350797Y-80973926D01*
X109345581Y-80994750D01*
X109338349Y-81014962D01*
X109329170Y-81034368D01*
X109318134Y-81052781D01*
X109305346Y-81070024D01*
X109290930Y-81085930D01*
X109275024Y-81100346D01*
X109257781Y-81113134D01*
X109239368Y-81124170D01*
X109219962Y-81133349D01*
X109199750Y-81140581D01*
X109178926Y-81145797D01*
X109157691Y-81148947D01*
X109136250Y-81150000D01*
X108623750Y-81150000D01*
X108602309Y-81148947D01*
X108581074Y-81145797D01*
X108560250Y-81140581D01*
X108540038Y-81133349D01*
X108520632Y-81124170D01*
X108502219Y-81113134D01*
X108484976Y-81100346D01*
X108469070Y-81085930D01*
X108454654Y-81070024D01*
X108441866Y-81052781D01*
X108430830Y-81034368D01*
X108421651Y-81014962D01*
X108414419Y-80994750D01*
X108409203Y-80973926D01*
X108406053Y-80952691D01*
X108405000Y-80931250D01*
X108405000Y-80493750D01*
X108406053Y-80472309D01*
X108409203Y-80451074D01*
X108414419Y-80430250D01*
X108421651Y-80410038D01*
X108430830Y-80390632D01*
X108441866Y-80372219D01*
X108454654Y-80354976D01*
X108469070Y-80339070D01*
X108484976Y-80324654D01*
X108502219Y-80311866D01*
X108520632Y-80300830D01*
X108540038Y-80291651D01*
X108560250Y-80284419D01*
X108581074Y-80279203D01*
X108602309Y-80276053D01*
X108623750Y-80275000D01*
X109136250Y-80275000D01*
X109157691Y-80276053D01*
X109157691Y-80276053D01*
G37*
D12*
G04 #@! TD*
G04 #@! TO.P,L1,2*
G04 #@! TO.N,/ANT*
X108880000Y-80712500D03*
D19*
G04 #@! TO.P,U1,1*
G04 #@! TO.N,Net-(C6-Pad1)*
X111375000Y-72062500D03*
D20*
G04 #@! TO.P,U1,9*
G04 #@! TO.N,+BATT*
X107187500Y-72750000D03*
D19*
G04 #@! TO.P,U1,17*
G04 #@! TO.N,/SWDCLK*
X107875000Y-76937500D03*
D20*
G04 #@! TO.P,U1,25*
G04 #@! TO.N,+BATT*
X112062500Y-76250000D03*
D21*
G04 #@! TO.P,U1,33*
G04 #@! TO.N,GNDREF*
X109625000Y-74500000D03*
D19*
G04 #@! TO.P,U1,2*
G04 #@! TO.N,Net-(C8-Pad2)*
X110875000Y-72062500D03*
G04 #@! TO.P,U1,3*
G04 #@! TO.N,Net-(C9-Pad2)*
X110375000Y-72062500D03*
G04 #@! TO.P,U1,4*
G04 #@! TO.N,Net-(U1-Pad4)*
X109875000Y-72062500D03*
G04 #@! TO.P,U1,5*
G04 #@! TO.N,Net-(D1-Pad2)*
X109375000Y-72062500D03*
G04 #@! TO.P,U1,6*
G04 #@! TO.N,/SDA*
X108875000Y-72062500D03*
G04 #@! TO.P,U1,7*
G04 #@! TO.N,/SCL*
X108375000Y-72062500D03*
G04 #@! TO.P,U1,8*
G04 #@! TO.N,Net-(U1-Pad8)*
X107875000Y-72062500D03*
D20*
G04 #@! TO.P,U1,10*
G04 #@! TO.N,Net-(U1-Pad10)*
X107187500Y-73250000D03*
G04 #@! TO.P,U1,11*
G04 #@! TO.N,Net-(U1-Pad11)*
X107187500Y-73750000D03*
G04 #@! TO.P,U1,12*
G04 #@! TO.N,/TX*
X107187500Y-74250000D03*
G04 #@! TO.P,U1,13*
G04 #@! TO.N,/RX*
X107187500Y-74750000D03*
G04 #@! TO.P,U1,14*
G04 #@! TO.N,Net-(U1-Pad14)*
X107187500Y-75250000D03*
G04 #@! TO.P,U1,15*
G04 #@! TO.N,Net-(U1-Pad15)*
X107187500Y-75750000D03*
G04 #@! TO.P,U1,16*
G04 #@! TO.N,Net-(U1-Pad16)*
X107187500Y-76250000D03*
D19*
G04 #@! TO.P,U1,18*
G04 #@! TO.N,/SWDIO*
X108375000Y-76937500D03*
G04 #@! TO.P,U1,19*
G04 #@! TO.N,/ANT*
X108875000Y-76937500D03*
G04 #@! TO.P,U1,20*
G04 #@! TO.N,GNDREF*
X109375000Y-76937500D03*
G04 #@! TO.P,U1,21*
G04 #@! TO.N,Net-(U1-Pad21)*
X109875000Y-76937500D03*
G04 #@! TO.P,U1,22*
G04 #@! TO.N,Net-(C5-Pad1)*
X110375000Y-76937500D03*
G04 #@! TO.P,U1,23*
G04 #@! TO.N,Net-(C1-Pad1)*
X110875000Y-76937500D03*
G04 #@! TO.P,U1,24*
G04 #@! TO.N,Net-(C2-Pad1)*
X111375000Y-76937500D03*
D20*
G04 #@! TO.P,U1,26*
G04 #@! TO.N,Net-(U1-Pad26)*
X112062500Y-75750000D03*
G04 #@! TO.P,U1,27*
G04 #@! TO.N,Net-(U1-Pad27)*
X112062500Y-75250000D03*
G04 #@! TO.P,U1,28*
G04 #@! TO.N,Net-(U1-Pad28)*
X112062500Y-74750000D03*
G04 #@! TO.P,U1,29*
G04 #@! TO.N,GNDREF*
X112062500Y-74250000D03*
G04 #@! TO.P,U1,30*
G04 #@! TO.N,Net-(C4-Pad1)*
X112062500Y-73750000D03*
G04 #@! TO.P,U1,31*
G04 #@! TO.N,Net-(U1-Pad31)*
X112062500Y-73250000D03*
G04 #@! TO.P,U1,32*
G04 #@! TO.N,+BATT*
X112062500Y-72750000D03*
G04 #@! TD*
D22*
G04 #@! TO.N,GNDREF*
X107075000Y-81325000D03*
X107075000Y-85400000D03*
X107075000Y-83050000D03*
X111625000Y-80000000D03*
X118975000Y-81450000D03*
X117600000Y-82875000D03*
X115425000Y-84200000D03*
X112950000Y-84800000D03*
X111625000Y-83500000D03*
X108425000Y-75675000D03*
X110875000Y-73250000D03*
X108425000Y-73300000D03*
X110825000Y-75700000D03*
X114500000Y-74475000D03*
X113400000Y-77700000D03*
X120000000Y-79800000D03*
X111625000Y-81800000D03*
X116400000Y-81900000D03*
X114200000Y-80200000D03*
X114550000Y-71400000D03*
X118200000Y-72900000D03*
X118225000Y-70100000D03*
X115750000Y-69300000D03*
X109600000Y-74500000D03*
X107075000Y-87050000D03*
X121700000Y-79350000D03*
X107100000Y-79675000D03*
X105150000Y-77100000D03*
X113300000Y-68175000D03*
G04 #@! TD*
D23*
G04 #@! TO.N,/RX*
X102684699Y-79968550D02*
X102684699Y-80887273D01*
X103171375Y-81373949D02*
X103565074Y-81767648D01*
X106450011Y-78140689D02*
X105035706Y-79554994D01*
X102684699Y-80887273D02*
X103171375Y-81373949D01*
X105035706Y-79554994D02*
X103098255Y-79554994D01*
X103098255Y-79554994D02*
X102684699Y-79968550D01*
X106450011Y-75015689D02*
X106450011Y-78140689D01*
X107187500Y-74750000D02*
X106715700Y-74750000D01*
X106715700Y-74750000D02*
X106450011Y-75015689D01*
G04 #@! TO.N,/TX*
X103643299Y-82867500D02*
X104200074Y-82867500D01*
X102275000Y-81499201D02*
X103643299Y-82867500D01*
X106650000Y-74250000D02*
X106050000Y-74850000D01*
X102932566Y-79154983D02*
X102275000Y-79812549D01*
X107187500Y-74250000D02*
X106650000Y-74250000D01*
X106050000Y-74850000D02*
X106050000Y-77975000D01*
X106050000Y-77975000D02*
X104870017Y-79154983D01*
X104870017Y-79154983D02*
X102932566Y-79154983D01*
X102275000Y-79812549D02*
X102275000Y-81499201D01*
G04 #@! TO.N,/SWDIO*
X108375000Y-77400000D02*
X108375000Y-76937500D01*
X105375000Y-80400000D02*
X108375000Y-77400000D01*
X105299926Y-82232500D02*
X105375000Y-82157426D01*
X105375000Y-82157426D02*
X105375000Y-80400000D01*
G04 #@! TO.N,/SWDCLK*
X104664926Y-80575873D02*
X104664926Y-81132648D01*
X104664926Y-80491474D02*
X104664926Y-80575873D01*
X107875000Y-76937500D02*
X107875000Y-77281400D01*
X107875000Y-77281400D02*
X104664926Y-80491474D01*
D24*
G04 #@! TO.N,Net-(AE1-Pad1)*
X122019244Y-83124431D02*
X122127776Y-82943760D01*
X122528478Y-82202213D02*
X122620123Y-82012435D01*
X121907430Y-83303113D02*
X122019244Y-83124431D01*
X122433369Y-82390335D02*
X122528478Y-82202213D01*
X121792398Y-83479703D02*
X121907430Y-83303113D01*
X120760413Y-84811262D02*
X120899865Y-84653244D01*
X120618093Y-84966728D02*
X120760413Y-84811262D01*
X120899865Y-84653244D02*
X121036455Y-84492667D01*
X120021248Y-85561891D02*
X120174507Y-85417196D01*
X119865375Y-85703777D02*
X120021248Y-85561891D01*
X121552761Y-83826481D02*
X121674162Y-83654178D01*
X119706971Y-85842778D02*
X119865375Y-85703777D01*
X121428255Y-83996527D02*
X121552761Y-83826481D01*
X120472972Y-85119571D02*
X120618093Y-84966728D01*
X119546070Y-85978863D02*
X119706971Y-85842778D01*
X122708310Y-81820994D02*
X122792985Y-81627999D01*
X121300667Y-84164285D02*
X121428255Y-83996527D01*
X120325123Y-85269714D02*
X120472972Y-85119571D01*
X119382694Y-86112014D02*
X119546070Y-85978863D01*
X121170047Y-84329691D02*
X121300667Y-84164285D01*
X121036455Y-84492667D02*
X121170047Y-84329691D01*
X120174507Y-85417196D02*
X120325123Y-85269714D01*
X119216875Y-86242203D02*
X119382694Y-86112014D01*
X118530912Y-86731998D02*
X118705745Y-86614237D01*
X114051717Y-88491054D02*
X114259297Y-88454592D01*
X113843527Y-88523727D02*
X114051717Y-88491054D01*
X113634704Y-88552614D02*
X113843527Y-88523727D01*
X113425451Y-88577685D02*
X113634704Y-88552614D01*
X112584906Y-88639757D02*
X112795417Y-88629984D01*
X122874127Y-81433511D02*
X122951737Y-81237512D01*
X122127776Y-82943760D02*
X122232997Y-82761145D01*
X118705745Y-86614237D02*
X118878389Y-86493322D01*
X115889120Y-88028285D02*
X116087966Y-87958440D01*
X117811163Y-87170539D02*
X117994064Y-87065839D01*
X116481668Y-87807949D02*
X116676440Y-87727334D01*
X114259297Y-88454592D02*
X114466230Y-88414346D01*
X108880000Y-85680000D02*
X111843163Y-88643163D01*
X108880000Y-82287500D02*
X108880000Y-85680000D01*
X114466230Y-88414346D02*
X114672302Y-88370357D01*
X111843163Y-88643163D02*
X111952742Y-88646061D01*
X114672302Y-88370357D02*
X114877576Y-88322615D01*
X117626367Y-87271902D02*
X117811163Y-87170539D01*
X111952742Y-88646061D02*
X112163474Y-88647798D01*
X112374205Y-88645697D02*
X112584906Y-88639757D01*
X122951737Y-81237512D02*
X123025739Y-81040204D01*
X114877576Y-88322615D02*
X115081998Y-88271129D01*
X115081998Y-88271129D02*
X115285405Y-88215940D01*
X115285405Y-88215940D02*
X115487785Y-88157053D01*
X115487785Y-88157053D02*
X115689000Y-88094508D01*
X122792985Y-81627999D02*
X122874127Y-81433511D01*
X122620123Y-82012435D02*
X122708310Y-81820994D01*
X115689000Y-88094508D02*
X115889120Y-88028285D01*
X122232997Y-82761145D02*
X122334876Y-82576644D01*
X118878389Y-86493322D02*
X119048811Y-86369278D01*
X116087966Y-87958440D02*
X116285485Y-87884994D01*
X117994064Y-87065839D02*
X118175036Y-86957821D01*
X116676440Y-87727334D02*
X116869652Y-87643211D01*
X112163474Y-88647798D02*
X112374205Y-88645697D01*
X117251408Y-87464441D02*
X117439751Y-87369885D01*
X122334876Y-82576644D02*
X122433369Y-82390335D01*
X121674162Y-83654178D02*
X121792398Y-83479703D01*
X119048811Y-86369278D02*
X119216875Y-86242203D01*
X116285485Y-87884994D02*
X116481668Y-87807949D01*
X118175036Y-86957821D02*
X118354015Y-86846521D01*
X112795417Y-88629984D02*
X113005710Y-88616378D01*
X116869652Y-87643211D02*
X117061380Y-87555548D01*
X118354015Y-86846521D02*
X118530912Y-86731998D01*
X113005710Y-88616378D02*
X113215785Y-88598940D01*
X117061380Y-87555548D02*
X117251408Y-87464441D01*
X113215785Y-88598940D02*
X113425451Y-88577685D01*
X117439751Y-87369885D02*
X117626367Y-87271902D01*
D25*
G04 #@! TO.N,GNDREF*
X109375000Y-77987500D02*
X109375000Y-76937500D01*
X110387500Y-79000000D02*
X109375000Y-77987500D01*
X109375000Y-74725000D02*
X109600000Y-74500000D01*
X109375000Y-76937500D02*
X109375000Y-74725000D01*
X109875000Y-74250000D02*
X109625000Y-74500000D01*
X112062500Y-74250000D02*
X109875000Y-74250000D01*
X109650000Y-74450000D02*
X109650000Y-74450000D01*
X109650000Y-74450000D02*
X109650000Y-74450000D01*
X109600000Y-74500000D02*
X109650000Y-74450000D01*
D23*
X109375000Y-68900000D02*
X109350000Y-68875000D01*
X109425000Y-68950000D02*
X109375000Y-68900000D01*
X113300000Y-68175000D02*
X112525000Y-68950000D01*
X112525000Y-68950000D02*
X109425000Y-68950000D01*
G04 #@! TO.N,/SDA*
X108875000Y-71293624D02*
X108531376Y-70950000D01*
X108875000Y-72062500D02*
X108875000Y-71293624D01*
X109325000Y-69875000D02*
X109325000Y-70156376D01*
X109325000Y-70156376D02*
X108531376Y-70950000D01*
X109350000Y-69825000D02*
X109275000Y-69825000D01*
X109275000Y-69825000D02*
X109325000Y-69875000D01*
X105137500Y-71062500D02*
X105075000Y-71062500D01*
X105275000Y-70925000D02*
X105137500Y-71062500D01*
X108531376Y-70950000D02*
X108506376Y-70925000D01*
X108506376Y-70925000D02*
X105275000Y-70925000D01*
D24*
G04 #@! TO.N,+BATT*
X112835001Y-76325001D02*
X112062500Y-76325001D01*
X114762501Y-76325001D02*
X112835001Y-76325001D01*
X114825000Y-76387500D02*
X114762501Y-76325001D01*
X115400000Y-76387500D02*
X114825000Y-76387500D01*
X114750888Y-72438388D02*
X112374112Y-72438388D01*
X112374112Y-72438388D02*
X112137501Y-72674999D01*
X115212500Y-72900000D02*
X114750888Y-72438388D01*
X116612500Y-76387500D02*
X115400000Y-76387500D01*
X122600000Y-77800000D02*
X118025000Y-77800000D01*
X118025000Y-77800000D02*
X116612500Y-76387500D01*
X116987500Y-74675000D02*
X115212500Y-72900000D01*
X122565000Y-74675000D02*
X116987500Y-74675000D01*
X122570000Y-74700000D02*
X122570000Y-74670000D01*
X122570000Y-74670000D02*
X122565000Y-74675000D01*
D26*
X102919435Y-83967352D02*
X104278299Y-83967352D01*
X102806383Y-83813509D02*
X102919435Y-83967352D01*
X102452354Y-83293029D02*
X102567204Y-83468671D01*
X102685242Y-83642206D02*
X102806383Y-83813509D01*
X102025504Y-82570441D02*
X102127283Y-82754010D01*
X101674990Y-77895010D02*
X101674990Y-81867562D01*
X104278299Y-83967352D02*
X104835074Y-83967352D01*
X102340719Y-83115320D02*
X102452354Y-83293029D01*
X102127283Y-82754010D02*
X102232327Y-82935588D01*
X101770000Y-77800000D02*
X101674990Y-77895010D01*
X102567204Y-83468671D02*
X102685242Y-83642206D01*
X102232327Y-82935588D02*
X102340719Y-83115320D01*
X101674990Y-81867562D02*
X101740517Y-82009166D01*
X101740517Y-82009166D02*
X101832105Y-82197990D01*
X101832105Y-82197990D02*
X101927093Y-82385066D01*
X101927093Y-82385066D02*
X102025504Y-82570441D01*
D24*
X105137500Y-74200000D02*
X105150000Y-74212500D01*
X101770000Y-74700000D02*
X102270000Y-74200000D01*
X102270000Y-74200000D02*
X105137500Y-74200000D01*
X107087500Y-72650000D02*
X107112499Y-72674999D01*
X106525000Y-72650000D02*
X107087500Y-72650000D01*
X105150000Y-74212500D02*
X105150000Y-74025000D01*
X105150000Y-74025000D02*
X106525000Y-72650000D01*
D23*
X103575000Y-72637500D02*
X105075000Y-72637500D01*
X105075000Y-74137500D02*
X105150000Y-74212500D01*
X105075000Y-72637500D02*
X105075000Y-74137500D01*
X103113388Y-72175888D02*
X103575000Y-72637500D01*
X104553860Y-68875000D02*
X102799990Y-70628870D01*
X102799990Y-71862490D02*
X103113388Y-72175888D01*
X102799990Y-70628870D02*
X102799990Y-71862490D01*
X106550000Y-68875000D02*
X104553860Y-68875000D01*
G04 #@! TO.N,/SCL*
X104812500Y-69825000D02*
X106550000Y-69825000D01*
X103575000Y-71062500D02*
X104812500Y-69825000D01*
X105525000Y-71825000D02*
X104337500Y-71825000D01*
X104337500Y-71825000D02*
X104036612Y-71524112D01*
X104036612Y-71524112D02*
X103575000Y-71062500D01*
X106024989Y-71325011D02*
X105525000Y-71825000D01*
X108250011Y-71325011D02*
X106024989Y-71325011D01*
X108375000Y-71450000D02*
X108250011Y-71325011D01*
X108375000Y-72062500D02*
X108375000Y-71450000D01*
D25*
G04 #@! TO.N,Net-(C6-Pad1)*
X113500000Y-71400000D02*
X111800000Y-71400000D01*
X111375000Y-71825000D02*
X111375000Y-72062500D01*
X111800000Y-71400000D02*
X111375000Y-71825000D01*
G04 #@! TO.N,/ANT*
X108875000Y-78937500D02*
X108875000Y-76937500D01*
X108812500Y-79000000D02*
X108875000Y-78937500D01*
X108880000Y-79067500D02*
X108812500Y-79000000D01*
X108880000Y-80712500D02*
X108880000Y-79067500D01*
G04 #@! TO.N,Net-(C5-Pad1)*
X110375000Y-77650000D02*
X110375000Y-76937500D01*
X110375000Y-77686410D02*
X110375000Y-77650000D01*
X110788601Y-78100011D02*
X110375000Y-77686410D01*
X111387511Y-78100011D02*
X110788601Y-78100011D01*
X112300000Y-79012500D02*
X111387511Y-78100011D01*
D23*
G04 #@! TO.N,Net-(C1-Pad1)*
X114412500Y-82162500D02*
X114200000Y-81950000D01*
X114412500Y-83700000D02*
X114412500Y-82162500D01*
X114100000Y-81950000D02*
X114200000Y-81950000D01*
X110875000Y-77550000D02*
X110975001Y-77650001D01*
X110875000Y-76937500D02*
X110875000Y-77550000D01*
X110975001Y-77650001D02*
X112146141Y-77650001D01*
X112146141Y-77650001D02*
X113199999Y-78703859D01*
X113199999Y-78703859D02*
X113199999Y-81049999D01*
X113199999Y-81049999D02*
X114100000Y-81950000D01*
G04 #@! TO.N,Net-(C2-Pad1)*
X115987500Y-79837500D02*
X116400000Y-80250000D01*
X115987500Y-78600000D02*
X115987500Y-79837500D01*
X111412500Y-76900000D02*
X111375000Y-76937500D01*
X114300000Y-76900000D02*
X111412500Y-76900000D01*
X115262500Y-77300000D02*
X114700000Y-77300000D01*
X114700000Y-77300000D02*
X114300000Y-76900000D01*
X115987500Y-78600000D02*
X115987500Y-78025000D01*
X115987500Y-78025000D02*
X115262500Y-77300000D01*
D25*
G04 #@! TO.N,Net-(C4-Pad1)*
X113562500Y-73750000D02*
X113700000Y-73612500D01*
X112062500Y-73750000D02*
X113562500Y-73750000D01*
D23*
G04 #@! TO.N,Net-(C8-Pad2)*
X117000000Y-69700000D02*
X116199999Y-70500001D01*
X117000000Y-69300000D02*
X117000000Y-69700000D01*
X116287501Y-70500001D02*
X116199999Y-70500001D01*
X116612500Y-70825000D02*
X116287501Y-70500001D01*
X116612500Y-71400000D02*
X116612500Y-70825000D01*
X113078870Y-70624990D02*
X112778839Y-70925021D01*
X111515679Y-70925021D02*
X110875000Y-71565700D01*
X116199999Y-70500001D02*
X116075010Y-70624990D01*
X112778839Y-70925021D02*
X111515679Y-70925021D01*
X110875000Y-71565700D02*
X110875000Y-72062500D01*
X116075010Y-70624990D02*
X113078870Y-70624990D01*
G04 #@! TO.N,Net-(C9-Pad2)*
X114500000Y-67462500D02*
X114812500Y-67150000D01*
X114500000Y-69300000D02*
X114500000Y-67462500D01*
X111349990Y-70525010D02*
X110375000Y-71500000D01*
X112613150Y-70525010D02*
X111349990Y-70525010D01*
X112913181Y-70224979D02*
X112613150Y-70525010D01*
X114500000Y-69600000D02*
X113875021Y-70224979D01*
X114500000Y-69300000D02*
X114500000Y-69600000D01*
X110375000Y-71500000D02*
X110375000Y-72062500D01*
X113875021Y-70224979D02*
X112913181Y-70224979D01*
G04 #@! TO.N,Net-(D1-Pad2)*
X112000000Y-69787500D02*
X111162500Y-69787500D01*
X111162500Y-69787500D02*
X109375000Y-71575000D01*
X109375000Y-71575000D02*
X109375000Y-72062500D01*
G04 #@! TO.N,Net-(D1-Pad1)*
X111750000Y-66787500D02*
X111562500Y-66600000D01*
X111750000Y-68212500D02*
X111750000Y-66787500D01*
G04 #@! TD*
D11*
G04 #@! TO.N,GNDREF*
G36*
X107450000Y-83737810D02*
X107322060Y-83609870D01*
X107048131Y-83496405D01*
X106751633Y-83496405D01*
X106477704Y-83609870D01*
X106451707Y-83635867D01*
X106451079Y-83625946D01*
X106436838Y-83622130D01*
X106161202Y-83346493D01*
X105949067Y-83558628D01*
X106012571Y-83622132D01*
X105931110Y-83926150D01*
X106017317Y-83983471D01*
X106229478Y-83912641D01*
X106154582Y-84093456D01*
X106154582Y-84389954D01*
X106268047Y-84663883D01*
X106477704Y-84873540D01*
X106751633Y-84987005D01*
X107048131Y-84987005D01*
X107322060Y-84873540D01*
X107450000Y-84745600D01*
X107450000Y-87860944D01*
X106356219Y-87321551D01*
X105233542Y-86599421D01*
X104199829Y-85754842D01*
X103268370Y-84798673D01*
X103050548Y-84517352D01*
X104480821Y-84517352D01*
X104707034Y-84611052D01*
X104753714Y-84611052D01*
X104717940Y-84625870D01*
X104508283Y-84835527D01*
X104394818Y-85109456D01*
X104394818Y-85405954D01*
X104508283Y-85679883D01*
X104717940Y-85889540D01*
X104991869Y-86003005D01*
X105288367Y-86003005D01*
X105562296Y-85889540D01*
X105771953Y-85679883D01*
X105885418Y-85405954D01*
X105885418Y-85109456D01*
X105771953Y-84835527D01*
X105562296Y-84625870D01*
X105288367Y-84512405D01*
X105200351Y-84512405D01*
X105380777Y-84331979D01*
X105478774Y-84095392D01*
X105478774Y-83839312D01*
X105438773Y-83742740D01*
X105532774Y-83851022D01*
X105538014Y-83855042D01*
X105641332Y-83848505D01*
X105751214Y-83438418D01*
X105341128Y-83328536D01*
X105283807Y-83414743D01*
X105329419Y-83551367D01*
X105199701Y-83421649D01*
X104963114Y-83323652D01*
X104707034Y-83323652D01*
X104616930Y-83360974D01*
X104745777Y-83232127D01*
X104748196Y-83226286D01*
X106118638Y-83226286D01*
X106528724Y-83336168D01*
X106586045Y-83249961D01*
X106504952Y-83007060D01*
X106337078Y-82813682D01*
X106331838Y-82809662D01*
X106228520Y-82816199D01*
X106118638Y-83226286D01*
X104748196Y-83226286D01*
X104843774Y-82995540D01*
X104843774Y-82739460D01*
X104806452Y-82649356D01*
X104935299Y-82778203D01*
X105171886Y-82876200D01*
X105427966Y-82876200D01*
X105524538Y-82836199D01*
X105416256Y-82930200D01*
X105412236Y-82935440D01*
X105418773Y-83038758D01*
X105828860Y-83148640D01*
X105938742Y-82738554D01*
X105852535Y-82681233D01*
X105715911Y-82726845D01*
X105845629Y-82597127D01*
X105943626Y-82360540D01*
X105943626Y-82104460D01*
X105845629Y-81867873D01*
X105725000Y-81747244D01*
X105725000Y-80544973D01*
X107450000Y-78819974D01*
X107450000Y-83737810D01*
X107450000Y-83737810D01*
G37*
X107450000Y-83737810D02*
X107322060Y-83609870D01*
X107048131Y-83496405D01*
X106751633Y-83496405D01*
X106477704Y-83609870D01*
X106451707Y-83635867D01*
X106451079Y-83625946D01*
X106436838Y-83622130D01*
X106161202Y-83346493D01*
X105949067Y-83558628D01*
X106012571Y-83622132D01*
X105931110Y-83926150D01*
X106017317Y-83983471D01*
X106229478Y-83912641D01*
X106154582Y-84093456D01*
X106154582Y-84389954D01*
X106268047Y-84663883D01*
X106477704Y-84873540D01*
X106751633Y-84987005D01*
X107048131Y-84987005D01*
X107322060Y-84873540D01*
X107450000Y-84745600D01*
X107450000Y-87860944D01*
X106356219Y-87321551D01*
X105233542Y-86599421D01*
X104199829Y-85754842D01*
X103268370Y-84798673D01*
X103050548Y-84517352D01*
X104480821Y-84517352D01*
X104707034Y-84611052D01*
X104753714Y-84611052D01*
X104717940Y-84625870D01*
X104508283Y-84835527D01*
X104394818Y-85109456D01*
X104394818Y-85405954D01*
X104508283Y-85679883D01*
X104717940Y-85889540D01*
X104991869Y-86003005D01*
X105288367Y-86003005D01*
X105562296Y-85889540D01*
X105771953Y-85679883D01*
X105885418Y-85405954D01*
X105885418Y-85109456D01*
X105771953Y-84835527D01*
X105562296Y-84625870D01*
X105288367Y-84512405D01*
X105200351Y-84512405D01*
X105380777Y-84331979D01*
X105478774Y-84095392D01*
X105478774Y-83839312D01*
X105438773Y-83742740D01*
X105532774Y-83851022D01*
X105538014Y-83855042D01*
X105641332Y-83848505D01*
X105751214Y-83438418D01*
X105341128Y-83328536D01*
X105283807Y-83414743D01*
X105329419Y-83551367D01*
X105199701Y-83421649D01*
X104963114Y-83323652D01*
X104707034Y-83323652D01*
X104616930Y-83360974D01*
X104745777Y-83232127D01*
X104748196Y-83226286D01*
X106118638Y-83226286D01*
X106528724Y-83336168D01*
X106586045Y-83249961D01*
X106504952Y-83007060D01*
X106337078Y-82813682D01*
X106331838Y-82809662D01*
X106228520Y-82816199D01*
X106118638Y-83226286D01*
X104748196Y-83226286D01*
X104843774Y-82995540D01*
X104843774Y-82739460D01*
X104806452Y-82649356D01*
X104935299Y-82778203D01*
X105171886Y-82876200D01*
X105427966Y-82876200D01*
X105524538Y-82836199D01*
X105416256Y-82930200D01*
X105412236Y-82935440D01*
X105418773Y-83038758D01*
X105828860Y-83148640D01*
X105938742Y-82738554D01*
X105852535Y-82681233D01*
X105715911Y-82726845D01*
X105845629Y-82597127D01*
X105943626Y-82360540D01*
X105943626Y-82104460D01*
X105845629Y-81867873D01*
X105725000Y-81747244D01*
X105725000Y-80544973D01*
X107450000Y-78819974D01*
X107450000Y-83737810D01*
G36*
X117636625Y-78118732D02*
X117664520Y-78160480D01*
X117829910Y-78270989D01*
X117959972Y-78296860D01*
X118025000Y-78309795D01*
X118074243Y-78300000D01*
X121261758Y-78300000D01*
X121383137Y-78593037D01*
X121776963Y-78986863D01*
X122291523Y-79200000D01*
X122848477Y-79200000D01*
X123363037Y-78986863D01*
X123756863Y-78593037D01*
X123832241Y-78411057D01*
X123781328Y-78916677D01*
X123600396Y-79750000D01*
X120500000Y-79750000D01*
X120484189Y-79752566D01*
X120467240Y-79762227D01*
X120455279Y-79777639D01*
X119757959Y-81172279D01*
X118663948Y-82465201D01*
X117570192Y-83459525D01*
X116675000Y-83986108D01*
X116675000Y-83912500D01*
X116612500Y-83850000D01*
X116137500Y-83850000D01*
X116137500Y-83870000D01*
X115837500Y-83870000D01*
X115837500Y-83850000D01*
X115362500Y-83850000D01*
X115300000Y-83912500D01*
X115300000Y-84224728D01*
X115338060Y-84316614D01*
X115408386Y-84386940D01*
X115500272Y-84425000D01*
X115775000Y-84425000D01*
X115837498Y-84362502D01*
X115837498Y-84425000D01*
X115928884Y-84425000D01*
X115878669Y-84454538D01*
X114636807Y-84901608D01*
X112816669Y-85245959D01*
X111250000Y-83679290D01*
X111250000Y-80800000D01*
X111575000Y-80800000D01*
X111575000Y-81074728D01*
X111613060Y-81166614D01*
X111683386Y-81236940D01*
X111775272Y-81275000D01*
X112087500Y-81275000D01*
X112150000Y-81212500D01*
X112150000Y-80737500D01*
X111637500Y-80737500D01*
X111575000Y-80800000D01*
X111250000Y-80800000D01*
X111250000Y-80100272D01*
X111575000Y-80100272D01*
X111575000Y-80375000D01*
X111637500Y-80437500D01*
X112150000Y-80437500D01*
X112150000Y-79962500D01*
X112087500Y-79900000D01*
X111775272Y-79900000D01*
X111683386Y-79938060D01*
X111613060Y-80008386D01*
X111575000Y-80100272D01*
X111250000Y-80100272D01*
X111250000Y-78528184D01*
X111570103Y-78848288D01*
X111570103Y-79231250D01*
X111606157Y-79412507D01*
X111708831Y-79566169D01*
X111862493Y-79668843D01*
X112043750Y-79704897D01*
X112556250Y-79704897D01*
X112737507Y-79668843D01*
X112849999Y-79593678D01*
X112850000Y-79910468D01*
X112824728Y-79900000D01*
X112512500Y-79900000D01*
X112450000Y-79962500D01*
X112450000Y-80437500D01*
X112470000Y-80437500D01*
X112470000Y-80737500D01*
X112450000Y-80737500D01*
X112450000Y-81212500D01*
X112512500Y-81275000D01*
X112824728Y-81275000D01*
X112906711Y-81241042D01*
X112919456Y-81260117D01*
X112947665Y-81302334D01*
X112976886Y-81321859D01*
X113245103Y-81590077D01*
X113245103Y-82550000D01*
X113264506Y-82647545D01*
X113319761Y-82730239D01*
X113402455Y-82785494D01*
X113500000Y-82804897D01*
X114062501Y-82804897D01*
X114062500Y-82996210D01*
X114012493Y-83006157D01*
X113858831Y-83108831D01*
X113756157Y-83262493D01*
X113720103Y-83443750D01*
X113720103Y-83956250D01*
X113756157Y-84137507D01*
X113858831Y-84291169D01*
X114012493Y-84393843D01*
X114193750Y-84429897D01*
X114631250Y-84429897D01*
X114812507Y-84393843D01*
X114966169Y-84291169D01*
X115068843Y-84137507D01*
X115104897Y-83956250D01*
X115104897Y-83443750D01*
X115068843Y-83262493D01*
X115010564Y-83175272D01*
X115300000Y-83175272D01*
X115300000Y-83487500D01*
X115362500Y-83550000D01*
X115837500Y-83550000D01*
X115837500Y-83037500D01*
X116137500Y-83037500D01*
X116137500Y-83550000D01*
X116612500Y-83550000D01*
X116675000Y-83487500D01*
X116675000Y-83175272D01*
X116636940Y-83083386D01*
X116566614Y-83013060D01*
X116474728Y-82975000D01*
X116200000Y-82975000D01*
X116137500Y-83037500D01*
X115837500Y-83037500D01*
X115775000Y-82975000D01*
X115500272Y-82975000D01*
X115408386Y-83013060D01*
X115338060Y-83083386D01*
X115300000Y-83175272D01*
X115010564Y-83175272D01*
X114966169Y-83108831D01*
X114812507Y-83006157D01*
X114762500Y-82996210D01*
X114762500Y-82804897D01*
X114900000Y-82804897D01*
X114997545Y-82785494D01*
X115080239Y-82730239D01*
X115135494Y-82647545D01*
X115154897Y-82550000D01*
X115154897Y-82162500D01*
X115450000Y-82162500D01*
X115450000Y-82599728D01*
X115488060Y-82691614D01*
X115558386Y-82761940D01*
X115650272Y-82800000D01*
X116187500Y-82800000D01*
X116250000Y-82737500D01*
X116250000Y-82100000D01*
X116550000Y-82100000D01*
X116550000Y-82737500D01*
X116612500Y-82800000D01*
X117149728Y-82800000D01*
X117241614Y-82761940D01*
X117311940Y-82691614D01*
X117350000Y-82599728D01*
X117350000Y-82162500D01*
X117287500Y-82100000D01*
X116550000Y-82100000D01*
X116250000Y-82100000D01*
X115512500Y-82100000D01*
X115450000Y-82162500D01*
X115154897Y-82162500D01*
X115154897Y-81350000D01*
X115135494Y-81252455D01*
X115080239Y-81169761D01*
X114997545Y-81114506D01*
X114924619Y-81100000D01*
X114949728Y-81100000D01*
X115041614Y-81061940D01*
X115111940Y-80991614D01*
X115150000Y-80899728D01*
X115150000Y-80462500D01*
X115087500Y-80400000D01*
X114350000Y-80400000D01*
X114350000Y-80420000D01*
X114050000Y-80420000D01*
X114050000Y-80400000D01*
X114030000Y-80400000D01*
X114030000Y-80100000D01*
X114050000Y-80100000D01*
X114050000Y-79462500D01*
X114350000Y-79462500D01*
X114350000Y-80100000D01*
X115087500Y-80100000D01*
X115150000Y-80037500D01*
X115150000Y-79600272D01*
X115111940Y-79508386D01*
X115041614Y-79438060D01*
X114949728Y-79400000D01*
X114412500Y-79400000D01*
X114350000Y-79462500D01*
X114050000Y-79462500D01*
X113987500Y-79400000D01*
X113549999Y-79400000D01*
X113549999Y-78812500D01*
X113725000Y-78812500D01*
X113725000Y-79124728D01*
X113763060Y-79216614D01*
X113833386Y-79286940D01*
X113925272Y-79325000D01*
X114200000Y-79325000D01*
X114262500Y-79262500D01*
X114262500Y-78750000D01*
X114562500Y-78750000D01*
X114562500Y-79262500D01*
X114625000Y-79325000D01*
X114899728Y-79325000D01*
X114991614Y-79286940D01*
X115061940Y-79216614D01*
X115100000Y-79124728D01*
X115100000Y-78812500D01*
X115037500Y-78750000D01*
X114562500Y-78750000D01*
X114262500Y-78750000D01*
X113787500Y-78750000D01*
X113725000Y-78812500D01*
X113549999Y-78812500D01*
X113549999Y-78738321D01*
X113556854Y-78703858D01*
X113549999Y-78669395D01*
X113549999Y-78669391D01*
X113529691Y-78567296D01*
X113484732Y-78500011D01*
X113471858Y-78480743D01*
X113471855Y-78480740D01*
X113452333Y-78451524D01*
X113423118Y-78432003D01*
X113066387Y-78075272D01*
X113725000Y-78075272D01*
X113725000Y-78387500D01*
X113787500Y-78450000D01*
X114262500Y-78450000D01*
X114262500Y-77937500D01*
X114562500Y-77937500D01*
X114562500Y-78450000D01*
X115037500Y-78450000D01*
X115100000Y-78387500D01*
X115100000Y-78075272D01*
X115061940Y-77983386D01*
X114991614Y-77913060D01*
X114899728Y-77875000D01*
X114625000Y-77875000D01*
X114562500Y-77937500D01*
X114262500Y-77937500D01*
X114200000Y-77875000D01*
X113925272Y-77875000D01*
X113833386Y-77913060D01*
X113763060Y-77983386D01*
X113725000Y-78075272D01*
X113066387Y-78075272D01*
X112418003Y-77426890D01*
X112398476Y-77397666D01*
X112282704Y-77320309D01*
X112180609Y-77300001D01*
X112180605Y-77300001D01*
X112146141Y-77293146D01*
X112111677Y-77300001D01*
X111754897Y-77300001D01*
X111754897Y-77250000D01*
X114155026Y-77250000D01*
X114428142Y-77523116D01*
X114447665Y-77552335D01*
X114476883Y-77571858D01*
X114476884Y-77571859D01*
X114501825Y-77588524D01*
X114563437Y-77629692D01*
X114665532Y-77650000D01*
X114665536Y-77650000D01*
X114699999Y-77656855D01*
X114734462Y-77650000D01*
X115117527Y-77650000D01*
X115459323Y-77991798D01*
X115433831Y-78008831D01*
X115331157Y-78162493D01*
X115295103Y-78343750D01*
X115295103Y-78856250D01*
X115331157Y-79037507D01*
X115433831Y-79191169D01*
X115587493Y-79293843D01*
X115637501Y-79303790D01*
X115637501Y-79407535D01*
X115602455Y-79414506D01*
X115519761Y-79469761D01*
X115464506Y-79552455D01*
X115445103Y-79650000D01*
X115445103Y-80850000D01*
X115464506Y-80947545D01*
X115519761Y-81030239D01*
X115602455Y-81085494D01*
X115675381Y-81100000D01*
X115650272Y-81100000D01*
X115558386Y-81138060D01*
X115488060Y-81208386D01*
X115450000Y-81300272D01*
X115450000Y-81737500D01*
X115512500Y-81800000D01*
X116250000Y-81800000D01*
X116250000Y-81780000D01*
X116550000Y-81780000D01*
X116550000Y-81800000D01*
X117287500Y-81800000D01*
X117350000Y-81737500D01*
X117350000Y-81300272D01*
X117311940Y-81208386D01*
X117241614Y-81138060D01*
X117149728Y-81100000D01*
X117124619Y-81100000D01*
X117197545Y-81085494D01*
X117280239Y-81030239D01*
X117335494Y-80947545D01*
X117354897Y-80850000D01*
X117354897Y-79650000D01*
X117335494Y-79552455D01*
X117280239Y-79469761D01*
X117197545Y-79414506D01*
X117100000Y-79395103D01*
X116337500Y-79395103D01*
X116337500Y-79303790D01*
X116387507Y-79293843D01*
X116541169Y-79191169D01*
X116643843Y-79037507D01*
X116679897Y-78856250D01*
X116679897Y-78343750D01*
X116643843Y-78162493D01*
X116541169Y-78008831D01*
X116387507Y-77906157D01*
X116317965Y-77892324D01*
X116317192Y-77888437D01*
X116304091Y-77868830D01*
X116259360Y-77801885D01*
X116259358Y-77801883D01*
X116239835Y-77772665D01*
X116210617Y-77753142D01*
X115537370Y-77079897D01*
X115656250Y-77079897D01*
X115837507Y-77043843D01*
X115991169Y-76941169D01*
X116027030Y-76887500D01*
X116405394Y-76887500D01*
X117636625Y-78118732D01*
X117636625Y-78118732D01*
G37*
X117636625Y-78118732D02*
X117664520Y-78160480D01*
X117829910Y-78270989D01*
X117959972Y-78296860D01*
X118025000Y-78309795D01*
X118074243Y-78300000D01*
X121261758Y-78300000D01*
X121383137Y-78593037D01*
X121776963Y-78986863D01*
X122291523Y-79200000D01*
X122848477Y-79200000D01*
X123363037Y-78986863D01*
X123756863Y-78593037D01*
X123832241Y-78411057D01*
X123781328Y-78916677D01*
X123600396Y-79750000D01*
X120500000Y-79750000D01*
X120484189Y-79752566D01*
X120467240Y-79762227D01*
X120455279Y-79777639D01*
X119757959Y-81172279D01*
X118663948Y-82465201D01*
X117570192Y-83459525D01*
X116675000Y-83986108D01*
X116675000Y-83912500D01*
X116612500Y-83850000D01*
X116137500Y-83850000D01*
X116137500Y-83870000D01*
X115837500Y-83870000D01*
X115837500Y-83850000D01*
X115362500Y-83850000D01*
X115300000Y-83912500D01*
X115300000Y-84224728D01*
X115338060Y-84316614D01*
X115408386Y-84386940D01*
X115500272Y-84425000D01*
X115775000Y-84425000D01*
X115837498Y-84362502D01*
X115837498Y-84425000D01*
X115928884Y-84425000D01*
X115878669Y-84454538D01*
X114636807Y-84901608D01*
X112816669Y-85245959D01*
X111250000Y-83679290D01*
X111250000Y-80800000D01*
X111575000Y-80800000D01*
X111575000Y-81074728D01*
X111613060Y-81166614D01*
X111683386Y-81236940D01*
X111775272Y-81275000D01*
X112087500Y-81275000D01*
X112150000Y-81212500D01*
X112150000Y-80737500D01*
X111637500Y-80737500D01*
X111575000Y-80800000D01*
X111250000Y-80800000D01*
X111250000Y-80100272D01*
X111575000Y-80100272D01*
X111575000Y-80375000D01*
X111637500Y-80437500D01*
X112150000Y-80437500D01*
X112150000Y-79962500D01*
X112087500Y-79900000D01*
X111775272Y-79900000D01*
X111683386Y-79938060D01*
X111613060Y-80008386D01*
X111575000Y-80100272D01*
X111250000Y-80100272D01*
X111250000Y-78528184D01*
X111570103Y-78848288D01*
X111570103Y-79231250D01*
X111606157Y-79412507D01*
X111708831Y-79566169D01*
X111862493Y-79668843D01*
X112043750Y-79704897D01*
X112556250Y-79704897D01*
X112737507Y-79668843D01*
X112849999Y-79593678D01*
X112850000Y-79910468D01*
X112824728Y-79900000D01*
X112512500Y-79900000D01*
X112450000Y-79962500D01*
X112450000Y-80437500D01*
X112470000Y-80437500D01*
X112470000Y-80737500D01*
X112450000Y-80737500D01*
X112450000Y-81212500D01*
X112512500Y-81275000D01*
X112824728Y-81275000D01*
X112906711Y-81241042D01*
X112919456Y-81260117D01*
X112947665Y-81302334D01*
X112976886Y-81321859D01*
X113245103Y-81590077D01*
X113245103Y-82550000D01*
X113264506Y-82647545D01*
X113319761Y-82730239D01*
X113402455Y-82785494D01*
X113500000Y-82804897D01*
X114062501Y-82804897D01*
X114062500Y-82996210D01*
X114012493Y-83006157D01*
X113858831Y-83108831D01*
X113756157Y-83262493D01*
X113720103Y-83443750D01*
X113720103Y-83956250D01*
X113756157Y-84137507D01*
X113858831Y-84291169D01*
X114012493Y-84393843D01*
X114193750Y-84429897D01*
X114631250Y-84429897D01*
X114812507Y-84393843D01*
X114966169Y-84291169D01*
X115068843Y-84137507D01*
X115104897Y-83956250D01*
X115104897Y-83443750D01*
X115068843Y-83262493D01*
X115010564Y-83175272D01*
X115300000Y-83175272D01*
X115300000Y-83487500D01*
X115362500Y-83550000D01*
X115837500Y-83550000D01*
X115837500Y-83037500D01*
X116137500Y-83037500D01*
X116137500Y-83550000D01*
X116612500Y-83550000D01*
X116675000Y-83487500D01*
X116675000Y-83175272D01*
X116636940Y-83083386D01*
X116566614Y-83013060D01*
X116474728Y-82975000D01*
X116200000Y-82975000D01*
X116137500Y-83037500D01*
X115837500Y-83037500D01*
X115775000Y-82975000D01*
X115500272Y-82975000D01*
X115408386Y-83013060D01*
X115338060Y-83083386D01*
X115300000Y-83175272D01*
X115010564Y-83175272D01*
X114966169Y-83108831D01*
X114812507Y-83006157D01*
X114762500Y-82996210D01*
X114762500Y-82804897D01*
X114900000Y-82804897D01*
X114997545Y-82785494D01*
X115080239Y-82730239D01*
X115135494Y-82647545D01*
X115154897Y-82550000D01*
X115154897Y-82162500D01*
X115450000Y-82162500D01*
X115450000Y-82599728D01*
X115488060Y-82691614D01*
X115558386Y-82761940D01*
X115650272Y-82800000D01*
X116187500Y-82800000D01*
X116250000Y-82737500D01*
X116250000Y-82100000D01*
X116550000Y-82100000D01*
X116550000Y-82737500D01*
X116612500Y-82800000D01*
X117149728Y-82800000D01*
X117241614Y-82761940D01*
X117311940Y-82691614D01*
X117350000Y-82599728D01*
X117350000Y-82162500D01*
X117287500Y-82100000D01*
X116550000Y-82100000D01*
X116250000Y-82100000D01*
X115512500Y-82100000D01*
X115450000Y-82162500D01*
X115154897Y-82162500D01*
X115154897Y-81350000D01*
X115135494Y-81252455D01*
X115080239Y-81169761D01*
X114997545Y-81114506D01*
X114924619Y-81100000D01*
X114949728Y-81100000D01*
X115041614Y-81061940D01*
X115111940Y-80991614D01*
X115150000Y-80899728D01*
X115150000Y-80462500D01*
X115087500Y-80400000D01*
X114350000Y-80400000D01*
X114350000Y-80420000D01*
X114050000Y-80420000D01*
X114050000Y-80400000D01*
X114030000Y-80400000D01*
X114030000Y-80100000D01*
X114050000Y-80100000D01*
X114050000Y-79462500D01*
X114350000Y-79462500D01*
X114350000Y-80100000D01*
X115087500Y-80100000D01*
X115150000Y-80037500D01*
X115150000Y-79600272D01*
X115111940Y-79508386D01*
X115041614Y-79438060D01*
X114949728Y-79400000D01*
X114412500Y-79400000D01*
X114350000Y-79462500D01*
X114050000Y-79462500D01*
X113987500Y-79400000D01*
X113549999Y-79400000D01*
X113549999Y-78812500D01*
X113725000Y-78812500D01*
X113725000Y-79124728D01*
X113763060Y-79216614D01*
X113833386Y-79286940D01*
X113925272Y-79325000D01*
X114200000Y-79325000D01*
X114262500Y-79262500D01*
X114262500Y-78750000D01*
X114562500Y-78750000D01*
X114562500Y-79262500D01*
X114625000Y-79325000D01*
X114899728Y-79325000D01*
X114991614Y-79286940D01*
X115061940Y-79216614D01*
X115100000Y-79124728D01*
X115100000Y-78812500D01*
X115037500Y-78750000D01*
X114562500Y-78750000D01*
X114262500Y-78750000D01*
X113787500Y-78750000D01*
X113725000Y-78812500D01*
X113549999Y-78812500D01*
X113549999Y-78738321D01*
X113556854Y-78703858D01*
X113549999Y-78669395D01*
X113549999Y-78669391D01*
X113529691Y-78567296D01*
X113484732Y-78500011D01*
X113471858Y-78480743D01*
X113471855Y-78480740D01*
X113452333Y-78451524D01*
X113423118Y-78432003D01*
X113066387Y-78075272D01*
X113725000Y-78075272D01*
X113725000Y-78387500D01*
X113787500Y-78450000D01*
X114262500Y-78450000D01*
X114262500Y-77937500D01*
X114562500Y-77937500D01*
X114562500Y-78450000D01*
X115037500Y-78450000D01*
X115100000Y-78387500D01*
X115100000Y-78075272D01*
X115061940Y-77983386D01*
X114991614Y-77913060D01*
X114899728Y-77875000D01*
X114625000Y-77875000D01*
X114562500Y-77937500D01*
X114262500Y-77937500D01*
X114200000Y-77875000D01*
X113925272Y-77875000D01*
X113833386Y-77913060D01*
X113763060Y-77983386D01*
X113725000Y-78075272D01*
X113066387Y-78075272D01*
X112418003Y-77426890D01*
X112398476Y-77397666D01*
X112282704Y-77320309D01*
X112180609Y-77300001D01*
X112180605Y-77300001D01*
X112146141Y-77293146D01*
X112111677Y-77300001D01*
X111754897Y-77300001D01*
X111754897Y-77250000D01*
X114155026Y-77250000D01*
X114428142Y-77523116D01*
X114447665Y-77552335D01*
X114476883Y-77571858D01*
X114476884Y-77571859D01*
X114501825Y-77588524D01*
X114563437Y-77629692D01*
X114665532Y-77650000D01*
X114665536Y-77650000D01*
X114699999Y-77656855D01*
X114734462Y-77650000D01*
X115117527Y-77650000D01*
X115459323Y-77991798D01*
X115433831Y-78008831D01*
X115331157Y-78162493D01*
X115295103Y-78343750D01*
X115295103Y-78856250D01*
X115331157Y-79037507D01*
X115433831Y-79191169D01*
X115587493Y-79293843D01*
X115637501Y-79303790D01*
X115637501Y-79407535D01*
X115602455Y-79414506D01*
X115519761Y-79469761D01*
X115464506Y-79552455D01*
X115445103Y-79650000D01*
X115445103Y-80850000D01*
X115464506Y-80947545D01*
X115519761Y-81030239D01*
X115602455Y-81085494D01*
X115675381Y-81100000D01*
X115650272Y-81100000D01*
X115558386Y-81138060D01*
X115488060Y-81208386D01*
X115450000Y-81300272D01*
X115450000Y-81737500D01*
X115512500Y-81800000D01*
X116250000Y-81800000D01*
X116250000Y-81780000D01*
X116550000Y-81780000D01*
X116550000Y-81800000D01*
X117287500Y-81800000D01*
X117350000Y-81737500D01*
X117350000Y-81300272D01*
X117311940Y-81208386D01*
X117241614Y-81138060D01*
X117149728Y-81100000D01*
X117124619Y-81100000D01*
X117197545Y-81085494D01*
X117280239Y-81030239D01*
X117335494Y-80947545D01*
X117354897Y-80850000D01*
X117354897Y-79650000D01*
X117335494Y-79552455D01*
X117280239Y-79469761D01*
X117197545Y-79414506D01*
X117100000Y-79395103D01*
X116337500Y-79395103D01*
X116337500Y-79303790D01*
X116387507Y-79293843D01*
X116541169Y-79191169D01*
X116643843Y-79037507D01*
X116679897Y-78856250D01*
X116679897Y-78343750D01*
X116643843Y-78162493D01*
X116541169Y-78008831D01*
X116387507Y-77906157D01*
X116317965Y-77892324D01*
X116317192Y-77888437D01*
X116304091Y-77868830D01*
X116259360Y-77801885D01*
X116259358Y-77801883D01*
X116239835Y-77772665D01*
X116210617Y-77753142D01*
X115537370Y-77079897D01*
X115656250Y-77079897D01*
X115837507Y-77043843D01*
X115991169Y-76941169D01*
X116027030Y-76887500D01*
X116405394Y-76887500D01*
X117636625Y-78118732D01*
G36*
X104558831Y-74766169D02*
X104712493Y-74868843D01*
X104893750Y-74904897D01*
X105406250Y-74904897D01*
X105587507Y-74868843D01*
X105705014Y-74790327D01*
X105700000Y-74815533D01*
X105700000Y-74815536D01*
X105693145Y-74850000D01*
X105700000Y-74884464D01*
X105700000Y-75110468D01*
X105674728Y-75100000D01*
X105362500Y-75100000D01*
X105300000Y-75162500D01*
X105300000Y-75637500D01*
X105320000Y-75637500D01*
X105320000Y-75937500D01*
X105300000Y-75937500D01*
X105300000Y-76412500D01*
X105362500Y-76475000D01*
X105674728Y-76475000D01*
X105700001Y-76464532D01*
X105700001Y-77830025D01*
X104725044Y-78804983D01*
X102967030Y-78804983D01*
X102932566Y-78798128D01*
X102898102Y-78804983D01*
X102898098Y-78804983D01*
X102796003Y-78825291D01*
X102709451Y-78883123D01*
X102709449Y-78883125D01*
X102680231Y-78902648D01*
X102660708Y-78931866D01*
X102224990Y-79367585D01*
X102224990Y-79126886D01*
X102563037Y-78986863D01*
X102956863Y-78593037D01*
X103170000Y-78078477D01*
X103170000Y-77521523D01*
X102956863Y-77006963D01*
X102563037Y-76613137D01*
X102048477Y-76400000D01*
X101491523Y-76400000D01*
X100976963Y-76613137D01*
X100583137Y-77006963D01*
X100387946Y-77478197D01*
X100416899Y-76151314D01*
X100525443Y-75353750D01*
X100583137Y-75493037D01*
X100976963Y-75886863D01*
X101491523Y-76100000D01*
X102048477Y-76100000D01*
X102289899Y-76000000D01*
X104425000Y-76000000D01*
X104425000Y-76274728D01*
X104463060Y-76366614D01*
X104533386Y-76436940D01*
X104625272Y-76475000D01*
X104937500Y-76475000D01*
X105000000Y-76412500D01*
X105000000Y-75937500D01*
X104487500Y-75937500D01*
X104425000Y-76000000D01*
X102289899Y-76000000D01*
X102563037Y-75886863D01*
X102956863Y-75493037D01*
X103036708Y-75300272D01*
X104425000Y-75300272D01*
X104425000Y-75575000D01*
X104487500Y-75637500D01*
X105000000Y-75637500D01*
X105000000Y-75162500D01*
X104937500Y-75100000D01*
X104625272Y-75100000D01*
X104533386Y-75138060D01*
X104463060Y-75208386D01*
X104425000Y-75300272D01*
X103036708Y-75300272D01*
X103170000Y-74978477D01*
X103170000Y-74700000D01*
X104514618Y-74700000D01*
X104558831Y-74766169D01*
X104558831Y-74766169D01*
G37*
X104558831Y-74766169D02*
X104712493Y-74868843D01*
X104893750Y-74904897D01*
X105406250Y-74904897D01*
X105587507Y-74868843D01*
X105705014Y-74790327D01*
X105700000Y-74815533D01*
X105700000Y-74815536D01*
X105693145Y-74850000D01*
X105700000Y-74884464D01*
X105700000Y-75110468D01*
X105674728Y-75100000D01*
X105362500Y-75100000D01*
X105300000Y-75162500D01*
X105300000Y-75637500D01*
X105320000Y-75637500D01*
X105320000Y-75937500D01*
X105300000Y-75937500D01*
X105300000Y-76412500D01*
X105362500Y-76475000D01*
X105674728Y-76475000D01*
X105700001Y-76464532D01*
X105700001Y-77830025D01*
X104725044Y-78804983D01*
X102967030Y-78804983D01*
X102932566Y-78798128D01*
X102898102Y-78804983D01*
X102898098Y-78804983D01*
X102796003Y-78825291D01*
X102709451Y-78883123D01*
X102709449Y-78883125D01*
X102680231Y-78902648D01*
X102660708Y-78931866D01*
X102224990Y-79367585D01*
X102224990Y-79126886D01*
X102563037Y-78986863D01*
X102956863Y-78593037D01*
X103170000Y-78078477D01*
X103170000Y-77521523D01*
X102956863Y-77006963D01*
X102563037Y-76613137D01*
X102048477Y-76400000D01*
X101491523Y-76400000D01*
X100976963Y-76613137D01*
X100583137Y-77006963D01*
X100387946Y-77478197D01*
X100416899Y-76151314D01*
X100525443Y-75353750D01*
X100583137Y-75493037D01*
X100976963Y-75886863D01*
X101491523Y-76100000D01*
X102048477Y-76100000D01*
X102289899Y-76000000D01*
X104425000Y-76000000D01*
X104425000Y-76274728D01*
X104463060Y-76366614D01*
X104533386Y-76436940D01*
X104625272Y-76475000D01*
X104937500Y-76475000D01*
X105000000Y-76412500D01*
X105000000Y-75937500D01*
X104487500Y-75937500D01*
X104425000Y-76000000D01*
X102289899Y-76000000D01*
X102563037Y-75886863D01*
X102956863Y-75493037D01*
X103036708Y-75300272D01*
X104425000Y-75300272D01*
X104425000Y-75575000D01*
X104487500Y-75637500D01*
X105000000Y-75637500D01*
X105000000Y-75162500D01*
X104937500Y-75100000D01*
X104625272Y-75100000D01*
X104533386Y-75138060D01*
X104463060Y-75208386D01*
X104425000Y-75300272D01*
X103036708Y-75300272D01*
X103170000Y-74978477D01*
X103170000Y-74700000D01*
X104514618Y-74700000D01*
X104558831Y-74766169D01*
G36*
X114520103Y-73156250D02*
X114556157Y-73337507D01*
X114658831Y-73491169D01*
X114812493Y-73593843D01*
X114993750Y-73629897D01*
X115235291Y-73629897D01*
X115730394Y-74125000D01*
X115612500Y-74125000D01*
X115550000Y-74187500D01*
X115550000Y-74662500D01*
X116062500Y-74662500D01*
X116125000Y-74600000D01*
X116125000Y-74519607D01*
X116599125Y-74993732D01*
X116627020Y-75035480D01*
X116792410Y-75145989D01*
X116938257Y-75175000D01*
X116938258Y-75175000D01*
X116987499Y-75184795D01*
X117036741Y-75175000D01*
X119892975Y-75175000D01*
X119780649Y-75318517D01*
X120525000Y-76062868D01*
X120539143Y-76048726D01*
X120751275Y-76260858D01*
X120737132Y-76275000D01*
X120751275Y-76289143D01*
X120539143Y-76501275D01*
X120525000Y-76487132D01*
X119780649Y-77231483D01*
X119834275Y-77300000D01*
X118232107Y-77300000D01*
X117057507Y-76125400D01*
X119259321Y-76125400D01*
X119298417Y-76621142D01*
X119412915Y-76897567D01*
X119568517Y-77019351D01*
X120312868Y-76275000D01*
X119568517Y-75530649D01*
X119412915Y-75652433D01*
X119259321Y-76125400D01*
X117057507Y-76125400D01*
X117000876Y-76068770D01*
X116972980Y-76027020D01*
X116807590Y-75916511D01*
X116661743Y-75887500D01*
X116661741Y-75887500D01*
X116612500Y-75877705D01*
X116563259Y-75887500D01*
X116027030Y-75887500D01*
X115991169Y-75833831D01*
X115837507Y-75731157D01*
X115656250Y-75695103D01*
X115143750Y-75695103D01*
X114962493Y-75731157D01*
X114819683Y-75826580D01*
X114811744Y-75825001D01*
X114811742Y-75825001D01*
X114762501Y-75815206D01*
X114713260Y-75825001D01*
X114328553Y-75825001D01*
X114386940Y-75766614D01*
X114425000Y-75674728D01*
X114425000Y-75400000D01*
X114362500Y-75337500D01*
X113850000Y-75337500D01*
X113850000Y-75357500D01*
X113550000Y-75357500D01*
X113550000Y-75337500D01*
X113037500Y-75337500D01*
X112975000Y-75400000D01*
X112975000Y-75674728D01*
X113013060Y-75766614D01*
X113071447Y-75825001D01*
X112729897Y-75825001D01*
X112729897Y-75625000D01*
X112710494Y-75527455D01*
X112692149Y-75500000D01*
X112710494Y-75472545D01*
X112729897Y-75375000D01*
X112729897Y-75125000D01*
X112710494Y-75027455D01*
X112692149Y-75000000D01*
X112710494Y-74972545D01*
X112729897Y-74875000D01*
X112729897Y-74700272D01*
X112975000Y-74700272D01*
X112975000Y-74975000D01*
X113037500Y-75037500D01*
X113550000Y-75037500D01*
X113550000Y-74562500D01*
X113850000Y-74562500D01*
X113850000Y-75037500D01*
X114362500Y-75037500D01*
X114375000Y-75025000D01*
X114675000Y-75025000D01*
X114675000Y-75299728D01*
X114713060Y-75391614D01*
X114783386Y-75461940D01*
X114875272Y-75500000D01*
X115187500Y-75500000D01*
X115250000Y-75437500D01*
X115250000Y-74962500D01*
X115550000Y-74962500D01*
X115550000Y-75437500D01*
X115612500Y-75500000D01*
X115924728Y-75500000D01*
X116016614Y-75461940D01*
X116086940Y-75391614D01*
X116125000Y-75299728D01*
X116125000Y-75025000D01*
X116062500Y-74962500D01*
X115550000Y-74962500D01*
X115250000Y-74962500D01*
X114737500Y-74962500D01*
X114675000Y-75025000D01*
X114375000Y-75025000D01*
X114425000Y-74975000D01*
X114425000Y-74700272D01*
X114386940Y-74608386D01*
X114316614Y-74538060D01*
X114224728Y-74500000D01*
X113912500Y-74500000D01*
X113850000Y-74562500D01*
X113550000Y-74562500D01*
X113487500Y-74500000D01*
X113175272Y-74500000D01*
X113083386Y-74538060D01*
X113013060Y-74608386D01*
X112975000Y-74700272D01*
X112729897Y-74700272D01*
X112729897Y-74625000D01*
X112710494Y-74527455D01*
X112693182Y-74501545D01*
X112725000Y-74424728D01*
X112725000Y-74375000D01*
X112675272Y-74325272D01*
X114675000Y-74325272D01*
X114675000Y-74600000D01*
X114737500Y-74662500D01*
X115250000Y-74662500D01*
X115250000Y-74187500D01*
X115187500Y-74125000D01*
X114875272Y-74125000D01*
X114783386Y-74163060D01*
X114713060Y-74233386D01*
X114675000Y-74325272D01*
X112675272Y-74325272D01*
X112662500Y-74312500D01*
X112212500Y-74312500D01*
X112212500Y-74370103D01*
X111912500Y-74370103D01*
X111912500Y-74312500D01*
X111892500Y-74312500D01*
X111892500Y-74187500D01*
X111912500Y-74187500D01*
X111912500Y-74129897D01*
X111922043Y-74129897D01*
X112023106Y-74150000D01*
X112212500Y-74150000D01*
X112212500Y-74187500D01*
X112662500Y-74187500D01*
X112700000Y-74150000D01*
X113098027Y-74150000D01*
X113108831Y-74166169D01*
X113262493Y-74268843D01*
X113443750Y-74304897D01*
X113956250Y-74304897D01*
X114137507Y-74268843D01*
X114291169Y-74166169D01*
X114393843Y-74012507D01*
X114429897Y-73831250D01*
X114429897Y-73393750D01*
X114393843Y-73212493D01*
X114291169Y-73058831D01*
X114137507Y-72956157D01*
X114048176Y-72938388D01*
X114520103Y-72938388D01*
X114520103Y-73156250D01*
X114520103Y-73156250D01*
G37*
X114520103Y-73156250D02*
X114556157Y-73337507D01*
X114658831Y-73491169D01*
X114812493Y-73593843D01*
X114993750Y-73629897D01*
X115235291Y-73629897D01*
X115730394Y-74125000D01*
X115612500Y-74125000D01*
X115550000Y-74187500D01*
X115550000Y-74662500D01*
X116062500Y-74662500D01*
X116125000Y-74600000D01*
X116125000Y-74519607D01*
X116599125Y-74993732D01*
X116627020Y-75035480D01*
X116792410Y-75145989D01*
X116938257Y-75175000D01*
X116938258Y-75175000D01*
X116987499Y-75184795D01*
X117036741Y-75175000D01*
X119892975Y-75175000D01*
X119780649Y-75318517D01*
X120525000Y-76062868D01*
X120539143Y-76048726D01*
X120751275Y-76260858D01*
X120737132Y-76275000D01*
X120751275Y-76289143D01*
X120539143Y-76501275D01*
X120525000Y-76487132D01*
X119780649Y-77231483D01*
X119834275Y-77300000D01*
X118232107Y-77300000D01*
X117057507Y-76125400D01*
X119259321Y-76125400D01*
X119298417Y-76621142D01*
X119412915Y-76897567D01*
X119568517Y-77019351D01*
X120312868Y-76275000D01*
X119568517Y-75530649D01*
X119412915Y-75652433D01*
X119259321Y-76125400D01*
X117057507Y-76125400D01*
X117000876Y-76068770D01*
X116972980Y-76027020D01*
X116807590Y-75916511D01*
X116661743Y-75887500D01*
X116661741Y-75887500D01*
X116612500Y-75877705D01*
X116563259Y-75887500D01*
X116027030Y-75887500D01*
X115991169Y-75833831D01*
X115837507Y-75731157D01*
X115656250Y-75695103D01*
X115143750Y-75695103D01*
X114962493Y-75731157D01*
X114819683Y-75826580D01*
X114811744Y-75825001D01*
X114811742Y-75825001D01*
X114762501Y-75815206D01*
X114713260Y-75825001D01*
X114328553Y-75825001D01*
X114386940Y-75766614D01*
X114425000Y-75674728D01*
X114425000Y-75400000D01*
X114362500Y-75337500D01*
X113850000Y-75337500D01*
X113850000Y-75357500D01*
X113550000Y-75357500D01*
X113550000Y-75337500D01*
X113037500Y-75337500D01*
X112975000Y-75400000D01*
X112975000Y-75674728D01*
X113013060Y-75766614D01*
X113071447Y-75825001D01*
X112729897Y-75825001D01*
X112729897Y-75625000D01*
X112710494Y-75527455D01*
X112692149Y-75500000D01*
X112710494Y-75472545D01*
X112729897Y-75375000D01*
X112729897Y-75125000D01*
X112710494Y-75027455D01*
X112692149Y-75000000D01*
X112710494Y-74972545D01*
X112729897Y-74875000D01*
X112729897Y-74700272D01*
X112975000Y-74700272D01*
X112975000Y-74975000D01*
X113037500Y-75037500D01*
X113550000Y-75037500D01*
X113550000Y-74562500D01*
X113850000Y-74562500D01*
X113850000Y-75037500D01*
X114362500Y-75037500D01*
X114375000Y-75025000D01*
X114675000Y-75025000D01*
X114675000Y-75299728D01*
X114713060Y-75391614D01*
X114783386Y-75461940D01*
X114875272Y-75500000D01*
X115187500Y-75500000D01*
X115250000Y-75437500D01*
X115250000Y-74962500D01*
X115550000Y-74962500D01*
X115550000Y-75437500D01*
X115612500Y-75500000D01*
X115924728Y-75500000D01*
X116016614Y-75461940D01*
X116086940Y-75391614D01*
X116125000Y-75299728D01*
X116125000Y-75025000D01*
X116062500Y-74962500D01*
X115550000Y-74962500D01*
X115250000Y-74962500D01*
X114737500Y-74962500D01*
X114675000Y-75025000D01*
X114375000Y-75025000D01*
X114425000Y-74975000D01*
X114425000Y-74700272D01*
X114386940Y-74608386D01*
X114316614Y-74538060D01*
X114224728Y-74500000D01*
X113912500Y-74500000D01*
X113850000Y-74562500D01*
X113550000Y-74562500D01*
X113487500Y-74500000D01*
X113175272Y-74500000D01*
X113083386Y-74538060D01*
X113013060Y-74608386D01*
X112975000Y-74700272D01*
X112729897Y-74700272D01*
X112729897Y-74625000D01*
X112710494Y-74527455D01*
X112693182Y-74501545D01*
X112725000Y-74424728D01*
X112725000Y-74375000D01*
X112675272Y-74325272D01*
X114675000Y-74325272D01*
X114675000Y-74600000D01*
X114737500Y-74662500D01*
X115250000Y-74662500D01*
X115250000Y-74187500D01*
X115187500Y-74125000D01*
X114875272Y-74125000D01*
X114783386Y-74163060D01*
X114713060Y-74233386D01*
X114675000Y-74325272D01*
X112675272Y-74325272D01*
X112662500Y-74312500D01*
X112212500Y-74312500D01*
X112212500Y-74370103D01*
X111912500Y-74370103D01*
X111912500Y-74312500D01*
X111892500Y-74312500D01*
X111892500Y-74187500D01*
X111912500Y-74187500D01*
X111912500Y-74129897D01*
X111922043Y-74129897D01*
X112023106Y-74150000D01*
X112212500Y-74150000D01*
X112212500Y-74187500D01*
X112662500Y-74187500D01*
X112700000Y-74150000D01*
X113098027Y-74150000D01*
X113108831Y-74166169D01*
X113262493Y-74268843D01*
X113443750Y-74304897D01*
X113956250Y-74304897D01*
X114137507Y-74268843D01*
X114291169Y-74166169D01*
X114393843Y-74012507D01*
X114429897Y-73831250D01*
X114429897Y-73393750D01*
X114393843Y-73212493D01*
X114291169Y-73058831D01*
X114137507Y-72956157D01*
X114048176Y-72938388D01*
X114520103Y-72938388D01*
X114520103Y-73156250D01*
G36*
X109437500Y-76787500D02*
X109495103Y-76787500D01*
X109495103Y-77087500D01*
X109437500Y-77087500D01*
X109437500Y-77107500D01*
X109312500Y-77107500D01*
X109312500Y-77087500D01*
X109275000Y-77087500D01*
X109275000Y-76898106D01*
X109254897Y-76797043D01*
X109254897Y-76787500D01*
X109312500Y-76787500D01*
X109312500Y-76767500D01*
X109437500Y-76767500D01*
X109437500Y-76787500D01*
X109437500Y-76787500D01*
G37*
X109437500Y-76787500D02*
X109495103Y-76787500D01*
X109495103Y-77087500D01*
X109437500Y-77087500D01*
X109437500Y-77107500D01*
X109312500Y-77107500D01*
X109312500Y-77087500D01*
X109275000Y-77087500D01*
X109275000Y-76898106D01*
X109254897Y-76797043D01*
X109254897Y-76787500D01*
X109312500Y-76787500D01*
X109312500Y-76767500D01*
X109437500Y-76767500D01*
X109437500Y-76787500D01*
G36*
X109775000Y-74350000D02*
X109795000Y-74350000D01*
X109795000Y-74650000D01*
X109775000Y-74650000D01*
X109775000Y-74670000D01*
X109475000Y-74670000D01*
X109475000Y-74650000D01*
X109455000Y-74650000D01*
X109455000Y-74350000D01*
X109475000Y-74350000D01*
X109475000Y-74330000D01*
X109775000Y-74330000D01*
X109775000Y-74350000D01*
X109775000Y-74350000D01*
G37*
X109775000Y-74350000D02*
X109795000Y-74350000D01*
X109795000Y-74650000D01*
X109775000Y-74650000D01*
X109775000Y-74670000D01*
X109475000Y-74670000D01*
X109475000Y-74650000D01*
X109455000Y-74650000D01*
X109455000Y-74350000D01*
X109475000Y-74350000D01*
X109475000Y-74330000D01*
X109775000Y-74330000D01*
X109775000Y-74350000D01*
G36*
X113281815Y-65356368D02*
X114601148Y-65559433D01*
X115889013Y-65910545D01*
X117128853Y-66405191D01*
X118304727Y-67037011D01*
X119401518Y-67797882D01*
X120405126Y-68678022D01*
X121302648Y-69666117D01*
X122082545Y-70749462D01*
X122734790Y-71914130D01*
X123250999Y-73145148D01*
X123357602Y-73510886D01*
X122848477Y-73300000D01*
X122291523Y-73300000D01*
X121776963Y-73513137D01*
X121383137Y-73906963D01*
X121272113Y-74175000D01*
X117194607Y-74175000D01*
X116609803Y-73590197D01*
X116637500Y-73562500D01*
X116637500Y-73050000D01*
X116937500Y-73050000D01*
X116937500Y-73562500D01*
X117000000Y-73625000D01*
X117274728Y-73625000D01*
X117366614Y-73586940D01*
X117436940Y-73516614D01*
X117475000Y-73424728D01*
X117475000Y-73112500D01*
X117412500Y-73050000D01*
X116937500Y-73050000D01*
X116637500Y-73050000D01*
X116162500Y-73050000D01*
X116116053Y-73096447D01*
X115904897Y-72885291D01*
X115904897Y-72643750D01*
X115868843Y-72462493D01*
X115810564Y-72375272D01*
X116100000Y-72375272D01*
X116100000Y-72687500D01*
X116162500Y-72750000D01*
X116637500Y-72750000D01*
X116637500Y-72237500D01*
X116937500Y-72237500D01*
X116937500Y-72750000D01*
X117412500Y-72750000D01*
X117475000Y-72687500D01*
X117475000Y-72375272D01*
X117436940Y-72283386D01*
X117366614Y-72213060D01*
X117274728Y-72175000D01*
X117000000Y-72175000D01*
X116937500Y-72237500D01*
X116637500Y-72237500D01*
X116575000Y-72175000D01*
X116300272Y-72175000D01*
X116208386Y-72213060D01*
X116138060Y-72283386D01*
X116100000Y-72375272D01*
X115810564Y-72375272D01*
X115766169Y-72308831D01*
X115612507Y-72206157D01*
X115431250Y-72170103D01*
X115189709Y-72170103D01*
X115144606Y-72125000D01*
X115237502Y-72125000D01*
X115237502Y-72062502D01*
X115300000Y-72125000D01*
X115574728Y-72125000D01*
X115666614Y-72086940D01*
X115736940Y-72016614D01*
X115775000Y-71924728D01*
X115775000Y-71612500D01*
X115712500Y-71550000D01*
X115237500Y-71550000D01*
X115237500Y-71570000D01*
X114937500Y-71570000D01*
X114937500Y-71550000D01*
X114462500Y-71550000D01*
X114400000Y-71612500D01*
X114400000Y-71924728D01*
X114405658Y-71938388D01*
X114101436Y-71938388D01*
X114168843Y-71837507D01*
X114204897Y-71656250D01*
X114204897Y-71143750D01*
X114171329Y-70974990D01*
X114400000Y-70974990D01*
X114400000Y-71187500D01*
X114462500Y-71250000D01*
X114937500Y-71250000D01*
X114937500Y-71230000D01*
X115237500Y-71230000D01*
X115237500Y-71250000D01*
X115712500Y-71250000D01*
X115775000Y-71187500D01*
X115775000Y-70974990D01*
X115953671Y-70974990D01*
X115920103Y-71143750D01*
X115920103Y-71656250D01*
X115956157Y-71837507D01*
X116058831Y-71991169D01*
X116212493Y-72093843D01*
X116393750Y-72129897D01*
X116831250Y-72129897D01*
X117012507Y-72093843D01*
X117166169Y-71991169D01*
X117268843Y-71837507D01*
X117304897Y-71656250D01*
X117304897Y-71612500D01*
X117500000Y-71612500D01*
X117500000Y-71924728D01*
X117538060Y-72016614D01*
X117608386Y-72086940D01*
X117700272Y-72125000D01*
X117975000Y-72125000D01*
X118037500Y-72062500D01*
X118037500Y-71550000D01*
X118337500Y-71550000D01*
X118337500Y-72062500D01*
X118400000Y-72125000D01*
X118674728Y-72125000D01*
X118766614Y-72086940D01*
X118836940Y-72016614D01*
X118875000Y-71924728D01*
X118875000Y-71612500D01*
X118812500Y-71550000D01*
X118337500Y-71550000D01*
X118037500Y-71550000D01*
X117562500Y-71550000D01*
X117500000Y-71612500D01*
X117304897Y-71612500D01*
X117304897Y-71143750D01*
X117268843Y-70962493D01*
X117210564Y-70875272D01*
X117500000Y-70875272D01*
X117500000Y-71187500D01*
X117562500Y-71250000D01*
X118037500Y-71250000D01*
X118037500Y-70737500D01*
X118337500Y-70737500D01*
X118337500Y-71250000D01*
X118812500Y-71250000D01*
X118875000Y-71187500D01*
X118875000Y-70875272D01*
X118836940Y-70783386D01*
X118766614Y-70713060D01*
X118674728Y-70675000D01*
X118400000Y-70675000D01*
X118337500Y-70737500D01*
X118037500Y-70737500D01*
X117975000Y-70675000D01*
X117700272Y-70675000D01*
X117608386Y-70713060D01*
X117538060Y-70783386D01*
X117500000Y-70875272D01*
X117210564Y-70875272D01*
X117166169Y-70808831D01*
X117012507Y-70706157D01*
X116942965Y-70692324D01*
X116942192Y-70688437D01*
X116864835Y-70572665D01*
X116835614Y-70553140D01*
X116738724Y-70456250D01*
X116740077Y-70454897D01*
X117500000Y-70454897D01*
X117597545Y-70435494D01*
X117680239Y-70380239D01*
X117735494Y-70297545D01*
X117754897Y-70200000D01*
X117754897Y-68400000D01*
X117735494Y-68302455D01*
X117680239Y-68219761D01*
X117597545Y-68164506D01*
X117500000Y-68145103D01*
X116500000Y-68145103D01*
X116402455Y-68164506D01*
X116319761Y-68219761D01*
X116264506Y-68302455D01*
X116245103Y-68400000D01*
X116245103Y-69959923D01*
X115976888Y-70228139D01*
X115947664Y-70247666D01*
X115929407Y-70274990D01*
X115239980Y-70274990D01*
X115254897Y-70200000D01*
X115254897Y-68400000D01*
X115235494Y-68302455D01*
X115180239Y-68219761D01*
X115097545Y-68164506D01*
X115000000Y-68145103D01*
X114850000Y-68145103D01*
X114850000Y-67879897D01*
X115031250Y-67879897D01*
X115212507Y-67843843D01*
X115366169Y-67741169D01*
X115468843Y-67587507D01*
X115504897Y-67406250D01*
X115504897Y-67362500D01*
X115700000Y-67362500D01*
X115700000Y-67674728D01*
X115738060Y-67766614D01*
X115808386Y-67836940D01*
X115900272Y-67875000D01*
X116175000Y-67875000D01*
X116237500Y-67812500D01*
X116237500Y-67300000D01*
X116537500Y-67300000D01*
X116537500Y-67812500D01*
X116600000Y-67875000D01*
X116874728Y-67875000D01*
X116966614Y-67836940D01*
X117036940Y-67766614D01*
X117075000Y-67674728D01*
X117075000Y-67362500D01*
X117012500Y-67300000D01*
X116537500Y-67300000D01*
X116237500Y-67300000D01*
X115762500Y-67300000D01*
X115700000Y-67362500D01*
X115504897Y-67362500D01*
X115504897Y-66893750D01*
X115468843Y-66712493D01*
X115410564Y-66625272D01*
X115700000Y-66625272D01*
X115700000Y-66937500D01*
X115762500Y-67000000D01*
X116237500Y-67000000D01*
X116237500Y-66487500D01*
X116537500Y-66487500D01*
X116537500Y-67000000D01*
X117012500Y-67000000D01*
X117075000Y-66937500D01*
X117075000Y-66625272D01*
X117036940Y-66533386D01*
X116966614Y-66463060D01*
X116874728Y-66425000D01*
X116600000Y-66425000D01*
X116537500Y-66487500D01*
X116237500Y-66487500D01*
X116175000Y-66425000D01*
X115900272Y-66425000D01*
X115808386Y-66463060D01*
X115738060Y-66533386D01*
X115700000Y-66625272D01*
X115410564Y-66625272D01*
X115366169Y-66558831D01*
X115212507Y-66456157D01*
X115031250Y-66420103D01*
X114593750Y-66420103D01*
X114412493Y-66456157D01*
X114258831Y-66558831D01*
X114156157Y-66712493D01*
X114120103Y-66893750D01*
X114120103Y-67406250D01*
X114150001Y-67556558D01*
X114150001Y-68145103D01*
X114000000Y-68145103D01*
X113902455Y-68164506D01*
X113819761Y-68219761D01*
X113764506Y-68302455D01*
X113745103Y-68400000D01*
X113745103Y-69859924D01*
X113730048Y-69874979D01*
X112947645Y-69874979D01*
X112913181Y-69868124D01*
X112878717Y-69874979D01*
X112878713Y-69874979D01*
X112776618Y-69895287D01*
X112660846Y-69972644D01*
X112641321Y-70001865D01*
X112468177Y-70175010D01*
X112446329Y-70175010D01*
X112479897Y-70006250D01*
X112479897Y-69568750D01*
X112443843Y-69387493D01*
X112341169Y-69233831D01*
X112187507Y-69131157D01*
X112006250Y-69095103D01*
X111493750Y-69095103D01*
X111312493Y-69131157D01*
X111158831Y-69233831D01*
X111075000Y-69359293D01*
X111075000Y-68640707D01*
X111158831Y-68766169D01*
X111312493Y-68868843D01*
X111493750Y-68904897D01*
X112006250Y-68904897D01*
X112187507Y-68868843D01*
X112341169Y-68766169D01*
X112443843Y-68612507D01*
X112479897Y-68431250D01*
X112479897Y-67993750D01*
X112443843Y-67812493D01*
X112341169Y-67658831D01*
X112187507Y-67556157D01*
X112100000Y-67538751D01*
X112100000Y-67201973D01*
X112116169Y-67191169D01*
X112218843Y-67037507D01*
X112254897Y-66856250D01*
X112254897Y-66812500D01*
X112450000Y-66812500D01*
X112450000Y-67124728D01*
X112488060Y-67216614D01*
X112558386Y-67286940D01*
X112650272Y-67325000D01*
X112925000Y-67325000D01*
X112987500Y-67262500D01*
X112987500Y-66750000D01*
X113287500Y-66750000D01*
X113287500Y-67262500D01*
X113350000Y-67325000D01*
X113624728Y-67325000D01*
X113716614Y-67286940D01*
X113786940Y-67216614D01*
X113825000Y-67124728D01*
X113825000Y-66812500D01*
X113762500Y-66750000D01*
X113287500Y-66750000D01*
X112987500Y-66750000D01*
X112512500Y-66750000D01*
X112450000Y-66812500D01*
X112254897Y-66812500D01*
X112254897Y-66343750D01*
X112218843Y-66162493D01*
X112160564Y-66075272D01*
X112450000Y-66075272D01*
X112450000Y-66387500D01*
X112512500Y-66450000D01*
X112987500Y-66450000D01*
X112987500Y-65937500D01*
X113287500Y-65937500D01*
X113287500Y-66450000D01*
X113762500Y-66450000D01*
X113825000Y-66387500D01*
X113825000Y-66075272D01*
X113786940Y-65983386D01*
X113716614Y-65913060D01*
X113624728Y-65875000D01*
X113350000Y-65875000D01*
X113287500Y-65937500D01*
X112987500Y-65937500D01*
X112925000Y-65875000D01*
X112650272Y-65875000D01*
X112558386Y-65913060D01*
X112488060Y-65983386D01*
X112450000Y-66075272D01*
X112160564Y-66075272D01*
X112116169Y-66008831D01*
X111962507Y-65906157D01*
X111781250Y-65870103D01*
X111343750Y-65870103D01*
X111162493Y-65906157D01*
X111075000Y-65964618D01*
X111075000Y-65368834D01*
X111947975Y-65303961D01*
X113281815Y-65356368D01*
X113281815Y-65356368D01*
G37*
X113281815Y-65356368D02*
X114601148Y-65559433D01*
X115889013Y-65910545D01*
X117128853Y-66405191D01*
X118304727Y-67037011D01*
X119401518Y-67797882D01*
X120405126Y-68678022D01*
X121302648Y-69666117D01*
X122082545Y-70749462D01*
X122734790Y-71914130D01*
X123250999Y-73145148D01*
X123357602Y-73510886D01*
X122848477Y-73300000D01*
X122291523Y-73300000D01*
X121776963Y-73513137D01*
X121383137Y-73906963D01*
X121272113Y-74175000D01*
X117194607Y-74175000D01*
X116609803Y-73590197D01*
X116637500Y-73562500D01*
X116637500Y-73050000D01*
X116937500Y-73050000D01*
X116937500Y-73562500D01*
X117000000Y-73625000D01*
X117274728Y-73625000D01*
X117366614Y-73586940D01*
X117436940Y-73516614D01*
X117475000Y-73424728D01*
X117475000Y-73112500D01*
X117412500Y-73050000D01*
X116937500Y-73050000D01*
X116637500Y-73050000D01*
X116162500Y-73050000D01*
X116116053Y-73096447D01*
X115904897Y-72885291D01*
X115904897Y-72643750D01*
X115868843Y-72462493D01*
X115810564Y-72375272D01*
X116100000Y-72375272D01*
X116100000Y-72687500D01*
X116162500Y-72750000D01*
X116637500Y-72750000D01*
X116637500Y-72237500D01*
X116937500Y-72237500D01*
X116937500Y-72750000D01*
X117412500Y-72750000D01*
X117475000Y-72687500D01*
X117475000Y-72375272D01*
X117436940Y-72283386D01*
X117366614Y-72213060D01*
X117274728Y-72175000D01*
X117000000Y-72175000D01*
X116937500Y-72237500D01*
X116637500Y-72237500D01*
X116575000Y-72175000D01*
X116300272Y-72175000D01*
X116208386Y-72213060D01*
X116138060Y-72283386D01*
X116100000Y-72375272D01*
X115810564Y-72375272D01*
X115766169Y-72308831D01*
X115612507Y-72206157D01*
X115431250Y-72170103D01*
X115189709Y-72170103D01*
X115144606Y-72125000D01*
X115237502Y-72125000D01*
X115237502Y-72062502D01*
X115300000Y-72125000D01*
X115574728Y-72125000D01*
X115666614Y-72086940D01*
X115736940Y-72016614D01*
X115775000Y-71924728D01*
X115775000Y-71612500D01*
X115712500Y-71550000D01*
X115237500Y-71550000D01*
X115237500Y-71570000D01*
X114937500Y-71570000D01*
X114937500Y-71550000D01*
X114462500Y-71550000D01*
X114400000Y-71612500D01*
X114400000Y-71924728D01*
X114405658Y-71938388D01*
X114101436Y-71938388D01*
X114168843Y-71837507D01*
X114204897Y-71656250D01*
X114204897Y-71143750D01*
X114171329Y-70974990D01*
X114400000Y-70974990D01*
X114400000Y-71187500D01*
X114462500Y-71250000D01*
X114937500Y-71250000D01*
X114937500Y-71230000D01*
X115237500Y-71230000D01*
X115237500Y-71250000D01*
X115712500Y-71250000D01*
X115775000Y-71187500D01*
X115775000Y-70974990D01*
X115953671Y-70974990D01*
X115920103Y-71143750D01*
X115920103Y-71656250D01*
X115956157Y-71837507D01*
X116058831Y-71991169D01*
X116212493Y-72093843D01*
X116393750Y-72129897D01*
X116831250Y-72129897D01*
X117012507Y-72093843D01*
X117166169Y-71991169D01*
X117268843Y-71837507D01*
X117304897Y-71656250D01*
X117304897Y-71612500D01*
X117500000Y-71612500D01*
X117500000Y-71924728D01*
X117538060Y-72016614D01*
X117608386Y-72086940D01*
X117700272Y-72125000D01*
X117975000Y-72125000D01*
X118037500Y-72062500D01*
X118037500Y-71550000D01*
X118337500Y-71550000D01*
X118337500Y-72062500D01*
X118400000Y-72125000D01*
X118674728Y-72125000D01*
X118766614Y-72086940D01*
X118836940Y-72016614D01*
X118875000Y-71924728D01*
X118875000Y-71612500D01*
X118812500Y-71550000D01*
X118337500Y-71550000D01*
X118037500Y-71550000D01*
X117562500Y-71550000D01*
X117500000Y-71612500D01*
X117304897Y-71612500D01*
X117304897Y-71143750D01*
X117268843Y-70962493D01*
X117210564Y-70875272D01*
X117500000Y-70875272D01*
X117500000Y-71187500D01*
X117562500Y-71250000D01*
X118037500Y-71250000D01*
X118037500Y-70737500D01*
X118337500Y-70737500D01*
X118337500Y-71250000D01*
X118812500Y-71250000D01*
X118875000Y-71187500D01*
X118875000Y-70875272D01*
X118836940Y-70783386D01*
X118766614Y-70713060D01*
X118674728Y-70675000D01*
X118400000Y-70675000D01*
X118337500Y-70737500D01*
X118037500Y-70737500D01*
X117975000Y-70675000D01*
X117700272Y-70675000D01*
X117608386Y-70713060D01*
X117538060Y-70783386D01*
X117500000Y-70875272D01*
X117210564Y-70875272D01*
X117166169Y-70808831D01*
X117012507Y-70706157D01*
X116942965Y-70692324D01*
X116942192Y-70688437D01*
X116864835Y-70572665D01*
X116835614Y-70553140D01*
X116738724Y-70456250D01*
X116740077Y-70454897D01*
X117500000Y-70454897D01*
X117597545Y-70435494D01*
X117680239Y-70380239D01*
X117735494Y-70297545D01*
X117754897Y-70200000D01*
X117754897Y-68400000D01*
X117735494Y-68302455D01*
X117680239Y-68219761D01*
X117597545Y-68164506D01*
X117500000Y-68145103D01*
X116500000Y-68145103D01*
X116402455Y-68164506D01*
X116319761Y-68219761D01*
X116264506Y-68302455D01*
X116245103Y-68400000D01*
X116245103Y-69959923D01*
X115976888Y-70228139D01*
X115947664Y-70247666D01*
X115929407Y-70274990D01*
X115239980Y-70274990D01*
X115254897Y-70200000D01*
X115254897Y-68400000D01*
X115235494Y-68302455D01*
X115180239Y-68219761D01*
X115097545Y-68164506D01*
X115000000Y-68145103D01*
X114850000Y-68145103D01*
X114850000Y-67879897D01*
X115031250Y-67879897D01*
X115212507Y-67843843D01*
X115366169Y-67741169D01*
X115468843Y-67587507D01*
X115504897Y-67406250D01*
X115504897Y-67362500D01*
X115700000Y-67362500D01*
X115700000Y-67674728D01*
X115738060Y-67766614D01*
X115808386Y-67836940D01*
X115900272Y-67875000D01*
X116175000Y-67875000D01*
X116237500Y-67812500D01*
X116237500Y-67300000D01*
X116537500Y-67300000D01*
X116537500Y-67812500D01*
X116600000Y-67875000D01*
X116874728Y-67875000D01*
X116966614Y-67836940D01*
X117036940Y-67766614D01*
X117075000Y-67674728D01*
X117075000Y-67362500D01*
X117012500Y-67300000D01*
X116537500Y-67300000D01*
X116237500Y-67300000D01*
X115762500Y-67300000D01*
X115700000Y-67362500D01*
X115504897Y-67362500D01*
X115504897Y-66893750D01*
X115468843Y-66712493D01*
X115410564Y-66625272D01*
X115700000Y-66625272D01*
X115700000Y-66937500D01*
X115762500Y-67000000D01*
X116237500Y-67000000D01*
X116237500Y-66487500D01*
X116537500Y-66487500D01*
X116537500Y-67000000D01*
X117012500Y-67000000D01*
X117075000Y-66937500D01*
X117075000Y-66625272D01*
X117036940Y-66533386D01*
X116966614Y-66463060D01*
X116874728Y-66425000D01*
X116600000Y-66425000D01*
X116537500Y-66487500D01*
X116237500Y-66487500D01*
X116175000Y-66425000D01*
X115900272Y-66425000D01*
X115808386Y-66463060D01*
X115738060Y-66533386D01*
X115700000Y-66625272D01*
X115410564Y-66625272D01*
X115366169Y-66558831D01*
X115212507Y-66456157D01*
X115031250Y-66420103D01*
X114593750Y-66420103D01*
X114412493Y-66456157D01*
X114258831Y-66558831D01*
X114156157Y-66712493D01*
X114120103Y-66893750D01*
X114120103Y-67406250D01*
X114150001Y-67556558D01*
X114150001Y-68145103D01*
X114000000Y-68145103D01*
X113902455Y-68164506D01*
X113819761Y-68219761D01*
X113764506Y-68302455D01*
X113745103Y-68400000D01*
X113745103Y-69859924D01*
X113730048Y-69874979D01*
X112947645Y-69874979D01*
X112913181Y-69868124D01*
X112878717Y-69874979D01*
X112878713Y-69874979D01*
X112776618Y-69895287D01*
X112660846Y-69972644D01*
X112641321Y-70001865D01*
X112468177Y-70175010D01*
X112446329Y-70175010D01*
X112479897Y-70006250D01*
X112479897Y-69568750D01*
X112443843Y-69387493D01*
X112341169Y-69233831D01*
X112187507Y-69131157D01*
X112006250Y-69095103D01*
X111493750Y-69095103D01*
X111312493Y-69131157D01*
X111158831Y-69233831D01*
X111075000Y-69359293D01*
X111075000Y-68640707D01*
X111158831Y-68766169D01*
X111312493Y-68868843D01*
X111493750Y-68904897D01*
X112006250Y-68904897D01*
X112187507Y-68868843D01*
X112341169Y-68766169D01*
X112443843Y-68612507D01*
X112479897Y-68431250D01*
X112479897Y-67993750D01*
X112443843Y-67812493D01*
X112341169Y-67658831D01*
X112187507Y-67556157D01*
X112100000Y-67538751D01*
X112100000Y-67201973D01*
X112116169Y-67191169D01*
X112218843Y-67037507D01*
X112254897Y-66856250D01*
X112254897Y-66812500D01*
X112450000Y-66812500D01*
X112450000Y-67124728D01*
X112488060Y-67216614D01*
X112558386Y-67286940D01*
X112650272Y-67325000D01*
X112925000Y-67325000D01*
X112987500Y-67262500D01*
X112987500Y-66750000D01*
X113287500Y-66750000D01*
X113287500Y-67262500D01*
X113350000Y-67325000D01*
X113624728Y-67325000D01*
X113716614Y-67286940D01*
X113786940Y-67216614D01*
X113825000Y-67124728D01*
X113825000Y-66812500D01*
X113762500Y-66750000D01*
X113287500Y-66750000D01*
X112987500Y-66750000D01*
X112512500Y-66750000D01*
X112450000Y-66812500D01*
X112254897Y-66812500D01*
X112254897Y-66343750D01*
X112218843Y-66162493D01*
X112160564Y-66075272D01*
X112450000Y-66075272D01*
X112450000Y-66387500D01*
X112512500Y-66450000D01*
X112987500Y-66450000D01*
X112987500Y-65937500D01*
X113287500Y-65937500D01*
X113287500Y-66450000D01*
X113762500Y-66450000D01*
X113825000Y-66387500D01*
X113825000Y-66075272D01*
X113786940Y-65983386D01*
X113716614Y-65913060D01*
X113624728Y-65875000D01*
X113350000Y-65875000D01*
X113287500Y-65937500D01*
X112987500Y-65937500D01*
X112925000Y-65875000D01*
X112650272Y-65875000D01*
X112558386Y-65913060D01*
X112488060Y-65983386D01*
X112450000Y-66075272D01*
X112160564Y-66075272D01*
X112116169Y-66008831D01*
X111962507Y-65906157D01*
X111781250Y-65870103D01*
X111343750Y-65870103D01*
X111162493Y-65906157D01*
X111075000Y-65964618D01*
X111075000Y-65368834D01*
X111947975Y-65303961D01*
X113281815Y-65356368D01*
G04 #@! TD*
M02*
