G04 #@! TF.GenerationSoftware,KiCad,Pcbnew,5.1.0-unknown-567bdd9~82~ubuntu18.10.1*
G04 #@! TF.CreationDate,2019-03-29T13:42:26+01:00*
G04 #@! TF.ProjectId,weather,77656174-6865-4722-9e6b-696361645f70,1.0*
G04 #@! TF.SameCoordinates,Original*
G04 #@! TF.FileFunction,Soldermask,Top*
G04 #@! TF.FilePolarity,Negative*
%FSLAX46Y46*%
G04 Gerber Fmt 4.6, Leading zero omitted, Abs format (unit mm)*
G04 Created by KiCad (PCBNEW 5.1.0-unknown-567bdd9~82~ubuntu18.10.1) date 2019-03-29 13:42:26*
%MOMM*%
%LPD*%
G04 APERTURE LIST*
%ADD10C,0.100000*%
G04 APERTURE END LIST*
D10*
G36*
X125200000Y-89400000D02*
G01*
X107500000Y-89400000D01*
X107500000Y-84643820D01*
X107497598Y-84619434D01*
X107490485Y-84595985D01*
X107478934Y-84574374D01*
X107463389Y-84555432D01*
X107444447Y-84539887D01*
X107422836Y-84528336D01*
X107399387Y-84521223D01*
X107375001Y-84518821D01*
X107350615Y-84521223D01*
X107327166Y-84528336D01*
X107305555Y-84539887D01*
X107286613Y-84555432D01*
X107284613Y-84557432D01*
X107284607Y-84557441D01*
X107215618Y-84626430D01*
X107134495Y-84680635D01*
X107134494Y-84680636D01*
X107134493Y-84680636D01*
X107044356Y-84717971D01*
X106948665Y-84737005D01*
X106851099Y-84737005D01*
X106755408Y-84717971D01*
X106665271Y-84680636D01*
X106665270Y-84680636D01*
X106665269Y-84680635D01*
X106584146Y-84626430D01*
X106515157Y-84557441D01*
X106460952Y-84476318D01*
X106423616Y-84386179D01*
X106404582Y-84290488D01*
X106404582Y-84192922D01*
X106423616Y-84097231D01*
X106460952Y-84007092D01*
X106515157Y-83925969D01*
X106584146Y-83856980D01*
X106665269Y-83802775D01*
X106718166Y-83780865D01*
X106755408Y-83765439D01*
X106851099Y-83746405D01*
X106948665Y-83746405D01*
X107044356Y-83765439D01*
X107081599Y-83780865D01*
X107134495Y-83802775D01*
X107215618Y-83856980D01*
X107284607Y-83925969D01*
X107284613Y-83925978D01*
X107286613Y-83927978D01*
X107305555Y-83943523D01*
X107327166Y-83955074D01*
X107350615Y-83962187D01*
X107375001Y-83964589D01*
X107399387Y-83962187D01*
X107422836Y-83955074D01*
X107444447Y-83943523D01*
X107463389Y-83927978D01*
X107478934Y-83909036D01*
X107490485Y-83887425D01*
X107497598Y-83863976D01*
X107500000Y-83839590D01*
X107500000Y-82800000D01*
X108300992Y-82800000D01*
X108325378Y-82797598D01*
X108348827Y-82790485D01*
X108370438Y-82778934D01*
X108389380Y-82763389D01*
X108404925Y-82744447D01*
X108416476Y-82722836D01*
X108423589Y-82699387D01*
X108425991Y-82675001D01*
X108423589Y-82650615D01*
X108420608Y-82638715D01*
X108408595Y-82599116D01*
X108405000Y-82562610D01*
X108405000Y-82012390D01*
X108408595Y-81975884D01*
X108417452Y-81946689D01*
X108431837Y-81919777D01*
X108451192Y-81896192D01*
X108474777Y-81876837D01*
X108501689Y-81862452D01*
X108530884Y-81853595D01*
X108567390Y-81850000D01*
X109192610Y-81850000D01*
X109229116Y-81853595D01*
X109258311Y-81862452D01*
X109285223Y-81876837D01*
X109308808Y-81896192D01*
X109328163Y-81919777D01*
X109342548Y-81946689D01*
X109351405Y-81975884D01*
X109355000Y-82012390D01*
X109355000Y-82562610D01*
X109351405Y-82599116D01*
X109339392Y-82638715D01*
X109334611Y-82662748D01*
X109334611Y-82687252D01*
X109339391Y-82711285D01*
X109348768Y-82733924D01*
X109362382Y-82754299D01*
X109379709Y-82771626D01*
X109400083Y-82785240D01*
X109422722Y-82794617D01*
X109446755Y-82799398D01*
X109459008Y-82800000D01*
X111200000Y-82800000D01*
X111200000Y-83648223D01*
X111202402Y-83672609D01*
X111209515Y-83696058D01*
X111221066Y-83717669D01*
X111236611Y-83736611D01*
X112753287Y-85253287D01*
X112772229Y-85268832D01*
X112793840Y-85280383D01*
X112817289Y-85287496D01*
X112841675Y-85289898D01*
X112864911Y-85287719D01*
X114285173Y-85019021D01*
X114640240Y-84951847D01*
X114659342Y-84946637D01*
X114672298Y-84941973D01*
X115171097Y-84762405D01*
X115889021Y-84503952D01*
X115910058Y-84494083D01*
X116056841Y-84407740D01*
X116076642Y-84393305D01*
X116093247Y-84375285D01*
X116106018Y-84354372D01*
X116114463Y-84331369D01*
X116118258Y-84307161D01*
X116117257Y-84282677D01*
X116111499Y-84258859D01*
X116101205Y-84236622D01*
X116086770Y-84216821D01*
X116068750Y-84200216D01*
X116047837Y-84187445D01*
X116024834Y-84179000D01*
X115993464Y-84175000D01*
X115712390Y-84175000D01*
X115675884Y-84171405D01*
X115646689Y-84162548D01*
X115619777Y-84148163D01*
X115596192Y-84128808D01*
X115576837Y-84105223D01*
X115562452Y-84078311D01*
X115553595Y-84049116D01*
X115550000Y-84012610D01*
X115550000Y-83387390D01*
X115553595Y-83350884D01*
X115562452Y-83321689D01*
X115576837Y-83294777D01*
X115596192Y-83271192D01*
X115619777Y-83251837D01*
X115646689Y-83237452D01*
X115675884Y-83228595D01*
X115712390Y-83225000D01*
X116262610Y-83225000D01*
X116299116Y-83228595D01*
X116328311Y-83237452D01*
X116355223Y-83251837D01*
X116378808Y-83271192D01*
X116398163Y-83294777D01*
X116412548Y-83321689D01*
X116421405Y-83350884D01*
X116425000Y-83387390D01*
X116425000Y-83972626D01*
X116427402Y-83997012D01*
X116434515Y-84020461D01*
X116446066Y-84042072D01*
X116461611Y-84061014D01*
X116480553Y-84076559D01*
X116502164Y-84088110D01*
X116525613Y-84095223D01*
X116549999Y-84097625D01*
X116574385Y-84095223D01*
X116597834Y-84088110D01*
X116613376Y-84080367D01*
X117588859Y-83506553D01*
X117609565Y-83491304D01*
X118693943Y-82505506D01*
X118705283Y-82493756D01*
X119673077Y-81350000D01*
X119790322Y-81211438D01*
X119806701Y-81186598D01*
X120500000Y-79800000D01*
X125200000Y-79800000D01*
X125200000Y-89400000D01*
X125200000Y-89400000D01*
G37*
G36*
X105284592Y-84781439D02*
G01*
X105374731Y-84818775D01*
X105455854Y-84872980D01*
X105524843Y-84941969D01*
X105579048Y-85023092D01*
X105616384Y-85113231D01*
X105635418Y-85208922D01*
X105635418Y-85306488D01*
X105616384Y-85402179D01*
X105579048Y-85492318D01*
X105524843Y-85573441D01*
X105455854Y-85642430D01*
X105374731Y-85696635D01*
X105374730Y-85696636D01*
X105374729Y-85696636D01*
X105284592Y-85733971D01*
X105188901Y-85753005D01*
X105091335Y-85753005D01*
X104995644Y-85733971D01*
X104905507Y-85696636D01*
X104905506Y-85696636D01*
X104905505Y-85696635D01*
X104824382Y-85642430D01*
X104755393Y-85573441D01*
X104701188Y-85492318D01*
X104663852Y-85402179D01*
X104644818Y-85306488D01*
X104644818Y-85208922D01*
X104663852Y-85113231D01*
X104701188Y-85023092D01*
X104755393Y-84941969D01*
X104824382Y-84872980D01*
X104905505Y-84818775D01*
X104995644Y-84781439D01*
X105091335Y-84762405D01*
X105188901Y-84762405D01*
X105284592Y-84781439D01*
X105284592Y-84781439D01*
G37*
G36*
X104949909Y-83588781D02*
G01*
X104949911Y-83588782D01*
X104949912Y-83588782D01*
X105021561Y-83618460D01*
X105086043Y-83661545D01*
X105140881Y-83716383D01*
X105173659Y-83765439D01*
X105183966Y-83780865D01*
X105213645Y-83852517D01*
X105228774Y-83928575D01*
X105228774Y-84006129D01*
X105217857Y-84061014D01*
X105213644Y-84082190D01*
X105183966Y-84153839D01*
X105140881Y-84218321D01*
X105086043Y-84273159D01*
X105021561Y-84316244D01*
X104949912Y-84345922D01*
X104949911Y-84345922D01*
X104949909Y-84345923D01*
X104873851Y-84361052D01*
X104796297Y-84361052D01*
X104720239Y-84345923D01*
X104720237Y-84345922D01*
X104720236Y-84345922D01*
X104648587Y-84316244D01*
X104584105Y-84273159D01*
X104529267Y-84218321D01*
X104486182Y-84153839D01*
X104456504Y-84082190D01*
X104452292Y-84061014D01*
X104441374Y-84006129D01*
X104441374Y-83928575D01*
X104456503Y-83852517D01*
X104486182Y-83780865D01*
X104496489Y-83765439D01*
X104529267Y-83716383D01*
X104584105Y-83661545D01*
X104648587Y-83618460D01*
X104720236Y-83588782D01*
X104720237Y-83588782D01*
X104720239Y-83588781D01*
X104796297Y-83573652D01*
X104873851Y-83573652D01*
X104949909Y-83588781D01*
X104949909Y-83588781D01*
G37*
G36*
X114724116Y-83228595D02*
G01*
X114753311Y-83237452D01*
X114780223Y-83251837D01*
X114803808Y-83271192D01*
X114823163Y-83294777D01*
X114837548Y-83321689D01*
X114846405Y-83350884D01*
X114850000Y-83387390D01*
X114850000Y-84012610D01*
X114846405Y-84049116D01*
X114837548Y-84078311D01*
X114823163Y-84105223D01*
X114803808Y-84128808D01*
X114780223Y-84148163D01*
X114753311Y-84162548D01*
X114724116Y-84171405D01*
X114687610Y-84175000D01*
X114137390Y-84175000D01*
X114100884Y-84171405D01*
X114071689Y-84162548D01*
X114044777Y-84148163D01*
X114021192Y-84128808D01*
X114001837Y-84105223D01*
X113987452Y-84078311D01*
X113978595Y-84049116D01*
X113975000Y-84012610D01*
X113975000Y-83387390D01*
X113978595Y-83350884D01*
X113987452Y-83321689D01*
X114001837Y-83294777D01*
X114021192Y-83271192D01*
X114044777Y-83251837D01*
X114071689Y-83237452D01*
X114100884Y-83228595D01*
X114137390Y-83225000D01*
X114687610Y-83225000D01*
X114724116Y-83228595D01*
X114724116Y-83228595D01*
G37*
G36*
X106049761Y-82953781D02*
G01*
X106049763Y-82953782D01*
X106049764Y-82953782D01*
X106121413Y-82983460D01*
X106185895Y-83026545D01*
X106240733Y-83081383D01*
X106265512Y-83118468D01*
X106283818Y-83145865D01*
X106313497Y-83217517D01*
X106328626Y-83293575D01*
X106328626Y-83371129D01*
X106314181Y-83443750D01*
X106313496Y-83447190D01*
X106283818Y-83518839D01*
X106240733Y-83583321D01*
X106185895Y-83638159D01*
X106121413Y-83681244D01*
X106049764Y-83710922D01*
X106049763Y-83710922D01*
X106049761Y-83710923D01*
X105973703Y-83726052D01*
X105896149Y-83726052D01*
X105820091Y-83710923D01*
X105820089Y-83710922D01*
X105820088Y-83710922D01*
X105748439Y-83681244D01*
X105683957Y-83638159D01*
X105629119Y-83583321D01*
X105586034Y-83518839D01*
X105556356Y-83447190D01*
X105555672Y-83443750D01*
X105541226Y-83371129D01*
X105541226Y-83293575D01*
X105556355Y-83217517D01*
X105586034Y-83145865D01*
X105604340Y-83118468D01*
X105629119Y-83081383D01*
X105683957Y-83026545D01*
X105748439Y-82983460D01*
X105820088Y-82953782D01*
X105820089Y-82953782D01*
X105820091Y-82953781D01*
X105896149Y-82938652D01*
X105973703Y-82938652D01*
X106049761Y-82953781D01*
X106049761Y-82953781D01*
G37*
G36*
X104314909Y-82488929D02*
G01*
X104314911Y-82488930D01*
X104314912Y-82488930D01*
X104386561Y-82518608D01*
X104451043Y-82561693D01*
X104505881Y-82616531D01*
X104528655Y-82650615D01*
X104548966Y-82681013D01*
X104578645Y-82752665D01*
X104593774Y-82828723D01*
X104593774Y-82906277D01*
X104584325Y-82953782D01*
X104578644Y-82982338D01*
X104548966Y-83053987D01*
X104505881Y-83118469D01*
X104451043Y-83173307D01*
X104386561Y-83216392D01*
X104314912Y-83246070D01*
X104314911Y-83246070D01*
X104314909Y-83246071D01*
X104238851Y-83261200D01*
X104161297Y-83261200D01*
X104085239Y-83246071D01*
X104085237Y-83246070D01*
X104085236Y-83246070D01*
X104013587Y-83216392D01*
X103949105Y-83173307D01*
X103894267Y-83118469D01*
X103851182Y-83053987D01*
X103821504Y-82982338D01*
X103815824Y-82953782D01*
X103806374Y-82906277D01*
X103806374Y-82828723D01*
X103821503Y-82752665D01*
X103851182Y-82681013D01*
X103871493Y-82650615D01*
X103894267Y-82616531D01*
X103949105Y-82561693D01*
X104013587Y-82518608D01*
X104085236Y-82488930D01*
X104085237Y-82488930D01*
X104085239Y-82488929D01*
X104161297Y-82473800D01*
X104238851Y-82473800D01*
X104314909Y-82488929D01*
X104314909Y-82488929D01*
G37*
G36*
X105414761Y-81853929D02*
G01*
X105414763Y-81853930D01*
X105414764Y-81853930D01*
X105486413Y-81883608D01*
X105550895Y-81926693D01*
X105605733Y-81981531D01*
X105608076Y-81985038D01*
X105648818Y-82046013D01*
X105678497Y-82117665D01*
X105687186Y-82161348D01*
X105693626Y-82193724D01*
X105693626Y-82271276D01*
X105678496Y-82347338D01*
X105648818Y-82418987D01*
X105605733Y-82483469D01*
X105550895Y-82538307D01*
X105486413Y-82581392D01*
X105414764Y-82611070D01*
X105414763Y-82611070D01*
X105414761Y-82611071D01*
X105338703Y-82626200D01*
X105261149Y-82626200D01*
X105185091Y-82611071D01*
X105185089Y-82611070D01*
X105185088Y-82611070D01*
X105113439Y-82581392D01*
X105048957Y-82538307D01*
X104994119Y-82483469D01*
X104951034Y-82418987D01*
X104921356Y-82347338D01*
X104906226Y-82271276D01*
X104906226Y-82193724D01*
X104912666Y-82161348D01*
X104921355Y-82117665D01*
X104951034Y-82046013D01*
X104991776Y-81985038D01*
X104994119Y-81981531D01*
X105048957Y-81926693D01*
X105113439Y-81883608D01*
X105185088Y-81853930D01*
X105185089Y-81853930D01*
X105185091Y-81853929D01*
X105261149Y-81838800D01*
X105338703Y-81838800D01*
X105414761Y-81853929D01*
X105414761Y-81853929D01*
G37*
G36*
X117100000Y-82550000D02*
G01*
X115700000Y-82550000D01*
X115700000Y-81350000D01*
X117100000Y-81350000D01*
X117100000Y-82550000D01*
X117100000Y-82550000D01*
G37*
G36*
X114900000Y-82550000D02*
G01*
X113500000Y-82550000D01*
X113500000Y-81350000D01*
X114900000Y-81350000D01*
X114900000Y-82550000D01*
X114900000Y-82550000D01*
G37*
G36*
X103679909Y-81389077D02*
G01*
X103679911Y-81389078D01*
X103679912Y-81389078D01*
X103751561Y-81418756D01*
X103816043Y-81461841D01*
X103870881Y-81516679D01*
X103913966Y-81581161D01*
X103943645Y-81652813D01*
X103958774Y-81728871D01*
X103958774Y-81806425D01*
X103949325Y-81853930D01*
X103943644Y-81882486D01*
X103913966Y-81954135D01*
X103870881Y-82018617D01*
X103816043Y-82073455D01*
X103751561Y-82116540D01*
X103679912Y-82146218D01*
X103679911Y-82146218D01*
X103679909Y-82146219D01*
X103603851Y-82161348D01*
X103526297Y-82161348D01*
X103450239Y-82146219D01*
X103450237Y-82146218D01*
X103450236Y-82146218D01*
X103378587Y-82116540D01*
X103314105Y-82073455D01*
X103259267Y-82018617D01*
X103216182Y-81954135D01*
X103186504Y-81882486D01*
X103180824Y-81853930D01*
X103171374Y-81806425D01*
X103171374Y-81728871D01*
X103186503Y-81652813D01*
X103216182Y-81581161D01*
X103259267Y-81516679D01*
X103314105Y-81461841D01*
X103378587Y-81418756D01*
X103450236Y-81389078D01*
X103450237Y-81389078D01*
X103450239Y-81389077D01*
X103526297Y-81373948D01*
X103603851Y-81373948D01*
X103679909Y-81389077D01*
X103679909Y-81389077D01*
G37*
G36*
X104779761Y-80754077D02*
G01*
X104779763Y-80754078D01*
X104779764Y-80754078D01*
X104851413Y-80783756D01*
X104915895Y-80826841D01*
X104970733Y-80881679D01*
X105013818Y-80946161D01*
X105019936Y-80960930D01*
X105043497Y-81017813D01*
X105058626Y-81093871D01*
X105058626Y-81171425D01*
X105050667Y-81211439D01*
X105043496Y-81247486D01*
X105013818Y-81319135D01*
X104970733Y-81383617D01*
X104915895Y-81438455D01*
X104851413Y-81481540D01*
X104779764Y-81511218D01*
X104779763Y-81511218D01*
X104779761Y-81511219D01*
X104703703Y-81526348D01*
X104626149Y-81526348D01*
X104550091Y-81511219D01*
X104550089Y-81511218D01*
X104550088Y-81511218D01*
X104478439Y-81481540D01*
X104413957Y-81438455D01*
X104359119Y-81383617D01*
X104316034Y-81319135D01*
X104286356Y-81247486D01*
X104279186Y-81211439D01*
X104271226Y-81171425D01*
X104271226Y-81093871D01*
X104286355Y-81017813D01*
X104309917Y-80960930D01*
X104316034Y-80946161D01*
X104359119Y-80881679D01*
X104413957Y-80826841D01*
X104478439Y-80783756D01*
X104550088Y-80754078D01*
X104550089Y-80754078D01*
X104550091Y-80754077D01*
X104626149Y-80738948D01*
X104703703Y-80738948D01*
X104779761Y-80754077D01*
X104779761Y-80754077D01*
G37*
G36*
X109229116Y-80278595D02*
G01*
X109258311Y-80287452D01*
X109285223Y-80301837D01*
X109308808Y-80321192D01*
X109328163Y-80344777D01*
X109342548Y-80371689D01*
X109351405Y-80400884D01*
X109355000Y-80437390D01*
X109355000Y-80987610D01*
X109351405Y-81024116D01*
X109342548Y-81053311D01*
X109328163Y-81080223D01*
X109308808Y-81103808D01*
X109285223Y-81123163D01*
X109258311Y-81137548D01*
X109229116Y-81146405D01*
X109192610Y-81150000D01*
X108567390Y-81150000D01*
X108530884Y-81146405D01*
X108501689Y-81137548D01*
X108474777Y-81123163D01*
X108451192Y-81103808D01*
X108431837Y-81080223D01*
X108417452Y-81053311D01*
X108408595Y-81024116D01*
X108405000Y-80987610D01*
X108405000Y-80437390D01*
X108408595Y-80400884D01*
X108417452Y-80371689D01*
X108431837Y-80344777D01*
X108451192Y-80321192D01*
X108474777Y-80301837D01*
X108501689Y-80287452D01*
X108530884Y-80278595D01*
X108567390Y-80275000D01*
X109192610Y-80275000D01*
X109229116Y-80278595D01*
X109229116Y-80278595D01*
G37*
G36*
X112649116Y-80153595D02*
G01*
X112678311Y-80162452D01*
X112705223Y-80176837D01*
X112728808Y-80196192D01*
X112748163Y-80219777D01*
X112762548Y-80246689D01*
X112771405Y-80275884D01*
X112775000Y-80312390D01*
X112775000Y-80862610D01*
X112771405Y-80899116D01*
X112762548Y-80928311D01*
X112748163Y-80955223D01*
X112728808Y-80978808D01*
X112705223Y-80998163D01*
X112678311Y-81012548D01*
X112649116Y-81021405D01*
X112612610Y-81025000D01*
X111987390Y-81025000D01*
X111950884Y-81021405D01*
X111921689Y-81012548D01*
X111894777Y-80998163D01*
X111871192Y-80978808D01*
X111851837Y-80955223D01*
X111837452Y-80928311D01*
X111828595Y-80899116D01*
X111825000Y-80862610D01*
X111825000Y-80312390D01*
X111828595Y-80275884D01*
X111837452Y-80246689D01*
X111851837Y-80219777D01*
X111871192Y-80196192D01*
X111894777Y-80176837D01*
X111921689Y-80162452D01*
X111950884Y-80153595D01*
X111987390Y-80150000D01*
X112612610Y-80150000D01*
X112649116Y-80153595D01*
X112649116Y-80153595D01*
G37*
G36*
X117100000Y-80850000D02*
G01*
X115700000Y-80850000D01*
X115700000Y-79650000D01*
X117100000Y-79650000D01*
X117100000Y-80850000D01*
X117100000Y-80850000D01*
G37*
G36*
X114900000Y-80850000D02*
G01*
X113500000Y-80850000D01*
X113500000Y-79650000D01*
X114900000Y-79650000D01*
X114900000Y-80850000D01*
X114900000Y-80850000D01*
G37*
G36*
X103624474Y-79874029D02*
G01*
X103714613Y-79911365D01*
X103795736Y-79965570D01*
X103864725Y-80034559D01*
X103918930Y-80115682D01*
X103956266Y-80205821D01*
X103975300Y-80301512D01*
X103975300Y-80399078D01*
X103956266Y-80494769D01*
X103918930Y-80584908D01*
X103864725Y-80666031D01*
X103795736Y-80735020D01*
X103714613Y-80789225D01*
X103624474Y-80826561D01*
X103528783Y-80845595D01*
X103431217Y-80845595D01*
X103335526Y-80826561D01*
X103245387Y-80789225D01*
X103164264Y-80735020D01*
X103095275Y-80666031D01*
X103041070Y-80584908D01*
X103003734Y-80494769D01*
X102984700Y-80399078D01*
X102984700Y-80301512D01*
X103003734Y-80205821D01*
X103041070Y-80115682D01*
X103095275Y-80034559D01*
X103164264Y-79965570D01*
X103245387Y-79911365D01*
X103335526Y-79874029D01*
X103431217Y-79854995D01*
X103528783Y-79854995D01*
X103624474Y-79874029D01*
X103624474Y-79874029D01*
G37*
G36*
X109124116Y-78528595D02*
G01*
X109153311Y-78537452D01*
X109180223Y-78551837D01*
X109203808Y-78571192D01*
X109223163Y-78594777D01*
X109237548Y-78621689D01*
X109246405Y-78650884D01*
X109250000Y-78687390D01*
X109250000Y-79312610D01*
X109246405Y-79349116D01*
X109237548Y-79378311D01*
X109223163Y-79405223D01*
X109203808Y-79428808D01*
X109180223Y-79448163D01*
X109153311Y-79462548D01*
X109124116Y-79471405D01*
X109087610Y-79475000D01*
X108537390Y-79475000D01*
X108500884Y-79471405D01*
X108471689Y-79462548D01*
X108444777Y-79448163D01*
X108421192Y-79428808D01*
X108401837Y-79405223D01*
X108387452Y-79378311D01*
X108378595Y-79349116D01*
X108375000Y-79312610D01*
X108375000Y-78687390D01*
X108378595Y-78650884D01*
X108387452Y-78621689D01*
X108401837Y-78594777D01*
X108421192Y-78571192D01*
X108444777Y-78551837D01*
X108471689Y-78537452D01*
X108500884Y-78528595D01*
X108537390Y-78525000D01*
X109087610Y-78525000D01*
X109124116Y-78528595D01*
X109124116Y-78528595D01*
G37*
G36*
X110699116Y-78528595D02*
G01*
X110728311Y-78537452D01*
X110755223Y-78551837D01*
X110778808Y-78571192D01*
X110798163Y-78594777D01*
X110812548Y-78621689D01*
X110821405Y-78650884D01*
X110825000Y-78687390D01*
X110825000Y-79312610D01*
X110821405Y-79349116D01*
X110812548Y-79378311D01*
X110798163Y-79405223D01*
X110778808Y-79428808D01*
X110755223Y-79448163D01*
X110728311Y-79462548D01*
X110699116Y-79471405D01*
X110662610Y-79475000D01*
X110112390Y-79475000D01*
X110075884Y-79471405D01*
X110046689Y-79462548D01*
X110019777Y-79448163D01*
X109996192Y-79428808D01*
X109976837Y-79405223D01*
X109962452Y-79378311D01*
X109953595Y-79349116D01*
X109950000Y-79312610D01*
X109950000Y-78687390D01*
X109953595Y-78650884D01*
X109962452Y-78621689D01*
X109976837Y-78594777D01*
X109996192Y-78571192D01*
X110019777Y-78551837D01*
X110046689Y-78537452D01*
X110075884Y-78528595D01*
X110112390Y-78525000D01*
X110662610Y-78525000D01*
X110699116Y-78528595D01*
X110699116Y-78528595D01*
G37*
G36*
X112649116Y-78578595D02*
G01*
X112678311Y-78587452D01*
X112705223Y-78601837D01*
X112728808Y-78621192D01*
X112748163Y-78644777D01*
X112762548Y-78671689D01*
X112771405Y-78700884D01*
X112775000Y-78737390D01*
X112775000Y-79287610D01*
X112771405Y-79324116D01*
X112762548Y-79353311D01*
X112748163Y-79380223D01*
X112728808Y-79403808D01*
X112705223Y-79423163D01*
X112678311Y-79437548D01*
X112649116Y-79446405D01*
X112612610Y-79450000D01*
X111987390Y-79450000D01*
X111950884Y-79446405D01*
X111921689Y-79437548D01*
X111894777Y-79423163D01*
X111871192Y-79403808D01*
X111851837Y-79380223D01*
X111837452Y-79353311D01*
X111828595Y-79324116D01*
X111825000Y-79287610D01*
X111825000Y-78737390D01*
X111828595Y-78700884D01*
X111837452Y-78671689D01*
X111851837Y-78644777D01*
X111871192Y-78621192D01*
X111894777Y-78601837D01*
X111921689Y-78587452D01*
X111950884Y-78578595D01*
X111987390Y-78575000D01*
X112612610Y-78575000D01*
X112649116Y-78578595D01*
X112649116Y-78578595D01*
G37*
G36*
X114724116Y-78128595D02*
G01*
X114753311Y-78137452D01*
X114780223Y-78151837D01*
X114803808Y-78171192D01*
X114823163Y-78194777D01*
X114837548Y-78221689D01*
X114846405Y-78250884D01*
X114850000Y-78287390D01*
X114850000Y-78912610D01*
X114846405Y-78949116D01*
X114837548Y-78978311D01*
X114823163Y-79005223D01*
X114803808Y-79028808D01*
X114780223Y-79048163D01*
X114753311Y-79062548D01*
X114724116Y-79071405D01*
X114687610Y-79075000D01*
X114137390Y-79075000D01*
X114100884Y-79071405D01*
X114071689Y-79062548D01*
X114044777Y-79048163D01*
X114021192Y-79028808D01*
X114001837Y-79005223D01*
X113987452Y-78978311D01*
X113978595Y-78949116D01*
X113975000Y-78912610D01*
X113975000Y-78287390D01*
X113978595Y-78250884D01*
X113987452Y-78221689D01*
X114001837Y-78194777D01*
X114021192Y-78171192D01*
X114044777Y-78151837D01*
X114071689Y-78137452D01*
X114100884Y-78128595D01*
X114137390Y-78125000D01*
X114687610Y-78125000D01*
X114724116Y-78128595D01*
X114724116Y-78128595D01*
G37*
G36*
X116299116Y-78128595D02*
G01*
X116328311Y-78137452D01*
X116355223Y-78151837D01*
X116378808Y-78171192D01*
X116398163Y-78194777D01*
X116412548Y-78221689D01*
X116421405Y-78250884D01*
X116425000Y-78287390D01*
X116425000Y-78912610D01*
X116421405Y-78949116D01*
X116412548Y-78978311D01*
X116398163Y-79005223D01*
X116378808Y-79028808D01*
X116355223Y-79048163D01*
X116328311Y-79062548D01*
X116299116Y-79071405D01*
X116262610Y-79075000D01*
X115712390Y-79075000D01*
X115675884Y-79071405D01*
X115646689Y-79062548D01*
X115619777Y-79048163D01*
X115596192Y-79028808D01*
X115576837Y-79005223D01*
X115562452Y-78978311D01*
X115553595Y-78949116D01*
X115550000Y-78912610D01*
X115550000Y-78287390D01*
X115553595Y-78250884D01*
X115562452Y-78221689D01*
X115576837Y-78194777D01*
X115596192Y-78171192D01*
X115619777Y-78151837D01*
X115646689Y-78137452D01*
X115675884Y-78128595D01*
X115712390Y-78125000D01*
X116262610Y-78125000D01*
X116299116Y-78128595D01*
X116299116Y-78128595D01*
G37*
G36*
X122746660Y-76662610D02*
G01*
X122905443Y-76694194D01*
X123066556Y-76760930D01*
X123109718Y-76778808D01*
X123114729Y-76780884D01*
X123303082Y-76906737D01*
X123463263Y-77066918D01*
X123589116Y-77255271D01*
X123675806Y-77464557D01*
X123720000Y-77686735D01*
X123720000Y-77913265D01*
X123675806Y-78135443D01*
X123589116Y-78344729D01*
X123463263Y-78533082D01*
X123303082Y-78693263D01*
X123114729Y-78819116D01*
X122905443Y-78905806D01*
X122757324Y-78935269D01*
X122683266Y-78950000D01*
X122456734Y-78950000D01*
X122382676Y-78935269D01*
X122234557Y-78905806D01*
X122025271Y-78819116D01*
X121836918Y-78693263D01*
X121676737Y-78533082D01*
X121550884Y-78344729D01*
X121464194Y-78135443D01*
X121420000Y-77913265D01*
X121420000Y-77686735D01*
X121464194Y-77464557D01*
X121550884Y-77255271D01*
X121676737Y-77066918D01*
X121836918Y-76906737D01*
X122025271Y-76780884D01*
X122030283Y-76778808D01*
X122073444Y-76760930D01*
X122234557Y-76694194D01*
X122393340Y-76662610D01*
X122456734Y-76650000D01*
X122683266Y-76650000D01*
X122746660Y-76662610D01*
X122746660Y-76662610D01*
G37*
G36*
X101946660Y-76662610D02*
G01*
X102105443Y-76694194D01*
X102266556Y-76760930D01*
X102309718Y-76778808D01*
X102314729Y-76780884D01*
X102503082Y-76906737D01*
X102663263Y-77066918D01*
X102789116Y-77255271D01*
X102875806Y-77464557D01*
X102920000Y-77686735D01*
X102920000Y-77913265D01*
X102875806Y-78135443D01*
X102789116Y-78344729D01*
X102663263Y-78533082D01*
X102503082Y-78693263D01*
X102314729Y-78819116D01*
X102105443Y-78905806D01*
X101957324Y-78935269D01*
X101883266Y-78950000D01*
X101656734Y-78950000D01*
X101582676Y-78935269D01*
X101434557Y-78905806D01*
X101225271Y-78819116D01*
X101036918Y-78693263D01*
X100876737Y-78533082D01*
X100750884Y-78344729D01*
X100664194Y-78135443D01*
X100620000Y-77913265D01*
X100620000Y-77686735D01*
X100664194Y-77464557D01*
X100750884Y-77255271D01*
X100876737Y-77066918D01*
X101036918Y-76906737D01*
X101225271Y-76780884D01*
X101230283Y-76778808D01*
X101273444Y-76760930D01*
X101434557Y-76694194D01*
X101593340Y-76662610D01*
X101656734Y-76650000D01*
X101883266Y-76650000D01*
X101946660Y-76662610D01*
X101946660Y-76662610D01*
G37*
G36*
X108000000Y-72575001D02*
G01*
X108002402Y-72599387D01*
X108009515Y-72622836D01*
X108021066Y-72644447D01*
X108036611Y-72663389D01*
X108055553Y-72678934D01*
X108077164Y-72690485D01*
X108100613Y-72697598D01*
X108124999Y-72700000D01*
X108125001Y-72700000D01*
X108149387Y-72697598D01*
X108172836Y-72690485D01*
X108194447Y-72678934D01*
X108213389Y-72663389D01*
X108228934Y-72644447D01*
X108240485Y-72622836D01*
X108247598Y-72599387D01*
X108250000Y-72575001D01*
X108250000Y-71650000D01*
X108500000Y-71650000D01*
X108500000Y-72575001D01*
X108502402Y-72599387D01*
X108509515Y-72622836D01*
X108521066Y-72644447D01*
X108536611Y-72663389D01*
X108555553Y-72678934D01*
X108577164Y-72690485D01*
X108600613Y-72697598D01*
X108624999Y-72700000D01*
X108625001Y-72700000D01*
X108649387Y-72697598D01*
X108672836Y-72690485D01*
X108694447Y-72678934D01*
X108713389Y-72663389D01*
X108728934Y-72644447D01*
X108740485Y-72622836D01*
X108747598Y-72599387D01*
X108750000Y-72575001D01*
X108750000Y-71650000D01*
X109000000Y-71650000D01*
X109000000Y-72575001D01*
X109002402Y-72599387D01*
X109009515Y-72622836D01*
X109021066Y-72644447D01*
X109036611Y-72663389D01*
X109055553Y-72678934D01*
X109077164Y-72690485D01*
X109100613Y-72697598D01*
X109124999Y-72700000D01*
X109125001Y-72700000D01*
X109149387Y-72697598D01*
X109172836Y-72690485D01*
X109194447Y-72678934D01*
X109213389Y-72663389D01*
X109228934Y-72644447D01*
X109240485Y-72622836D01*
X109247598Y-72599387D01*
X109250000Y-72575001D01*
X109250000Y-71650000D01*
X109500000Y-71650000D01*
X109500000Y-72575001D01*
X109502402Y-72599387D01*
X109509515Y-72622836D01*
X109521066Y-72644447D01*
X109536611Y-72663389D01*
X109555553Y-72678934D01*
X109577164Y-72690485D01*
X109600613Y-72697598D01*
X109624999Y-72700000D01*
X109625001Y-72700000D01*
X109649387Y-72697598D01*
X109672836Y-72690485D01*
X109694447Y-72678934D01*
X109713389Y-72663389D01*
X109728934Y-72644447D01*
X109740485Y-72622836D01*
X109747598Y-72599387D01*
X109750000Y-72575001D01*
X109750000Y-71650000D01*
X110000000Y-71650000D01*
X110000000Y-72575001D01*
X110002402Y-72599387D01*
X110009515Y-72622836D01*
X110021066Y-72644447D01*
X110036611Y-72663389D01*
X110055553Y-72678934D01*
X110077164Y-72690485D01*
X110100613Y-72697598D01*
X110124999Y-72700000D01*
X110125001Y-72700000D01*
X110149387Y-72697598D01*
X110172836Y-72690485D01*
X110194447Y-72678934D01*
X110213389Y-72663389D01*
X110228934Y-72644447D01*
X110240485Y-72622836D01*
X110247598Y-72599387D01*
X110250000Y-72575001D01*
X110250000Y-71650000D01*
X110500000Y-71650000D01*
X110500000Y-72575001D01*
X110502402Y-72599387D01*
X110509515Y-72622836D01*
X110521066Y-72644447D01*
X110536611Y-72663389D01*
X110555553Y-72678934D01*
X110577164Y-72690485D01*
X110600613Y-72697598D01*
X110624999Y-72700000D01*
X110625001Y-72700000D01*
X110649387Y-72697598D01*
X110672836Y-72690485D01*
X110694447Y-72678934D01*
X110713389Y-72663389D01*
X110728934Y-72644447D01*
X110740485Y-72622836D01*
X110747598Y-72599387D01*
X110750000Y-72575001D01*
X110750000Y-71650000D01*
X111000000Y-71650000D01*
X111000000Y-72575001D01*
X111002402Y-72599387D01*
X111009515Y-72622836D01*
X111021066Y-72644447D01*
X111036611Y-72663389D01*
X111055553Y-72678934D01*
X111077164Y-72690485D01*
X111100613Y-72697598D01*
X111124999Y-72700000D01*
X111125001Y-72700000D01*
X111149387Y-72697598D01*
X111172836Y-72690485D01*
X111194447Y-72678934D01*
X111213389Y-72663389D01*
X111228934Y-72644447D01*
X111240485Y-72622836D01*
X111247598Y-72599387D01*
X111250000Y-72575001D01*
X111250000Y-71650000D01*
X111500000Y-71650000D01*
X111500000Y-72500001D01*
X111502402Y-72524387D01*
X111509515Y-72547836D01*
X111521066Y-72569447D01*
X111536611Y-72588389D01*
X111555553Y-72603934D01*
X111577164Y-72615485D01*
X111600613Y-72622598D01*
X111624999Y-72625000D01*
X112475000Y-72625000D01*
X112475000Y-72875000D01*
X111549999Y-72875000D01*
X111525613Y-72877402D01*
X111502164Y-72884515D01*
X111480553Y-72896066D01*
X111461611Y-72911611D01*
X111446066Y-72930553D01*
X111434515Y-72952164D01*
X111427402Y-72975613D01*
X111425000Y-72999999D01*
X111425000Y-73000001D01*
X111427402Y-73024387D01*
X111434515Y-73047836D01*
X111446066Y-73069447D01*
X111461611Y-73088389D01*
X111480553Y-73103934D01*
X111502164Y-73115485D01*
X111525613Y-73122598D01*
X111549999Y-73125000D01*
X112475000Y-73125000D01*
X112475000Y-73375000D01*
X111549999Y-73375000D01*
X111525613Y-73377402D01*
X111502164Y-73384515D01*
X111480553Y-73396066D01*
X111461611Y-73411611D01*
X111446066Y-73430553D01*
X111434515Y-73452164D01*
X111427402Y-73475613D01*
X111425000Y-73499999D01*
X111425000Y-73500001D01*
X111427402Y-73524387D01*
X111434515Y-73547836D01*
X111446066Y-73569447D01*
X111461611Y-73588389D01*
X111480553Y-73603934D01*
X111502164Y-73615485D01*
X111525613Y-73622598D01*
X111549999Y-73625000D01*
X112475000Y-73625000D01*
X112475000Y-73875000D01*
X111549999Y-73875000D01*
X111525613Y-73877402D01*
X111502164Y-73884515D01*
X111480553Y-73896066D01*
X111461611Y-73911611D01*
X111446066Y-73930553D01*
X111434515Y-73952164D01*
X111427402Y-73975613D01*
X111425000Y-73999999D01*
X111425000Y-74000001D01*
X111427402Y-74024387D01*
X111434515Y-74047836D01*
X111446066Y-74069447D01*
X111461611Y-74088389D01*
X111480553Y-74103934D01*
X111502164Y-74115485D01*
X111525613Y-74122598D01*
X111549999Y-74125000D01*
X112475000Y-74125000D01*
X112475000Y-74375000D01*
X111549999Y-74375000D01*
X111525613Y-74377402D01*
X111502164Y-74384515D01*
X111480553Y-74396066D01*
X111461611Y-74411611D01*
X111446066Y-74430553D01*
X111434515Y-74452164D01*
X111427402Y-74475613D01*
X111425000Y-74499999D01*
X111425000Y-74500001D01*
X111427402Y-74524387D01*
X111434515Y-74547836D01*
X111446066Y-74569447D01*
X111461611Y-74588389D01*
X111480553Y-74603934D01*
X111502164Y-74615485D01*
X111525613Y-74622598D01*
X111549999Y-74625000D01*
X112475000Y-74625000D01*
X112475000Y-74875000D01*
X111549999Y-74875000D01*
X111525613Y-74877402D01*
X111502164Y-74884515D01*
X111480553Y-74896066D01*
X111461611Y-74911611D01*
X111446066Y-74930553D01*
X111434515Y-74952164D01*
X111427402Y-74975613D01*
X111425000Y-74999999D01*
X111425000Y-75000001D01*
X111427402Y-75024387D01*
X111434515Y-75047836D01*
X111446066Y-75069447D01*
X111461611Y-75088389D01*
X111480553Y-75103934D01*
X111502164Y-75115485D01*
X111525613Y-75122598D01*
X111549999Y-75125000D01*
X112475000Y-75125000D01*
X112475000Y-75375000D01*
X111549999Y-75375000D01*
X111525613Y-75377402D01*
X111502164Y-75384515D01*
X111480553Y-75396066D01*
X111461611Y-75411611D01*
X111446066Y-75430553D01*
X111434515Y-75452164D01*
X111427402Y-75475613D01*
X111425000Y-75499999D01*
X111425000Y-75500001D01*
X111427402Y-75524387D01*
X111434515Y-75547836D01*
X111446066Y-75569447D01*
X111461611Y-75588389D01*
X111480553Y-75603934D01*
X111502164Y-75615485D01*
X111525613Y-75622598D01*
X111549999Y-75625000D01*
X112475000Y-75625000D01*
X112475000Y-75875000D01*
X111549999Y-75875000D01*
X111525613Y-75877402D01*
X111502164Y-75884515D01*
X111480553Y-75896066D01*
X111461611Y-75911611D01*
X111446066Y-75930553D01*
X111434515Y-75952164D01*
X111427402Y-75975613D01*
X111425000Y-75999999D01*
X111425000Y-76000001D01*
X111427402Y-76024387D01*
X111434515Y-76047836D01*
X111446066Y-76069447D01*
X111461611Y-76088389D01*
X111480553Y-76103934D01*
X111502164Y-76115485D01*
X111525613Y-76122598D01*
X111549999Y-76125000D01*
X112475000Y-76125000D01*
X112475000Y-76375000D01*
X111624999Y-76375000D01*
X111600613Y-76377402D01*
X111577164Y-76384515D01*
X111555553Y-76396066D01*
X111536611Y-76411611D01*
X111521066Y-76430553D01*
X111509515Y-76452164D01*
X111502402Y-76475613D01*
X111500000Y-76499999D01*
X111500000Y-77350000D01*
X111250000Y-77350000D01*
X111250000Y-76424999D01*
X111247598Y-76400613D01*
X111240485Y-76377164D01*
X111228934Y-76355553D01*
X111213389Y-76336611D01*
X111194447Y-76321066D01*
X111172836Y-76309515D01*
X111149387Y-76302402D01*
X111125001Y-76300000D01*
X111124999Y-76300000D01*
X111100613Y-76302402D01*
X111077164Y-76309515D01*
X111055553Y-76321066D01*
X111036611Y-76336611D01*
X111021066Y-76355553D01*
X111009515Y-76377164D01*
X111002402Y-76400613D01*
X111000000Y-76424999D01*
X111000000Y-77350000D01*
X110750000Y-77350000D01*
X110750000Y-76424999D01*
X110747598Y-76400613D01*
X110740485Y-76377164D01*
X110728934Y-76355553D01*
X110713389Y-76336611D01*
X110694447Y-76321066D01*
X110672836Y-76309515D01*
X110649387Y-76302402D01*
X110625001Y-76300000D01*
X110624999Y-76300000D01*
X110600613Y-76302402D01*
X110577164Y-76309515D01*
X110555553Y-76321066D01*
X110536611Y-76336611D01*
X110521066Y-76355553D01*
X110509515Y-76377164D01*
X110502402Y-76400613D01*
X110500000Y-76424999D01*
X110500000Y-77350000D01*
X110250000Y-77350000D01*
X110250000Y-76424999D01*
X110247598Y-76400613D01*
X110240485Y-76377164D01*
X110228934Y-76355553D01*
X110213389Y-76336611D01*
X110194447Y-76321066D01*
X110172836Y-76309515D01*
X110149387Y-76302402D01*
X110125001Y-76300000D01*
X110124999Y-76300000D01*
X110100613Y-76302402D01*
X110077164Y-76309515D01*
X110055553Y-76321066D01*
X110036611Y-76336611D01*
X110021066Y-76355553D01*
X110009515Y-76377164D01*
X110002402Y-76400613D01*
X110000000Y-76424999D01*
X110000000Y-77350000D01*
X109750000Y-77350000D01*
X109750000Y-76424999D01*
X109747598Y-76400613D01*
X109740485Y-76377164D01*
X109728934Y-76355553D01*
X109713389Y-76336611D01*
X109694447Y-76321066D01*
X109672836Y-76309515D01*
X109649387Y-76302402D01*
X109625001Y-76300000D01*
X109624999Y-76300000D01*
X109600613Y-76302402D01*
X109577164Y-76309515D01*
X109555553Y-76321066D01*
X109536611Y-76336611D01*
X109521066Y-76355553D01*
X109509515Y-76377164D01*
X109502402Y-76400613D01*
X109500000Y-76424999D01*
X109500000Y-77350000D01*
X109250000Y-77350000D01*
X109250000Y-76424999D01*
X109247598Y-76400613D01*
X109240485Y-76377164D01*
X109228934Y-76355553D01*
X109213389Y-76336611D01*
X109194447Y-76321066D01*
X109172836Y-76309515D01*
X109149387Y-76302402D01*
X109125001Y-76300000D01*
X109124999Y-76300000D01*
X109100613Y-76302402D01*
X109077164Y-76309515D01*
X109055553Y-76321066D01*
X109036611Y-76336611D01*
X109021066Y-76355553D01*
X109009515Y-76377164D01*
X109002402Y-76400613D01*
X109000000Y-76424999D01*
X109000000Y-77350000D01*
X108750000Y-77350000D01*
X108750000Y-76424999D01*
X108747598Y-76400613D01*
X108740485Y-76377164D01*
X108728934Y-76355553D01*
X108713389Y-76336611D01*
X108694447Y-76321066D01*
X108672836Y-76309515D01*
X108649387Y-76302402D01*
X108625001Y-76300000D01*
X108624999Y-76300000D01*
X108600613Y-76302402D01*
X108577164Y-76309515D01*
X108555553Y-76321066D01*
X108536611Y-76336611D01*
X108521066Y-76355553D01*
X108509515Y-76377164D01*
X108502402Y-76400613D01*
X108500000Y-76424999D01*
X108500000Y-77350000D01*
X108250000Y-77350000D01*
X108250000Y-76424999D01*
X108247598Y-76400613D01*
X108240485Y-76377164D01*
X108228934Y-76355553D01*
X108213389Y-76336611D01*
X108194447Y-76321066D01*
X108172836Y-76309515D01*
X108149387Y-76302402D01*
X108125001Y-76300000D01*
X108124999Y-76300000D01*
X108100613Y-76302402D01*
X108077164Y-76309515D01*
X108055553Y-76321066D01*
X108036611Y-76336611D01*
X108021066Y-76355553D01*
X108009515Y-76377164D01*
X108002402Y-76400613D01*
X108000000Y-76424999D01*
X108000000Y-77350000D01*
X107750000Y-77350000D01*
X107750000Y-76499999D01*
X107747598Y-76475613D01*
X107740485Y-76452164D01*
X107728934Y-76430553D01*
X107713389Y-76411611D01*
X107694447Y-76396066D01*
X107672836Y-76384515D01*
X107649387Y-76377402D01*
X107625001Y-76375000D01*
X106775000Y-76375000D01*
X106775000Y-76125000D01*
X107700001Y-76125000D01*
X107724387Y-76122598D01*
X107747836Y-76115485D01*
X107769447Y-76103934D01*
X107788389Y-76088389D01*
X107803934Y-76069447D01*
X107815485Y-76047836D01*
X107822598Y-76024387D01*
X107825000Y-76000001D01*
X107825000Y-75999999D01*
X107822598Y-75975613D01*
X107815485Y-75952164D01*
X107803934Y-75930553D01*
X107788389Y-75911611D01*
X107769447Y-75896066D01*
X107747836Y-75884515D01*
X107724387Y-75877402D01*
X107700001Y-75875000D01*
X106775000Y-75875000D01*
X106775000Y-75625000D01*
X107700001Y-75625000D01*
X107724387Y-75622598D01*
X107747836Y-75615485D01*
X107769447Y-75603934D01*
X107788389Y-75588389D01*
X107803934Y-75569447D01*
X107815485Y-75547836D01*
X107822598Y-75524387D01*
X107825000Y-75500001D01*
X107825000Y-75499999D01*
X107822598Y-75475613D01*
X107815485Y-75452164D01*
X107803934Y-75430553D01*
X107788389Y-75411611D01*
X107769447Y-75396066D01*
X107747836Y-75384515D01*
X107724387Y-75377402D01*
X107700001Y-75375000D01*
X106775000Y-75375000D01*
X106775000Y-75125000D01*
X107700001Y-75125000D01*
X107724387Y-75122598D01*
X107747836Y-75115485D01*
X107769447Y-75103934D01*
X107788389Y-75088389D01*
X107803934Y-75069447D01*
X107815485Y-75047836D01*
X107822598Y-75024387D01*
X107825000Y-75000001D01*
X107825000Y-74999999D01*
X107822598Y-74975613D01*
X107815485Y-74952164D01*
X107803934Y-74930553D01*
X107788389Y-74911611D01*
X107769447Y-74896066D01*
X107747836Y-74884515D01*
X107724387Y-74877402D01*
X107700001Y-74875000D01*
X106775000Y-74875000D01*
X106775000Y-74625000D01*
X107700001Y-74625000D01*
X107724387Y-74622598D01*
X107747836Y-74615485D01*
X107769447Y-74603934D01*
X107788389Y-74588389D01*
X107803934Y-74569447D01*
X107815485Y-74547836D01*
X107822598Y-74524387D01*
X107825000Y-74500001D01*
X107825000Y-74499999D01*
X107822598Y-74475613D01*
X107815485Y-74452164D01*
X107803934Y-74430553D01*
X107788389Y-74411611D01*
X107769447Y-74396066D01*
X107747836Y-74384515D01*
X107724387Y-74377402D01*
X107700001Y-74375000D01*
X106775000Y-74375000D01*
X106775000Y-74125000D01*
X107700001Y-74125000D01*
X107724387Y-74122598D01*
X107747836Y-74115485D01*
X107769447Y-74103934D01*
X107788389Y-74088389D01*
X107803934Y-74069447D01*
X107815485Y-74047836D01*
X107822598Y-74024387D01*
X107825000Y-74000001D01*
X107825000Y-73999999D01*
X107822598Y-73975613D01*
X107815485Y-73952164D01*
X107803934Y-73930553D01*
X107788389Y-73911611D01*
X107769447Y-73896066D01*
X107747836Y-73884515D01*
X107724387Y-73877402D01*
X107700001Y-73875000D01*
X106775000Y-73875000D01*
X106775000Y-73625000D01*
X107700001Y-73625000D01*
X107724387Y-73622598D01*
X107747836Y-73615485D01*
X107769447Y-73603934D01*
X107788389Y-73588389D01*
X107803934Y-73569447D01*
X107815485Y-73547836D01*
X107822598Y-73524387D01*
X107825000Y-73500001D01*
X107825000Y-73499999D01*
X107822598Y-73475613D01*
X107815485Y-73452164D01*
X107803934Y-73430553D01*
X107788389Y-73411611D01*
X107769447Y-73396066D01*
X107747836Y-73384515D01*
X107724387Y-73377402D01*
X107700001Y-73375000D01*
X106775000Y-73375000D01*
X106775000Y-73125000D01*
X107700001Y-73125000D01*
X107724387Y-73122598D01*
X107747836Y-73115485D01*
X107769447Y-73103934D01*
X107788389Y-73088389D01*
X107803934Y-73069447D01*
X107815485Y-73047836D01*
X107822598Y-73024387D01*
X107825000Y-73000001D01*
X107825000Y-72999999D01*
X107822598Y-72975613D01*
X107815485Y-72952164D01*
X107803934Y-72930553D01*
X107788389Y-72911611D01*
X107769447Y-72896066D01*
X107747836Y-72884515D01*
X107724387Y-72877402D01*
X107700001Y-72875000D01*
X106775000Y-72875000D01*
X106775000Y-72625000D01*
X107625001Y-72625000D01*
X107649387Y-72622598D01*
X107672836Y-72615485D01*
X107694447Y-72603934D01*
X107713389Y-72588389D01*
X107728934Y-72569447D01*
X107740485Y-72547836D01*
X107747598Y-72524387D01*
X107750000Y-72500001D01*
X107750000Y-71650000D01*
X108000000Y-71650000D01*
X108000000Y-72575001D01*
X108000000Y-72575001D01*
G37*
G36*
X120752290Y-75300619D02*
G01*
X120816689Y-75313429D01*
X120998678Y-75388811D01*
X121162463Y-75498249D01*
X121301751Y-75637537D01*
X121411189Y-75801322D01*
X121479670Y-75966651D01*
X121486571Y-75983312D01*
X121525000Y-76176507D01*
X121525000Y-76373493D01*
X121520510Y-76396066D01*
X121486571Y-76566689D01*
X121411189Y-76748678D01*
X121301751Y-76912463D01*
X121162463Y-77051751D01*
X120998678Y-77161189D01*
X120816689Y-77236571D01*
X120752290Y-77249381D01*
X120623493Y-77275000D01*
X120426507Y-77275000D01*
X120297710Y-77249381D01*
X120233311Y-77236571D01*
X120051322Y-77161189D01*
X119887537Y-77051751D01*
X119748249Y-76912463D01*
X119638811Y-76748678D01*
X119563429Y-76566689D01*
X119529490Y-76396066D01*
X119525000Y-76373493D01*
X119525000Y-76176507D01*
X119563429Y-75983312D01*
X119570330Y-75966651D01*
X119638811Y-75801322D01*
X119748249Y-75637537D01*
X119887537Y-75498249D01*
X120051322Y-75388811D01*
X120233311Y-75313429D01*
X120297710Y-75300619D01*
X120426507Y-75275000D01*
X120623493Y-75275000D01*
X120752290Y-75300619D01*
X120752290Y-75300619D01*
G37*
G36*
X115749116Y-75953595D02*
G01*
X115778311Y-75962452D01*
X115805223Y-75976837D01*
X115828808Y-75996192D01*
X115848163Y-76019777D01*
X115862548Y-76046689D01*
X115871405Y-76075884D01*
X115875000Y-76112390D01*
X115875000Y-76662610D01*
X115871405Y-76699116D01*
X115862548Y-76728311D01*
X115848163Y-76755223D01*
X115828808Y-76778808D01*
X115805223Y-76798163D01*
X115778311Y-76812548D01*
X115749116Y-76821405D01*
X115712610Y-76825000D01*
X115087390Y-76825000D01*
X115050884Y-76821405D01*
X115021689Y-76812548D01*
X114994777Y-76798163D01*
X114971192Y-76778808D01*
X114951837Y-76755223D01*
X114937452Y-76728311D01*
X114928595Y-76699116D01*
X114925000Y-76662610D01*
X114925000Y-76112390D01*
X114928595Y-76075884D01*
X114937452Y-76046689D01*
X114951837Y-76019777D01*
X114971192Y-75996192D01*
X114994777Y-75976837D01*
X115021689Y-75962452D01*
X115050884Y-75953595D01*
X115087390Y-75950000D01*
X115712610Y-75950000D01*
X115749116Y-75953595D01*
X115749116Y-75953595D01*
G37*
G36*
X105499116Y-75353595D02*
G01*
X105528311Y-75362452D01*
X105555223Y-75376837D01*
X105578808Y-75396192D01*
X105598163Y-75419777D01*
X105612548Y-75446689D01*
X105621405Y-75475884D01*
X105625000Y-75512390D01*
X105625000Y-76062610D01*
X105621405Y-76099116D01*
X105612548Y-76128311D01*
X105598163Y-76155223D01*
X105578808Y-76178808D01*
X105555223Y-76198163D01*
X105528311Y-76212548D01*
X105499116Y-76221405D01*
X105462610Y-76225000D01*
X104837390Y-76225000D01*
X104800884Y-76221405D01*
X104771689Y-76212548D01*
X104744777Y-76198163D01*
X104721192Y-76178808D01*
X104701837Y-76155223D01*
X104687452Y-76128311D01*
X104678595Y-76099116D01*
X104675000Y-76062610D01*
X104675000Y-75512390D01*
X104678595Y-75475884D01*
X104687452Y-75446689D01*
X104701837Y-75419777D01*
X104721192Y-75396192D01*
X104744777Y-75376837D01*
X104771689Y-75362452D01*
X104800884Y-75353595D01*
X104837390Y-75350000D01*
X105462610Y-75350000D01*
X105499116Y-75353595D01*
X105499116Y-75353595D01*
G37*
G36*
X122757324Y-73564731D02*
G01*
X122905443Y-73594194D01*
X123114729Y-73680884D01*
X123303082Y-73806737D01*
X123463263Y-73966918D01*
X123589116Y-74155271D01*
X123675806Y-74364557D01*
X123702923Y-74500884D01*
X123712263Y-74547836D01*
X123720000Y-74586735D01*
X123720000Y-74813265D01*
X123675806Y-75035443D01*
X123606066Y-75203808D01*
X123592091Y-75237548D01*
X123589116Y-75244729D01*
X123463263Y-75433082D01*
X123303082Y-75593263D01*
X123114729Y-75719116D01*
X122905443Y-75805806D01*
X122757324Y-75835269D01*
X122683266Y-75850000D01*
X122456734Y-75850000D01*
X122382676Y-75835269D01*
X122234557Y-75805806D01*
X122025271Y-75719116D01*
X121836918Y-75593263D01*
X121676737Y-75433082D01*
X121550884Y-75244729D01*
X121547910Y-75237548D01*
X121533934Y-75203808D01*
X121464194Y-75035443D01*
X121420000Y-74813265D01*
X121420000Y-74586735D01*
X121427738Y-74547836D01*
X121437077Y-74500884D01*
X121464194Y-74364557D01*
X121550884Y-74155271D01*
X121676737Y-73966918D01*
X121836918Y-73806737D01*
X122025271Y-73680884D01*
X122234557Y-73594194D01*
X122382676Y-73564731D01*
X122456734Y-73550000D01*
X122683266Y-73550000D01*
X122757324Y-73564731D01*
X122757324Y-73564731D01*
G37*
G36*
X101957324Y-73564731D02*
G01*
X102105443Y-73594194D01*
X102314729Y-73680884D01*
X102503082Y-73806737D01*
X102663263Y-73966918D01*
X102789116Y-74155271D01*
X102875806Y-74364557D01*
X102902923Y-74500884D01*
X102912263Y-74547836D01*
X102920000Y-74586735D01*
X102920000Y-74813265D01*
X102875806Y-75035443D01*
X102806066Y-75203808D01*
X102792091Y-75237548D01*
X102789116Y-75244729D01*
X102663263Y-75433082D01*
X102503082Y-75593263D01*
X102314729Y-75719116D01*
X102105443Y-75805806D01*
X101957324Y-75835269D01*
X101883266Y-75850000D01*
X101656734Y-75850000D01*
X101582676Y-75835269D01*
X101434557Y-75805806D01*
X101225271Y-75719116D01*
X101036918Y-75593263D01*
X100876737Y-75433082D01*
X100750884Y-75244729D01*
X100747910Y-75237548D01*
X100733934Y-75203808D01*
X100664194Y-75035443D01*
X100620000Y-74813265D01*
X100620000Y-74586735D01*
X100627738Y-74547836D01*
X100637077Y-74500884D01*
X100664194Y-74364557D01*
X100750884Y-74155271D01*
X100876737Y-73966918D01*
X101036918Y-73806737D01*
X101225271Y-73680884D01*
X101434557Y-73594194D01*
X101582676Y-73564731D01*
X101656734Y-73550000D01*
X101883266Y-73550000D01*
X101957324Y-73564731D01*
X101957324Y-73564731D01*
G37*
G36*
X114049116Y-74753595D02*
G01*
X114078311Y-74762452D01*
X114105223Y-74776837D01*
X114128808Y-74796192D01*
X114148163Y-74819777D01*
X114162548Y-74846689D01*
X114171405Y-74875884D01*
X114175000Y-74912390D01*
X114175000Y-75462610D01*
X114171405Y-75499116D01*
X114162548Y-75528311D01*
X114148163Y-75555223D01*
X114128808Y-75578808D01*
X114105223Y-75598163D01*
X114078311Y-75612548D01*
X114049116Y-75621405D01*
X114012610Y-75625000D01*
X113387390Y-75625000D01*
X113350884Y-75621405D01*
X113321689Y-75612548D01*
X113294777Y-75598163D01*
X113271192Y-75578808D01*
X113251837Y-75555223D01*
X113237452Y-75528311D01*
X113228595Y-75499116D01*
X113225000Y-75462610D01*
X113225000Y-74912390D01*
X113228595Y-74875884D01*
X113237452Y-74846689D01*
X113251837Y-74819777D01*
X113271192Y-74796192D01*
X113294777Y-74776837D01*
X113321689Y-74762452D01*
X113350884Y-74753595D01*
X113387390Y-74750000D01*
X114012610Y-74750000D01*
X114049116Y-74753595D01*
X114049116Y-74753595D01*
G37*
G36*
X115749116Y-74378595D02*
G01*
X115778311Y-74387452D01*
X115805223Y-74401837D01*
X115828808Y-74421192D01*
X115848163Y-74444777D01*
X115862548Y-74471689D01*
X115871405Y-74500884D01*
X115875000Y-74537390D01*
X115875000Y-75087610D01*
X115871405Y-75124116D01*
X115862548Y-75153311D01*
X115848163Y-75180223D01*
X115828808Y-75203808D01*
X115805223Y-75223163D01*
X115778311Y-75237548D01*
X115749116Y-75246405D01*
X115712610Y-75250000D01*
X115087390Y-75250000D01*
X115050884Y-75246405D01*
X115021689Y-75237548D01*
X114994777Y-75223163D01*
X114971192Y-75203808D01*
X114951837Y-75180223D01*
X114937452Y-75153311D01*
X114928595Y-75124116D01*
X114925000Y-75087610D01*
X114925000Y-74537390D01*
X114928595Y-74500884D01*
X114937452Y-74471689D01*
X114951837Y-74444777D01*
X114971192Y-74421192D01*
X114994777Y-74401837D01*
X115021689Y-74387452D01*
X115050884Y-74378595D01*
X115087390Y-74375000D01*
X115712610Y-74375000D01*
X115749116Y-74378595D01*
X115749116Y-74378595D01*
G37*
G36*
X105499116Y-73778595D02*
G01*
X105528311Y-73787452D01*
X105555223Y-73801837D01*
X105578808Y-73821192D01*
X105598163Y-73844777D01*
X105612548Y-73871689D01*
X105621405Y-73900884D01*
X105625000Y-73937390D01*
X105625000Y-74487610D01*
X105621405Y-74524116D01*
X105612548Y-74553311D01*
X105598163Y-74580223D01*
X105578808Y-74603808D01*
X105555223Y-74623163D01*
X105528311Y-74637548D01*
X105499116Y-74646405D01*
X105462610Y-74650000D01*
X104837390Y-74650000D01*
X104800884Y-74646405D01*
X104771689Y-74637548D01*
X104744777Y-74623163D01*
X104721192Y-74603808D01*
X104701837Y-74580223D01*
X104687452Y-74553311D01*
X104678595Y-74524116D01*
X104675000Y-74487610D01*
X104675000Y-73937390D01*
X104678595Y-73900884D01*
X104687452Y-73871689D01*
X104701837Y-73844777D01*
X104721192Y-73821192D01*
X104744777Y-73801837D01*
X104771689Y-73787452D01*
X104800884Y-73778595D01*
X104837390Y-73775000D01*
X105462610Y-73775000D01*
X105499116Y-73778595D01*
X105499116Y-73778595D01*
G37*
G36*
X114049116Y-73178595D02*
G01*
X114078311Y-73187452D01*
X114105223Y-73201837D01*
X114128808Y-73221192D01*
X114148163Y-73244777D01*
X114162548Y-73271689D01*
X114171405Y-73300884D01*
X114175000Y-73337390D01*
X114175000Y-73887610D01*
X114171405Y-73924116D01*
X114162548Y-73953311D01*
X114148163Y-73980223D01*
X114128808Y-74003808D01*
X114105223Y-74023163D01*
X114078311Y-74037548D01*
X114049116Y-74046405D01*
X114012610Y-74050000D01*
X113387390Y-74050000D01*
X113350884Y-74046405D01*
X113321689Y-74037548D01*
X113294777Y-74023163D01*
X113271192Y-74003808D01*
X113251837Y-73980223D01*
X113237452Y-73953311D01*
X113228595Y-73924116D01*
X113225000Y-73887610D01*
X113225000Y-73337390D01*
X113228595Y-73300884D01*
X113237452Y-73271689D01*
X113251837Y-73244777D01*
X113271192Y-73221192D01*
X113294777Y-73201837D01*
X113321689Y-73187452D01*
X113350884Y-73178595D01*
X113387390Y-73175000D01*
X114012610Y-73175000D01*
X114049116Y-73178595D01*
X114049116Y-73178595D01*
G37*
G36*
X115524116Y-72428595D02*
G01*
X115553311Y-72437452D01*
X115580223Y-72451837D01*
X115603808Y-72471192D01*
X115623163Y-72494777D01*
X115637548Y-72521689D01*
X115646405Y-72550884D01*
X115650000Y-72587390D01*
X115650000Y-73212610D01*
X115646405Y-73249116D01*
X115637548Y-73278311D01*
X115623163Y-73305223D01*
X115603808Y-73328808D01*
X115580223Y-73348163D01*
X115553311Y-73362548D01*
X115524116Y-73371405D01*
X115487610Y-73375000D01*
X114937390Y-73375000D01*
X114900884Y-73371405D01*
X114871689Y-73362548D01*
X114844777Y-73348163D01*
X114821192Y-73328808D01*
X114801837Y-73305223D01*
X114787452Y-73278311D01*
X114778595Y-73249116D01*
X114775000Y-73212610D01*
X114775000Y-72587390D01*
X114778595Y-72550884D01*
X114787452Y-72521689D01*
X114801837Y-72494777D01*
X114821192Y-72471192D01*
X114844777Y-72451837D01*
X114871689Y-72437452D01*
X114900884Y-72428595D01*
X114937390Y-72425000D01*
X115487610Y-72425000D01*
X115524116Y-72428595D01*
X115524116Y-72428595D01*
G37*
G36*
X117099116Y-72428595D02*
G01*
X117128311Y-72437452D01*
X117155223Y-72451837D01*
X117178808Y-72471192D01*
X117198163Y-72494777D01*
X117212548Y-72521689D01*
X117221405Y-72550884D01*
X117225000Y-72587390D01*
X117225000Y-73212610D01*
X117221405Y-73249116D01*
X117212548Y-73278311D01*
X117198163Y-73305223D01*
X117178808Y-73328808D01*
X117155223Y-73348163D01*
X117128311Y-73362548D01*
X117099116Y-73371405D01*
X117062610Y-73375000D01*
X116512390Y-73375000D01*
X116475884Y-73371405D01*
X116446689Y-73362548D01*
X116419777Y-73348163D01*
X116396192Y-73328808D01*
X116376837Y-73305223D01*
X116362452Y-73278311D01*
X116353595Y-73249116D01*
X116350000Y-73212610D01*
X116350000Y-72587390D01*
X116353595Y-72550884D01*
X116362452Y-72521689D01*
X116376837Y-72494777D01*
X116396192Y-72471192D01*
X116419777Y-72451837D01*
X116446689Y-72437452D01*
X116475884Y-72428595D01*
X116512390Y-72425000D01*
X117062610Y-72425000D01*
X117099116Y-72428595D01*
X117099116Y-72428595D01*
G37*
G36*
X105424116Y-72203595D02*
G01*
X105453311Y-72212452D01*
X105480223Y-72226837D01*
X105503808Y-72246192D01*
X105523163Y-72269777D01*
X105537548Y-72296689D01*
X105546405Y-72325884D01*
X105550000Y-72362390D01*
X105550000Y-72912610D01*
X105546405Y-72949116D01*
X105537548Y-72978311D01*
X105523163Y-73005223D01*
X105503808Y-73028808D01*
X105480223Y-73048163D01*
X105453311Y-73062548D01*
X105424116Y-73071405D01*
X105387610Y-73075000D01*
X104762390Y-73075000D01*
X104725884Y-73071405D01*
X104696689Y-73062548D01*
X104669777Y-73048163D01*
X104646192Y-73028808D01*
X104626837Y-73005223D01*
X104612452Y-72978311D01*
X104603595Y-72949116D01*
X104600000Y-72912610D01*
X104600000Y-72362390D01*
X104603595Y-72325884D01*
X104612452Y-72296689D01*
X104626837Y-72269777D01*
X104646192Y-72246192D01*
X104669777Y-72226837D01*
X104696689Y-72212452D01*
X104725884Y-72203595D01*
X104762390Y-72200000D01*
X105387610Y-72200000D01*
X105424116Y-72203595D01*
X105424116Y-72203595D01*
G37*
G36*
X103924116Y-72203595D02*
G01*
X103953311Y-72212452D01*
X103980223Y-72226837D01*
X104003808Y-72246192D01*
X104023163Y-72269777D01*
X104037548Y-72296689D01*
X104046405Y-72325884D01*
X104050000Y-72362390D01*
X104050000Y-72912610D01*
X104046405Y-72949116D01*
X104037548Y-72978311D01*
X104023163Y-73005223D01*
X104003808Y-73028808D01*
X103980223Y-73048163D01*
X103953311Y-73062548D01*
X103924116Y-73071405D01*
X103887610Y-73075000D01*
X103262390Y-73075000D01*
X103225884Y-73071405D01*
X103196689Y-73062548D01*
X103169777Y-73048163D01*
X103146192Y-73028808D01*
X103126837Y-73005223D01*
X103112452Y-72978311D01*
X103103595Y-72949116D01*
X103100000Y-72912610D01*
X103100000Y-72362390D01*
X103103595Y-72325884D01*
X103112452Y-72296689D01*
X103126837Y-72269777D01*
X103146192Y-72246192D01*
X103169777Y-72226837D01*
X103196689Y-72212452D01*
X103225884Y-72203595D01*
X103262390Y-72200000D01*
X103887610Y-72200000D01*
X103924116Y-72203595D01*
X103924116Y-72203595D01*
G37*
G36*
X116924116Y-70928595D02*
G01*
X116953311Y-70937452D01*
X116980223Y-70951837D01*
X117003808Y-70971192D01*
X117023163Y-70994777D01*
X117037548Y-71021689D01*
X117046405Y-71050884D01*
X117050000Y-71087390D01*
X117050000Y-71712610D01*
X117046405Y-71749116D01*
X117037548Y-71778311D01*
X117023163Y-71805223D01*
X117003808Y-71828808D01*
X116980223Y-71848163D01*
X116953311Y-71862548D01*
X116924116Y-71871405D01*
X116887610Y-71875000D01*
X116337390Y-71875000D01*
X116300884Y-71871405D01*
X116271689Y-71862548D01*
X116244777Y-71848163D01*
X116221192Y-71828808D01*
X116201837Y-71805223D01*
X116187452Y-71778311D01*
X116178595Y-71749116D01*
X116175000Y-71712610D01*
X116175000Y-71087390D01*
X116178595Y-71050884D01*
X116187452Y-71021689D01*
X116201837Y-70994777D01*
X116221192Y-70971192D01*
X116244777Y-70951837D01*
X116271689Y-70937452D01*
X116300884Y-70928595D01*
X116337390Y-70925000D01*
X116887610Y-70925000D01*
X116924116Y-70928595D01*
X116924116Y-70928595D01*
G37*
G36*
X113824116Y-70928595D02*
G01*
X113853311Y-70937452D01*
X113880223Y-70951837D01*
X113903808Y-70971192D01*
X113923163Y-70994777D01*
X113937548Y-71021689D01*
X113946405Y-71050884D01*
X113950000Y-71087390D01*
X113950000Y-71712610D01*
X113946405Y-71749116D01*
X113937548Y-71778311D01*
X113923163Y-71805223D01*
X113903808Y-71828808D01*
X113880223Y-71848163D01*
X113853311Y-71862548D01*
X113824116Y-71871405D01*
X113787610Y-71875000D01*
X113237390Y-71875000D01*
X113200884Y-71871405D01*
X113171689Y-71862548D01*
X113144777Y-71848163D01*
X113121192Y-71828808D01*
X113101837Y-71805223D01*
X113087452Y-71778311D01*
X113078595Y-71749116D01*
X113075000Y-71712610D01*
X113075000Y-71087390D01*
X113078595Y-71050884D01*
X113087452Y-71021689D01*
X113101837Y-70994777D01*
X113121192Y-70971192D01*
X113144777Y-70951837D01*
X113171689Y-70937452D01*
X113200884Y-70928595D01*
X113237390Y-70925000D01*
X113787610Y-70925000D01*
X113824116Y-70928595D01*
X113824116Y-70928595D01*
G37*
G36*
X118499116Y-70928595D02*
G01*
X118528311Y-70937452D01*
X118555223Y-70951837D01*
X118578808Y-70971192D01*
X118598163Y-70994777D01*
X118612548Y-71021689D01*
X118621405Y-71050884D01*
X118625000Y-71087390D01*
X118625000Y-71712610D01*
X118621405Y-71749116D01*
X118612548Y-71778311D01*
X118598163Y-71805223D01*
X118578808Y-71828808D01*
X118555223Y-71848163D01*
X118528311Y-71862548D01*
X118499116Y-71871405D01*
X118462610Y-71875000D01*
X117912390Y-71875000D01*
X117875884Y-71871405D01*
X117846689Y-71862548D01*
X117819777Y-71848163D01*
X117796192Y-71828808D01*
X117776837Y-71805223D01*
X117762452Y-71778311D01*
X117753595Y-71749116D01*
X117750000Y-71712610D01*
X117750000Y-71087390D01*
X117753595Y-71050884D01*
X117762452Y-71021689D01*
X117776837Y-70994777D01*
X117796192Y-70971192D01*
X117819777Y-70951837D01*
X117846689Y-70937452D01*
X117875884Y-70928595D01*
X117912390Y-70925000D01*
X118462610Y-70925000D01*
X118499116Y-70928595D01*
X118499116Y-70928595D01*
G37*
G36*
X115399116Y-70928595D02*
G01*
X115428311Y-70937452D01*
X115455223Y-70951837D01*
X115478808Y-70971192D01*
X115498163Y-70994777D01*
X115512548Y-71021689D01*
X115521405Y-71050884D01*
X115525000Y-71087390D01*
X115525000Y-71712610D01*
X115521405Y-71749116D01*
X115512548Y-71778311D01*
X115498163Y-71805223D01*
X115478808Y-71828808D01*
X115455223Y-71848163D01*
X115428311Y-71862548D01*
X115399116Y-71871405D01*
X115362610Y-71875000D01*
X114812390Y-71875000D01*
X114775884Y-71871405D01*
X114746689Y-71862548D01*
X114719777Y-71848163D01*
X114696192Y-71828808D01*
X114676837Y-71805223D01*
X114662452Y-71778311D01*
X114653595Y-71749116D01*
X114650000Y-71712610D01*
X114650000Y-71087390D01*
X114653595Y-71050884D01*
X114662452Y-71021689D01*
X114676837Y-70994777D01*
X114696192Y-70971192D01*
X114719777Y-70951837D01*
X114746689Y-70937452D01*
X114775884Y-70928595D01*
X114812390Y-70925000D01*
X115362610Y-70925000D01*
X115399116Y-70928595D01*
X115399116Y-70928595D01*
G37*
G36*
X103924116Y-70628595D02*
G01*
X103953311Y-70637452D01*
X103980223Y-70651837D01*
X104003808Y-70671192D01*
X104023163Y-70694777D01*
X104037548Y-70721689D01*
X104046405Y-70750884D01*
X104050000Y-70787390D01*
X104050000Y-71337610D01*
X104046405Y-71374116D01*
X104037548Y-71403311D01*
X104023163Y-71430223D01*
X104003808Y-71453808D01*
X103980223Y-71473163D01*
X103953311Y-71487548D01*
X103924116Y-71496405D01*
X103887610Y-71500000D01*
X103262390Y-71500000D01*
X103225884Y-71496405D01*
X103196689Y-71487548D01*
X103169777Y-71473163D01*
X103146192Y-71453808D01*
X103126837Y-71430223D01*
X103112452Y-71403311D01*
X103103595Y-71374116D01*
X103100000Y-71337610D01*
X103100000Y-70787390D01*
X103103595Y-70750884D01*
X103112452Y-70721689D01*
X103126837Y-70694777D01*
X103146192Y-70671192D01*
X103169777Y-70651837D01*
X103196689Y-70637452D01*
X103225884Y-70628595D01*
X103262390Y-70625000D01*
X103887610Y-70625000D01*
X103924116Y-70628595D01*
X103924116Y-70628595D01*
G37*
G36*
X105424116Y-70628595D02*
G01*
X105453311Y-70637452D01*
X105480223Y-70651837D01*
X105503808Y-70671192D01*
X105523163Y-70694777D01*
X105537548Y-70721689D01*
X105546405Y-70750884D01*
X105550000Y-70787390D01*
X105550000Y-71337610D01*
X105546405Y-71374116D01*
X105537548Y-71403311D01*
X105523163Y-71430223D01*
X105503808Y-71453808D01*
X105480223Y-71473163D01*
X105453311Y-71487548D01*
X105424116Y-71496405D01*
X105387610Y-71500000D01*
X104762390Y-71500000D01*
X104725884Y-71496405D01*
X104696689Y-71487548D01*
X104669777Y-71473163D01*
X104646192Y-71453808D01*
X104626837Y-71430223D01*
X104612452Y-71403311D01*
X104603595Y-71374116D01*
X104600000Y-71337610D01*
X104600000Y-70787390D01*
X104603595Y-70750884D01*
X104612452Y-70721689D01*
X104626837Y-70694777D01*
X104646192Y-70671192D01*
X104669777Y-70651837D01*
X104696689Y-70637452D01*
X104725884Y-70628595D01*
X104762390Y-70625000D01*
X105387610Y-70625000D01*
X105424116Y-70628595D01*
X105424116Y-70628595D01*
G37*
G36*
X112099116Y-69353595D02*
G01*
X112128311Y-69362452D01*
X112155223Y-69376837D01*
X112178808Y-69396192D01*
X112198163Y-69419777D01*
X112212548Y-69446689D01*
X112221405Y-69475884D01*
X112225000Y-69512390D01*
X112225000Y-70062610D01*
X112221405Y-70099116D01*
X112212548Y-70128311D01*
X112198163Y-70155223D01*
X112178808Y-70178808D01*
X112155223Y-70198163D01*
X112128311Y-70212548D01*
X112099116Y-70221405D01*
X112062610Y-70225000D01*
X111437390Y-70225000D01*
X111400884Y-70221405D01*
X111371689Y-70212548D01*
X111344777Y-70198163D01*
X111321192Y-70178808D01*
X111301837Y-70155223D01*
X111287452Y-70128311D01*
X111278595Y-70099116D01*
X111275000Y-70062610D01*
X111275000Y-69512390D01*
X111278595Y-69475884D01*
X111287452Y-69446689D01*
X111301837Y-69419777D01*
X111321192Y-69396192D01*
X111344777Y-69376837D01*
X111371689Y-69362452D01*
X111400884Y-69353595D01*
X111437390Y-69350000D01*
X112062610Y-69350000D01*
X112099116Y-69353595D01*
X112099116Y-69353595D01*
G37*
G36*
X117500000Y-70200000D02*
G01*
X116500000Y-70200000D01*
X116500000Y-68400000D01*
X117500000Y-68400000D01*
X117500000Y-70200000D01*
X117500000Y-70200000D01*
G37*
G36*
X115000000Y-70200000D02*
G01*
X114000000Y-70200000D01*
X114000000Y-68400000D01*
X115000000Y-68400000D01*
X115000000Y-70200000D01*
X115000000Y-70200000D01*
G37*
G36*
X108650000Y-70100000D02*
G01*
X107150000Y-70100000D01*
X107150000Y-67700000D01*
X108650000Y-67700000D01*
X108650000Y-70100000D01*
X108650000Y-70100000D01*
G37*
G36*
X109600000Y-70050000D02*
G01*
X109000000Y-70050000D01*
X109000000Y-69650000D01*
X109600000Y-69650000D01*
X109600000Y-70050000D01*
X109600000Y-70050000D01*
G37*
G36*
X106800000Y-70050000D02*
G01*
X106200000Y-70050000D01*
X106200000Y-69650000D01*
X106800000Y-69650000D01*
X106800000Y-70050000D01*
X106800000Y-70050000D01*
G37*
G36*
X106800000Y-69100000D02*
G01*
X106200000Y-69100000D01*
X106200000Y-68700000D01*
X106800000Y-68700000D01*
X106800000Y-69100000D01*
X106800000Y-69100000D01*
G37*
G36*
X109600000Y-69100000D02*
G01*
X109000000Y-69100000D01*
X109000000Y-68700000D01*
X109600000Y-68700000D01*
X109600000Y-69100000D01*
X109600000Y-69100000D01*
G37*
G36*
X112099116Y-67778595D02*
G01*
X112128311Y-67787452D01*
X112155223Y-67801837D01*
X112178808Y-67821192D01*
X112198163Y-67844777D01*
X112212548Y-67871689D01*
X112221405Y-67900884D01*
X112225000Y-67937390D01*
X112225000Y-68487610D01*
X112221405Y-68524116D01*
X112212548Y-68553311D01*
X112198163Y-68580223D01*
X112178808Y-68603808D01*
X112155223Y-68623163D01*
X112128311Y-68637548D01*
X112099116Y-68646405D01*
X112062610Y-68650000D01*
X111437390Y-68650000D01*
X111400884Y-68646405D01*
X111371689Y-68637548D01*
X111344777Y-68623163D01*
X111321192Y-68603808D01*
X111301837Y-68580223D01*
X111287452Y-68553311D01*
X111278595Y-68524116D01*
X111275000Y-68487610D01*
X111275000Y-67937390D01*
X111278595Y-67900884D01*
X111287452Y-67871689D01*
X111301837Y-67844777D01*
X111321192Y-67821192D01*
X111344777Y-67801837D01*
X111371689Y-67787452D01*
X111400884Y-67778595D01*
X111437390Y-67775000D01*
X112062610Y-67775000D01*
X112099116Y-67778595D01*
X112099116Y-67778595D01*
G37*
G36*
X109600000Y-68150000D02*
G01*
X109000000Y-68150000D01*
X109000000Y-67750000D01*
X109600000Y-67750000D01*
X109600000Y-68150000D01*
X109600000Y-68150000D01*
G37*
G36*
X106800000Y-68150000D02*
G01*
X106200000Y-68150000D01*
X106200000Y-67750000D01*
X106800000Y-67750000D01*
X106800000Y-68150000D01*
X106800000Y-68150000D01*
G37*
G36*
X116699116Y-66678595D02*
G01*
X116728311Y-66687452D01*
X116755223Y-66701837D01*
X116778808Y-66721192D01*
X116798163Y-66744777D01*
X116812548Y-66771689D01*
X116821405Y-66800884D01*
X116825000Y-66837390D01*
X116825000Y-67462610D01*
X116821405Y-67499116D01*
X116812548Y-67528311D01*
X116798163Y-67555223D01*
X116778808Y-67578808D01*
X116755223Y-67598163D01*
X116728311Y-67612548D01*
X116699116Y-67621405D01*
X116662610Y-67625000D01*
X116112390Y-67625000D01*
X116075884Y-67621405D01*
X116046689Y-67612548D01*
X116019777Y-67598163D01*
X115996192Y-67578808D01*
X115976837Y-67555223D01*
X115962452Y-67528311D01*
X115953595Y-67499116D01*
X115950000Y-67462610D01*
X115950000Y-66837390D01*
X115953595Y-66800884D01*
X115962452Y-66771689D01*
X115976837Y-66744777D01*
X115996192Y-66721192D01*
X116019777Y-66701837D01*
X116046689Y-66687452D01*
X116075884Y-66678595D01*
X116112390Y-66675000D01*
X116662610Y-66675000D01*
X116699116Y-66678595D01*
X116699116Y-66678595D01*
G37*
G36*
X115124116Y-66678595D02*
G01*
X115153311Y-66687452D01*
X115180223Y-66701837D01*
X115203808Y-66721192D01*
X115223163Y-66744777D01*
X115237548Y-66771689D01*
X115246405Y-66800884D01*
X115250000Y-66837390D01*
X115250000Y-67462610D01*
X115246405Y-67499116D01*
X115237548Y-67528311D01*
X115223163Y-67555223D01*
X115203808Y-67578808D01*
X115180223Y-67598163D01*
X115153311Y-67612548D01*
X115124116Y-67621405D01*
X115087610Y-67625000D01*
X114537390Y-67625000D01*
X114500884Y-67621405D01*
X114471689Y-67612548D01*
X114444777Y-67598163D01*
X114421192Y-67578808D01*
X114401837Y-67555223D01*
X114387452Y-67528311D01*
X114378595Y-67499116D01*
X114375000Y-67462610D01*
X114375000Y-66837390D01*
X114378595Y-66800884D01*
X114387452Y-66771689D01*
X114401837Y-66744777D01*
X114421192Y-66721192D01*
X114444777Y-66701837D01*
X114471689Y-66687452D01*
X114500884Y-66678595D01*
X114537390Y-66675000D01*
X115087610Y-66675000D01*
X115124116Y-66678595D01*
X115124116Y-66678595D01*
G37*
G36*
X113449116Y-66128595D02*
G01*
X113478311Y-66137452D01*
X113505223Y-66151837D01*
X113528808Y-66171192D01*
X113548163Y-66194777D01*
X113562548Y-66221689D01*
X113571405Y-66250884D01*
X113575000Y-66287390D01*
X113575000Y-66912610D01*
X113571405Y-66949116D01*
X113562548Y-66978311D01*
X113548163Y-67005223D01*
X113528808Y-67028808D01*
X113505223Y-67048163D01*
X113478311Y-67062548D01*
X113449116Y-67071405D01*
X113412610Y-67075000D01*
X112862390Y-67075000D01*
X112825884Y-67071405D01*
X112796689Y-67062548D01*
X112769777Y-67048163D01*
X112746192Y-67028808D01*
X112726837Y-67005223D01*
X112712452Y-66978311D01*
X112703595Y-66949116D01*
X112700000Y-66912610D01*
X112700000Y-66287390D01*
X112703595Y-66250884D01*
X112712452Y-66221689D01*
X112726837Y-66194777D01*
X112746192Y-66171192D01*
X112769777Y-66151837D01*
X112796689Y-66137452D01*
X112825884Y-66128595D01*
X112862390Y-66125000D01*
X113412610Y-66125000D01*
X113449116Y-66128595D01*
X113449116Y-66128595D01*
G37*
G36*
X111874116Y-66128595D02*
G01*
X111903311Y-66137452D01*
X111930223Y-66151837D01*
X111953808Y-66171192D01*
X111973163Y-66194777D01*
X111987548Y-66221689D01*
X111996405Y-66250884D01*
X112000000Y-66287390D01*
X112000000Y-66912610D01*
X111996405Y-66949116D01*
X111987548Y-66978311D01*
X111973163Y-67005223D01*
X111953808Y-67028808D01*
X111930223Y-67048163D01*
X111903311Y-67062548D01*
X111874116Y-67071405D01*
X111837610Y-67075000D01*
X111287390Y-67075000D01*
X111250884Y-67071405D01*
X111221689Y-67062548D01*
X111194777Y-67048163D01*
X111171192Y-67028808D01*
X111151837Y-67005223D01*
X111137452Y-66978311D01*
X111128595Y-66949116D01*
X111125000Y-66912610D01*
X111125000Y-66287390D01*
X111128595Y-66250884D01*
X111137452Y-66221689D01*
X111151837Y-66194777D01*
X111171192Y-66171192D01*
X111194777Y-66151837D01*
X111221689Y-66137452D01*
X111250884Y-66128595D01*
X111287390Y-66125000D01*
X111837610Y-66125000D01*
X111874116Y-66128595D01*
X111874116Y-66128595D01*
G37*
M02*
