G04 #@! TF.GenerationSoftware,KiCad,Pcbnew,6.0.0-rc1-unknown-181ce46~66~ubuntu18.04.1*
G04 #@! TF.CreationDate,2018-09-10T14:50:20+02:00*
G04 #@! TF.ProjectId,weather,776561746865722E6B696361645F7063,1.0*
G04 #@! TF.SameCoordinates,Original*
G04 #@! TF.FileFunction,Soldermask,Top*
G04 #@! TF.FilePolarity,Negative*
%FSLAX46Y46*%
G04 Gerber Fmt 4.6, Leading zero omitted, Abs format (unit mm)*
G04 Created by KiCad (PCBNEW 6.0.0-rc1-unknown-181ce46~66~ubuntu18.04.1) date Mon Sep 10 14:50:20 2018*
%MOMM*%
%LPD*%
G01*
G04 APERTURE LIST*
%ADD10C,2.100000*%
%ADD11C,0.100000*%
%ADD12C,0.975000*%
%ADD13C,0.887400*%
%ADD14C,1.090600*%
%ADD15C,2.400000*%
%ADD16R,1.100000X1.900000*%
%ADD17R,1.500000X1.300000*%
%ADD18R,1.600000X2.500000*%
%ADD19R,0.700000X0.500000*%
%ADD20R,0.350000X0.925000*%
%ADD21R,0.925000X0.350000*%
%ADD22R,3.700000X3.700000*%
%ADD23C,0.254000*%
G04 APERTURE END LIST*
D10*
G04 #@! TO.C,TP1*
X120525000Y-76275000D03*
G04 #@! TD*
D11*
G04 #@! TO.C,R3*
G36*
X104255142Y-75526174D02*
X104278803Y-75529684D01*
X104302007Y-75535496D01*
X104324529Y-75543554D01*
X104346153Y-75553782D01*
X104366670Y-75566079D01*
X104385883Y-75580329D01*
X104403607Y-75596393D01*
X104419671Y-75614117D01*
X104433921Y-75633330D01*
X104446218Y-75653847D01*
X104456446Y-75675471D01*
X104464504Y-75697993D01*
X104470316Y-75721197D01*
X104473826Y-75744858D01*
X104475000Y-75768750D01*
X104475000Y-76331250D01*
X104473826Y-76355142D01*
X104470316Y-76378803D01*
X104464504Y-76402007D01*
X104456446Y-76424529D01*
X104446218Y-76446153D01*
X104433921Y-76466670D01*
X104419671Y-76485883D01*
X104403607Y-76503607D01*
X104385883Y-76519671D01*
X104366670Y-76533921D01*
X104346153Y-76546218D01*
X104324529Y-76556446D01*
X104302007Y-76564504D01*
X104278803Y-76570316D01*
X104255142Y-76573826D01*
X104231250Y-76575000D01*
X103743750Y-76575000D01*
X103719858Y-76573826D01*
X103696197Y-76570316D01*
X103672993Y-76564504D01*
X103650471Y-76556446D01*
X103628847Y-76546218D01*
X103608330Y-76533921D01*
X103589117Y-76519671D01*
X103571393Y-76503607D01*
X103555329Y-76485883D01*
X103541079Y-76466670D01*
X103528782Y-76446153D01*
X103518554Y-76424529D01*
X103510496Y-76402007D01*
X103504684Y-76378803D01*
X103501174Y-76355142D01*
X103500000Y-76331250D01*
X103500000Y-75768750D01*
X103501174Y-75744858D01*
X103504684Y-75721197D01*
X103510496Y-75697993D01*
X103518554Y-75675471D01*
X103528782Y-75653847D01*
X103541079Y-75633330D01*
X103555329Y-75614117D01*
X103571393Y-75596393D01*
X103589117Y-75580329D01*
X103608330Y-75566079D01*
X103628847Y-75553782D01*
X103650471Y-75543554D01*
X103672993Y-75535496D01*
X103696197Y-75529684D01*
X103719858Y-75526174D01*
X103743750Y-75525000D01*
X104231250Y-75525000D01*
X104255142Y-75526174D01*
X104255142Y-75526174D01*
G37*
D12*
X103987500Y-76050000D03*
D11*
G36*
X105830142Y-75526174D02*
X105853803Y-75529684D01*
X105877007Y-75535496D01*
X105899529Y-75543554D01*
X105921153Y-75553782D01*
X105941670Y-75566079D01*
X105960883Y-75580329D01*
X105978607Y-75596393D01*
X105994671Y-75614117D01*
X106008921Y-75633330D01*
X106021218Y-75653847D01*
X106031446Y-75675471D01*
X106039504Y-75697993D01*
X106045316Y-75721197D01*
X106048826Y-75744858D01*
X106050000Y-75768750D01*
X106050000Y-76331250D01*
X106048826Y-76355142D01*
X106045316Y-76378803D01*
X106039504Y-76402007D01*
X106031446Y-76424529D01*
X106021218Y-76446153D01*
X106008921Y-76466670D01*
X105994671Y-76485883D01*
X105978607Y-76503607D01*
X105960883Y-76519671D01*
X105941670Y-76533921D01*
X105921153Y-76546218D01*
X105899529Y-76556446D01*
X105877007Y-76564504D01*
X105853803Y-76570316D01*
X105830142Y-76573826D01*
X105806250Y-76575000D01*
X105318750Y-76575000D01*
X105294858Y-76573826D01*
X105271197Y-76570316D01*
X105247993Y-76564504D01*
X105225471Y-76556446D01*
X105203847Y-76546218D01*
X105183330Y-76533921D01*
X105164117Y-76519671D01*
X105146393Y-76503607D01*
X105130329Y-76485883D01*
X105116079Y-76466670D01*
X105103782Y-76446153D01*
X105093554Y-76424529D01*
X105085496Y-76402007D01*
X105079684Y-76378803D01*
X105076174Y-76355142D01*
X105075000Y-76331250D01*
X105075000Y-75768750D01*
X105076174Y-75744858D01*
X105079684Y-75721197D01*
X105085496Y-75697993D01*
X105093554Y-75675471D01*
X105103782Y-75653847D01*
X105116079Y-75633330D01*
X105130329Y-75614117D01*
X105146393Y-75596393D01*
X105164117Y-75580329D01*
X105183330Y-75566079D01*
X105203847Y-75553782D01*
X105225471Y-75543554D01*
X105247993Y-75535496D01*
X105271197Y-75529684D01*
X105294858Y-75526174D01*
X105318750Y-75525000D01*
X105806250Y-75525000D01*
X105830142Y-75526174D01*
X105830142Y-75526174D01*
G37*
D12*
X105562500Y-76050000D03*
G04 #@! TD*
D11*
G04 #@! TO.C,D1*
G36*
X105855142Y-73526174D02*
X105878803Y-73529684D01*
X105902007Y-73535496D01*
X105924529Y-73543554D01*
X105946153Y-73553782D01*
X105966670Y-73566079D01*
X105985883Y-73580329D01*
X106003607Y-73596393D01*
X106019671Y-73614117D01*
X106033921Y-73633330D01*
X106046218Y-73653847D01*
X106056446Y-73675471D01*
X106064504Y-73697993D01*
X106070316Y-73721197D01*
X106073826Y-73744858D01*
X106075000Y-73768750D01*
X106075000Y-74331250D01*
X106073826Y-74355142D01*
X106070316Y-74378803D01*
X106064504Y-74402007D01*
X106056446Y-74424529D01*
X106046218Y-74446153D01*
X106033921Y-74466670D01*
X106019671Y-74485883D01*
X106003607Y-74503607D01*
X105985883Y-74519671D01*
X105966670Y-74533921D01*
X105946153Y-74546218D01*
X105924529Y-74556446D01*
X105902007Y-74564504D01*
X105878803Y-74570316D01*
X105855142Y-74573826D01*
X105831250Y-74575000D01*
X105343750Y-74575000D01*
X105319858Y-74573826D01*
X105296197Y-74570316D01*
X105272993Y-74564504D01*
X105250471Y-74556446D01*
X105228847Y-74546218D01*
X105208330Y-74533921D01*
X105189117Y-74519671D01*
X105171393Y-74503607D01*
X105155329Y-74485883D01*
X105141079Y-74466670D01*
X105128782Y-74446153D01*
X105118554Y-74424529D01*
X105110496Y-74402007D01*
X105104684Y-74378803D01*
X105101174Y-74355142D01*
X105100000Y-74331250D01*
X105100000Y-73768750D01*
X105101174Y-73744858D01*
X105104684Y-73721197D01*
X105110496Y-73697993D01*
X105118554Y-73675471D01*
X105128782Y-73653847D01*
X105141079Y-73633330D01*
X105155329Y-73614117D01*
X105171393Y-73596393D01*
X105189117Y-73580329D01*
X105208330Y-73566079D01*
X105228847Y-73553782D01*
X105250471Y-73543554D01*
X105272993Y-73535496D01*
X105296197Y-73529684D01*
X105319858Y-73526174D01*
X105343750Y-73525000D01*
X105831250Y-73525000D01*
X105855142Y-73526174D01*
X105855142Y-73526174D01*
G37*
D12*
X105587500Y-74050000D03*
D11*
G36*
X104280142Y-73526174D02*
X104303803Y-73529684D01*
X104327007Y-73535496D01*
X104349529Y-73543554D01*
X104371153Y-73553782D01*
X104391670Y-73566079D01*
X104410883Y-73580329D01*
X104428607Y-73596393D01*
X104444671Y-73614117D01*
X104458921Y-73633330D01*
X104471218Y-73653847D01*
X104481446Y-73675471D01*
X104489504Y-73697993D01*
X104495316Y-73721197D01*
X104498826Y-73744858D01*
X104500000Y-73768750D01*
X104500000Y-74331250D01*
X104498826Y-74355142D01*
X104495316Y-74378803D01*
X104489504Y-74402007D01*
X104481446Y-74424529D01*
X104471218Y-74446153D01*
X104458921Y-74466670D01*
X104444671Y-74485883D01*
X104428607Y-74503607D01*
X104410883Y-74519671D01*
X104391670Y-74533921D01*
X104371153Y-74546218D01*
X104349529Y-74556446D01*
X104327007Y-74564504D01*
X104303803Y-74570316D01*
X104280142Y-74573826D01*
X104256250Y-74575000D01*
X103768750Y-74575000D01*
X103744858Y-74573826D01*
X103721197Y-74570316D01*
X103697993Y-74564504D01*
X103675471Y-74556446D01*
X103653847Y-74546218D01*
X103633330Y-74533921D01*
X103614117Y-74519671D01*
X103596393Y-74503607D01*
X103580329Y-74485883D01*
X103566079Y-74466670D01*
X103553782Y-74446153D01*
X103543554Y-74424529D01*
X103535496Y-74402007D01*
X103529684Y-74378803D01*
X103526174Y-74355142D01*
X103525000Y-74331250D01*
X103525000Y-73768750D01*
X103526174Y-73744858D01*
X103529684Y-73721197D01*
X103535496Y-73697993D01*
X103543554Y-73675471D01*
X103553782Y-73653847D01*
X103566079Y-73633330D01*
X103580329Y-73614117D01*
X103596393Y-73596393D01*
X103614117Y-73580329D01*
X103633330Y-73566079D01*
X103653847Y-73553782D01*
X103675471Y-73543554D01*
X103697993Y-73535496D01*
X103721197Y-73529684D01*
X103744858Y-73526174D01*
X103768750Y-73525000D01*
X104256250Y-73525000D01*
X104280142Y-73526174D01*
X104280142Y-73526174D01*
G37*
D12*
X104012500Y-74050000D03*
G04 #@! TD*
D13*
G04 #@! TO.C,J1*
X105934926Y-83332352D03*
X104835074Y-83967352D03*
X105299926Y-82232500D03*
X104200074Y-82867500D03*
X104664926Y-81132648D03*
X103565074Y-81767648D03*
D14*
X103480000Y-80350295D03*
X105140118Y-85257705D03*
X106899882Y-84241705D03*
G04 #@! TD*
D15*
G04 #@! TO.C,BT1*
X101770000Y-74700000D03*
X101770000Y-77800000D03*
X122570000Y-77800000D03*
X122570000Y-74700000D03*
G04 #@! TD*
D11*
G04 #@! TO.C,C10*
G36*
X117055142Y-72376174D02*
X117078803Y-72379684D01*
X117102007Y-72385496D01*
X117124529Y-72393554D01*
X117146153Y-72403782D01*
X117166670Y-72416079D01*
X117185883Y-72430329D01*
X117203607Y-72446393D01*
X117219671Y-72464117D01*
X117233921Y-72483330D01*
X117246218Y-72503847D01*
X117256446Y-72525471D01*
X117264504Y-72547993D01*
X117270316Y-72571197D01*
X117273826Y-72594858D01*
X117275000Y-72618750D01*
X117275000Y-73181250D01*
X117273826Y-73205142D01*
X117270316Y-73228803D01*
X117264504Y-73252007D01*
X117256446Y-73274529D01*
X117246218Y-73296153D01*
X117233921Y-73316670D01*
X117219671Y-73335883D01*
X117203607Y-73353607D01*
X117185883Y-73369671D01*
X117166670Y-73383921D01*
X117146153Y-73396218D01*
X117124529Y-73406446D01*
X117102007Y-73414504D01*
X117078803Y-73420316D01*
X117055142Y-73423826D01*
X117031250Y-73425000D01*
X116543750Y-73425000D01*
X116519858Y-73423826D01*
X116496197Y-73420316D01*
X116472993Y-73414504D01*
X116450471Y-73406446D01*
X116428847Y-73396218D01*
X116408330Y-73383921D01*
X116389117Y-73369671D01*
X116371393Y-73353607D01*
X116355329Y-73335883D01*
X116341079Y-73316670D01*
X116328782Y-73296153D01*
X116318554Y-73274529D01*
X116310496Y-73252007D01*
X116304684Y-73228803D01*
X116301174Y-73205142D01*
X116300000Y-73181250D01*
X116300000Y-72618750D01*
X116301174Y-72594858D01*
X116304684Y-72571197D01*
X116310496Y-72547993D01*
X116318554Y-72525471D01*
X116328782Y-72503847D01*
X116341079Y-72483330D01*
X116355329Y-72464117D01*
X116371393Y-72446393D01*
X116389117Y-72430329D01*
X116408330Y-72416079D01*
X116428847Y-72403782D01*
X116450471Y-72393554D01*
X116472993Y-72385496D01*
X116496197Y-72379684D01*
X116519858Y-72376174D01*
X116543750Y-72375000D01*
X117031250Y-72375000D01*
X117055142Y-72376174D01*
X117055142Y-72376174D01*
G37*
D12*
X116787500Y-72900000D03*
D11*
G36*
X115480142Y-72376174D02*
X115503803Y-72379684D01*
X115527007Y-72385496D01*
X115549529Y-72393554D01*
X115571153Y-72403782D01*
X115591670Y-72416079D01*
X115610883Y-72430329D01*
X115628607Y-72446393D01*
X115644671Y-72464117D01*
X115658921Y-72483330D01*
X115671218Y-72503847D01*
X115681446Y-72525471D01*
X115689504Y-72547993D01*
X115695316Y-72571197D01*
X115698826Y-72594858D01*
X115700000Y-72618750D01*
X115700000Y-73181250D01*
X115698826Y-73205142D01*
X115695316Y-73228803D01*
X115689504Y-73252007D01*
X115681446Y-73274529D01*
X115671218Y-73296153D01*
X115658921Y-73316670D01*
X115644671Y-73335883D01*
X115628607Y-73353607D01*
X115610883Y-73369671D01*
X115591670Y-73383921D01*
X115571153Y-73396218D01*
X115549529Y-73406446D01*
X115527007Y-73414504D01*
X115503803Y-73420316D01*
X115480142Y-73423826D01*
X115456250Y-73425000D01*
X114968750Y-73425000D01*
X114944858Y-73423826D01*
X114921197Y-73420316D01*
X114897993Y-73414504D01*
X114875471Y-73406446D01*
X114853847Y-73396218D01*
X114833330Y-73383921D01*
X114814117Y-73369671D01*
X114796393Y-73353607D01*
X114780329Y-73335883D01*
X114766079Y-73316670D01*
X114753782Y-73296153D01*
X114743554Y-73274529D01*
X114735496Y-73252007D01*
X114729684Y-73228803D01*
X114726174Y-73205142D01*
X114725000Y-73181250D01*
X114725000Y-72618750D01*
X114726174Y-72594858D01*
X114729684Y-72571197D01*
X114735496Y-72547993D01*
X114743554Y-72525471D01*
X114753782Y-72503847D01*
X114766079Y-72483330D01*
X114780329Y-72464117D01*
X114796393Y-72446393D01*
X114814117Y-72430329D01*
X114833330Y-72416079D01*
X114853847Y-72403782D01*
X114875471Y-72393554D01*
X114897993Y-72385496D01*
X114921197Y-72379684D01*
X114944858Y-72376174D01*
X114968750Y-72375000D01*
X115456250Y-72375000D01*
X115480142Y-72376174D01*
X115480142Y-72376174D01*
G37*
D12*
X115212500Y-72900000D03*
G04 #@! TD*
D11*
G04 #@! TO.C,C11*
G36*
X106005142Y-71701174D02*
X106028803Y-71704684D01*
X106052007Y-71710496D01*
X106074529Y-71718554D01*
X106096153Y-71728782D01*
X106116670Y-71741079D01*
X106135883Y-71755329D01*
X106153607Y-71771393D01*
X106169671Y-71789117D01*
X106183921Y-71808330D01*
X106196218Y-71828847D01*
X106206446Y-71850471D01*
X106214504Y-71872993D01*
X106220316Y-71896197D01*
X106223826Y-71919858D01*
X106225000Y-71943750D01*
X106225000Y-72431250D01*
X106223826Y-72455142D01*
X106220316Y-72478803D01*
X106214504Y-72502007D01*
X106206446Y-72524529D01*
X106196218Y-72546153D01*
X106183921Y-72566670D01*
X106169671Y-72585883D01*
X106153607Y-72603607D01*
X106135883Y-72619671D01*
X106116670Y-72633921D01*
X106096153Y-72646218D01*
X106074529Y-72656446D01*
X106052007Y-72664504D01*
X106028803Y-72670316D01*
X106005142Y-72673826D01*
X105981250Y-72675000D01*
X105418750Y-72675000D01*
X105394858Y-72673826D01*
X105371197Y-72670316D01*
X105347993Y-72664504D01*
X105325471Y-72656446D01*
X105303847Y-72646218D01*
X105283330Y-72633921D01*
X105264117Y-72619671D01*
X105246393Y-72603607D01*
X105230329Y-72585883D01*
X105216079Y-72566670D01*
X105203782Y-72546153D01*
X105193554Y-72524529D01*
X105185496Y-72502007D01*
X105179684Y-72478803D01*
X105176174Y-72455142D01*
X105175000Y-72431250D01*
X105175000Y-71943750D01*
X105176174Y-71919858D01*
X105179684Y-71896197D01*
X105185496Y-71872993D01*
X105193554Y-71850471D01*
X105203782Y-71828847D01*
X105216079Y-71808330D01*
X105230329Y-71789117D01*
X105246393Y-71771393D01*
X105264117Y-71755329D01*
X105283330Y-71741079D01*
X105303847Y-71728782D01*
X105325471Y-71718554D01*
X105347993Y-71710496D01*
X105371197Y-71704684D01*
X105394858Y-71701174D01*
X105418750Y-71700000D01*
X105981250Y-71700000D01*
X106005142Y-71701174D01*
X106005142Y-71701174D01*
G37*
D12*
X105700000Y-72187500D03*
D11*
G36*
X106005142Y-70126174D02*
X106028803Y-70129684D01*
X106052007Y-70135496D01*
X106074529Y-70143554D01*
X106096153Y-70153782D01*
X106116670Y-70166079D01*
X106135883Y-70180329D01*
X106153607Y-70196393D01*
X106169671Y-70214117D01*
X106183921Y-70233330D01*
X106196218Y-70253847D01*
X106206446Y-70275471D01*
X106214504Y-70297993D01*
X106220316Y-70321197D01*
X106223826Y-70344858D01*
X106225000Y-70368750D01*
X106225000Y-70856250D01*
X106223826Y-70880142D01*
X106220316Y-70903803D01*
X106214504Y-70927007D01*
X106206446Y-70949529D01*
X106196218Y-70971153D01*
X106183921Y-70991670D01*
X106169671Y-71010883D01*
X106153607Y-71028607D01*
X106135883Y-71044671D01*
X106116670Y-71058921D01*
X106096153Y-71071218D01*
X106074529Y-71081446D01*
X106052007Y-71089504D01*
X106028803Y-71095316D01*
X106005142Y-71098826D01*
X105981250Y-71100000D01*
X105418750Y-71100000D01*
X105394858Y-71098826D01*
X105371197Y-71095316D01*
X105347993Y-71089504D01*
X105325471Y-71081446D01*
X105303847Y-71071218D01*
X105283330Y-71058921D01*
X105264117Y-71044671D01*
X105246393Y-71028607D01*
X105230329Y-71010883D01*
X105216079Y-70991670D01*
X105203782Y-70971153D01*
X105193554Y-70949529D01*
X105185496Y-70927007D01*
X105179684Y-70903803D01*
X105176174Y-70880142D01*
X105175000Y-70856250D01*
X105175000Y-70368750D01*
X105176174Y-70344858D01*
X105179684Y-70321197D01*
X105185496Y-70297993D01*
X105193554Y-70275471D01*
X105203782Y-70253847D01*
X105216079Y-70233330D01*
X105230329Y-70214117D01*
X105246393Y-70196393D01*
X105264117Y-70180329D01*
X105283330Y-70166079D01*
X105303847Y-70153782D01*
X105325471Y-70143554D01*
X105347993Y-70135496D01*
X105371197Y-70129684D01*
X105394858Y-70126174D01*
X105418750Y-70125000D01*
X105981250Y-70125000D01*
X106005142Y-70126174D01*
X106005142Y-70126174D01*
G37*
D12*
X105700000Y-70612500D03*
G04 #@! TD*
D16*
G04 #@! TO.C,Y2*
X113950000Y-69200000D03*
X116450000Y-69200000D03*
G04 #@! TD*
D17*
G04 #@! TO.C,Y1*
X114200000Y-81950000D03*
X116400000Y-81950000D03*
X116400000Y-80250000D03*
X114200000Y-80250000D03*
G04 #@! TD*
D11*
G04 #@! TO.C,C8*
G36*
X116880142Y-70876174D02*
X116903803Y-70879684D01*
X116927007Y-70885496D01*
X116949529Y-70893554D01*
X116971153Y-70903782D01*
X116991670Y-70916079D01*
X117010883Y-70930329D01*
X117028607Y-70946393D01*
X117044671Y-70964117D01*
X117058921Y-70983330D01*
X117071218Y-71003847D01*
X117081446Y-71025471D01*
X117089504Y-71047993D01*
X117095316Y-71071197D01*
X117098826Y-71094858D01*
X117100000Y-71118750D01*
X117100000Y-71681250D01*
X117098826Y-71705142D01*
X117095316Y-71728803D01*
X117089504Y-71752007D01*
X117081446Y-71774529D01*
X117071218Y-71796153D01*
X117058921Y-71816670D01*
X117044671Y-71835883D01*
X117028607Y-71853607D01*
X117010883Y-71869671D01*
X116991670Y-71883921D01*
X116971153Y-71896218D01*
X116949529Y-71906446D01*
X116927007Y-71914504D01*
X116903803Y-71920316D01*
X116880142Y-71923826D01*
X116856250Y-71925000D01*
X116368750Y-71925000D01*
X116344858Y-71923826D01*
X116321197Y-71920316D01*
X116297993Y-71914504D01*
X116275471Y-71906446D01*
X116253847Y-71896218D01*
X116233330Y-71883921D01*
X116214117Y-71869671D01*
X116196393Y-71853607D01*
X116180329Y-71835883D01*
X116166079Y-71816670D01*
X116153782Y-71796153D01*
X116143554Y-71774529D01*
X116135496Y-71752007D01*
X116129684Y-71728803D01*
X116126174Y-71705142D01*
X116125000Y-71681250D01*
X116125000Y-71118750D01*
X116126174Y-71094858D01*
X116129684Y-71071197D01*
X116135496Y-71047993D01*
X116143554Y-71025471D01*
X116153782Y-71003847D01*
X116166079Y-70983330D01*
X116180329Y-70964117D01*
X116196393Y-70946393D01*
X116214117Y-70930329D01*
X116233330Y-70916079D01*
X116253847Y-70903782D01*
X116275471Y-70893554D01*
X116297993Y-70885496D01*
X116321197Y-70879684D01*
X116344858Y-70876174D01*
X116368750Y-70875000D01*
X116856250Y-70875000D01*
X116880142Y-70876174D01*
X116880142Y-70876174D01*
G37*
D12*
X116612500Y-71400000D03*
D11*
G36*
X118455142Y-70876174D02*
X118478803Y-70879684D01*
X118502007Y-70885496D01*
X118524529Y-70893554D01*
X118546153Y-70903782D01*
X118566670Y-70916079D01*
X118585883Y-70930329D01*
X118603607Y-70946393D01*
X118619671Y-70964117D01*
X118633921Y-70983330D01*
X118646218Y-71003847D01*
X118656446Y-71025471D01*
X118664504Y-71047993D01*
X118670316Y-71071197D01*
X118673826Y-71094858D01*
X118675000Y-71118750D01*
X118675000Y-71681250D01*
X118673826Y-71705142D01*
X118670316Y-71728803D01*
X118664504Y-71752007D01*
X118656446Y-71774529D01*
X118646218Y-71796153D01*
X118633921Y-71816670D01*
X118619671Y-71835883D01*
X118603607Y-71853607D01*
X118585883Y-71869671D01*
X118566670Y-71883921D01*
X118546153Y-71896218D01*
X118524529Y-71906446D01*
X118502007Y-71914504D01*
X118478803Y-71920316D01*
X118455142Y-71923826D01*
X118431250Y-71925000D01*
X117943750Y-71925000D01*
X117919858Y-71923826D01*
X117896197Y-71920316D01*
X117872993Y-71914504D01*
X117850471Y-71906446D01*
X117828847Y-71896218D01*
X117808330Y-71883921D01*
X117789117Y-71869671D01*
X117771393Y-71853607D01*
X117755329Y-71835883D01*
X117741079Y-71816670D01*
X117728782Y-71796153D01*
X117718554Y-71774529D01*
X117710496Y-71752007D01*
X117704684Y-71728803D01*
X117701174Y-71705142D01*
X117700000Y-71681250D01*
X117700000Y-71118750D01*
X117701174Y-71094858D01*
X117704684Y-71071197D01*
X117710496Y-71047993D01*
X117718554Y-71025471D01*
X117728782Y-71003847D01*
X117741079Y-70983330D01*
X117755329Y-70964117D01*
X117771393Y-70946393D01*
X117789117Y-70930329D01*
X117808330Y-70916079D01*
X117828847Y-70903782D01*
X117850471Y-70893554D01*
X117872993Y-70885496D01*
X117896197Y-70879684D01*
X117919858Y-70876174D01*
X117943750Y-70875000D01*
X118431250Y-70875000D01*
X118455142Y-70876174D01*
X118455142Y-70876174D01*
G37*
D12*
X118187500Y-71400000D03*
G04 #@! TD*
D11*
G04 #@! TO.C,C9*
G36*
X116355142Y-66576174D02*
X116378803Y-66579684D01*
X116402007Y-66585496D01*
X116424529Y-66593554D01*
X116446153Y-66603782D01*
X116466670Y-66616079D01*
X116485883Y-66630329D01*
X116503607Y-66646393D01*
X116519671Y-66664117D01*
X116533921Y-66683330D01*
X116546218Y-66703847D01*
X116556446Y-66725471D01*
X116564504Y-66747993D01*
X116570316Y-66771197D01*
X116573826Y-66794858D01*
X116575000Y-66818750D01*
X116575000Y-67381250D01*
X116573826Y-67405142D01*
X116570316Y-67428803D01*
X116564504Y-67452007D01*
X116556446Y-67474529D01*
X116546218Y-67496153D01*
X116533921Y-67516670D01*
X116519671Y-67535883D01*
X116503607Y-67553607D01*
X116485883Y-67569671D01*
X116466670Y-67583921D01*
X116446153Y-67596218D01*
X116424529Y-67606446D01*
X116402007Y-67614504D01*
X116378803Y-67620316D01*
X116355142Y-67623826D01*
X116331250Y-67625000D01*
X115843750Y-67625000D01*
X115819858Y-67623826D01*
X115796197Y-67620316D01*
X115772993Y-67614504D01*
X115750471Y-67606446D01*
X115728847Y-67596218D01*
X115708330Y-67583921D01*
X115689117Y-67569671D01*
X115671393Y-67553607D01*
X115655329Y-67535883D01*
X115641079Y-67516670D01*
X115628782Y-67496153D01*
X115618554Y-67474529D01*
X115610496Y-67452007D01*
X115604684Y-67428803D01*
X115601174Y-67405142D01*
X115600000Y-67381250D01*
X115600000Y-66818750D01*
X115601174Y-66794858D01*
X115604684Y-66771197D01*
X115610496Y-66747993D01*
X115618554Y-66725471D01*
X115628782Y-66703847D01*
X115641079Y-66683330D01*
X115655329Y-66664117D01*
X115671393Y-66646393D01*
X115689117Y-66630329D01*
X115708330Y-66616079D01*
X115728847Y-66603782D01*
X115750471Y-66593554D01*
X115772993Y-66585496D01*
X115796197Y-66579684D01*
X115819858Y-66576174D01*
X115843750Y-66575000D01*
X116331250Y-66575000D01*
X116355142Y-66576174D01*
X116355142Y-66576174D01*
G37*
D12*
X116087500Y-67100000D03*
D11*
G36*
X114780142Y-66576174D02*
X114803803Y-66579684D01*
X114827007Y-66585496D01*
X114849529Y-66593554D01*
X114871153Y-66603782D01*
X114891670Y-66616079D01*
X114910883Y-66630329D01*
X114928607Y-66646393D01*
X114944671Y-66664117D01*
X114958921Y-66683330D01*
X114971218Y-66703847D01*
X114981446Y-66725471D01*
X114989504Y-66747993D01*
X114995316Y-66771197D01*
X114998826Y-66794858D01*
X115000000Y-66818750D01*
X115000000Y-67381250D01*
X114998826Y-67405142D01*
X114995316Y-67428803D01*
X114989504Y-67452007D01*
X114981446Y-67474529D01*
X114971218Y-67496153D01*
X114958921Y-67516670D01*
X114944671Y-67535883D01*
X114928607Y-67553607D01*
X114910883Y-67569671D01*
X114891670Y-67583921D01*
X114871153Y-67596218D01*
X114849529Y-67606446D01*
X114827007Y-67614504D01*
X114803803Y-67620316D01*
X114780142Y-67623826D01*
X114756250Y-67625000D01*
X114268750Y-67625000D01*
X114244858Y-67623826D01*
X114221197Y-67620316D01*
X114197993Y-67614504D01*
X114175471Y-67606446D01*
X114153847Y-67596218D01*
X114133330Y-67583921D01*
X114114117Y-67569671D01*
X114096393Y-67553607D01*
X114080329Y-67535883D01*
X114066079Y-67516670D01*
X114053782Y-67496153D01*
X114043554Y-67474529D01*
X114035496Y-67452007D01*
X114029684Y-67428803D01*
X114026174Y-67405142D01*
X114025000Y-67381250D01*
X114025000Y-66818750D01*
X114026174Y-66794858D01*
X114029684Y-66771197D01*
X114035496Y-66747993D01*
X114043554Y-66725471D01*
X114053782Y-66703847D01*
X114066079Y-66683330D01*
X114080329Y-66664117D01*
X114096393Y-66646393D01*
X114114117Y-66630329D01*
X114133330Y-66616079D01*
X114153847Y-66603782D01*
X114175471Y-66593554D01*
X114197993Y-66585496D01*
X114221197Y-66579684D01*
X114244858Y-66576174D01*
X114268750Y-66575000D01*
X114756250Y-66575000D01*
X114780142Y-66576174D01*
X114780142Y-66576174D01*
G37*
D12*
X114512500Y-67100000D03*
G04 #@! TD*
D18*
G04 #@! TO.C,U2*
X110600000Y-67800000D03*
D19*
X112000000Y-68750000D03*
X112000000Y-67800000D03*
X112000000Y-66850000D03*
X109200000Y-66850000D03*
X109200000Y-67800000D03*
X109200000Y-68750000D03*
G04 #@! TD*
D11*
G04 #@! TO.C,R1*
G36*
X107855142Y-68176174D02*
X107878803Y-68179684D01*
X107902007Y-68185496D01*
X107924529Y-68193554D01*
X107946153Y-68203782D01*
X107966670Y-68216079D01*
X107985883Y-68230329D01*
X108003607Y-68246393D01*
X108019671Y-68264117D01*
X108033921Y-68283330D01*
X108046218Y-68303847D01*
X108056446Y-68325471D01*
X108064504Y-68347993D01*
X108070316Y-68371197D01*
X108073826Y-68394858D01*
X108075000Y-68418750D01*
X108075000Y-68981250D01*
X108073826Y-69005142D01*
X108070316Y-69028803D01*
X108064504Y-69052007D01*
X108056446Y-69074529D01*
X108046218Y-69096153D01*
X108033921Y-69116670D01*
X108019671Y-69135883D01*
X108003607Y-69153607D01*
X107985883Y-69169671D01*
X107966670Y-69183921D01*
X107946153Y-69196218D01*
X107924529Y-69206446D01*
X107902007Y-69214504D01*
X107878803Y-69220316D01*
X107855142Y-69223826D01*
X107831250Y-69225000D01*
X107343750Y-69225000D01*
X107319858Y-69223826D01*
X107296197Y-69220316D01*
X107272993Y-69214504D01*
X107250471Y-69206446D01*
X107228847Y-69196218D01*
X107208330Y-69183921D01*
X107189117Y-69169671D01*
X107171393Y-69153607D01*
X107155329Y-69135883D01*
X107141079Y-69116670D01*
X107128782Y-69096153D01*
X107118554Y-69074529D01*
X107110496Y-69052007D01*
X107104684Y-69028803D01*
X107101174Y-69005142D01*
X107100000Y-68981250D01*
X107100000Y-68418750D01*
X107101174Y-68394858D01*
X107104684Y-68371197D01*
X107110496Y-68347993D01*
X107118554Y-68325471D01*
X107128782Y-68303847D01*
X107141079Y-68283330D01*
X107155329Y-68264117D01*
X107171393Y-68246393D01*
X107189117Y-68230329D01*
X107208330Y-68216079D01*
X107228847Y-68203782D01*
X107250471Y-68193554D01*
X107272993Y-68185496D01*
X107296197Y-68179684D01*
X107319858Y-68176174D01*
X107343750Y-68175000D01*
X107831250Y-68175000D01*
X107855142Y-68176174D01*
X107855142Y-68176174D01*
G37*
D12*
X107587500Y-68700000D03*
D11*
G36*
X106280142Y-68176174D02*
X106303803Y-68179684D01*
X106327007Y-68185496D01*
X106349529Y-68193554D01*
X106371153Y-68203782D01*
X106391670Y-68216079D01*
X106410883Y-68230329D01*
X106428607Y-68246393D01*
X106444671Y-68264117D01*
X106458921Y-68283330D01*
X106471218Y-68303847D01*
X106481446Y-68325471D01*
X106489504Y-68347993D01*
X106495316Y-68371197D01*
X106498826Y-68394858D01*
X106500000Y-68418750D01*
X106500000Y-68981250D01*
X106498826Y-69005142D01*
X106495316Y-69028803D01*
X106489504Y-69052007D01*
X106481446Y-69074529D01*
X106471218Y-69096153D01*
X106458921Y-69116670D01*
X106444671Y-69135883D01*
X106428607Y-69153607D01*
X106410883Y-69169671D01*
X106391670Y-69183921D01*
X106371153Y-69196218D01*
X106349529Y-69206446D01*
X106327007Y-69214504D01*
X106303803Y-69220316D01*
X106280142Y-69223826D01*
X106256250Y-69225000D01*
X105768750Y-69225000D01*
X105744858Y-69223826D01*
X105721197Y-69220316D01*
X105697993Y-69214504D01*
X105675471Y-69206446D01*
X105653847Y-69196218D01*
X105633330Y-69183921D01*
X105614117Y-69169671D01*
X105596393Y-69153607D01*
X105580329Y-69135883D01*
X105566079Y-69116670D01*
X105553782Y-69096153D01*
X105543554Y-69074529D01*
X105535496Y-69052007D01*
X105529684Y-69028803D01*
X105526174Y-69005142D01*
X105525000Y-68981250D01*
X105525000Y-68418750D01*
X105526174Y-68394858D01*
X105529684Y-68371197D01*
X105535496Y-68347993D01*
X105543554Y-68325471D01*
X105553782Y-68303847D01*
X105566079Y-68283330D01*
X105580329Y-68264117D01*
X105596393Y-68246393D01*
X105614117Y-68230329D01*
X105633330Y-68216079D01*
X105653847Y-68203782D01*
X105675471Y-68193554D01*
X105697993Y-68185496D01*
X105721197Y-68179684D01*
X105744858Y-68176174D01*
X105768750Y-68175000D01*
X106256250Y-68175000D01*
X106280142Y-68176174D01*
X106280142Y-68176174D01*
G37*
D12*
X106012500Y-68700000D03*
G04 #@! TD*
D11*
G04 #@! TO.C,R2*
G36*
X108180142Y-69876174D02*
X108203803Y-69879684D01*
X108227007Y-69885496D01*
X108249529Y-69893554D01*
X108271153Y-69903782D01*
X108291670Y-69916079D01*
X108310883Y-69930329D01*
X108328607Y-69946393D01*
X108344671Y-69964117D01*
X108358921Y-69983330D01*
X108371218Y-70003847D01*
X108381446Y-70025471D01*
X108389504Y-70047993D01*
X108395316Y-70071197D01*
X108398826Y-70094858D01*
X108400000Y-70118750D01*
X108400000Y-70681250D01*
X108398826Y-70705142D01*
X108395316Y-70728803D01*
X108389504Y-70752007D01*
X108381446Y-70774529D01*
X108371218Y-70796153D01*
X108358921Y-70816670D01*
X108344671Y-70835883D01*
X108328607Y-70853607D01*
X108310883Y-70869671D01*
X108291670Y-70883921D01*
X108271153Y-70896218D01*
X108249529Y-70906446D01*
X108227007Y-70914504D01*
X108203803Y-70920316D01*
X108180142Y-70923826D01*
X108156250Y-70925000D01*
X107668750Y-70925000D01*
X107644858Y-70923826D01*
X107621197Y-70920316D01*
X107597993Y-70914504D01*
X107575471Y-70906446D01*
X107553847Y-70896218D01*
X107533330Y-70883921D01*
X107514117Y-70869671D01*
X107496393Y-70853607D01*
X107480329Y-70835883D01*
X107466079Y-70816670D01*
X107453782Y-70796153D01*
X107443554Y-70774529D01*
X107435496Y-70752007D01*
X107429684Y-70728803D01*
X107426174Y-70705142D01*
X107425000Y-70681250D01*
X107425000Y-70118750D01*
X107426174Y-70094858D01*
X107429684Y-70071197D01*
X107435496Y-70047993D01*
X107443554Y-70025471D01*
X107453782Y-70003847D01*
X107466079Y-69983330D01*
X107480329Y-69964117D01*
X107496393Y-69946393D01*
X107514117Y-69930329D01*
X107533330Y-69916079D01*
X107553847Y-69903782D01*
X107575471Y-69893554D01*
X107597993Y-69885496D01*
X107621197Y-69879684D01*
X107644858Y-69876174D01*
X107668750Y-69875000D01*
X108156250Y-69875000D01*
X108180142Y-69876174D01*
X108180142Y-69876174D01*
G37*
D12*
X107912500Y-70400000D03*
D11*
G36*
X109755142Y-69876174D02*
X109778803Y-69879684D01*
X109802007Y-69885496D01*
X109824529Y-69893554D01*
X109846153Y-69903782D01*
X109866670Y-69916079D01*
X109885883Y-69930329D01*
X109903607Y-69946393D01*
X109919671Y-69964117D01*
X109933921Y-69983330D01*
X109946218Y-70003847D01*
X109956446Y-70025471D01*
X109964504Y-70047993D01*
X109970316Y-70071197D01*
X109973826Y-70094858D01*
X109975000Y-70118750D01*
X109975000Y-70681250D01*
X109973826Y-70705142D01*
X109970316Y-70728803D01*
X109964504Y-70752007D01*
X109956446Y-70774529D01*
X109946218Y-70796153D01*
X109933921Y-70816670D01*
X109919671Y-70835883D01*
X109903607Y-70853607D01*
X109885883Y-70869671D01*
X109866670Y-70883921D01*
X109846153Y-70896218D01*
X109824529Y-70906446D01*
X109802007Y-70914504D01*
X109778803Y-70920316D01*
X109755142Y-70923826D01*
X109731250Y-70925000D01*
X109243750Y-70925000D01*
X109219858Y-70923826D01*
X109196197Y-70920316D01*
X109172993Y-70914504D01*
X109150471Y-70906446D01*
X109128847Y-70896218D01*
X109108330Y-70883921D01*
X109089117Y-70869671D01*
X109071393Y-70853607D01*
X109055329Y-70835883D01*
X109041079Y-70816670D01*
X109028782Y-70796153D01*
X109018554Y-70774529D01*
X109010496Y-70752007D01*
X109004684Y-70728803D01*
X109001174Y-70705142D01*
X109000000Y-70681250D01*
X109000000Y-70118750D01*
X109001174Y-70094858D01*
X109004684Y-70071197D01*
X109010496Y-70047993D01*
X109018554Y-70025471D01*
X109028782Y-70003847D01*
X109041079Y-69983330D01*
X109055329Y-69964117D01*
X109071393Y-69946393D01*
X109089117Y-69930329D01*
X109108330Y-69916079D01*
X109128847Y-69903782D01*
X109150471Y-69893554D01*
X109172993Y-69885496D01*
X109196197Y-69879684D01*
X109219858Y-69876174D01*
X109243750Y-69875000D01*
X109731250Y-69875000D01*
X109755142Y-69876174D01*
X109755142Y-69876174D01*
G37*
D12*
X109487500Y-70400000D03*
G04 #@! TD*
D11*
G04 #@! TO.C,C1*
G36*
X116255142Y-83176174D02*
X116278803Y-83179684D01*
X116302007Y-83185496D01*
X116324529Y-83193554D01*
X116346153Y-83203782D01*
X116366670Y-83216079D01*
X116385883Y-83230329D01*
X116403607Y-83246393D01*
X116419671Y-83264117D01*
X116433921Y-83283330D01*
X116446218Y-83303847D01*
X116456446Y-83325471D01*
X116464504Y-83347993D01*
X116470316Y-83371197D01*
X116473826Y-83394858D01*
X116475000Y-83418750D01*
X116475000Y-83981250D01*
X116473826Y-84005142D01*
X116470316Y-84028803D01*
X116464504Y-84052007D01*
X116456446Y-84074529D01*
X116446218Y-84096153D01*
X116433921Y-84116670D01*
X116419671Y-84135883D01*
X116403607Y-84153607D01*
X116385883Y-84169671D01*
X116366670Y-84183921D01*
X116346153Y-84196218D01*
X116324529Y-84206446D01*
X116302007Y-84214504D01*
X116278803Y-84220316D01*
X116255142Y-84223826D01*
X116231250Y-84225000D01*
X115743750Y-84225000D01*
X115719858Y-84223826D01*
X115696197Y-84220316D01*
X115672993Y-84214504D01*
X115650471Y-84206446D01*
X115628847Y-84196218D01*
X115608330Y-84183921D01*
X115589117Y-84169671D01*
X115571393Y-84153607D01*
X115555329Y-84135883D01*
X115541079Y-84116670D01*
X115528782Y-84096153D01*
X115518554Y-84074529D01*
X115510496Y-84052007D01*
X115504684Y-84028803D01*
X115501174Y-84005142D01*
X115500000Y-83981250D01*
X115500000Y-83418750D01*
X115501174Y-83394858D01*
X115504684Y-83371197D01*
X115510496Y-83347993D01*
X115518554Y-83325471D01*
X115528782Y-83303847D01*
X115541079Y-83283330D01*
X115555329Y-83264117D01*
X115571393Y-83246393D01*
X115589117Y-83230329D01*
X115608330Y-83216079D01*
X115628847Y-83203782D01*
X115650471Y-83193554D01*
X115672993Y-83185496D01*
X115696197Y-83179684D01*
X115719858Y-83176174D01*
X115743750Y-83175000D01*
X116231250Y-83175000D01*
X116255142Y-83176174D01*
X116255142Y-83176174D01*
G37*
D12*
X115987500Y-83700000D03*
D11*
G36*
X114680142Y-83176174D02*
X114703803Y-83179684D01*
X114727007Y-83185496D01*
X114749529Y-83193554D01*
X114771153Y-83203782D01*
X114791670Y-83216079D01*
X114810883Y-83230329D01*
X114828607Y-83246393D01*
X114844671Y-83264117D01*
X114858921Y-83283330D01*
X114871218Y-83303847D01*
X114881446Y-83325471D01*
X114889504Y-83347993D01*
X114895316Y-83371197D01*
X114898826Y-83394858D01*
X114900000Y-83418750D01*
X114900000Y-83981250D01*
X114898826Y-84005142D01*
X114895316Y-84028803D01*
X114889504Y-84052007D01*
X114881446Y-84074529D01*
X114871218Y-84096153D01*
X114858921Y-84116670D01*
X114844671Y-84135883D01*
X114828607Y-84153607D01*
X114810883Y-84169671D01*
X114791670Y-84183921D01*
X114771153Y-84196218D01*
X114749529Y-84206446D01*
X114727007Y-84214504D01*
X114703803Y-84220316D01*
X114680142Y-84223826D01*
X114656250Y-84225000D01*
X114168750Y-84225000D01*
X114144858Y-84223826D01*
X114121197Y-84220316D01*
X114097993Y-84214504D01*
X114075471Y-84206446D01*
X114053847Y-84196218D01*
X114033330Y-84183921D01*
X114014117Y-84169671D01*
X113996393Y-84153607D01*
X113980329Y-84135883D01*
X113966079Y-84116670D01*
X113953782Y-84096153D01*
X113943554Y-84074529D01*
X113935496Y-84052007D01*
X113929684Y-84028803D01*
X113926174Y-84005142D01*
X113925000Y-83981250D01*
X113925000Y-83418750D01*
X113926174Y-83394858D01*
X113929684Y-83371197D01*
X113935496Y-83347993D01*
X113943554Y-83325471D01*
X113953782Y-83303847D01*
X113966079Y-83283330D01*
X113980329Y-83264117D01*
X113996393Y-83246393D01*
X114014117Y-83230329D01*
X114033330Y-83216079D01*
X114053847Y-83203782D01*
X114075471Y-83193554D01*
X114097993Y-83185496D01*
X114121197Y-83179684D01*
X114144858Y-83176174D01*
X114168750Y-83175000D01*
X114656250Y-83175000D01*
X114680142Y-83176174D01*
X114680142Y-83176174D01*
G37*
D12*
X114412500Y-83700000D03*
G04 #@! TD*
D11*
G04 #@! TO.C,C2*
G36*
X116255142Y-78076174D02*
X116278803Y-78079684D01*
X116302007Y-78085496D01*
X116324529Y-78093554D01*
X116346153Y-78103782D01*
X116366670Y-78116079D01*
X116385883Y-78130329D01*
X116403607Y-78146393D01*
X116419671Y-78164117D01*
X116433921Y-78183330D01*
X116446218Y-78203847D01*
X116456446Y-78225471D01*
X116464504Y-78247993D01*
X116470316Y-78271197D01*
X116473826Y-78294858D01*
X116475000Y-78318750D01*
X116475000Y-78881250D01*
X116473826Y-78905142D01*
X116470316Y-78928803D01*
X116464504Y-78952007D01*
X116456446Y-78974529D01*
X116446218Y-78996153D01*
X116433921Y-79016670D01*
X116419671Y-79035883D01*
X116403607Y-79053607D01*
X116385883Y-79069671D01*
X116366670Y-79083921D01*
X116346153Y-79096218D01*
X116324529Y-79106446D01*
X116302007Y-79114504D01*
X116278803Y-79120316D01*
X116255142Y-79123826D01*
X116231250Y-79125000D01*
X115743750Y-79125000D01*
X115719858Y-79123826D01*
X115696197Y-79120316D01*
X115672993Y-79114504D01*
X115650471Y-79106446D01*
X115628847Y-79096218D01*
X115608330Y-79083921D01*
X115589117Y-79069671D01*
X115571393Y-79053607D01*
X115555329Y-79035883D01*
X115541079Y-79016670D01*
X115528782Y-78996153D01*
X115518554Y-78974529D01*
X115510496Y-78952007D01*
X115504684Y-78928803D01*
X115501174Y-78905142D01*
X115500000Y-78881250D01*
X115500000Y-78318750D01*
X115501174Y-78294858D01*
X115504684Y-78271197D01*
X115510496Y-78247993D01*
X115518554Y-78225471D01*
X115528782Y-78203847D01*
X115541079Y-78183330D01*
X115555329Y-78164117D01*
X115571393Y-78146393D01*
X115589117Y-78130329D01*
X115608330Y-78116079D01*
X115628847Y-78103782D01*
X115650471Y-78093554D01*
X115672993Y-78085496D01*
X115696197Y-78079684D01*
X115719858Y-78076174D01*
X115743750Y-78075000D01*
X116231250Y-78075000D01*
X116255142Y-78076174D01*
X116255142Y-78076174D01*
G37*
D12*
X115987500Y-78600000D03*
D11*
G36*
X114680142Y-78076174D02*
X114703803Y-78079684D01*
X114727007Y-78085496D01*
X114749529Y-78093554D01*
X114771153Y-78103782D01*
X114791670Y-78116079D01*
X114810883Y-78130329D01*
X114828607Y-78146393D01*
X114844671Y-78164117D01*
X114858921Y-78183330D01*
X114871218Y-78203847D01*
X114881446Y-78225471D01*
X114889504Y-78247993D01*
X114895316Y-78271197D01*
X114898826Y-78294858D01*
X114900000Y-78318750D01*
X114900000Y-78881250D01*
X114898826Y-78905142D01*
X114895316Y-78928803D01*
X114889504Y-78952007D01*
X114881446Y-78974529D01*
X114871218Y-78996153D01*
X114858921Y-79016670D01*
X114844671Y-79035883D01*
X114828607Y-79053607D01*
X114810883Y-79069671D01*
X114791670Y-79083921D01*
X114771153Y-79096218D01*
X114749529Y-79106446D01*
X114727007Y-79114504D01*
X114703803Y-79120316D01*
X114680142Y-79123826D01*
X114656250Y-79125000D01*
X114168750Y-79125000D01*
X114144858Y-79123826D01*
X114121197Y-79120316D01*
X114097993Y-79114504D01*
X114075471Y-79106446D01*
X114053847Y-79096218D01*
X114033330Y-79083921D01*
X114014117Y-79069671D01*
X113996393Y-79053607D01*
X113980329Y-79035883D01*
X113966079Y-79016670D01*
X113953782Y-78996153D01*
X113943554Y-78974529D01*
X113935496Y-78952007D01*
X113929684Y-78928803D01*
X113926174Y-78905142D01*
X113925000Y-78881250D01*
X113925000Y-78318750D01*
X113926174Y-78294858D01*
X113929684Y-78271197D01*
X113935496Y-78247993D01*
X113943554Y-78225471D01*
X113953782Y-78203847D01*
X113966079Y-78183330D01*
X113980329Y-78164117D01*
X113996393Y-78146393D01*
X114014117Y-78130329D01*
X114033330Y-78116079D01*
X114053847Y-78103782D01*
X114075471Y-78093554D01*
X114097993Y-78085496D01*
X114121197Y-78079684D01*
X114144858Y-78076174D01*
X114168750Y-78075000D01*
X114656250Y-78075000D01*
X114680142Y-78076174D01*
X114680142Y-78076174D01*
G37*
D12*
X114412500Y-78600000D03*
G04 #@! TD*
D11*
G04 #@! TO.C,C3*
G36*
X115705142Y-75901174D02*
X115728803Y-75904684D01*
X115752007Y-75910496D01*
X115774529Y-75918554D01*
X115796153Y-75928782D01*
X115816670Y-75941079D01*
X115835883Y-75955329D01*
X115853607Y-75971393D01*
X115869671Y-75989117D01*
X115883921Y-76008330D01*
X115896218Y-76028847D01*
X115906446Y-76050471D01*
X115914504Y-76072993D01*
X115920316Y-76096197D01*
X115923826Y-76119858D01*
X115925000Y-76143750D01*
X115925000Y-76631250D01*
X115923826Y-76655142D01*
X115920316Y-76678803D01*
X115914504Y-76702007D01*
X115906446Y-76724529D01*
X115896218Y-76746153D01*
X115883921Y-76766670D01*
X115869671Y-76785883D01*
X115853607Y-76803607D01*
X115835883Y-76819671D01*
X115816670Y-76833921D01*
X115796153Y-76846218D01*
X115774529Y-76856446D01*
X115752007Y-76864504D01*
X115728803Y-76870316D01*
X115705142Y-76873826D01*
X115681250Y-76875000D01*
X115118750Y-76875000D01*
X115094858Y-76873826D01*
X115071197Y-76870316D01*
X115047993Y-76864504D01*
X115025471Y-76856446D01*
X115003847Y-76846218D01*
X114983330Y-76833921D01*
X114964117Y-76819671D01*
X114946393Y-76803607D01*
X114930329Y-76785883D01*
X114916079Y-76766670D01*
X114903782Y-76746153D01*
X114893554Y-76724529D01*
X114885496Y-76702007D01*
X114879684Y-76678803D01*
X114876174Y-76655142D01*
X114875000Y-76631250D01*
X114875000Y-76143750D01*
X114876174Y-76119858D01*
X114879684Y-76096197D01*
X114885496Y-76072993D01*
X114893554Y-76050471D01*
X114903782Y-76028847D01*
X114916079Y-76008330D01*
X114930329Y-75989117D01*
X114946393Y-75971393D01*
X114964117Y-75955329D01*
X114983330Y-75941079D01*
X115003847Y-75928782D01*
X115025471Y-75918554D01*
X115047993Y-75910496D01*
X115071197Y-75904684D01*
X115094858Y-75901174D01*
X115118750Y-75900000D01*
X115681250Y-75900000D01*
X115705142Y-75901174D01*
X115705142Y-75901174D01*
G37*
D12*
X115400000Y-76387500D03*
D11*
G36*
X115705142Y-74326174D02*
X115728803Y-74329684D01*
X115752007Y-74335496D01*
X115774529Y-74343554D01*
X115796153Y-74353782D01*
X115816670Y-74366079D01*
X115835883Y-74380329D01*
X115853607Y-74396393D01*
X115869671Y-74414117D01*
X115883921Y-74433330D01*
X115896218Y-74453847D01*
X115906446Y-74475471D01*
X115914504Y-74497993D01*
X115920316Y-74521197D01*
X115923826Y-74544858D01*
X115925000Y-74568750D01*
X115925000Y-75056250D01*
X115923826Y-75080142D01*
X115920316Y-75103803D01*
X115914504Y-75127007D01*
X115906446Y-75149529D01*
X115896218Y-75171153D01*
X115883921Y-75191670D01*
X115869671Y-75210883D01*
X115853607Y-75228607D01*
X115835883Y-75244671D01*
X115816670Y-75258921D01*
X115796153Y-75271218D01*
X115774529Y-75281446D01*
X115752007Y-75289504D01*
X115728803Y-75295316D01*
X115705142Y-75298826D01*
X115681250Y-75300000D01*
X115118750Y-75300000D01*
X115094858Y-75298826D01*
X115071197Y-75295316D01*
X115047993Y-75289504D01*
X115025471Y-75281446D01*
X115003847Y-75271218D01*
X114983330Y-75258921D01*
X114964117Y-75244671D01*
X114946393Y-75228607D01*
X114930329Y-75210883D01*
X114916079Y-75191670D01*
X114903782Y-75171153D01*
X114893554Y-75149529D01*
X114885496Y-75127007D01*
X114879684Y-75103803D01*
X114876174Y-75080142D01*
X114875000Y-75056250D01*
X114875000Y-74568750D01*
X114876174Y-74544858D01*
X114879684Y-74521197D01*
X114885496Y-74497993D01*
X114893554Y-74475471D01*
X114903782Y-74453847D01*
X114916079Y-74433330D01*
X114930329Y-74414117D01*
X114946393Y-74396393D01*
X114964117Y-74380329D01*
X114983330Y-74366079D01*
X115003847Y-74353782D01*
X115025471Y-74343554D01*
X115047993Y-74335496D01*
X115071197Y-74329684D01*
X115094858Y-74326174D01*
X115118750Y-74325000D01*
X115681250Y-74325000D01*
X115705142Y-74326174D01*
X115705142Y-74326174D01*
G37*
D12*
X115400000Y-74812500D03*
G04 #@! TD*
D11*
G04 #@! TO.C,C4*
G36*
X114005142Y-74701174D02*
X114028803Y-74704684D01*
X114052007Y-74710496D01*
X114074529Y-74718554D01*
X114096153Y-74728782D01*
X114116670Y-74741079D01*
X114135883Y-74755329D01*
X114153607Y-74771393D01*
X114169671Y-74789117D01*
X114183921Y-74808330D01*
X114196218Y-74828847D01*
X114206446Y-74850471D01*
X114214504Y-74872993D01*
X114220316Y-74896197D01*
X114223826Y-74919858D01*
X114225000Y-74943750D01*
X114225000Y-75431250D01*
X114223826Y-75455142D01*
X114220316Y-75478803D01*
X114214504Y-75502007D01*
X114206446Y-75524529D01*
X114196218Y-75546153D01*
X114183921Y-75566670D01*
X114169671Y-75585883D01*
X114153607Y-75603607D01*
X114135883Y-75619671D01*
X114116670Y-75633921D01*
X114096153Y-75646218D01*
X114074529Y-75656446D01*
X114052007Y-75664504D01*
X114028803Y-75670316D01*
X114005142Y-75673826D01*
X113981250Y-75675000D01*
X113418750Y-75675000D01*
X113394858Y-75673826D01*
X113371197Y-75670316D01*
X113347993Y-75664504D01*
X113325471Y-75656446D01*
X113303847Y-75646218D01*
X113283330Y-75633921D01*
X113264117Y-75619671D01*
X113246393Y-75603607D01*
X113230329Y-75585883D01*
X113216079Y-75566670D01*
X113203782Y-75546153D01*
X113193554Y-75524529D01*
X113185496Y-75502007D01*
X113179684Y-75478803D01*
X113176174Y-75455142D01*
X113175000Y-75431250D01*
X113175000Y-74943750D01*
X113176174Y-74919858D01*
X113179684Y-74896197D01*
X113185496Y-74872993D01*
X113193554Y-74850471D01*
X113203782Y-74828847D01*
X113216079Y-74808330D01*
X113230329Y-74789117D01*
X113246393Y-74771393D01*
X113264117Y-74755329D01*
X113283330Y-74741079D01*
X113303847Y-74728782D01*
X113325471Y-74718554D01*
X113347993Y-74710496D01*
X113371197Y-74704684D01*
X113394858Y-74701174D01*
X113418750Y-74700000D01*
X113981250Y-74700000D01*
X114005142Y-74701174D01*
X114005142Y-74701174D01*
G37*
D12*
X113700000Y-75187500D03*
D11*
G36*
X114005142Y-73126174D02*
X114028803Y-73129684D01*
X114052007Y-73135496D01*
X114074529Y-73143554D01*
X114096153Y-73153782D01*
X114116670Y-73166079D01*
X114135883Y-73180329D01*
X114153607Y-73196393D01*
X114169671Y-73214117D01*
X114183921Y-73233330D01*
X114196218Y-73253847D01*
X114206446Y-73275471D01*
X114214504Y-73297993D01*
X114220316Y-73321197D01*
X114223826Y-73344858D01*
X114225000Y-73368750D01*
X114225000Y-73856250D01*
X114223826Y-73880142D01*
X114220316Y-73903803D01*
X114214504Y-73927007D01*
X114206446Y-73949529D01*
X114196218Y-73971153D01*
X114183921Y-73991670D01*
X114169671Y-74010883D01*
X114153607Y-74028607D01*
X114135883Y-74044671D01*
X114116670Y-74058921D01*
X114096153Y-74071218D01*
X114074529Y-74081446D01*
X114052007Y-74089504D01*
X114028803Y-74095316D01*
X114005142Y-74098826D01*
X113981250Y-74100000D01*
X113418750Y-74100000D01*
X113394858Y-74098826D01*
X113371197Y-74095316D01*
X113347993Y-74089504D01*
X113325471Y-74081446D01*
X113303847Y-74071218D01*
X113283330Y-74058921D01*
X113264117Y-74044671D01*
X113246393Y-74028607D01*
X113230329Y-74010883D01*
X113216079Y-73991670D01*
X113203782Y-73971153D01*
X113193554Y-73949529D01*
X113185496Y-73927007D01*
X113179684Y-73903803D01*
X113176174Y-73880142D01*
X113175000Y-73856250D01*
X113175000Y-73368750D01*
X113176174Y-73344858D01*
X113179684Y-73321197D01*
X113185496Y-73297993D01*
X113193554Y-73275471D01*
X113203782Y-73253847D01*
X113216079Y-73233330D01*
X113230329Y-73214117D01*
X113246393Y-73196393D01*
X113264117Y-73180329D01*
X113283330Y-73166079D01*
X113303847Y-73153782D01*
X113325471Y-73143554D01*
X113347993Y-73135496D01*
X113371197Y-73129684D01*
X113394858Y-73126174D01*
X113418750Y-73125000D01*
X113981250Y-73125000D01*
X114005142Y-73126174D01*
X114005142Y-73126174D01*
G37*
D12*
X113700000Y-73612500D03*
G04 #@! TD*
D11*
G04 #@! TO.C,C5*
G36*
X112605142Y-78526174D02*
X112628803Y-78529684D01*
X112652007Y-78535496D01*
X112674529Y-78543554D01*
X112696153Y-78553782D01*
X112716670Y-78566079D01*
X112735883Y-78580329D01*
X112753607Y-78596393D01*
X112769671Y-78614117D01*
X112783921Y-78633330D01*
X112796218Y-78653847D01*
X112806446Y-78675471D01*
X112814504Y-78697993D01*
X112820316Y-78721197D01*
X112823826Y-78744858D01*
X112825000Y-78768750D01*
X112825000Y-79256250D01*
X112823826Y-79280142D01*
X112820316Y-79303803D01*
X112814504Y-79327007D01*
X112806446Y-79349529D01*
X112796218Y-79371153D01*
X112783921Y-79391670D01*
X112769671Y-79410883D01*
X112753607Y-79428607D01*
X112735883Y-79444671D01*
X112716670Y-79458921D01*
X112696153Y-79471218D01*
X112674529Y-79481446D01*
X112652007Y-79489504D01*
X112628803Y-79495316D01*
X112605142Y-79498826D01*
X112581250Y-79500000D01*
X112018750Y-79500000D01*
X111994858Y-79498826D01*
X111971197Y-79495316D01*
X111947993Y-79489504D01*
X111925471Y-79481446D01*
X111903847Y-79471218D01*
X111883330Y-79458921D01*
X111864117Y-79444671D01*
X111846393Y-79428607D01*
X111830329Y-79410883D01*
X111816079Y-79391670D01*
X111803782Y-79371153D01*
X111793554Y-79349529D01*
X111785496Y-79327007D01*
X111779684Y-79303803D01*
X111776174Y-79280142D01*
X111775000Y-79256250D01*
X111775000Y-78768750D01*
X111776174Y-78744858D01*
X111779684Y-78721197D01*
X111785496Y-78697993D01*
X111793554Y-78675471D01*
X111803782Y-78653847D01*
X111816079Y-78633330D01*
X111830329Y-78614117D01*
X111846393Y-78596393D01*
X111864117Y-78580329D01*
X111883330Y-78566079D01*
X111903847Y-78553782D01*
X111925471Y-78543554D01*
X111947993Y-78535496D01*
X111971197Y-78529684D01*
X111994858Y-78526174D01*
X112018750Y-78525000D01*
X112581250Y-78525000D01*
X112605142Y-78526174D01*
X112605142Y-78526174D01*
G37*
D12*
X112300000Y-79012500D03*
D11*
G36*
X112605142Y-80101174D02*
X112628803Y-80104684D01*
X112652007Y-80110496D01*
X112674529Y-80118554D01*
X112696153Y-80128782D01*
X112716670Y-80141079D01*
X112735883Y-80155329D01*
X112753607Y-80171393D01*
X112769671Y-80189117D01*
X112783921Y-80208330D01*
X112796218Y-80228847D01*
X112806446Y-80250471D01*
X112814504Y-80272993D01*
X112820316Y-80296197D01*
X112823826Y-80319858D01*
X112825000Y-80343750D01*
X112825000Y-80831250D01*
X112823826Y-80855142D01*
X112820316Y-80878803D01*
X112814504Y-80902007D01*
X112806446Y-80924529D01*
X112796218Y-80946153D01*
X112783921Y-80966670D01*
X112769671Y-80985883D01*
X112753607Y-81003607D01*
X112735883Y-81019671D01*
X112716670Y-81033921D01*
X112696153Y-81046218D01*
X112674529Y-81056446D01*
X112652007Y-81064504D01*
X112628803Y-81070316D01*
X112605142Y-81073826D01*
X112581250Y-81075000D01*
X112018750Y-81075000D01*
X111994858Y-81073826D01*
X111971197Y-81070316D01*
X111947993Y-81064504D01*
X111925471Y-81056446D01*
X111903847Y-81046218D01*
X111883330Y-81033921D01*
X111864117Y-81019671D01*
X111846393Y-81003607D01*
X111830329Y-80985883D01*
X111816079Y-80966670D01*
X111803782Y-80946153D01*
X111793554Y-80924529D01*
X111785496Y-80902007D01*
X111779684Y-80878803D01*
X111776174Y-80855142D01*
X111775000Y-80831250D01*
X111775000Y-80343750D01*
X111776174Y-80319858D01*
X111779684Y-80296197D01*
X111785496Y-80272993D01*
X111793554Y-80250471D01*
X111803782Y-80228847D01*
X111816079Y-80208330D01*
X111830329Y-80189117D01*
X111846393Y-80171393D01*
X111864117Y-80155329D01*
X111883330Y-80141079D01*
X111903847Y-80128782D01*
X111925471Y-80118554D01*
X111947993Y-80110496D01*
X111971197Y-80104684D01*
X111994858Y-80101174D01*
X112018750Y-80100000D01*
X112581250Y-80100000D01*
X112605142Y-80101174D01*
X112605142Y-80101174D01*
G37*
D12*
X112300000Y-80587500D03*
G04 #@! TD*
D11*
G04 #@! TO.C,C6*
G36*
X115355142Y-70876174D02*
X115378803Y-70879684D01*
X115402007Y-70885496D01*
X115424529Y-70893554D01*
X115446153Y-70903782D01*
X115466670Y-70916079D01*
X115485883Y-70930329D01*
X115503607Y-70946393D01*
X115519671Y-70964117D01*
X115533921Y-70983330D01*
X115546218Y-71003847D01*
X115556446Y-71025471D01*
X115564504Y-71047993D01*
X115570316Y-71071197D01*
X115573826Y-71094858D01*
X115575000Y-71118750D01*
X115575000Y-71681250D01*
X115573826Y-71705142D01*
X115570316Y-71728803D01*
X115564504Y-71752007D01*
X115556446Y-71774529D01*
X115546218Y-71796153D01*
X115533921Y-71816670D01*
X115519671Y-71835883D01*
X115503607Y-71853607D01*
X115485883Y-71869671D01*
X115466670Y-71883921D01*
X115446153Y-71896218D01*
X115424529Y-71906446D01*
X115402007Y-71914504D01*
X115378803Y-71920316D01*
X115355142Y-71923826D01*
X115331250Y-71925000D01*
X114843750Y-71925000D01*
X114819858Y-71923826D01*
X114796197Y-71920316D01*
X114772993Y-71914504D01*
X114750471Y-71906446D01*
X114728847Y-71896218D01*
X114708330Y-71883921D01*
X114689117Y-71869671D01*
X114671393Y-71853607D01*
X114655329Y-71835883D01*
X114641079Y-71816670D01*
X114628782Y-71796153D01*
X114618554Y-71774529D01*
X114610496Y-71752007D01*
X114604684Y-71728803D01*
X114601174Y-71705142D01*
X114600000Y-71681250D01*
X114600000Y-71118750D01*
X114601174Y-71094858D01*
X114604684Y-71071197D01*
X114610496Y-71047993D01*
X114618554Y-71025471D01*
X114628782Y-71003847D01*
X114641079Y-70983330D01*
X114655329Y-70964117D01*
X114671393Y-70946393D01*
X114689117Y-70930329D01*
X114708330Y-70916079D01*
X114728847Y-70903782D01*
X114750471Y-70893554D01*
X114772993Y-70885496D01*
X114796197Y-70879684D01*
X114819858Y-70876174D01*
X114843750Y-70875000D01*
X115331250Y-70875000D01*
X115355142Y-70876174D01*
X115355142Y-70876174D01*
G37*
D12*
X115087500Y-71400000D03*
D11*
G36*
X113780142Y-70876174D02*
X113803803Y-70879684D01*
X113827007Y-70885496D01*
X113849529Y-70893554D01*
X113871153Y-70903782D01*
X113891670Y-70916079D01*
X113910883Y-70930329D01*
X113928607Y-70946393D01*
X113944671Y-70964117D01*
X113958921Y-70983330D01*
X113971218Y-71003847D01*
X113981446Y-71025471D01*
X113989504Y-71047993D01*
X113995316Y-71071197D01*
X113998826Y-71094858D01*
X114000000Y-71118750D01*
X114000000Y-71681250D01*
X113998826Y-71705142D01*
X113995316Y-71728803D01*
X113989504Y-71752007D01*
X113981446Y-71774529D01*
X113971218Y-71796153D01*
X113958921Y-71816670D01*
X113944671Y-71835883D01*
X113928607Y-71853607D01*
X113910883Y-71869671D01*
X113891670Y-71883921D01*
X113871153Y-71896218D01*
X113849529Y-71906446D01*
X113827007Y-71914504D01*
X113803803Y-71920316D01*
X113780142Y-71923826D01*
X113756250Y-71925000D01*
X113268750Y-71925000D01*
X113244858Y-71923826D01*
X113221197Y-71920316D01*
X113197993Y-71914504D01*
X113175471Y-71906446D01*
X113153847Y-71896218D01*
X113133330Y-71883921D01*
X113114117Y-71869671D01*
X113096393Y-71853607D01*
X113080329Y-71835883D01*
X113066079Y-71816670D01*
X113053782Y-71796153D01*
X113043554Y-71774529D01*
X113035496Y-71752007D01*
X113029684Y-71728803D01*
X113026174Y-71705142D01*
X113025000Y-71681250D01*
X113025000Y-71118750D01*
X113026174Y-71094858D01*
X113029684Y-71071197D01*
X113035496Y-71047993D01*
X113043554Y-71025471D01*
X113053782Y-71003847D01*
X113066079Y-70983330D01*
X113080329Y-70964117D01*
X113096393Y-70946393D01*
X113114117Y-70930329D01*
X113133330Y-70916079D01*
X113153847Y-70903782D01*
X113175471Y-70893554D01*
X113197993Y-70885496D01*
X113221197Y-70879684D01*
X113244858Y-70876174D01*
X113268750Y-70875000D01*
X113756250Y-70875000D01*
X113780142Y-70876174D01*
X113780142Y-70876174D01*
G37*
D12*
X113512500Y-71400000D03*
G04 #@! TD*
D11*
G04 #@! TO.C,C7*
G36*
X109080142Y-78476174D02*
X109103803Y-78479684D01*
X109127007Y-78485496D01*
X109149529Y-78493554D01*
X109171153Y-78503782D01*
X109191670Y-78516079D01*
X109210883Y-78530329D01*
X109228607Y-78546393D01*
X109244671Y-78564117D01*
X109258921Y-78583330D01*
X109271218Y-78603847D01*
X109281446Y-78625471D01*
X109289504Y-78647993D01*
X109295316Y-78671197D01*
X109298826Y-78694858D01*
X109300000Y-78718750D01*
X109300000Y-79281250D01*
X109298826Y-79305142D01*
X109295316Y-79328803D01*
X109289504Y-79352007D01*
X109281446Y-79374529D01*
X109271218Y-79396153D01*
X109258921Y-79416670D01*
X109244671Y-79435883D01*
X109228607Y-79453607D01*
X109210883Y-79469671D01*
X109191670Y-79483921D01*
X109171153Y-79496218D01*
X109149529Y-79506446D01*
X109127007Y-79514504D01*
X109103803Y-79520316D01*
X109080142Y-79523826D01*
X109056250Y-79525000D01*
X108568750Y-79525000D01*
X108544858Y-79523826D01*
X108521197Y-79520316D01*
X108497993Y-79514504D01*
X108475471Y-79506446D01*
X108453847Y-79496218D01*
X108433330Y-79483921D01*
X108414117Y-79469671D01*
X108396393Y-79453607D01*
X108380329Y-79435883D01*
X108366079Y-79416670D01*
X108353782Y-79396153D01*
X108343554Y-79374529D01*
X108335496Y-79352007D01*
X108329684Y-79328803D01*
X108326174Y-79305142D01*
X108325000Y-79281250D01*
X108325000Y-78718750D01*
X108326174Y-78694858D01*
X108329684Y-78671197D01*
X108335496Y-78647993D01*
X108343554Y-78625471D01*
X108353782Y-78603847D01*
X108366079Y-78583330D01*
X108380329Y-78564117D01*
X108396393Y-78546393D01*
X108414117Y-78530329D01*
X108433330Y-78516079D01*
X108453847Y-78503782D01*
X108475471Y-78493554D01*
X108497993Y-78485496D01*
X108521197Y-78479684D01*
X108544858Y-78476174D01*
X108568750Y-78475000D01*
X109056250Y-78475000D01*
X109080142Y-78476174D01*
X109080142Y-78476174D01*
G37*
D12*
X108812500Y-79000000D03*
D11*
G36*
X110655142Y-78476174D02*
X110678803Y-78479684D01*
X110702007Y-78485496D01*
X110724529Y-78493554D01*
X110746153Y-78503782D01*
X110766670Y-78516079D01*
X110785883Y-78530329D01*
X110803607Y-78546393D01*
X110819671Y-78564117D01*
X110833921Y-78583330D01*
X110846218Y-78603847D01*
X110856446Y-78625471D01*
X110864504Y-78647993D01*
X110870316Y-78671197D01*
X110873826Y-78694858D01*
X110875000Y-78718750D01*
X110875000Y-79281250D01*
X110873826Y-79305142D01*
X110870316Y-79328803D01*
X110864504Y-79352007D01*
X110856446Y-79374529D01*
X110846218Y-79396153D01*
X110833921Y-79416670D01*
X110819671Y-79435883D01*
X110803607Y-79453607D01*
X110785883Y-79469671D01*
X110766670Y-79483921D01*
X110746153Y-79496218D01*
X110724529Y-79506446D01*
X110702007Y-79514504D01*
X110678803Y-79520316D01*
X110655142Y-79523826D01*
X110631250Y-79525000D01*
X110143750Y-79525000D01*
X110119858Y-79523826D01*
X110096197Y-79520316D01*
X110072993Y-79514504D01*
X110050471Y-79506446D01*
X110028847Y-79496218D01*
X110008330Y-79483921D01*
X109989117Y-79469671D01*
X109971393Y-79453607D01*
X109955329Y-79435883D01*
X109941079Y-79416670D01*
X109928782Y-79396153D01*
X109918554Y-79374529D01*
X109910496Y-79352007D01*
X109904684Y-79328803D01*
X109901174Y-79305142D01*
X109900000Y-79281250D01*
X109900000Y-78718750D01*
X109901174Y-78694858D01*
X109904684Y-78671197D01*
X109910496Y-78647993D01*
X109918554Y-78625471D01*
X109928782Y-78603847D01*
X109941079Y-78583330D01*
X109955329Y-78564117D01*
X109971393Y-78546393D01*
X109989117Y-78530329D01*
X110008330Y-78516079D01*
X110028847Y-78503782D01*
X110050471Y-78493554D01*
X110072993Y-78485496D01*
X110096197Y-78479684D01*
X110119858Y-78476174D01*
X110143750Y-78475000D01*
X110631250Y-78475000D01*
X110655142Y-78476174D01*
X110655142Y-78476174D01*
G37*
D12*
X110387500Y-79000000D03*
G04 #@! TD*
D11*
G04 #@! TO.C,L1*
G36*
X109185142Y-81801174D02*
X109208803Y-81804684D01*
X109232007Y-81810496D01*
X109254529Y-81818554D01*
X109276153Y-81828782D01*
X109296670Y-81841079D01*
X109315883Y-81855329D01*
X109333607Y-81871393D01*
X109349671Y-81889117D01*
X109363921Y-81908330D01*
X109376218Y-81928847D01*
X109386446Y-81950471D01*
X109394504Y-81972993D01*
X109400316Y-81996197D01*
X109403826Y-82019858D01*
X109405000Y-82043750D01*
X109405000Y-82531250D01*
X109403826Y-82555142D01*
X109400316Y-82578803D01*
X109394504Y-82602007D01*
X109386446Y-82624529D01*
X109376218Y-82646153D01*
X109363921Y-82666670D01*
X109349671Y-82685883D01*
X109333607Y-82703607D01*
X109315883Y-82719671D01*
X109296670Y-82733921D01*
X109276153Y-82746218D01*
X109254529Y-82756446D01*
X109232007Y-82764504D01*
X109208803Y-82770316D01*
X109185142Y-82773826D01*
X109161250Y-82775000D01*
X108598750Y-82775000D01*
X108574858Y-82773826D01*
X108551197Y-82770316D01*
X108527993Y-82764504D01*
X108505471Y-82756446D01*
X108483847Y-82746218D01*
X108463330Y-82733921D01*
X108444117Y-82719671D01*
X108426393Y-82703607D01*
X108410329Y-82685883D01*
X108396079Y-82666670D01*
X108383782Y-82646153D01*
X108373554Y-82624529D01*
X108365496Y-82602007D01*
X108359684Y-82578803D01*
X108356174Y-82555142D01*
X108355000Y-82531250D01*
X108355000Y-82043750D01*
X108356174Y-82019858D01*
X108359684Y-81996197D01*
X108365496Y-81972993D01*
X108373554Y-81950471D01*
X108383782Y-81928847D01*
X108396079Y-81908330D01*
X108410329Y-81889117D01*
X108426393Y-81871393D01*
X108444117Y-81855329D01*
X108463330Y-81841079D01*
X108483847Y-81828782D01*
X108505471Y-81818554D01*
X108527993Y-81810496D01*
X108551197Y-81804684D01*
X108574858Y-81801174D01*
X108598750Y-81800000D01*
X109161250Y-81800000D01*
X109185142Y-81801174D01*
X109185142Y-81801174D01*
G37*
D12*
X108880000Y-82287500D03*
D11*
G36*
X109185142Y-80226174D02*
X109208803Y-80229684D01*
X109232007Y-80235496D01*
X109254529Y-80243554D01*
X109276153Y-80253782D01*
X109296670Y-80266079D01*
X109315883Y-80280329D01*
X109333607Y-80296393D01*
X109349671Y-80314117D01*
X109363921Y-80333330D01*
X109376218Y-80353847D01*
X109386446Y-80375471D01*
X109394504Y-80397993D01*
X109400316Y-80421197D01*
X109403826Y-80444858D01*
X109405000Y-80468750D01*
X109405000Y-80956250D01*
X109403826Y-80980142D01*
X109400316Y-81003803D01*
X109394504Y-81027007D01*
X109386446Y-81049529D01*
X109376218Y-81071153D01*
X109363921Y-81091670D01*
X109349671Y-81110883D01*
X109333607Y-81128607D01*
X109315883Y-81144671D01*
X109296670Y-81158921D01*
X109276153Y-81171218D01*
X109254529Y-81181446D01*
X109232007Y-81189504D01*
X109208803Y-81195316D01*
X109185142Y-81198826D01*
X109161250Y-81200000D01*
X108598750Y-81200000D01*
X108574858Y-81198826D01*
X108551197Y-81195316D01*
X108527993Y-81189504D01*
X108505471Y-81181446D01*
X108483847Y-81171218D01*
X108463330Y-81158921D01*
X108444117Y-81144671D01*
X108426393Y-81128607D01*
X108410329Y-81110883D01*
X108396079Y-81091670D01*
X108383782Y-81071153D01*
X108373554Y-81049529D01*
X108365496Y-81027007D01*
X108359684Y-81003803D01*
X108356174Y-80980142D01*
X108355000Y-80956250D01*
X108355000Y-80468750D01*
X108356174Y-80444858D01*
X108359684Y-80421197D01*
X108365496Y-80397993D01*
X108373554Y-80375471D01*
X108383782Y-80353847D01*
X108396079Y-80333330D01*
X108410329Y-80314117D01*
X108426393Y-80296393D01*
X108444117Y-80280329D01*
X108463330Y-80266079D01*
X108483847Y-80253782D01*
X108505471Y-80243554D01*
X108527993Y-80235496D01*
X108551197Y-80229684D01*
X108574858Y-80226174D01*
X108598750Y-80225000D01*
X109161250Y-80225000D01*
X109185142Y-80226174D01*
X109185142Y-80226174D01*
G37*
D12*
X108880000Y-80712500D03*
G04 #@! TD*
D20*
G04 #@! TO.C,U1*
X111375000Y-72062500D03*
D21*
X107187500Y-72750000D03*
D20*
X107875000Y-76937500D03*
D21*
X112062500Y-76250000D03*
D22*
X109625000Y-74500000D03*
D20*
X110875000Y-72062500D03*
X110375000Y-72062500D03*
X109875000Y-72062500D03*
X109375000Y-72062500D03*
X108875000Y-72062500D03*
X108375000Y-72062500D03*
X107875000Y-72062500D03*
D21*
X107187500Y-73250000D03*
X107187500Y-73750000D03*
X107187500Y-74250000D03*
X107187500Y-74750000D03*
X107187500Y-75250000D03*
X107187500Y-75750000D03*
X107187500Y-76250000D03*
D20*
X108375000Y-76937500D03*
X108875000Y-76937500D03*
X109375000Y-76937500D03*
X109875000Y-76937500D03*
X110375000Y-76937500D03*
X110875000Y-76937500D03*
X111375000Y-76937500D03*
D21*
X112062500Y-75750000D03*
X112062500Y-75250000D03*
X112062500Y-74750000D03*
X112062500Y-74250000D03*
X112062500Y-73750000D03*
X112062500Y-73250000D03*
X112062500Y-72750000D03*
G04 #@! TD*
D23*
G36*
X125073000Y-89273000D02*
X107627000Y-89273000D01*
X107627000Y-82927000D01*
X111073000Y-82927000D01*
X111073000Y-83700000D01*
X111082667Y-83748601D01*
X111110197Y-83789803D01*
X112710197Y-85389803D01*
X112751399Y-85417333D01*
X112823608Y-85424786D01*
X114673608Y-85074786D01*
X114693017Y-85069493D01*
X115943017Y-84619493D01*
X115964392Y-84609466D01*
X117664392Y-83609466D01*
X117685429Y-83593972D01*
X118785429Y-82593972D01*
X118796950Y-82582035D01*
X119896950Y-81282035D01*
X119913592Y-81256796D01*
X120578490Y-79927000D01*
X125073000Y-79927000D01*
X125073000Y-89273000D01*
X125073000Y-89273000D01*
G37*
X125073000Y-89273000D02*
X107627000Y-89273000D01*
X107627000Y-82927000D01*
X111073000Y-82927000D01*
X111073000Y-83700000D01*
X111082667Y-83748601D01*
X111110197Y-83789803D01*
X112710197Y-85389803D01*
X112751399Y-85417333D01*
X112823608Y-85424786D01*
X114673608Y-85074786D01*
X114693017Y-85069493D01*
X115943017Y-84619493D01*
X115964392Y-84609466D01*
X117664392Y-83609466D01*
X117685429Y-83593972D01*
X118785429Y-82593972D01*
X118796950Y-82582035D01*
X119896950Y-81282035D01*
X119913592Y-81256796D01*
X120578490Y-79927000D01*
X125073000Y-79927000D01*
X125073000Y-89273000D01*
M02*
