G04 #@! TF.GenerationSoftware,KiCad,Pcbnew,6.0.0-rc1-unknown-181ce46~66~ubuntu18.04.1*
G04 #@! TF.CreationDate,2018-09-10T14:50:20+02:00*
G04 #@! TF.ProjectId,weather,776561746865722E6B696361645F7063,1.0*
G04 #@! TF.SameCoordinates,Original*
G04 #@! TF.FileFunction,Copper,L2,Bot,Signal*
G04 #@! TF.FilePolarity,Positive*
%FSLAX46Y46*%
G04 Gerber Fmt 4.6, Leading zero omitted, Abs format (unit mm)*
G04 Created by KiCad (PCBNEW 6.0.0-rc1-unknown-181ce46~66~ubuntu18.04.1) date Mon Sep 10 14:50:20 2018*
%MOMM*%
%LPD*%
G01*
G04 APERTURE LIST*
G04 #@! TA.AperFunction,ComponentPad*
%ADD10C,2.000000*%
G04 #@! TD*
G04 #@! TA.AperFunction,ComponentPad*
%ADD11C,2.300000*%
G04 #@! TD*
G04 #@! TA.AperFunction,BGAPad,CuDef*
%ADD12C,17.800000*%
G04 #@! TD*
G04 #@! TA.AperFunction,ViaPad*
%ADD13C,0.800000*%
G04 #@! TD*
G04 #@! TA.AperFunction,Conductor*
%ADD14C,0.600000*%
G04 #@! TD*
G04 #@! TA.AperFunction,Conductor*
%ADD15C,0.100000*%
G04 #@! TD*
G04 APERTURE END LIST*
D10*
G04 #@! TO.P,TP1,1*
G04 #@! TO.N,GNDREF*
X120525000Y-76275000D03*
G04 #@! TD*
D11*
G04 #@! TO.P,BT1,1*
G04 #@! TO.N,+BATT*
X101770000Y-74700000D03*
X101770000Y-77800000D03*
X122570000Y-77800000D03*
X122570000Y-74700000D03*
D12*
G04 #@! TO.P,BT1,2*
G04 #@! TO.N,GNDREF*
X112170000Y-76200000D03*
G04 #@! TD*
D13*
G04 #@! TO.N,GNDREF*
X107050000Y-81050000D03*
X107000000Y-85400000D03*
X113450000Y-67600000D03*
X110800000Y-70050000D03*
X107050000Y-83050000D03*
X111700000Y-80000000D03*
X118950000Y-81400000D03*
X117600000Y-82850000D03*
X115450000Y-84150000D03*
X113100000Y-84750000D03*
X111700000Y-83500000D03*
X108425000Y-75675000D03*
X110875000Y-73250000D03*
X108425000Y-73300000D03*
X110825000Y-75700000D03*
X114500000Y-74475000D03*
X113400000Y-77700000D03*
X119900000Y-79750000D03*
X111700000Y-81800000D03*
X116400000Y-81900000D03*
X114200000Y-80200000D03*
X114550000Y-71400000D03*
X118200000Y-72900000D03*
X118200000Y-69850000D03*
X115200000Y-69200000D03*
X106775000Y-70475000D03*
X109600000Y-74500000D03*
X107000000Y-87050000D03*
X121700000Y-79350000D03*
X104200000Y-70600000D03*
X107315332Y-79465332D03*
X105425000Y-77625000D03*
X102850000Y-76250000D03*
G04 #@! TD*
D14*
G04 #@! TO.N,+BATT*
X102981794Y-70099624D02*
X102856337Y-70267735D01*
X103513875Y-69450507D02*
X103376450Y-69609117D01*
X103654148Y-69294447D02*
X103513875Y-69450507D01*
X103797289Y-69140914D02*
X103654148Y-69294447D01*
X103943133Y-68990086D02*
X103797289Y-69140914D01*
X104091687Y-68841950D02*
X103943133Y-68990086D01*
X104243010Y-68696452D02*
X104091687Y-68841950D01*
X104396894Y-68553793D02*
X104243010Y-68696452D01*
X104553348Y-68413962D02*
X104396894Y-68553793D01*
X104712342Y-68276986D02*
X104553348Y-68413962D01*
X105037642Y-68011866D02*
X104873817Y-68142920D01*
X105203919Y-67883747D02*
X105037642Y-68011866D01*
X105372431Y-67758729D02*
X105203919Y-67883747D01*
X102066297Y-71505034D02*
X101966537Y-71689652D01*
X106611940Y-66972191D02*
X106428853Y-67074797D01*
X102169376Y-71322310D02*
X102066297Y-71505034D01*
X106796822Y-66872961D02*
X106611940Y-66972191D01*
X102275825Y-71141395D02*
X102169376Y-71322310D01*
X106983529Y-66777088D02*
X106796822Y-66872961D01*
X102614586Y-70610849D02*
X102498450Y-70785632D01*
X107553617Y-66510124D02*
X107361959Y-66595654D01*
X102733892Y-70438203D02*
X102614586Y-70610849D01*
X107746765Y-66428113D02*
X107553617Y-66510124D01*
X102856337Y-70267735D02*
X102733892Y-70438203D01*
X107941373Y-66349635D02*
X107746765Y-66428113D01*
X108334772Y-66203351D02*
X108137374Y-66274714D01*
X108533376Y-66135617D02*
X108334772Y-66203351D01*
X108733193Y-66071506D02*
X108533376Y-66135617D01*
X109339155Y-65901157D02*
X109136177Y-65954250D01*
X109543178Y-65851743D02*
X109339155Y-65901157D01*
X118747271Y-67625328D02*
X118574063Y-67506796D01*
X112248327Y-65552589D02*
X112038574Y-65552771D01*
X118918304Y-67747003D02*
X118747271Y-67625328D01*
X112458178Y-65556230D02*
X112248327Y-65552589D01*
X104873817Y-68142920D02*
X104712342Y-68276986D01*
X112877434Y-65574967D02*
X112667884Y-65563689D01*
X101770000Y-72079411D02*
X101770000Y-73073655D01*
X105891286Y-67402337D02*
X105716240Y-67517938D01*
X119417613Y-68130352D02*
X119253492Y-67999528D01*
X101777176Y-72064201D02*
X101770000Y-72079411D01*
X106068512Y-67289877D02*
X105891286Y-67402337D01*
X119579255Y-68264086D02*
X119417613Y-68130352D01*
X106247682Y-67180709D02*
X106068512Y-67289877D01*
X119738523Y-68400817D02*
X119579255Y-68264086D01*
X119895187Y-68540349D02*
X119738523Y-68400817D01*
X111409537Y-65576236D02*
X111200230Y-65591692D01*
X120349748Y-68975899D02*
X120200831Y-68827913D01*
X111619001Y-65564599D02*
X111409537Y-65576236D01*
X120495860Y-69126480D02*
X120349748Y-68975899D01*
X101770000Y-73073655D02*
X101770000Y-74700000D01*
X105716240Y-67517938D02*
X105543194Y-67636800D01*
X119253492Y-67999528D02*
X119087025Y-67871722D01*
X122521001Y-72046222D02*
X122427694Y-71858237D01*
X111828771Y-65556774D02*
X111619001Y-65564599D01*
X120639246Y-69279744D02*
X120495860Y-69126480D01*
X122570000Y-74700000D02*
X122570000Y-72149629D01*
X120779737Y-69435502D02*
X120639246Y-69279744D01*
X120917484Y-69593927D02*
X120779737Y-69435502D01*
X115953305Y-66196767D02*
X115754500Y-66129348D01*
X122230898Y-71487538D02*
X122127458Y-71304914D01*
X111200230Y-65591692D02*
X110991222Y-65610960D01*
X120200831Y-68827913D02*
X120049383Y-68682801D01*
X122127458Y-71304914D02*
X122020788Y-71124339D01*
X105543194Y-67636800D02*
X105372431Y-67758729D01*
X119087025Y-67871722D02*
X118918304Y-67747003D01*
X122570000Y-72149629D02*
X122521001Y-72046222D01*
X112667884Y-65563689D02*
X112458178Y-65556230D01*
X122427694Y-71858237D02*
X122331004Y-71672028D01*
X122331004Y-71672028D02*
X122230898Y-71487538D01*
X109136177Y-65954250D02*
X108934140Y-66011046D01*
X116926773Y-66587378D02*
X116842626Y-66550000D01*
X114127250Y-65722511D02*
X113920183Y-65688449D01*
X118041989Y-67170460D02*
X117860641Y-67064865D01*
X121438729Y-70251634D02*
X121312954Y-70083705D01*
X116150677Y-66267733D02*
X116149206Y-66267204D01*
X120049383Y-68682801D02*
X119895187Y-68540349D01*
X115151438Y-65949042D02*
X114948312Y-65896287D01*
X121052292Y-69754798D02*
X120917484Y-69593927D01*
X121184055Y-69917982D02*
X121052292Y-69754798D01*
X121910741Y-70945562D02*
X121797520Y-70768920D01*
X118398823Y-67391502D02*
X118221409Y-67279354D01*
X121681045Y-70594284D02*
X121561471Y-70421889D01*
X118221409Y-67279354D02*
X118041989Y-67170460D01*
X121561471Y-70421889D02*
X121438729Y-70251634D01*
X108137374Y-66274714D02*
X107941373Y-66349635D01*
X116346871Y-66342336D02*
X116150677Y-66267733D01*
X117860641Y-67064865D02*
X117677443Y-66962615D01*
X121312954Y-70083705D02*
X121184055Y-69917982D01*
X109747924Y-65806084D02*
X109543178Y-65851743D01*
X116149206Y-66267204D02*
X115953305Y-66196767D01*
X117492349Y-66863684D02*
X117305480Y-66768138D01*
X110782719Y-65634017D02*
X110574552Y-65660883D01*
X122020788Y-71124339D02*
X121910741Y-70945562D01*
X117305480Y-66768138D02*
X117116982Y-66676049D01*
X110574552Y-65660883D02*
X110366908Y-65691535D01*
X117116982Y-66676049D02*
X116926773Y-66587378D01*
X110366908Y-65691535D02*
X110159937Y-65725951D01*
X108934140Y-66011046D02*
X108733193Y-66071506D01*
X116842626Y-66550000D02*
X116782790Y-66550000D01*
X113920183Y-65688449D02*
X113712542Y-65658165D01*
X103376450Y-69609117D02*
X103241934Y-69770205D01*
X116782790Y-66550000D02*
X116734971Y-66502181D01*
X103241934Y-69770205D02*
X103110385Y-69933704D01*
X116734971Y-66502181D02*
X116541665Y-66420498D01*
X103110385Y-69933704D02*
X102981794Y-70099624D01*
X116541665Y-66420498D02*
X116346871Y-66342336D01*
X102498450Y-70785632D02*
X102385540Y-70962464D01*
X107361959Y-66595654D02*
X107171935Y-66684640D01*
X115754500Y-66129348D02*
X115554623Y-66065599D01*
X102385540Y-70962464D02*
X102275825Y-71141395D01*
X107171935Y-66684640D02*
X106983529Y-66777088D01*
X115554623Y-66065599D02*
X115353584Y-66005492D01*
X115353584Y-66005492D02*
X115151438Y-65949042D01*
X114948312Y-65896287D02*
X114744265Y-65847242D01*
X101966537Y-71689652D02*
X101870143Y-71876080D01*
X106428853Y-67074797D02*
X106247682Y-67180709D01*
X114744265Y-65847242D02*
X114539378Y-65801925D01*
X101870143Y-71876080D02*
X101777176Y-72064201D01*
X114539378Y-65801925D02*
X114333685Y-65760343D01*
X114333685Y-65760343D02*
X114127250Y-65722511D01*
X113712542Y-65658165D02*
X113504331Y-65631661D01*
X110159937Y-65725951D02*
X109953623Y-65764130D01*
X113504331Y-65631661D02*
X113295731Y-65608958D01*
X109953623Y-65764130D02*
X109747924Y-65806084D01*
X113295731Y-65608958D02*
X113086764Y-65590060D01*
X118574063Y-67506796D02*
X118398823Y-67391502D01*
X121797520Y-70768920D02*
X121681045Y-70594284D01*
X113086764Y-65590060D02*
X112877434Y-65574967D01*
X117677443Y-66962615D02*
X117492349Y-66863684D01*
X112038574Y-65552771D02*
X111828771Y-65556774D01*
X110991222Y-65610960D02*
X110782719Y-65634017D01*
X101770000Y-74700000D02*
X101770000Y-77800000D01*
X122570000Y-74700000D02*
X122570000Y-77800000D01*
G04 #@! TD*
D15*
G04 #@! TO.N,GNDREF*
G36*
X113241193Y-66156270D02*
X113439846Y-66177890D01*
X113638107Y-66203127D01*
X113835845Y-66231967D01*
X114033057Y-66264408D01*
X114229626Y-66300432D01*
X114425507Y-66340031D01*
X114620583Y-66383178D01*
X114814915Y-66429888D01*
X115008339Y-66480124D01*
X115200852Y-66533883D01*
X115392326Y-66591131D01*
X115582613Y-66651822D01*
X115771933Y-66716025D01*
X115959883Y-66783603D01*
X116146718Y-66854648D01*
X116332207Y-66929077D01*
X116408205Y-66961190D01*
X116568191Y-67068089D01*
X116721770Y-67098638D01*
X116880111Y-67172453D01*
X117059530Y-67260106D01*
X117237493Y-67351099D01*
X117413752Y-67445307D01*
X117588227Y-67542688D01*
X117760920Y-67643244D01*
X117931766Y-67746934D01*
X118100695Y-67853718D01*
X118267584Y-67963518D01*
X118432503Y-68076377D01*
X118595393Y-68192259D01*
X118756071Y-68311033D01*
X118914583Y-68432731D01*
X119070864Y-68557306D01*
X119224796Y-68684661D01*
X119376477Y-68814879D01*
X119525622Y-68947714D01*
X119672475Y-69083381D01*
X119816687Y-69221559D01*
X119958513Y-69362499D01*
X120097647Y-69505889D01*
X120234190Y-69651837D01*
X120367966Y-69800151D01*
X120499153Y-69951031D01*
X120627517Y-70104212D01*
X120752992Y-70259609D01*
X120875737Y-70417420D01*
X120995506Y-70577329D01*
X121112398Y-70739471D01*
X121226255Y-70903622D01*
X121337176Y-71069931D01*
X121444981Y-71238123D01*
X121549771Y-71408360D01*
X121651364Y-71580339D01*
X121749861Y-71754235D01*
X121845189Y-71929920D01*
X121937271Y-72107254D01*
X122020001Y-72273929D01*
X122020001Y-73412468D01*
X121776963Y-73513137D01*
X121383137Y-73906963D01*
X121170000Y-74421523D01*
X121170000Y-74978477D01*
X121383137Y-75493037D01*
X121776963Y-75886863D01*
X122020000Y-75987532D01*
X122020001Y-76512468D01*
X121776963Y-76613137D01*
X121383137Y-77006963D01*
X121170000Y-77521523D01*
X121170000Y-78078477D01*
X121383137Y-78593037D01*
X121776963Y-78986863D01*
X122291523Y-79200000D01*
X122848477Y-79200000D01*
X123363037Y-78986863D01*
X123756863Y-78593037D01*
X123832241Y-78411057D01*
X123781328Y-78916677D01*
X123600396Y-79750000D01*
X120500000Y-79750000D01*
X120484189Y-79752566D01*
X120467240Y-79762227D01*
X120455279Y-79777639D01*
X119757959Y-81172279D01*
X118663948Y-82465201D01*
X117570192Y-83459525D01*
X115878669Y-84454538D01*
X114636807Y-84901608D01*
X112816669Y-85245959D01*
X111250000Y-83679290D01*
X111250000Y-77500000D01*
X111246194Y-77480866D01*
X111235355Y-77464645D01*
X111219134Y-77453806D01*
X111200000Y-77450000D01*
X107500000Y-77450000D01*
X107480866Y-77453806D01*
X107464645Y-77464645D01*
X107453806Y-77480866D01*
X107450000Y-77500000D01*
X107450000Y-83737810D01*
X107322060Y-83609870D01*
X107048131Y-83496405D01*
X106751633Y-83496405D01*
X106477704Y-83609870D01*
X106268047Y-83819527D01*
X106154582Y-84093456D01*
X106154582Y-84389954D01*
X106268047Y-84663883D01*
X106477704Y-84873540D01*
X106751633Y-84987005D01*
X107048131Y-84987005D01*
X107322060Y-84873540D01*
X107450000Y-84745600D01*
X107450000Y-87860944D01*
X106356219Y-87321551D01*
X105233542Y-86599421D01*
X104199829Y-85754842D01*
X103571122Y-85109456D01*
X104394818Y-85109456D01*
X104394818Y-85405954D01*
X104508283Y-85679883D01*
X104717940Y-85889540D01*
X104991869Y-86003005D01*
X105288367Y-86003005D01*
X105562296Y-85889540D01*
X105771953Y-85679883D01*
X105885418Y-85405954D01*
X105885418Y-85109456D01*
X105771953Y-84835527D01*
X105562296Y-84625870D01*
X105288367Y-84512405D01*
X104991869Y-84512405D01*
X104717940Y-84625870D01*
X104508283Y-84835527D01*
X104394818Y-85109456D01*
X103571122Y-85109456D01*
X103268370Y-84798673D01*
X102451140Y-83743205D01*
X101758645Y-82602010D01*
X101199789Y-81389757D01*
X100808142Y-80202046D01*
X102734700Y-80202046D01*
X102734700Y-80498544D01*
X102848165Y-80772473D01*
X103057822Y-80982130D01*
X103331751Y-81095595D01*
X103628249Y-81095595D01*
X103902178Y-80982130D01*
X104111835Y-80772473D01*
X104225300Y-80498544D01*
X104225300Y-80202046D01*
X104111835Y-79928117D01*
X103902178Y-79718460D01*
X103628249Y-79604995D01*
X103331751Y-79604995D01*
X103057822Y-79718460D01*
X102848165Y-79928117D01*
X102734700Y-80202046D01*
X100808142Y-80202046D01*
X100781757Y-80122033D01*
X100509921Y-78815135D01*
X100462823Y-78302573D01*
X100583137Y-78593037D01*
X100976963Y-78986863D01*
X101491523Y-79200000D01*
X102048477Y-79200000D01*
X102563037Y-78986863D01*
X102956863Y-78593037D01*
X103170000Y-78078477D01*
X103170000Y-77521523D01*
X102956863Y-77006963D01*
X102563037Y-76613137D01*
X102320000Y-76512468D01*
X102320000Y-75987532D01*
X102563037Y-75886863D01*
X102956863Y-75493037D01*
X103170000Y-74978477D01*
X103170000Y-74421523D01*
X102956863Y-73906963D01*
X102563037Y-73513137D01*
X102320000Y-73412468D01*
X102320000Y-72207205D01*
X102360993Y-72124255D01*
X102452795Y-71946708D01*
X102547796Y-71770897D01*
X102645940Y-71596921D01*
X102747338Y-71424590D01*
X102851810Y-71254211D01*
X102959309Y-71085854D01*
X103069908Y-70919405D01*
X103183499Y-70755028D01*
X103300117Y-70592671D01*
X103419599Y-70432567D01*
X103542045Y-70274576D01*
X103667335Y-70118857D01*
X103795413Y-69965479D01*
X103926274Y-69814445D01*
X104059844Y-69665844D01*
X104196151Y-69519640D01*
X104335035Y-69376010D01*
X104476523Y-69234920D01*
X104620602Y-69096387D01*
X104767144Y-68960536D01*
X104916152Y-68827359D01*
X105067528Y-68696948D01*
X105221283Y-68569290D01*
X105377304Y-68444479D01*
X105535633Y-68322484D01*
X105696132Y-68203411D01*
X105858709Y-68087327D01*
X106023513Y-67974126D01*
X106190195Y-67864049D01*
X106358959Y-67756958D01*
X106529581Y-67652998D01*
X106702118Y-67552134D01*
X106876471Y-67454423D01*
X107052509Y-67359940D01*
X107230312Y-67268639D01*
X107409728Y-67180602D01*
X107590649Y-67095879D01*
X107773183Y-67014421D01*
X107957142Y-66936312D01*
X108142420Y-66861596D01*
X108150000Y-66858699D01*
X108150000Y-69600000D01*
X108153806Y-69619134D01*
X108164645Y-69635355D01*
X108180866Y-69646194D01*
X108200000Y-69650000D01*
X113000000Y-69650000D01*
X113019134Y-69646194D01*
X113035355Y-69635355D01*
X113046194Y-69619134D01*
X113050000Y-69600000D01*
X113050000Y-66138979D01*
X113241193Y-66156270D01*
X113241193Y-66156270D01*
G37*
X113241193Y-66156270D02*
X113439846Y-66177890D01*
X113638107Y-66203127D01*
X113835845Y-66231967D01*
X114033057Y-66264408D01*
X114229626Y-66300432D01*
X114425507Y-66340031D01*
X114620583Y-66383178D01*
X114814915Y-66429888D01*
X115008339Y-66480124D01*
X115200852Y-66533883D01*
X115392326Y-66591131D01*
X115582613Y-66651822D01*
X115771933Y-66716025D01*
X115959883Y-66783603D01*
X116146718Y-66854648D01*
X116332207Y-66929077D01*
X116408205Y-66961190D01*
X116568191Y-67068089D01*
X116721770Y-67098638D01*
X116880111Y-67172453D01*
X117059530Y-67260106D01*
X117237493Y-67351099D01*
X117413752Y-67445307D01*
X117588227Y-67542688D01*
X117760920Y-67643244D01*
X117931766Y-67746934D01*
X118100695Y-67853718D01*
X118267584Y-67963518D01*
X118432503Y-68076377D01*
X118595393Y-68192259D01*
X118756071Y-68311033D01*
X118914583Y-68432731D01*
X119070864Y-68557306D01*
X119224796Y-68684661D01*
X119376477Y-68814879D01*
X119525622Y-68947714D01*
X119672475Y-69083381D01*
X119816687Y-69221559D01*
X119958513Y-69362499D01*
X120097647Y-69505889D01*
X120234190Y-69651837D01*
X120367966Y-69800151D01*
X120499153Y-69951031D01*
X120627517Y-70104212D01*
X120752992Y-70259609D01*
X120875737Y-70417420D01*
X120995506Y-70577329D01*
X121112398Y-70739471D01*
X121226255Y-70903622D01*
X121337176Y-71069931D01*
X121444981Y-71238123D01*
X121549771Y-71408360D01*
X121651364Y-71580339D01*
X121749861Y-71754235D01*
X121845189Y-71929920D01*
X121937271Y-72107254D01*
X122020001Y-72273929D01*
X122020001Y-73412468D01*
X121776963Y-73513137D01*
X121383137Y-73906963D01*
X121170000Y-74421523D01*
X121170000Y-74978477D01*
X121383137Y-75493037D01*
X121776963Y-75886863D01*
X122020000Y-75987532D01*
X122020001Y-76512468D01*
X121776963Y-76613137D01*
X121383137Y-77006963D01*
X121170000Y-77521523D01*
X121170000Y-78078477D01*
X121383137Y-78593037D01*
X121776963Y-78986863D01*
X122291523Y-79200000D01*
X122848477Y-79200000D01*
X123363037Y-78986863D01*
X123756863Y-78593037D01*
X123832241Y-78411057D01*
X123781328Y-78916677D01*
X123600396Y-79750000D01*
X120500000Y-79750000D01*
X120484189Y-79752566D01*
X120467240Y-79762227D01*
X120455279Y-79777639D01*
X119757959Y-81172279D01*
X118663948Y-82465201D01*
X117570192Y-83459525D01*
X115878669Y-84454538D01*
X114636807Y-84901608D01*
X112816669Y-85245959D01*
X111250000Y-83679290D01*
X111250000Y-77500000D01*
X111246194Y-77480866D01*
X111235355Y-77464645D01*
X111219134Y-77453806D01*
X111200000Y-77450000D01*
X107500000Y-77450000D01*
X107480866Y-77453806D01*
X107464645Y-77464645D01*
X107453806Y-77480866D01*
X107450000Y-77500000D01*
X107450000Y-83737810D01*
X107322060Y-83609870D01*
X107048131Y-83496405D01*
X106751633Y-83496405D01*
X106477704Y-83609870D01*
X106268047Y-83819527D01*
X106154582Y-84093456D01*
X106154582Y-84389954D01*
X106268047Y-84663883D01*
X106477704Y-84873540D01*
X106751633Y-84987005D01*
X107048131Y-84987005D01*
X107322060Y-84873540D01*
X107450000Y-84745600D01*
X107450000Y-87860944D01*
X106356219Y-87321551D01*
X105233542Y-86599421D01*
X104199829Y-85754842D01*
X103571122Y-85109456D01*
X104394818Y-85109456D01*
X104394818Y-85405954D01*
X104508283Y-85679883D01*
X104717940Y-85889540D01*
X104991869Y-86003005D01*
X105288367Y-86003005D01*
X105562296Y-85889540D01*
X105771953Y-85679883D01*
X105885418Y-85405954D01*
X105885418Y-85109456D01*
X105771953Y-84835527D01*
X105562296Y-84625870D01*
X105288367Y-84512405D01*
X104991869Y-84512405D01*
X104717940Y-84625870D01*
X104508283Y-84835527D01*
X104394818Y-85109456D01*
X103571122Y-85109456D01*
X103268370Y-84798673D01*
X102451140Y-83743205D01*
X101758645Y-82602010D01*
X101199789Y-81389757D01*
X100808142Y-80202046D01*
X102734700Y-80202046D01*
X102734700Y-80498544D01*
X102848165Y-80772473D01*
X103057822Y-80982130D01*
X103331751Y-81095595D01*
X103628249Y-81095595D01*
X103902178Y-80982130D01*
X104111835Y-80772473D01*
X104225300Y-80498544D01*
X104225300Y-80202046D01*
X104111835Y-79928117D01*
X103902178Y-79718460D01*
X103628249Y-79604995D01*
X103331751Y-79604995D01*
X103057822Y-79718460D01*
X102848165Y-79928117D01*
X102734700Y-80202046D01*
X100808142Y-80202046D01*
X100781757Y-80122033D01*
X100509921Y-78815135D01*
X100462823Y-78302573D01*
X100583137Y-78593037D01*
X100976963Y-78986863D01*
X101491523Y-79200000D01*
X102048477Y-79200000D01*
X102563037Y-78986863D01*
X102956863Y-78593037D01*
X103170000Y-78078477D01*
X103170000Y-77521523D01*
X102956863Y-77006963D01*
X102563037Y-76613137D01*
X102320000Y-76512468D01*
X102320000Y-75987532D01*
X102563037Y-75886863D01*
X102956863Y-75493037D01*
X103170000Y-74978477D01*
X103170000Y-74421523D01*
X102956863Y-73906963D01*
X102563037Y-73513137D01*
X102320000Y-73412468D01*
X102320000Y-72207205D01*
X102360993Y-72124255D01*
X102452795Y-71946708D01*
X102547796Y-71770897D01*
X102645940Y-71596921D01*
X102747338Y-71424590D01*
X102851810Y-71254211D01*
X102959309Y-71085854D01*
X103069908Y-70919405D01*
X103183499Y-70755028D01*
X103300117Y-70592671D01*
X103419599Y-70432567D01*
X103542045Y-70274576D01*
X103667335Y-70118857D01*
X103795413Y-69965479D01*
X103926274Y-69814445D01*
X104059844Y-69665844D01*
X104196151Y-69519640D01*
X104335035Y-69376010D01*
X104476523Y-69234920D01*
X104620602Y-69096387D01*
X104767144Y-68960536D01*
X104916152Y-68827359D01*
X105067528Y-68696948D01*
X105221283Y-68569290D01*
X105377304Y-68444479D01*
X105535633Y-68322484D01*
X105696132Y-68203411D01*
X105858709Y-68087327D01*
X106023513Y-67974126D01*
X106190195Y-67864049D01*
X106358959Y-67756958D01*
X106529581Y-67652998D01*
X106702118Y-67552134D01*
X106876471Y-67454423D01*
X107052509Y-67359940D01*
X107230312Y-67268639D01*
X107409728Y-67180602D01*
X107590649Y-67095879D01*
X107773183Y-67014421D01*
X107957142Y-66936312D01*
X108142420Y-66861596D01*
X108150000Y-66858699D01*
X108150000Y-69600000D01*
X108153806Y-69619134D01*
X108164645Y-69635355D01*
X108180866Y-69646194D01*
X108200000Y-69650000D01*
X113000000Y-69650000D01*
X113019134Y-69646194D01*
X113035355Y-69635355D01*
X113046194Y-69619134D01*
X113050000Y-69600000D01*
X113050000Y-66138979D01*
X113241193Y-66156270D01*
G04 #@! TD*
M02*
