M48
;DRILL file {KiCad 6.0.0-rc1-unknown-181ce46~66~ubuntu18.04.1} date Mon Sep 10 14:50:23 2018
;FORMAT={-:-/ absolute / inch / decimal}
FMAT,2
INCH,TZ
T1C0.0157
T2C0.0394
%
G90
G05
M72
T1
X4.0492Y-3.002
X4.1024Y-2.7795
X4.1506Y-3.0561
X4.2037Y-2.7746
X4.2126Y-3.3622
X4.2126Y-3.4272
X4.2146Y-3.1909
X4.2146Y-3.2697
X4.225Y-3.1286
X4.2687Y-2.8858
X4.2687Y-2.9793
X4.315Y-2.9331
X4.3622Y-2.7579
X4.3632Y-2.9803
X4.3652Y-2.8839
X4.3976Y-3.1496
X4.3976Y-3.2205
X4.3976Y-3.2874
X4.4528Y-3.3366
X4.4646Y-3.0591
X4.4665Y-2.6614
X4.4961Y-3.1575
X4.5079Y-2.9321
X4.5098Y-2.811
X4.5354Y-2.7244
X4.5453Y-3.313
X4.5827Y-3.2244
X4.6299Y-3.2618
X4.6535Y-2.75
X4.6535Y-2.8701
X4.6831Y-3.2047
X4.7205Y-3.1398
X4.7913Y-3.124
T2
X4.7451Y-3.003
X4.0067Y-2.9409
X4.0067Y-3.063
X4.8256Y-2.9409
X4.8256Y-3.063
T0
M30
