G04 #@! TF.GenerationSoftware,KiCad,Pcbnew,5.1.0-unknown-567bdd9~82~ubuntu18.10.1*
G04 #@! TF.CreationDate,2019-04-01T09:59:20+02:00*
G04 #@! TF.ProjectId,weather,77656174-6865-4722-9e6b-696361645f70,1.2*
G04 #@! TF.SameCoordinates,Original*
G04 #@! TF.FileFunction,Soldermask,Bot*
G04 #@! TF.FilePolarity,Negative*
%FSLAX46Y46*%
G04 Gerber Fmt 4.6, Leading zero omitted, Abs format (unit mm)*
G04 Created by KiCad (PCBNEW 5.1.0-unknown-567bdd9~82~ubuntu18.10.1) date 2019-04-01 09:59:20*
%MOMM*%
%LPD*%
G04 APERTURE LIST*
%ADD10C,0.100000*%
G04 APERTURE END LIST*
D10*
G36*
X105284592Y-84781439D02*
G01*
X105374731Y-84818775D01*
X105455854Y-84872980D01*
X105524843Y-84941969D01*
X105579048Y-85023092D01*
X105616384Y-85113231D01*
X105635418Y-85208922D01*
X105635418Y-85306488D01*
X105616384Y-85402179D01*
X105579048Y-85492318D01*
X105524843Y-85573441D01*
X105455854Y-85642430D01*
X105374731Y-85696635D01*
X105374730Y-85696636D01*
X105374729Y-85696636D01*
X105284592Y-85733971D01*
X105188901Y-85753005D01*
X105091335Y-85753005D01*
X104995644Y-85733971D01*
X104905507Y-85696636D01*
X104905506Y-85696636D01*
X104905505Y-85696635D01*
X104824382Y-85642430D01*
X104755393Y-85573441D01*
X104701188Y-85492318D01*
X104663852Y-85402179D01*
X104644818Y-85306488D01*
X104644818Y-85208922D01*
X104663852Y-85113231D01*
X104701188Y-85023092D01*
X104755393Y-84941969D01*
X104824382Y-84872980D01*
X104905505Y-84818775D01*
X104995644Y-84781439D01*
X105091335Y-84762405D01*
X105188901Y-84762405D01*
X105284592Y-84781439D01*
X105284592Y-84781439D01*
G37*
G36*
X114192880Y-67528015D02*
G01*
X114766034Y-67642022D01*
X116385731Y-68312923D01*
X117843419Y-69286919D01*
X119083081Y-70526581D01*
X120057077Y-71984269D01*
X120705625Y-73550000D01*
X120727978Y-73603967D01*
X121070000Y-75323425D01*
X121070000Y-75369655D01*
X121072402Y-75394041D01*
X121079515Y-75417490D01*
X121091066Y-75439101D01*
X121106611Y-75458043D01*
X121125543Y-75473580D01*
X121162463Y-75498249D01*
X121301751Y-75637537D01*
X121411189Y-75801322D01*
X121486571Y-75983311D01*
X121525000Y-76176509D01*
X121525000Y-76373491D01*
X121486571Y-76566689D01*
X121411189Y-76748678D01*
X121301751Y-76912463D01*
X121162463Y-77051751D01*
X121104561Y-77090440D01*
X121085630Y-77105976D01*
X121070085Y-77124918D01*
X121058534Y-77146529D01*
X121051421Y-77169978D01*
X120859378Y-78135441D01*
X120727978Y-78796034D01*
X120682509Y-78905806D01*
X120181362Y-80115682D01*
X120057077Y-80415731D01*
X119083081Y-81873419D01*
X117843419Y-83113081D01*
X116385731Y-84087077D01*
X114766034Y-84757978D01*
X114192880Y-84871985D01*
X113046575Y-85100000D01*
X111293425Y-85100000D01*
X110147120Y-84871985D01*
X109573966Y-84757978D01*
X107954269Y-84087077D01*
X107461456Y-83757790D01*
X107439849Y-83746241D01*
X107416400Y-83739128D01*
X107392014Y-83736726D01*
X107367628Y-83739128D01*
X107344179Y-83746241D01*
X107322568Y-83757792D01*
X107303626Y-83773337D01*
X107288081Y-83792279D01*
X107276530Y-83813890D01*
X107269417Y-83837339D01*
X107267015Y-83861725D01*
X107269417Y-83886111D01*
X107276530Y-83909560D01*
X107288076Y-83931160D01*
X107338812Y-84007092D01*
X107376148Y-84097231D01*
X107395182Y-84192922D01*
X107395182Y-84290488D01*
X107376148Y-84386179D01*
X107338812Y-84476318D01*
X107284607Y-84557441D01*
X107215618Y-84626430D01*
X107134495Y-84680635D01*
X107044356Y-84717971D01*
X106948665Y-84737005D01*
X106851099Y-84737005D01*
X106755408Y-84717971D01*
X106665269Y-84680635D01*
X106584146Y-84626430D01*
X106515157Y-84557441D01*
X106460952Y-84476318D01*
X106423616Y-84386179D01*
X106404582Y-84290488D01*
X106404582Y-84192922D01*
X106423616Y-84097231D01*
X106460952Y-84007092D01*
X106515157Y-83925969D01*
X106584146Y-83856980D01*
X106665269Y-83802775D01*
X106755408Y-83765439D01*
X106851099Y-83746405D01*
X106948665Y-83746405D01*
X107038226Y-83764220D01*
X107062605Y-83766621D01*
X107086991Y-83764219D01*
X107110440Y-83757106D01*
X107132051Y-83745555D01*
X107150993Y-83730010D01*
X107166539Y-83711068D01*
X107178090Y-83689458D01*
X107185203Y-83666009D01*
X107187605Y-83641623D01*
X107185203Y-83617237D01*
X107178090Y-83593788D01*
X107166539Y-83572177D01*
X107150994Y-83553235D01*
X107132052Y-83537689D01*
X106496581Y-83113081D01*
X105256919Y-81873419D01*
X104282923Y-80415731D01*
X104215783Y-80253641D01*
X104204232Y-80232030D01*
X104188687Y-80213088D01*
X104169745Y-80197543D01*
X104148134Y-80185992D01*
X104124685Y-80178879D01*
X104100299Y-80176477D01*
X104075913Y-80178879D01*
X104052464Y-80185992D01*
X104030853Y-80197543D01*
X104011911Y-80213088D01*
X103996366Y-80232030D01*
X103984815Y-80253641D01*
X103977702Y-80277090D01*
X103975300Y-80301476D01*
X103975300Y-80399078D01*
X103956266Y-80494769D01*
X103918930Y-80584908D01*
X103864725Y-80666031D01*
X103795736Y-80735020D01*
X103714613Y-80789225D01*
X103714612Y-80789226D01*
X103714611Y-80789226D01*
X103624474Y-80826561D01*
X103528783Y-80845595D01*
X103431217Y-80845595D01*
X103335526Y-80826561D01*
X103245389Y-80789226D01*
X103245388Y-80789226D01*
X103245387Y-80789225D01*
X103164264Y-80735020D01*
X103095275Y-80666031D01*
X103041070Y-80584908D01*
X103003734Y-80494769D01*
X102984700Y-80399078D01*
X102984700Y-80301512D01*
X103003734Y-80205821D01*
X103011947Y-80185992D01*
X103041069Y-80115684D01*
X103041070Y-80115682D01*
X103095275Y-80034559D01*
X103164264Y-79965570D01*
X103245387Y-79911365D01*
X103335526Y-79874029D01*
X103431217Y-79854995D01*
X103528783Y-79854995D01*
X103624474Y-79874029D01*
X103714613Y-79911365D01*
X103795736Y-79965570D01*
X103864725Y-80034559D01*
X103864731Y-80034568D01*
X103864751Y-80034588D01*
X103883693Y-80050133D01*
X103905304Y-80061684D01*
X103928753Y-80068797D01*
X103953139Y-80071199D01*
X103977525Y-80068797D01*
X104000974Y-80061684D01*
X104022585Y-80050133D01*
X104041527Y-80034588D01*
X104057072Y-80015646D01*
X104068623Y-79994035D01*
X104075736Y-79970586D01*
X104078138Y-79946200D01*
X104075736Y-79921814D01*
X104068623Y-79898365D01*
X104058543Y-79874029D01*
X103612022Y-78796034D01*
X103480622Y-78135441D01*
X103270000Y-77076575D01*
X103270000Y-75323425D01*
X103612022Y-73603967D01*
X103634376Y-73550000D01*
X104282923Y-71984269D01*
X105256919Y-70526581D01*
X106496581Y-69286919D01*
X107954269Y-68312923D01*
X109573966Y-67642022D01*
X110147120Y-67528015D01*
X111293425Y-67300000D01*
X113046575Y-67300000D01*
X114192880Y-67528015D01*
X114192880Y-67528015D01*
G37*
G36*
X122757324Y-76664731D02*
G01*
X122905443Y-76694194D01*
X123114729Y-76780884D01*
X123303082Y-76906737D01*
X123463263Y-77066918D01*
X123589116Y-77255271D01*
X123675806Y-77464557D01*
X123720000Y-77686735D01*
X123720000Y-77913265D01*
X123675806Y-78135443D01*
X123589116Y-78344729D01*
X123463263Y-78533082D01*
X123303082Y-78693263D01*
X123114729Y-78819116D01*
X122905443Y-78905806D01*
X122757324Y-78935269D01*
X122683266Y-78950000D01*
X122456734Y-78950000D01*
X122382676Y-78935269D01*
X122234557Y-78905806D01*
X122025271Y-78819116D01*
X121836918Y-78693263D01*
X121676737Y-78533082D01*
X121550884Y-78344729D01*
X121464194Y-78135443D01*
X121420000Y-77913265D01*
X121420000Y-77686735D01*
X121464194Y-77464557D01*
X121550884Y-77255271D01*
X121676737Y-77066918D01*
X121836918Y-76906737D01*
X122025271Y-76780884D01*
X122234557Y-76694194D01*
X122382676Y-76664731D01*
X122456734Y-76650000D01*
X122683266Y-76650000D01*
X122757324Y-76664731D01*
X122757324Y-76664731D01*
G37*
G36*
X101957324Y-76664731D02*
G01*
X102105443Y-76694194D01*
X102314729Y-76780884D01*
X102503082Y-76906737D01*
X102663263Y-77066918D01*
X102789116Y-77255271D01*
X102875806Y-77464557D01*
X102920000Y-77686735D01*
X102920000Y-77913265D01*
X102875806Y-78135443D01*
X102789116Y-78344729D01*
X102663263Y-78533082D01*
X102503082Y-78693263D01*
X102314729Y-78819116D01*
X102105443Y-78905806D01*
X101957324Y-78935269D01*
X101883266Y-78950000D01*
X101656734Y-78950000D01*
X101582676Y-78935269D01*
X101434557Y-78905806D01*
X101225271Y-78819116D01*
X101036918Y-78693263D01*
X100876737Y-78533082D01*
X100750884Y-78344729D01*
X100664194Y-78135443D01*
X100620000Y-77913265D01*
X100620000Y-77686735D01*
X100664194Y-77464557D01*
X100750884Y-77255271D01*
X100876737Y-77066918D01*
X101036918Y-76906737D01*
X101225271Y-76780884D01*
X101434557Y-76694194D01*
X101582676Y-76664731D01*
X101656734Y-76650000D01*
X101883266Y-76650000D01*
X101957324Y-76664731D01*
X101957324Y-76664731D01*
G37*
G36*
X122757324Y-73564731D02*
G01*
X122905443Y-73594194D01*
X123114729Y-73680884D01*
X123303082Y-73806737D01*
X123463263Y-73966918D01*
X123589116Y-74155271D01*
X123675806Y-74364557D01*
X123720000Y-74586735D01*
X123720000Y-74813265D01*
X123675806Y-75035443D01*
X123589116Y-75244729D01*
X123463263Y-75433082D01*
X123303082Y-75593263D01*
X123114729Y-75719116D01*
X122905443Y-75805806D01*
X122757324Y-75835269D01*
X122683266Y-75850000D01*
X122456734Y-75850000D01*
X122382676Y-75835269D01*
X122234557Y-75805806D01*
X122025271Y-75719116D01*
X121836918Y-75593263D01*
X121676737Y-75433082D01*
X121550884Y-75244729D01*
X121464194Y-75035443D01*
X121420000Y-74813265D01*
X121420000Y-74586735D01*
X121464194Y-74364557D01*
X121550884Y-74155271D01*
X121676737Y-73966918D01*
X121836918Y-73806737D01*
X122025271Y-73680884D01*
X122234557Y-73594194D01*
X122382676Y-73564731D01*
X122456734Y-73550000D01*
X122683266Y-73550000D01*
X122757324Y-73564731D01*
X122757324Y-73564731D01*
G37*
G36*
X101957324Y-73564731D02*
G01*
X102105443Y-73594194D01*
X102314729Y-73680884D01*
X102503082Y-73806737D01*
X102663263Y-73966918D01*
X102789116Y-74155271D01*
X102875806Y-74364557D01*
X102920000Y-74586735D01*
X102920000Y-74813265D01*
X102875806Y-75035443D01*
X102789116Y-75244729D01*
X102663263Y-75433082D01*
X102503082Y-75593263D01*
X102314729Y-75719116D01*
X102105443Y-75805806D01*
X101957324Y-75835269D01*
X101883266Y-75850000D01*
X101656734Y-75850000D01*
X101582676Y-75835269D01*
X101434557Y-75805806D01*
X101225271Y-75719116D01*
X101036918Y-75593263D01*
X100876737Y-75433082D01*
X100750884Y-75244729D01*
X100664194Y-75035443D01*
X100620000Y-74813265D01*
X100620000Y-74586735D01*
X100664194Y-74364557D01*
X100750884Y-74155271D01*
X100876737Y-73966918D01*
X101036918Y-73806737D01*
X101225271Y-73680884D01*
X101434557Y-73594194D01*
X101582676Y-73564731D01*
X101656734Y-73550000D01*
X101883266Y-73550000D01*
X101957324Y-73564731D01*
X101957324Y-73564731D01*
G37*
M02*
