G04 #@! TF.GenerationSoftware,KiCad,Pcbnew,6.0.0-rc1-unknown-181ce46~66~ubuntu18.04.1*
G04 #@! TF.CreationDate,2018-09-10T14:50:20+02:00*
G04 #@! TF.ProjectId,weather,776561746865722E6B696361645F7063,1.0*
G04 #@! TF.SameCoordinates,Original*
G04 #@! TF.FileFunction,Copper,L1,Top,Signal*
G04 #@! TF.FilePolarity,Positive*
%FSLAX46Y46*%
G04 Gerber Fmt 4.6, Leading zero omitted, Abs format (unit mm)*
G04 Created by KiCad (PCBNEW 6.0.0-rc1-unknown-181ce46~66~ubuntu18.04.1) date Mon Sep 10 14:50:20 2018*
%MOMM*%
%LPD*%
G01*
G04 APERTURE LIST*
G04 #@! TA.AperFunction,ComponentPad*
%ADD10C,2.000000*%
G04 #@! TD*
G04 #@! TA.AperFunction,Conductor*
%ADD11C,0.100000*%
G04 #@! TD*
G04 #@! TA.AperFunction,SMDPad,CuDef*
%ADD12C,0.875000*%
G04 #@! TD*
G04 #@! TA.AperFunction,ConnectorPad*
%ADD13C,0.787400*%
G04 #@! TD*
G04 #@! TA.AperFunction,ComponentPad*
%ADD14C,2.300000*%
G04 #@! TD*
G04 #@! TA.AperFunction,SMDPad,CuDef*
%ADD15R,1.000000X1.800000*%
G04 #@! TD*
G04 #@! TA.AperFunction,SMDPad,CuDef*
%ADD16R,1.400000X1.200000*%
G04 #@! TD*
G04 #@! TA.AperFunction,SMDPad,CuDef*
%ADD17R,1.500000X2.400000*%
G04 #@! TD*
G04 #@! TA.AperFunction,SMDPad,CuDef*
%ADD18R,0.600000X0.400000*%
G04 #@! TD*
G04 #@! TA.AperFunction,SMDPad,CuDef*
%ADD19R,0.250000X0.825000*%
G04 #@! TD*
G04 #@! TA.AperFunction,SMDPad,CuDef*
%ADD20R,0.825000X0.250000*%
G04 #@! TD*
G04 #@! TA.AperFunction,SMDPad,CuDef*
%ADD21R,3.600000X3.600000*%
G04 #@! TD*
G04 #@! TA.AperFunction,ViaPad*
%ADD22C,0.800000*%
G04 #@! TD*
G04 #@! TA.AperFunction,Conductor*
%ADD23C,0.200000*%
G04 #@! TD*
G04 #@! TA.AperFunction,Conductor*
%ADD24C,0.500000*%
G04 #@! TD*
G04 #@! TA.AperFunction,Conductor*
%ADD25C,0.300000*%
G04 #@! TD*
G04 #@! TA.AperFunction,Conductor*
%ADD26C,0.600000*%
G04 #@! TD*
G04 APERTURE END LIST*
D10*
G04 #@! TO.P,TP1,1*
G04 #@! TO.N,GNDREF*
X120525000Y-76275000D03*
G04 #@! TD*
D11*
G04 #@! TO.N,Net-(D1-Pad1)*
G04 #@! TO.C,R3*
G36*
X104227691Y-75576053D02*
X104248926Y-75579203D01*
X104269750Y-75584419D01*
X104289962Y-75591651D01*
X104309368Y-75600830D01*
X104327781Y-75611866D01*
X104345024Y-75624654D01*
X104360930Y-75639070D01*
X104375346Y-75654976D01*
X104388134Y-75672219D01*
X104399170Y-75690632D01*
X104408349Y-75710038D01*
X104415581Y-75730250D01*
X104420797Y-75751074D01*
X104423947Y-75772309D01*
X104425000Y-75793750D01*
X104425000Y-76306250D01*
X104423947Y-76327691D01*
X104420797Y-76348926D01*
X104415581Y-76369750D01*
X104408349Y-76389962D01*
X104399170Y-76409368D01*
X104388134Y-76427781D01*
X104375346Y-76445024D01*
X104360930Y-76460930D01*
X104345024Y-76475346D01*
X104327781Y-76488134D01*
X104309368Y-76499170D01*
X104289962Y-76508349D01*
X104269750Y-76515581D01*
X104248926Y-76520797D01*
X104227691Y-76523947D01*
X104206250Y-76525000D01*
X103768750Y-76525000D01*
X103747309Y-76523947D01*
X103726074Y-76520797D01*
X103705250Y-76515581D01*
X103685038Y-76508349D01*
X103665632Y-76499170D01*
X103647219Y-76488134D01*
X103629976Y-76475346D01*
X103614070Y-76460930D01*
X103599654Y-76445024D01*
X103586866Y-76427781D01*
X103575830Y-76409368D01*
X103566651Y-76389962D01*
X103559419Y-76369750D01*
X103554203Y-76348926D01*
X103551053Y-76327691D01*
X103550000Y-76306250D01*
X103550000Y-75793750D01*
X103551053Y-75772309D01*
X103554203Y-75751074D01*
X103559419Y-75730250D01*
X103566651Y-75710038D01*
X103575830Y-75690632D01*
X103586866Y-75672219D01*
X103599654Y-75654976D01*
X103614070Y-75639070D01*
X103629976Y-75624654D01*
X103647219Y-75611866D01*
X103665632Y-75600830D01*
X103685038Y-75591651D01*
X103705250Y-75584419D01*
X103726074Y-75579203D01*
X103747309Y-75576053D01*
X103768750Y-75575000D01*
X104206250Y-75575000D01*
X104227691Y-75576053D01*
X104227691Y-75576053D01*
G37*
D12*
G04 #@! TD*
G04 #@! TO.P,R3,2*
G04 #@! TO.N,Net-(D1-Pad1)*
X103987500Y-76050000D03*
D11*
G04 #@! TO.N,GNDREF*
G04 #@! TO.C,R3*
G36*
X105802691Y-75576053D02*
X105823926Y-75579203D01*
X105844750Y-75584419D01*
X105864962Y-75591651D01*
X105884368Y-75600830D01*
X105902781Y-75611866D01*
X105920024Y-75624654D01*
X105935930Y-75639070D01*
X105950346Y-75654976D01*
X105963134Y-75672219D01*
X105974170Y-75690632D01*
X105983349Y-75710038D01*
X105990581Y-75730250D01*
X105995797Y-75751074D01*
X105998947Y-75772309D01*
X106000000Y-75793750D01*
X106000000Y-76306250D01*
X105998947Y-76327691D01*
X105995797Y-76348926D01*
X105990581Y-76369750D01*
X105983349Y-76389962D01*
X105974170Y-76409368D01*
X105963134Y-76427781D01*
X105950346Y-76445024D01*
X105935930Y-76460930D01*
X105920024Y-76475346D01*
X105902781Y-76488134D01*
X105884368Y-76499170D01*
X105864962Y-76508349D01*
X105844750Y-76515581D01*
X105823926Y-76520797D01*
X105802691Y-76523947D01*
X105781250Y-76525000D01*
X105343750Y-76525000D01*
X105322309Y-76523947D01*
X105301074Y-76520797D01*
X105280250Y-76515581D01*
X105260038Y-76508349D01*
X105240632Y-76499170D01*
X105222219Y-76488134D01*
X105204976Y-76475346D01*
X105189070Y-76460930D01*
X105174654Y-76445024D01*
X105161866Y-76427781D01*
X105150830Y-76409368D01*
X105141651Y-76389962D01*
X105134419Y-76369750D01*
X105129203Y-76348926D01*
X105126053Y-76327691D01*
X105125000Y-76306250D01*
X105125000Y-75793750D01*
X105126053Y-75772309D01*
X105129203Y-75751074D01*
X105134419Y-75730250D01*
X105141651Y-75710038D01*
X105150830Y-75690632D01*
X105161866Y-75672219D01*
X105174654Y-75654976D01*
X105189070Y-75639070D01*
X105204976Y-75624654D01*
X105222219Y-75611866D01*
X105240632Y-75600830D01*
X105260038Y-75591651D01*
X105280250Y-75584419D01*
X105301074Y-75579203D01*
X105322309Y-75576053D01*
X105343750Y-75575000D01*
X105781250Y-75575000D01*
X105802691Y-75576053D01*
X105802691Y-75576053D01*
G37*
D12*
G04 #@! TD*
G04 #@! TO.P,R3,1*
G04 #@! TO.N,GNDREF*
X105562500Y-76050000D03*
D11*
G04 #@! TO.N,Net-(D1-Pad2)*
G04 #@! TO.C,D1*
G36*
X105827691Y-73576053D02*
X105848926Y-73579203D01*
X105869750Y-73584419D01*
X105889962Y-73591651D01*
X105909368Y-73600830D01*
X105927781Y-73611866D01*
X105945024Y-73624654D01*
X105960930Y-73639070D01*
X105975346Y-73654976D01*
X105988134Y-73672219D01*
X105999170Y-73690632D01*
X106008349Y-73710038D01*
X106015581Y-73730250D01*
X106020797Y-73751074D01*
X106023947Y-73772309D01*
X106025000Y-73793750D01*
X106025000Y-74306250D01*
X106023947Y-74327691D01*
X106020797Y-74348926D01*
X106015581Y-74369750D01*
X106008349Y-74389962D01*
X105999170Y-74409368D01*
X105988134Y-74427781D01*
X105975346Y-74445024D01*
X105960930Y-74460930D01*
X105945024Y-74475346D01*
X105927781Y-74488134D01*
X105909368Y-74499170D01*
X105889962Y-74508349D01*
X105869750Y-74515581D01*
X105848926Y-74520797D01*
X105827691Y-74523947D01*
X105806250Y-74525000D01*
X105368750Y-74525000D01*
X105347309Y-74523947D01*
X105326074Y-74520797D01*
X105305250Y-74515581D01*
X105285038Y-74508349D01*
X105265632Y-74499170D01*
X105247219Y-74488134D01*
X105229976Y-74475346D01*
X105214070Y-74460930D01*
X105199654Y-74445024D01*
X105186866Y-74427781D01*
X105175830Y-74409368D01*
X105166651Y-74389962D01*
X105159419Y-74369750D01*
X105154203Y-74348926D01*
X105151053Y-74327691D01*
X105150000Y-74306250D01*
X105150000Y-73793750D01*
X105151053Y-73772309D01*
X105154203Y-73751074D01*
X105159419Y-73730250D01*
X105166651Y-73710038D01*
X105175830Y-73690632D01*
X105186866Y-73672219D01*
X105199654Y-73654976D01*
X105214070Y-73639070D01*
X105229976Y-73624654D01*
X105247219Y-73611866D01*
X105265632Y-73600830D01*
X105285038Y-73591651D01*
X105305250Y-73584419D01*
X105326074Y-73579203D01*
X105347309Y-73576053D01*
X105368750Y-73575000D01*
X105806250Y-73575000D01*
X105827691Y-73576053D01*
X105827691Y-73576053D01*
G37*
D12*
G04 #@! TD*
G04 #@! TO.P,D1,2*
G04 #@! TO.N,Net-(D1-Pad2)*
X105587500Y-74050000D03*
D11*
G04 #@! TO.N,Net-(D1-Pad1)*
G04 #@! TO.C,D1*
G36*
X104252691Y-73576053D02*
X104273926Y-73579203D01*
X104294750Y-73584419D01*
X104314962Y-73591651D01*
X104334368Y-73600830D01*
X104352781Y-73611866D01*
X104370024Y-73624654D01*
X104385930Y-73639070D01*
X104400346Y-73654976D01*
X104413134Y-73672219D01*
X104424170Y-73690632D01*
X104433349Y-73710038D01*
X104440581Y-73730250D01*
X104445797Y-73751074D01*
X104448947Y-73772309D01*
X104450000Y-73793750D01*
X104450000Y-74306250D01*
X104448947Y-74327691D01*
X104445797Y-74348926D01*
X104440581Y-74369750D01*
X104433349Y-74389962D01*
X104424170Y-74409368D01*
X104413134Y-74427781D01*
X104400346Y-74445024D01*
X104385930Y-74460930D01*
X104370024Y-74475346D01*
X104352781Y-74488134D01*
X104334368Y-74499170D01*
X104314962Y-74508349D01*
X104294750Y-74515581D01*
X104273926Y-74520797D01*
X104252691Y-74523947D01*
X104231250Y-74525000D01*
X103793750Y-74525000D01*
X103772309Y-74523947D01*
X103751074Y-74520797D01*
X103730250Y-74515581D01*
X103710038Y-74508349D01*
X103690632Y-74499170D01*
X103672219Y-74488134D01*
X103654976Y-74475346D01*
X103639070Y-74460930D01*
X103624654Y-74445024D01*
X103611866Y-74427781D01*
X103600830Y-74409368D01*
X103591651Y-74389962D01*
X103584419Y-74369750D01*
X103579203Y-74348926D01*
X103576053Y-74327691D01*
X103575000Y-74306250D01*
X103575000Y-73793750D01*
X103576053Y-73772309D01*
X103579203Y-73751074D01*
X103584419Y-73730250D01*
X103591651Y-73710038D01*
X103600830Y-73690632D01*
X103611866Y-73672219D01*
X103624654Y-73654976D01*
X103639070Y-73639070D01*
X103654976Y-73624654D01*
X103672219Y-73611866D01*
X103690632Y-73600830D01*
X103710038Y-73591651D01*
X103730250Y-73584419D01*
X103751074Y-73579203D01*
X103772309Y-73576053D01*
X103793750Y-73575000D01*
X104231250Y-73575000D01*
X104252691Y-73576053D01*
X104252691Y-73576053D01*
G37*
D12*
G04 #@! TD*
G04 #@! TO.P,D1,1*
G04 #@! TO.N,Net-(D1-Pad1)*
X104012500Y-74050000D03*
D13*
G04 #@! TO.P,J1,6*
G04 #@! TO.N,GNDREF*
X105934926Y-83332352D03*
G04 #@! TO.P,J1,5*
G04 #@! TO.N,+BATT*
X104835074Y-83967352D03*
G04 #@! TO.P,J1,4*
G04 #@! TO.N,/SWDIO*
X105299926Y-82232500D03*
G04 #@! TO.P,J1,3*
G04 #@! TO.N,/TX*
X104200074Y-82867500D03*
G04 #@! TO.P,J1,2*
G04 #@! TO.N,/SWDCLK*
X104664926Y-81132648D03*
G04 #@! TO.P,J1,1*
G04 #@! TO.N,/RX*
X103565074Y-81767648D03*
G04 #@! TD*
D14*
G04 #@! TO.P,BT1,1*
G04 #@! TO.N,+BATT*
X101770000Y-74700000D03*
X101770000Y-77800000D03*
X122570000Y-77800000D03*
X122570000Y-74700000D03*
G04 #@! TD*
D11*
G04 #@! TO.N,GNDREF*
G04 #@! TO.C,C10*
G36*
X117027691Y-72426053D02*
X117048926Y-72429203D01*
X117069750Y-72434419D01*
X117089962Y-72441651D01*
X117109368Y-72450830D01*
X117127781Y-72461866D01*
X117145024Y-72474654D01*
X117160930Y-72489070D01*
X117175346Y-72504976D01*
X117188134Y-72522219D01*
X117199170Y-72540632D01*
X117208349Y-72560038D01*
X117215581Y-72580250D01*
X117220797Y-72601074D01*
X117223947Y-72622309D01*
X117225000Y-72643750D01*
X117225000Y-73156250D01*
X117223947Y-73177691D01*
X117220797Y-73198926D01*
X117215581Y-73219750D01*
X117208349Y-73239962D01*
X117199170Y-73259368D01*
X117188134Y-73277781D01*
X117175346Y-73295024D01*
X117160930Y-73310930D01*
X117145024Y-73325346D01*
X117127781Y-73338134D01*
X117109368Y-73349170D01*
X117089962Y-73358349D01*
X117069750Y-73365581D01*
X117048926Y-73370797D01*
X117027691Y-73373947D01*
X117006250Y-73375000D01*
X116568750Y-73375000D01*
X116547309Y-73373947D01*
X116526074Y-73370797D01*
X116505250Y-73365581D01*
X116485038Y-73358349D01*
X116465632Y-73349170D01*
X116447219Y-73338134D01*
X116429976Y-73325346D01*
X116414070Y-73310930D01*
X116399654Y-73295024D01*
X116386866Y-73277781D01*
X116375830Y-73259368D01*
X116366651Y-73239962D01*
X116359419Y-73219750D01*
X116354203Y-73198926D01*
X116351053Y-73177691D01*
X116350000Y-73156250D01*
X116350000Y-72643750D01*
X116351053Y-72622309D01*
X116354203Y-72601074D01*
X116359419Y-72580250D01*
X116366651Y-72560038D01*
X116375830Y-72540632D01*
X116386866Y-72522219D01*
X116399654Y-72504976D01*
X116414070Y-72489070D01*
X116429976Y-72474654D01*
X116447219Y-72461866D01*
X116465632Y-72450830D01*
X116485038Y-72441651D01*
X116505250Y-72434419D01*
X116526074Y-72429203D01*
X116547309Y-72426053D01*
X116568750Y-72425000D01*
X117006250Y-72425000D01*
X117027691Y-72426053D01*
X117027691Y-72426053D01*
G37*
D12*
G04 #@! TD*
G04 #@! TO.P,C10,2*
G04 #@! TO.N,GNDREF*
X116787500Y-72900000D03*
D11*
G04 #@! TO.N,+BATT*
G04 #@! TO.C,C10*
G36*
X115452691Y-72426053D02*
X115473926Y-72429203D01*
X115494750Y-72434419D01*
X115514962Y-72441651D01*
X115534368Y-72450830D01*
X115552781Y-72461866D01*
X115570024Y-72474654D01*
X115585930Y-72489070D01*
X115600346Y-72504976D01*
X115613134Y-72522219D01*
X115624170Y-72540632D01*
X115633349Y-72560038D01*
X115640581Y-72580250D01*
X115645797Y-72601074D01*
X115648947Y-72622309D01*
X115650000Y-72643750D01*
X115650000Y-73156250D01*
X115648947Y-73177691D01*
X115645797Y-73198926D01*
X115640581Y-73219750D01*
X115633349Y-73239962D01*
X115624170Y-73259368D01*
X115613134Y-73277781D01*
X115600346Y-73295024D01*
X115585930Y-73310930D01*
X115570024Y-73325346D01*
X115552781Y-73338134D01*
X115534368Y-73349170D01*
X115514962Y-73358349D01*
X115494750Y-73365581D01*
X115473926Y-73370797D01*
X115452691Y-73373947D01*
X115431250Y-73375000D01*
X114993750Y-73375000D01*
X114972309Y-73373947D01*
X114951074Y-73370797D01*
X114930250Y-73365581D01*
X114910038Y-73358349D01*
X114890632Y-73349170D01*
X114872219Y-73338134D01*
X114854976Y-73325346D01*
X114839070Y-73310930D01*
X114824654Y-73295024D01*
X114811866Y-73277781D01*
X114800830Y-73259368D01*
X114791651Y-73239962D01*
X114784419Y-73219750D01*
X114779203Y-73198926D01*
X114776053Y-73177691D01*
X114775000Y-73156250D01*
X114775000Y-72643750D01*
X114776053Y-72622309D01*
X114779203Y-72601074D01*
X114784419Y-72580250D01*
X114791651Y-72560038D01*
X114800830Y-72540632D01*
X114811866Y-72522219D01*
X114824654Y-72504976D01*
X114839070Y-72489070D01*
X114854976Y-72474654D01*
X114872219Y-72461866D01*
X114890632Y-72450830D01*
X114910038Y-72441651D01*
X114930250Y-72434419D01*
X114951074Y-72429203D01*
X114972309Y-72426053D01*
X114993750Y-72425000D01*
X115431250Y-72425000D01*
X115452691Y-72426053D01*
X115452691Y-72426053D01*
G37*
D12*
G04 #@! TD*
G04 #@! TO.P,C10,1*
G04 #@! TO.N,+BATT*
X115212500Y-72900000D03*
D11*
G04 #@! TO.N,+BATT*
G04 #@! TO.C,C11*
G36*
X105977691Y-71751053D02*
X105998926Y-71754203D01*
X106019750Y-71759419D01*
X106039962Y-71766651D01*
X106059368Y-71775830D01*
X106077781Y-71786866D01*
X106095024Y-71799654D01*
X106110930Y-71814070D01*
X106125346Y-71829976D01*
X106138134Y-71847219D01*
X106149170Y-71865632D01*
X106158349Y-71885038D01*
X106165581Y-71905250D01*
X106170797Y-71926074D01*
X106173947Y-71947309D01*
X106175000Y-71968750D01*
X106175000Y-72406250D01*
X106173947Y-72427691D01*
X106170797Y-72448926D01*
X106165581Y-72469750D01*
X106158349Y-72489962D01*
X106149170Y-72509368D01*
X106138134Y-72527781D01*
X106125346Y-72545024D01*
X106110930Y-72560930D01*
X106095024Y-72575346D01*
X106077781Y-72588134D01*
X106059368Y-72599170D01*
X106039962Y-72608349D01*
X106019750Y-72615581D01*
X105998926Y-72620797D01*
X105977691Y-72623947D01*
X105956250Y-72625000D01*
X105443750Y-72625000D01*
X105422309Y-72623947D01*
X105401074Y-72620797D01*
X105380250Y-72615581D01*
X105360038Y-72608349D01*
X105340632Y-72599170D01*
X105322219Y-72588134D01*
X105304976Y-72575346D01*
X105289070Y-72560930D01*
X105274654Y-72545024D01*
X105261866Y-72527781D01*
X105250830Y-72509368D01*
X105241651Y-72489962D01*
X105234419Y-72469750D01*
X105229203Y-72448926D01*
X105226053Y-72427691D01*
X105225000Y-72406250D01*
X105225000Y-71968750D01*
X105226053Y-71947309D01*
X105229203Y-71926074D01*
X105234419Y-71905250D01*
X105241651Y-71885038D01*
X105250830Y-71865632D01*
X105261866Y-71847219D01*
X105274654Y-71829976D01*
X105289070Y-71814070D01*
X105304976Y-71799654D01*
X105322219Y-71786866D01*
X105340632Y-71775830D01*
X105360038Y-71766651D01*
X105380250Y-71759419D01*
X105401074Y-71754203D01*
X105422309Y-71751053D01*
X105443750Y-71750000D01*
X105956250Y-71750000D01*
X105977691Y-71751053D01*
X105977691Y-71751053D01*
G37*
D12*
G04 #@! TD*
G04 #@! TO.P,C11,1*
G04 #@! TO.N,+BATT*
X105700000Y-72187500D03*
D11*
G04 #@! TO.N,GNDREF*
G04 #@! TO.C,C11*
G36*
X105977691Y-70176053D02*
X105998926Y-70179203D01*
X106019750Y-70184419D01*
X106039962Y-70191651D01*
X106059368Y-70200830D01*
X106077781Y-70211866D01*
X106095024Y-70224654D01*
X106110930Y-70239070D01*
X106125346Y-70254976D01*
X106138134Y-70272219D01*
X106149170Y-70290632D01*
X106158349Y-70310038D01*
X106165581Y-70330250D01*
X106170797Y-70351074D01*
X106173947Y-70372309D01*
X106175000Y-70393750D01*
X106175000Y-70831250D01*
X106173947Y-70852691D01*
X106170797Y-70873926D01*
X106165581Y-70894750D01*
X106158349Y-70914962D01*
X106149170Y-70934368D01*
X106138134Y-70952781D01*
X106125346Y-70970024D01*
X106110930Y-70985930D01*
X106095024Y-71000346D01*
X106077781Y-71013134D01*
X106059368Y-71024170D01*
X106039962Y-71033349D01*
X106019750Y-71040581D01*
X105998926Y-71045797D01*
X105977691Y-71048947D01*
X105956250Y-71050000D01*
X105443750Y-71050000D01*
X105422309Y-71048947D01*
X105401074Y-71045797D01*
X105380250Y-71040581D01*
X105360038Y-71033349D01*
X105340632Y-71024170D01*
X105322219Y-71013134D01*
X105304976Y-71000346D01*
X105289070Y-70985930D01*
X105274654Y-70970024D01*
X105261866Y-70952781D01*
X105250830Y-70934368D01*
X105241651Y-70914962D01*
X105234419Y-70894750D01*
X105229203Y-70873926D01*
X105226053Y-70852691D01*
X105225000Y-70831250D01*
X105225000Y-70393750D01*
X105226053Y-70372309D01*
X105229203Y-70351074D01*
X105234419Y-70330250D01*
X105241651Y-70310038D01*
X105250830Y-70290632D01*
X105261866Y-70272219D01*
X105274654Y-70254976D01*
X105289070Y-70239070D01*
X105304976Y-70224654D01*
X105322219Y-70211866D01*
X105340632Y-70200830D01*
X105360038Y-70191651D01*
X105380250Y-70184419D01*
X105401074Y-70179203D01*
X105422309Y-70176053D01*
X105443750Y-70175000D01*
X105956250Y-70175000D01*
X105977691Y-70176053D01*
X105977691Y-70176053D01*
G37*
D12*
G04 #@! TD*
G04 #@! TO.P,C11,2*
G04 #@! TO.N,GNDREF*
X105700000Y-70612500D03*
D15*
G04 #@! TO.P,Y2,1*
G04 #@! TO.N,Net-(C9-Pad2)*
X113950000Y-69200000D03*
G04 #@! TO.P,Y2,2*
G04 #@! TO.N,Net-(C8-Pad2)*
X116450000Y-69200000D03*
G04 #@! TD*
D16*
G04 #@! TO.P,Y1,1*
G04 #@! TO.N,Net-(C1-Pad1)*
X114200000Y-81950000D03*
G04 #@! TO.P,Y1,2*
G04 #@! TO.N,GNDREF*
X116400000Y-81950000D03*
G04 #@! TO.P,Y1,3*
G04 #@! TO.N,Net-(C2-Pad1)*
X116400000Y-80250000D03*
G04 #@! TO.P,Y1,4*
G04 #@! TO.N,GNDREF*
X114200000Y-80250000D03*
G04 #@! TD*
D11*
G04 #@! TO.N,Net-(C8-Pad2)*
G04 #@! TO.C,C8*
G36*
X116852691Y-70926053D02*
X116873926Y-70929203D01*
X116894750Y-70934419D01*
X116914962Y-70941651D01*
X116934368Y-70950830D01*
X116952781Y-70961866D01*
X116970024Y-70974654D01*
X116985930Y-70989070D01*
X117000346Y-71004976D01*
X117013134Y-71022219D01*
X117024170Y-71040632D01*
X117033349Y-71060038D01*
X117040581Y-71080250D01*
X117045797Y-71101074D01*
X117048947Y-71122309D01*
X117050000Y-71143750D01*
X117050000Y-71656250D01*
X117048947Y-71677691D01*
X117045797Y-71698926D01*
X117040581Y-71719750D01*
X117033349Y-71739962D01*
X117024170Y-71759368D01*
X117013134Y-71777781D01*
X117000346Y-71795024D01*
X116985930Y-71810930D01*
X116970024Y-71825346D01*
X116952781Y-71838134D01*
X116934368Y-71849170D01*
X116914962Y-71858349D01*
X116894750Y-71865581D01*
X116873926Y-71870797D01*
X116852691Y-71873947D01*
X116831250Y-71875000D01*
X116393750Y-71875000D01*
X116372309Y-71873947D01*
X116351074Y-71870797D01*
X116330250Y-71865581D01*
X116310038Y-71858349D01*
X116290632Y-71849170D01*
X116272219Y-71838134D01*
X116254976Y-71825346D01*
X116239070Y-71810930D01*
X116224654Y-71795024D01*
X116211866Y-71777781D01*
X116200830Y-71759368D01*
X116191651Y-71739962D01*
X116184419Y-71719750D01*
X116179203Y-71698926D01*
X116176053Y-71677691D01*
X116175000Y-71656250D01*
X116175000Y-71143750D01*
X116176053Y-71122309D01*
X116179203Y-71101074D01*
X116184419Y-71080250D01*
X116191651Y-71060038D01*
X116200830Y-71040632D01*
X116211866Y-71022219D01*
X116224654Y-71004976D01*
X116239070Y-70989070D01*
X116254976Y-70974654D01*
X116272219Y-70961866D01*
X116290632Y-70950830D01*
X116310038Y-70941651D01*
X116330250Y-70934419D01*
X116351074Y-70929203D01*
X116372309Y-70926053D01*
X116393750Y-70925000D01*
X116831250Y-70925000D01*
X116852691Y-70926053D01*
X116852691Y-70926053D01*
G37*
D12*
G04 #@! TD*
G04 #@! TO.P,C8,2*
G04 #@! TO.N,Net-(C8-Pad2)*
X116612500Y-71400000D03*
D11*
G04 #@! TO.N,GNDREF*
G04 #@! TO.C,C8*
G36*
X118427691Y-70926053D02*
X118448926Y-70929203D01*
X118469750Y-70934419D01*
X118489962Y-70941651D01*
X118509368Y-70950830D01*
X118527781Y-70961866D01*
X118545024Y-70974654D01*
X118560930Y-70989070D01*
X118575346Y-71004976D01*
X118588134Y-71022219D01*
X118599170Y-71040632D01*
X118608349Y-71060038D01*
X118615581Y-71080250D01*
X118620797Y-71101074D01*
X118623947Y-71122309D01*
X118625000Y-71143750D01*
X118625000Y-71656250D01*
X118623947Y-71677691D01*
X118620797Y-71698926D01*
X118615581Y-71719750D01*
X118608349Y-71739962D01*
X118599170Y-71759368D01*
X118588134Y-71777781D01*
X118575346Y-71795024D01*
X118560930Y-71810930D01*
X118545024Y-71825346D01*
X118527781Y-71838134D01*
X118509368Y-71849170D01*
X118489962Y-71858349D01*
X118469750Y-71865581D01*
X118448926Y-71870797D01*
X118427691Y-71873947D01*
X118406250Y-71875000D01*
X117968750Y-71875000D01*
X117947309Y-71873947D01*
X117926074Y-71870797D01*
X117905250Y-71865581D01*
X117885038Y-71858349D01*
X117865632Y-71849170D01*
X117847219Y-71838134D01*
X117829976Y-71825346D01*
X117814070Y-71810930D01*
X117799654Y-71795024D01*
X117786866Y-71777781D01*
X117775830Y-71759368D01*
X117766651Y-71739962D01*
X117759419Y-71719750D01*
X117754203Y-71698926D01*
X117751053Y-71677691D01*
X117750000Y-71656250D01*
X117750000Y-71143750D01*
X117751053Y-71122309D01*
X117754203Y-71101074D01*
X117759419Y-71080250D01*
X117766651Y-71060038D01*
X117775830Y-71040632D01*
X117786866Y-71022219D01*
X117799654Y-71004976D01*
X117814070Y-70989070D01*
X117829976Y-70974654D01*
X117847219Y-70961866D01*
X117865632Y-70950830D01*
X117885038Y-70941651D01*
X117905250Y-70934419D01*
X117926074Y-70929203D01*
X117947309Y-70926053D01*
X117968750Y-70925000D01*
X118406250Y-70925000D01*
X118427691Y-70926053D01*
X118427691Y-70926053D01*
G37*
D12*
G04 #@! TD*
G04 #@! TO.P,C8,1*
G04 #@! TO.N,GNDREF*
X118187500Y-71400000D03*
D11*
G04 #@! TO.N,GNDREF*
G04 #@! TO.C,C9*
G36*
X116327691Y-66626053D02*
X116348926Y-66629203D01*
X116369750Y-66634419D01*
X116389962Y-66641651D01*
X116409368Y-66650830D01*
X116427781Y-66661866D01*
X116445024Y-66674654D01*
X116460930Y-66689070D01*
X116475346Y-66704976D01*
X116488134Y-66722219D01*
X116499170Y-66740632D01*
X116508349Y-66760038D01*
X116515581Y-66780250D01*
X116520797Y-66801074D01*
X116523947Y-66822309D01*
X116525000Y-66843750D01*
X116525000Y-67356250D01*
X116523947Y-67377691D01*
X116520797Y-67398926D01*
X116515581Y-67419750D01*
X116508349Y-67439962D01*
X116499170Y-67459368D01*
X116488134Y-67477781D01*
X116475346Y-67495024D01*
X116460930Y-67510930D01*
X116445024Y-67525346D01*
X116427781Y-67538134D01*
X116409368Y-67549170D01*
X116389962Y-67558349D01*
X116369750Y-67565581D01*
X116348926Y-67570797D01*
X116327691Y-67573947D01*
X116306250Y-67575000D01*
X115868750Y-67575000D01*
X115847309Y-67573947D01*
X115826074Y-67570797D01*
X115805250Y-67565581D01*
X115785038Y-67558349D01*
X115765632Y-67549170D01*
X115747219Y-67538134D01*
X115729976Y-67525346D01*
X115714070Y-67510930D01*
X115699654Y-67495024D01*
X115686866Y-67477781D01*
X115675830Y-67459368D01*
X115666651Y-67439962D01*
X115659419Y-67419750D01*
X115654203Y-67398926D01*
X115651053Y-67377691D01*
X115650000Y-67356250D01*
X115650000Y-66843750D01*
X115651053Y-66822309D01*
X115654203Y-66801074D01*
X115659419Y-66780250D01*
X115666651Y-66760038D01*
X115675830Y-66740632D01*
X115686866Y-66722219D01*
X115699654Y-66704976D01*
X115714070Y-66689070D01*
X115729976Y-66674654D01*
X115747219Y-66661866D01*
X115765632Y-66650830D01*
X115785038Y-66641651D01*
X115805250Y-66634419D01*
X115826074Y-66629203D01*
X115847309Y-66626053D01*
X115868750Y-66625000D01*
X116306250Y-66625000D01*
X116327691Y-66626053D01*
X116327691Y-66626053D01*
G37*
D12*
G04 #@! TD*
G04 #@! TO.P,C9,1*
G04 #@! TO.N,GNDREF*
X116087500Y-67100000D03*
D11*
G04 #@! TO.N,Net-(C9-Pad2)*
G04 #@! TO.C,C9*
G36*
X114752691Y-66626053D02*
X114773926Y-66629203D01*
X114794750Y-66634419D01*
X114814962Y-66641651D01*
X114834368Y-66650830D01*
X114852781Y-66661866D01*
X114870024Y-66674654D01*
X114885930Y-66689070D01*
X114900346Y-66704976D01*
X114913134Y-66722219D01*
X114924170Y-66740632D01*
X114933349Y-66760038D01*
X114940581Y-66780250D01*
X114945797Y-66801074D01*
X114948947Y-66822309D01*
X114950000Y-66843750D01*
X114950000Y-67356250D01*
X114948947Y-67377691D01*
X114945797Y-67398926D01*
X114940581Y-67419750D01*
X114933349Y-67439962D01*
X114924170Y-67459368D01*
X114913134Y-67477781D01*
X114900346Y-67495024D01*
X114885930Y-67510930D01*
X114870024Y-67525346D01*
X114852781Y-67538134D01*
X114834368Y-67549170D01*
X114814962Y-67558349D01*
X114794750Y-67565581D01*
X114773926Y-67570797D01*
X114752691Y-67573947D01*
X114731250Y-67575000D01*
X114293750Y-67575000D01*
X114272309Y-67573947D01*
X114251074Y-67570797D01*
X114230250Y-67565581D01*
X114210038Y-67558349D01*
X114190632Y-67549170D01*
X114172219Y-67538134D01*
X114154976Y-67525346D01*
X114139070Y-67510930D01*
X114124654Y-67495024D01*
X114111866Y-67477781D01*
X114100830Y-67459368D01*
X114091651Y-67439962D01*
X114084419Y-67419750D01*
X114079203Y-67398926D01*
X114076053Y-67377691D01*
X114075000Y-67356250D01*
X114075000Y-66843750D01*
X114076053Y-66822309D01*
X114079203Y-66801074D01*
X114084419Y-66780250D01*
X114091651Y-66760038D01*
X114100830Y-66740632D01*
X114111866Y-66722219D01*
X114124654Y-66704976D01*
X114139070Y-66689070D01*
X114154976Y-66674654D01*
X114172219Y-66661866D01*
X114190632Y-66650830D01*
X114210038Y-66641651D01*
X114230250Y-66634419D01*
X114251074Y-66629203D01*
X114272309Y-66626053D01*
X114293750Y-66625000D01*
X114731250Y-66625000D01*
X114752691Y-66626053D01*
X114752691Y-66626053D01*
G37*
D12*
G04 #@! TD*
G04 #@! TO.P,C9,2*
G04 #@! TO.N,Net-(C9-Pad2)*
X114512500Y-67100000D03*
D17*
G04 #@! TO.P,U2,7*
G04 #@! TO.N,Net-(U2-Pad7)*
X110600000Y-67800000D03*
D18*
G04 #@! TO.P,U2,1*
G04 #@! TO.N,/SDA*
X112000000Y-68750000D03*
G04 #@! TO.P,U2,2*
G04 #@! TO.N,GNDREF*
X112000000Y-67800000D03*
G04 #@! TO.P,U2,3*
G04 #@! TO.N,Net-(U2-Pad3)*
X112000000Y-66850000D03*
G04 #@! TO.P,U2,4*
G04 #@! TO.N,Net-(U2-Pad4)*
X109200000Y-66850000D03*
G04 #@! TO.P,U2,5*
G04 #@! TO.N,+BATT*
X109200000Y-67800000D03*
G04 #@! TO.P,U2,6*
G04 #@! TO.N,/SCL*
X109200000Y-68750000D03*
G04 #@! TD*
D11*
G04 #@! TO.N,/SCL*
G04 #@! TO.C,R1*
G36*
X107827691Y-68226053D02*
X107848926Y-68229203D01*
X107869750Y-68234419D01*
X107889962Y-68241651D01*
X107909368Y-68250830D01*
X107927781Y-68261866D01*
X107945024Y-68274654D01*
X107960930Y-68289070D01*
X107975346Y-68304976D01*
X107988134Y-68322219D01*
X107999170Y-68340632D01*
X108008349Y-68360038D01*
X108015581Y-68380250D01*
X108020797Y-68401074D01*
X108023947Y-68422309D01*
X108025000Y-68443750D01*
X108025000Y-68956250D01*
X108023947Y-68977691D01*
X108020797Y-68998926D01*
X108015581Y-69019750D01*
X108008349Y-69039962D01*
X107999170Y-69059368D01*
X107988134Y-69077781D01*
X107975346Y-69095024D01*
X107960930Y-69110930D01*
X107945024Y-69125346D01*
X107927781Y-69138134D01*
X107909368Y-69149170D01*
X107889962Y-69158349D01*
X107869750Y-69165581D01*
X107848926Y-69170797D01*
X107827691Y-69173947D01*
X107806250Y-69175000D01*
X107368750Y-69175000D01*
X107347309Y-69173947D01*
X107326074Y-69170797D01*
X107305250Y-69165581D01*
X107285038Y-69158349D01*
X107265632Y-69149170D01*
X107247219Y-69138134D01*
X107229976Y-69125346D01*
X107214070Y-69110930D01*
X107199654Y-69095024D01*
X107186866Y-69077781D01*
X107175830Y-69059368D01*
X107166651Y-69039962D01*
X107159419Y-69019750D01*
X107154203Y-68998926D01*
X107151053Y-68977691D01*
X107150000Y-68956250D01*
X107150000Y-68443750D01*
X107151053Y-68422309D01*
X107154203Y-68401074D01*
X107159419Y-68380250D01*
X107166651Y-68360038D01*
X107175830Y-68340632D01*
X107186866Y-68322219D01*
X107199654Y-68304976D01*
X107214070Y-68289070D01*
X107229976Y-68274654D01*
X107247219Y-68261866D01*
X107265632Y-68250830D01*
X107285038Y-68241651D01*
X107305250Y-68234419D01*
X107326074Y-68229203D01*
X107347309Y-68226053D01*
X107368750Y-68225000D01*
X107806250Y-68225000D01*
X107827691Y-68226053D01*
X107827691Y-68226053D01*
G37*
D12*
G04 #@! TD*
G04 #@! TO.P,R1,2*
G04 #@! TO.N,/SCL*
X107587500Y-68700000D03*
D11*
G04 #@! TO.N,+BATT*
G04 #@! TO.C,R1*
G36*
X106252691Y-68226053D02*
X106273926Y-68229203D01*
X106294750Y-68234419D01*
X106314962Y-68241651D01*
X106334368Y-68250830D01*
X106352781Y-68261866D01*
X106370024Y-68274654D01*
X106385930Y-68289070D01*
X106400346Y-68304976D01*
X106413134Y-68322219D01*
X106424170Y-68340632D01*
X106433349Y-68360038D01*
X106440581Y-68380250D01*
X106445797Y-68401074D01*
X106448947Y-68422309D01*
X106450000Y-68443750D01*
X106450000Y-68956250D01*
X106448947Y-68977691D01*
X106445797Y-68998926D01*
X106440581Y-69019750D01*
X106433349Y-69039962D01*
X106424170Y-69059368D01*
X106413134Y-69077781D01*
X106400346Y-69095024D01*
X106385930Y-69110930D01*
X106370024Y-69125346D01*
X106352781Y-69138134D01*
X106334368Y-69149170D01*
X106314962Y-69158349D01*
X106294750Y-69165581D01*
X106273926Y-69170797D01*
X106252691Y-69173947D01*
X106231250Y-69175000D01*
X105793750Y-69175000D01*
X105772309Y-69173947D01*
X105751074Y-69170797D01*
X105730250Y-69165581D01*
X105710038Y-69158349D01*
X105690632Y-69149170D01*
X105672219Y-69138134D01*
X105654976Y-69125346D01*
X105639070Y-69110930D01*
X105624654Y-69095024D01*
X105611866Y-69077781D01*
X105600830Y-69059368D01*
X105591651Y-69039962D01*
X105584419Y-69019750D01*
X105579203Y-68998926D01*
X105576053Y-68977691D01*
X105575000Y-68956250D01*
X105575000Y-68443750D01*
X105576053Y-68422309D01*
X105579203Y-68401074D01*
X105584419Y-68380250D01*
X105591651Y-68360038D01*
X105600830Y-68340632D01*
X105611866Y-68322219D01*
X105624654Y-68304976D01*
X105639070Y-68289070D01*
X105654976Y-68274654D01*
X105672219Y-68261866D01*
X105690632Y-68250830D01*
X105710038Y-68241651D01*
X105730250Y-68234419D01*
X105751074Y-68229203D01*
X105772309Y-68226053D01*
X105793750Y-68225000D01*
X106231250Y-68225000D01*
X106252691Y-68226053D01*
X106252691Y-68226053D01*
G37*
D12*
G04 #@! TD*
G04 #@! TO.P,R1,1*
G04 #@! TO.N,+BATT*
X106012500Y-68700000D03*
D11*
G04 #@! TO.N,+BATT*
G04 #@! TO.C,R2*
G36*
X108152691Y-69926053D02*
X108173926Y-69929203D01*
X108194750Y-69934419D01*
X108214962Y-69941651D01*
X108234368Y-69950830D01*
X108252781Y-69961866D01*
X108270024Y-69974654D01*
X108285930Y-69989070D01*
X108300346Y-70004976D01*
X108313134Y-70022219D01*
X108324170Y-70040632D01*
X108333349Y-70060038D01*
X108340581Y-70080250D01*
X108345797Y-70101074D01*
X108348947Y-70122309D01*
X108350000Y-70143750D01*
X108350000Y-70656250D01*
X108348947Y-70677691D01*
X108345797Y-70698926D01*
X108340581Y-70719750D01*
X108333349Y-70739962D01*
X108324170Y-70759368D01*
X108313134Y-70777781D01*
X108300346Y-70795024D01*
X108285930Y-70810930D01*
X108270024Y-70825346D01*
X108252781Y-70838134D01*
X108234368Y-70849170D01*
X108214962Y-70858349D01*
X108194750Y-70865581D01*
X108173926Y-70870797D01*
X108152691Y-70873947D01*
X108131250Y-70875000D01*
X107693750Y-70875000D01*
X107672309Y-70873947D01*
X107651074Y-70870797D01*
X107630250Y-70865581D01*
X107610038Y-70858349D01*
X107590632Y-70849170D01*
X107572219Y-70838134D01*
X107554976Y-70825346D01*
X107539070Y-70810930D01*
X107524654Y-70795024D01*
X107511866Y-70777781D01*
X107500830Y-70759368D01*
X107491651Y-70739962D01*
X107484419Y-70719750D01*
X107479203Y-70698926D01*
X107476053Y-70677691D01*
X107475000Y-70656250D01*
X107475000Y-70143750D01*
X107476053Y-70122309D01*
X107479203Y-70101074D01*
X107484419Y-70080250D01*
X107491651Y-70060038D01*
X107500830Y-70040632D01*
X107511866Y-70022219D01*
X107524654Y-70004976D01*
X107539070Y-69989070D01*
X107554976Y-69974654D01*
X107572219Y-69961866D01*
X107590632Y-69950830D01*
X107610038Y-69941651D01*
X107630250Y-69934419D01*
X107651074Y-69929203D01*
X107672309Y-69926053D01*
X107693750Y-69925000D01*
X108131250Y-69925000D01*
X108152691Y-69926053D01*
X108152691Y-69926053D01*
G37*
D12*
G04 #@! TD*
G04 #@! TO.P,R2,1*
G04 #@! TO.N,+BATT*
X107912500Y-70400000D03*
D11*
G04 #@! TO.N,/SDA*
G04 #@! TO.C,R2*
G36*
X109727691Y-69926053D02*
X109748926Y-69929203D01*
X109769750Y-69934419D01*
X109789962Y-69941651D01*
X109809368Y-69950830D01*
X109827781Y-69961866D01*
X109845024Y-69974654D01*
X109860930Y-69989070D01*
X109875346Y-70004976D01*
X109888134Y-70022219D01*
X109899170Y-70040632D01*
X109908349Y-70060038D01*
X109915581Y-70080250D01*
X109920797Y-70101074D01*
X109923947Y-70122309D01*
X109925000Y-70143750D01*
X109925000Y-70656250D01*
X109923947Y-70677691D01*
X109920797Y-70698926D01*
X109915581Y-70719750D01*
X109908349Y-70739962D01*
X109899170Y-70759368D01*
X109888134Y-70777781D01*
X109875346Y-70795024D01*
X109860930Y-70810930D01*
X109845024Y-70825346D01*
X109827781Y-70838134D01*
X109809368Y-70849170D01*
X109789962Y-70858349D01*
X109769750Y-70865581D01*
X109748926Y-70870797D01*
X109727691Y-70873947D01*
X109706250Y-70875000D01*
X109268750Y-70875000D01*
X109247309Y-70873947D01*
X109226074Y-70870797D01*
X109205250Y-70865581D01*
X109185038Y-70858349D01*
X109165632Y-70849170D01*
X109147219Y-70838134D01*
X109129976Y-70825346D01*
X109114070Y-70810930D01*
X109099654Y-70795024D01*
X109086866Y-70777781D01*
X109075830Y-70759368D01*
X109066651Y-70739962D01*
X109059419Y-70719750D01*
X109054203Y-70698926D01*
X109051053Y-70677691D01*
X109050000Y-70656250D01*
X109050000Y-70143750D01*
X109051053Y-70122309D01*
X109054203Y-70101074D01*
X109059419Y-70080250D01*
X109066651Y-70060038D01*
X109075830Y-70040632D01*
X109086866Y-70022219D01*
X109099654Y-70004976D01*
X109114070Y-69989070D01*
X109129976Y-69974654D01*
X109147219Y-69961866D01*
X109165632Y-69950830D01*
X109185038Y-69941651D01*
X109205250Y-69934419D01*
X109226074Y-69929203D01*
X109247309Y-69926053D01*
X109268750Y-69925000D01*
X109706250Y-69925000D01*
X109727691Y-69926053D01*
X109727691Y-69926053D01*
G37*
D12*
G04 #@! TD*
G04 #@! TO.P,R2,2*
G04 #@! TO.N,/SDA*
X109487500Y-70400000D03*
D11*
G04 #@! TO.N,GNDREF*
G04 #@! TO.C,C1*
G36*
X116227691Y-83226053D02*
X116248926Y-83229203D01*
X116269750Y-83234419D01*
X116289962Y-83241651D01*
X116309368Y-83250830D01*
X116327781Y-83261866D01*
X116345024Y-83274654D01*
X116360930Y-83289070D01*
X116375346Y-83304976D01*
X116388134Y-83322219D01*
X116399170Y-83340632D01*
X116408349Y-83360038D01*
X116415581Y-83380250D01*
X116420797Y-83401074D01*
X116423947Y-83422309D01*
X116425000Y-83443750D01*
X116425000Y-83956250D01*
X116423947Y-83977691D01*
X116420797Y-83998926D01*
X116415581Y-84019750D01*
X116408349Y-84039962D01*
X116399170Y-84059368D01*
X116388134Y-84077781D01*
X116375346Y-84095024D01*
X116360930Y-84110930D01*
X116345024Y-84125346D01*
X116327781Y-84138134D01*
X116309368Y-84149170D01*
X116289962Y-84158349D01*
X116269750Y-84165581D01*
X116248926Y-84170797D01*
X116227691Y-84173947D01*
X116206250Y-84175000D01*
X115768750Y-84175000D01*
X115747309Y-84173947D01*
X115726074Y-84170797D01*
X115705250Y-84165581D01*
X115685038Y-84158349D01*
X115665632Y-84149170D01*
X115647219Y-84138134D01*
X115629976Y-84125346D01*
X115614070Y-84110930D01*
X115599654Y-84095024D01*
X115586866Y-84077781D01*
X115575830Y-84059368D01*
X115566651Y-84039962D01*
X115559419Y-84019750D01*
X115554203Y-83998926D01*
X115551053Y-83977691D01*
X115550000Y-83956250D01*
X115550000Y-83443750D01*
X115551053Y-83422309D01*
X115554203Y-83401074D01*
X115559419Y-83380250D01*
X115566651Y-83360038D01*
X115575830Y-83340632D01*
X115586866Y-83322219D01*
X115599654Y-83304976D01*
X115614070Y-83289070D01*
X115629976Y-83274654D01*
X115647219Y-83261866D01*
X115665632Y-83250830D01*
X115685038Y-83241651D01*
X115705250Y-83234419D01*
X115726074Y-83229203D01*
X115747309Y-83226053D01*
X115768750Y-83225000D01*
X116206250Y-83225000D01*
X116227691Y-83226053D01*
X116227691Y-83226053D01*
G37*
D12*
G04 #@! TD*
G04 #@! TO.P,C1,2*
G04 #@! TO.N,GNDREF*
X115987500Y-83700000D03*
D11*
G04 #@! TO.N,Net-(C1-Pad1)*
G04 #@! TO.C,C1*
G36*
X114652691Y-83226053D02*
X114673926Y-83229203D01*
X114694750Y-83234419D01*
X114714962Y-83241651D01*
X114734368Y-83250830D01*
X114752781Y-83261866D01*
X114770024Y-83274654D01*
X114785930Y-83289070D01*
X114800346Y-83304976D01*
X114813134Y-83322219D01*
X114824170Y-83340632D01*
X114833349Y-83360038D01*
X114840581Y-83380250D01*
X114845797Y-83401074D01*
X114848947Y-83422309D01*
X114850000Y-83443750D01*
X114850000Y-83956250D01*
X114848947Y-83977691D01*
X114845797Y-83998926D01*
X114840581Y-84019750D01*
X114833349Y-84039962D01*
X114824170Y-84059368D01*
X114813134Y-84077781D01*
X114800346Y-84095024D01*
X114785930Y-84110930D01*
X114770024Y-84125346D01*
X114752781Y-84138134D01*
X114734368Y-84149170D01*
X114714962Y-84158349D01*
X114694750Y-84165581D01*
X114673926Y-84170797D01*
X114652691Y-84173947D01*
X114631250Y-84175000D01*
X114193750Y-84175000D01*
X114172309Y-84173947D01*
X114151074Y-84170797D01*
X114130250Y-84165581D01*
X114110038Y-84158349D01*
X114090632Y-84149170D01*
X114072219Y-84138134D01*
X114054976Y-84125346D01*
X114039070Y-84110930D01*
X114024654Y-84095024D01*
X114011866Y-84077781D01*
X114000830Y-84059368D01*
X113991651Y-84039962D01*
X113984419Y-84019750D01*
X113979203Y-83998926D01*
X113976053Y-83977691D01*
X113975000Y-83956250D01*
X113975000Y-83443750D01*
X113976053Y-83422309D01*
X113979203Y-83401074D01*
X113984419Y-83380250D01*
X113991651Y-83360038D01*
X114000830Y-83340632D01*
X114011866Y-83322219D01*
X114024654Y-83304976D01*
X114039070Y-83289070D01*
X114054976Y-83274654D01*
X114072219Y-83261866D01*
X114090632Y-83250830D01*
X114110038Y-83241651D01*
X114130250Y-83234419D01*
X114151074Y-83229203D01*
X114172309Y-83226053D01*
X114193750Y-83225000D01*
X114631250Y-83225000D01*
X114652691Y-83226053D01*
X114652691Y-83226053D01*
G37*
D12*
G04 #@! TD*
G04 #@! TO.P,C1,1*
G04 #@! TO.N,Net-(C1-Pad1)*
X114412500Y-83700000D03*
D11*
G04 #@! TO.N,Net-(C2-Pad1)*
G04 #@! TO.C,C2*
G36*
X116227691Y-78126053D02*
X116248926Y-78129203D01*
X116269750Y-78134419D01*
X116289962Y-78141651D01*
X116309368Y-78150830D01*
X116327781Y-78161866D01*
X116345024Y-78174654D01*
X116360930Y-78189070D01*
X116375346Y-78204976D01*
X116388134Y-78222219D01*
X116399170Y-78240632D01*
X116408349Y-78260038D01*
X116415581Y-78280250D01*
X116420797Y-78301074D01*
X116423947Y-78322309D01*
X116425000Y-78343750D01*
X116425000Y-78856250D01*
X116423947Y-78877691D01*
X116420797Y-78898926D01*
X116415581Y-78919750D01*
X116408349Y-78939962D01*
X116399170Y-78959368D01*
X116388134Y-78977781D01*
X116375346Y-78995024D01*
X116360930Y-79010930D01*
X116345024Y-79025346D01*
X116327781Y-79038134D01*
X116309368Y-79049170D01*
X116289962Y-79058349D01*
X116269750Y-79065581D01*
X116248926Y-79070797D01*
X116227691Y-79073947D01*
X116206250Y-79075000D01*
X115768750Y-79075000D01*
X115747309Y-79073947D01*
X115726074Y-79070797D01*
X115705250Y-79065581D01*
X115685038Y-79058349D01*
X115665632Y-79049170D01*
X115647219Y-79038134D01*
X115629976Y-79025346D01*
X115614070Y-79010930D01*
X115599654Y-78995024D01*
X115586866Y-78977781D01*
X115575830Y-78959368D01*
X115566651Y-78939962D01*
X115559419Y-78919750D01*
X115554203Y-78898926D01*
X115551053Y-78877691D01*
X115550000Y-78856250D01*
X115550000Y-78343750D01*
X115551053Y-78322309D01*
X115554203Y-78301074D01*
X115559419Y-78280250D01*
X115566651Y-78260038D01*
X115575830Y-78240632D01*
X115586866Y-78222219D01*
X115599654Y-78204976D01*
X115614070Y-78189070D01*
X115629976Y-78174654D01*
X115647219Y-78161866D01*
X115665632Y-78150830D01*
X115685038Y-78141651D01*
X115705250Y-78134419D01*
X115726074Y-78129203D01*
X115747309Y-78126053D01*
X115768750Y-78125000D01*
X116206250Y-78125000D01*
X116227691Y-78126053D01*
X116227691Y-78126053D01*
G37*
D12*
G04 #@! TD*
G04 #@! TO.P,C2,1*
G04 #@! TO.N,Net-(C2-Pad1)*
X115987500Y-78600000D03*
D11*
G04 #@! TO.N,GNDREF*
G04 #@! TO.C,C2*
G36*
X114652691Y-78126053D02*
X114673926Y-78129203D01*
X114694750Y-78134419D01*
X114714962Y-78141651D01*
X114734368Y-78150830D01*
X114752781Y-78161866D01*
X114770024Y-78174654D01*
X114785930Y-78189070D01*
X114800346Y-78204976D01*
X114813134Y-78222219D01*
X114824170Y-78240632D01*
X114833349Y-78260038D01*
X114840581Y-78280250D01*
X114845797Y-78301074D01*
X114848947Y-78322309D01*
X114850000Y-78343750D01*
X114850000Y-78856250D01*
X114848947Y-78877691D01*
X114845797Y-78898926D01*
X114840581Y-78919750D01*
X114833349Y-78939962D01*
X114824170Y-78959368D01*
X114813134Y-78977781D01*
X114800346Y-78995024D01*
X114785930Y-79010930D01*
X114770024Y-79025346D01*
X114752781Y-79038134D01*
X114734368Y-79049170D01*
X114714962Y-79058349D01*
X114694750Y-79065581D01*
X114673926Y-79070797D01*
X114652691Y-79073947D01*
X114631250Y-79075000D01*
X114193750Y-79075000D01*
X114172309Y-79073947D01*
X114151074Y-79070797D01*
X114130250Y-79065581D01*
X114110038Y-79058349D01*
X114090632Y-79049170D01*
X114072219Y-79038134D01*
X114054976Y-79025346D01*
X114039070Y-79010930D01*
X114024654Y-78995024D01*
X114011866Y-78977781D01*
X114000830Y-78959368D01*
X113991651Y-78939962D01*
X113984419Y-78919750D01*
X113979203Y-78898926D01*
X113976053Y-78877691D01*
X113975000Y-78856250D01*
X113975000Y-78343750D01*
X113976053Y-78322309D01*
X113979203Y-78301074D01*
X113984419Y-78280250D01*
X113991651Y-78260038D01*
X114000830Y-78240632D01*
X114011866Y-78222219D01*
X114024654Y-78204976D01*
X114039070Y-78189070D01*
X114054976Y-78174654D01*
X114072219Y-78161866D01*
X114090632Y-78150830D01*
X114110038Y-78141651D01*
X114130250Y-78134419D01*
X114151074Y-78129203D01*
X114172309Y-78126053D01*
X114193750Y-78125000D01*
X114631250Y-78125000D01*
X114652691Y-78126053D01*
X114652691Y-78126053D01*
G37*
D12*
G04 #@! TD*
G04 #@! TO.P,C2,2*
G04 #@! TO.N,GNDREF*
X114412500Y-78600000D03*
D11*
G04 #@! TO.N,+BATT*
G04 #@! TO.C,C3*
G36*
X115677691Y-75951053D02*
X115698926Y-75954203D01*
X115719750Y-75959419D01*
X115739962Y-75966651D01*
X115759368Y-75975830D01*
X115777781Y-75986866D01*
X115795024Y-75999654D01*
X115810930Y-76014070D01*
X115825346Y-76029976D01*
X115838134Y-76047219D01*
X115849170Y-76065632D01*
X115858349Y-76085038D01*
X115865581Y-76105250D01*
X115870797Y-76126074D01*
X115873947Y-76147309D01*
X115875000Y-76168750D01*
X115875000Y-76606250D01*
X115873947Y-76627691D01*
X115870797Y-76648926D01*
X115865581Y-76669750D01*
X115858349Y-76689962D01*
X115849170Y-76709368D01*
X115838134Y-76727781D01*
X115825346Y-76745024D01*
X115810930Y-76760930D01*
X115795024Y-76775346D01*
X115777781Y-76788134D01*
X115759368Y-76799170D01*
X115739962Y-76808349D01*
X115719750Y-76815581D01*
X115698926Y-76820797D01*
X115677691Y-76823947D01*
X115656250Y-76825000D01*
X115143750Y-76825000D01*
X115122309Y-76823947D01*
X115101074Y-76820797D01*
X115080250Y-76815581D01*
X115060038Y-76808349D01*
X115040632Y-76799170D01*
X115022219Y-76788134D01*
X115004976Y-76775346D01*
X114989070Y-76760930D01*
X114974654Y-76745024D01*
X114961866Y-76727781D01*
X114950830Y-76709368D01*
X114941651Y-76689962D01*
X114934419Y-76669750D01*
X114929203Y-76648926D01*
X114926053Y-76627691D01*
X114925000Y-76606250D01*
X114925000Y-76168750D01*
X114926053Y-76147309D01*
X114929203Y-76126074D01*
X114934419Y-76105250D01*
X114941651Y-76085038D01*
X114950830Y-76065632D01*
X114961866Y-76047219D01*
X114974654Y-76029976D01*
X114989070Y-76014070D01*
X115004976Y-75999654D01*
X115022219Y-75986866D01*
X115040632Y-75975830D01*
X115060038Y-75966651D01*
X115080250Y-75959419D01*
X115101074Y-75954203D01*
X115122309Y-75951053D01*
X115143750Y-75950000D01*
X115656250Y-75950000D01*
X115677691Y-75951053D01*
X115677691Y-75951053D01*
G37*
D12*
G04 #@! TD*
G04 #@! TO.P,C3,1*
G04 #@! TO.N,+BATT*
X115400000Y-76387500D03*
D11*
G04 #@! TO.N,GNDREF*
G04 #@! TO.C,C3*
G36*
X115677691Y-74376053D02*
X115698926Y-74379203D01*
X115719750Y-74384419D01*
X115739962Y-74391651D01*
X115759368Y-74400830D01*
X115777781Y-74411866D01*
X115795024Y-74424654D01*
X115810930Y-74439070D01*
X115825346Y-74454976D01*
X115838134Y-74472219D01*
X115849170Y-74490632D01*
X115858349Y-74510038D01*
X115865581Y-74530250D01*
X115870797Y-74551074D01*
X115873947Y-74572309D01*
X115875000Y-74593750D01*
X115875000Y-75031250D01*
X115873947Y-75052691D01*
X115870797Y-75073926D01*
X115865581Y-75094750D01*
X115858349Y-75114962D01*
X115849170Y-75134368D01*
X115838134Y-75152781D01*
X115825346Y-75170024D01*
X115810930Y-75185930D01*
X115795024Y-75200346D01*
X115777781Y-75213134D01*
X115759368Y-75224170D01*
X115739962Y-75233349D01*
X115719750Y-75240581D01*
X115698926Y-75245797D01*
X115677691Y-75248947D01*
X115656250Y-75250000D01*
X115143750Y-75250000D01*
X115122309Y-75248947D01*
X115101074Y-75245797D01*
X115080250Y-75240581D01*
X115060038Y-75233349D01*
X115040632Y-75224170D01*
X115022219Y-75213134D01*
X115004976Y-75200346D01*
X114989070Y-75185930D01*
X114974654Y-75170024D01*
X114961866Y-75152781D01*
X114950830Y-75134368D01*
X114941651Y-75114962D01*
X114934419Y-75094750D01*
X114929203Y-75073926D01*
X114926053Y-75052691D01*
X114925000Y-75031250D01*
X114925000Y-74593750D01*
X114926053Y-74572309D01*
X114929203Y-74551074D01*
X114934419Y-74530250D01*
X114941651Y-74510038D01*
X114950830Y-74490632D01*
X114961866Y-74472219D01*
X114974654Y-74454976D01*
X114989070Y-74439070D01*
X115004976Y-74424654D01*
X115022219Y-74411866D01*
X115040632Y-74400830D01*
X115060038Y-74391651D01*
X115080250Y-74384419D01*
X115101074Y-74379203D01*
X115122309Y-74376053D01*
X115143750Y-74375000D01*
X115656250Y-74375000D01*
X115677691Y-74376053D01*
X115677691Y-74376053D01*
G37*
D12*
G04 #@! TD*
G04 #@! TO.P,C3,2*
G04 #@! TO.N,GNDREF*
X115400000Y-74812500D03*
D11*
G04 #@! TO.N,GNDREF*
G04 #@! TO.C,C4*
G36*
X113977691Y-74751053D02*
X113998926Y-74754203D01*
X114019750Y-74759419D01*
X114039962Y-74766651D01*
X114059368Y-74775830D01*
X114077781Y-74786866D01*
X114095024Y-74799654D01*
X114110930Y-74814070D01*
X114125346Y-74829976D01*
X114138134Y-74847219D01*
X114149170Y-74865632D01*
X114158349Y-74885038D01*
X114165581Y-74905250D01*
X114170797Y-74926074D01*
X114173947Y-74947309D01*
X114175000Y-74968750D01*
X114175000Y-75406250D01*
X114173947Y-75427691D01*
X114170797Y-75448926D01*
X114165581Y-75469750D01*
X114158349Y-75489962D01*
X114149170Y-75509368D01*
X114138134Y-75527781D01*
X114125346Y-75545024D01*
X114110930Y-75560930D01*
X114095024Y-75575346D01*
X114077781Y-75588134D01*
X114059368Y-75599170D01*
X114039962Y-75608349D01*
X114019750Y-75615581D01*
X113998926Y-75620797D01*
X113977691Y-75623947D01*
X113956250Y-75625000D01*
X113443750Y-75625000D01*
X113422309Y-75623947D01*
X113401074Y-75620797D01*
X113380250Y-75615581D01*
X113360038Y-75608349D01*
X113340632Y-75599170D01*
X113322219Y-75588134D01*
X113304976Y-75575346D01*
X113289070Y-75560930D01*
X113274654Y-75545024D01*
X113261866Y-75527781D01*
X113250830Y-75509368D01*
X113241651Y-75489962D01*
X113234419Y-75469750D01*
X113229203Y-75448926D01*
X113226053Y-75427691D01*
X113225000Y-75406250D01*
X113225000Y-74968750D01*
X113226053Y-74947309D01*
X113229203Y-74926074D01*
X113234419Y-74905250D01*
X113241651Y-74885038D01*
X113250830Y-74865632D01*
X113261866Y-74847219D01*
X113274654Y-74829976D01*
X113289070Y-74814070D01*
X113304976Y-74799654D01*
X113322219Y-74786866D01*
X113340632Y-74775830D01*
X113360038Y-74766651D01*
X113380250Y-74759419D01*
X113401074Y-74754203D01*
X113422309Y-74751053D01*
X113443750Y-74750000D01*
X113956250Y-74750000D01*
X113977691Y-74751053D01*
X113977691Y-74751053D01*
G37*
D12*
G04 #@! TD*
G04 #@! TO.P,C4,2*
G04 #@! TO.N,GNDREF*
X113700000Y-75187500D03*
D11*
G04 #@! TO.N,Net-(C4-Pad1)*
G04 #@! TO.C,C4*
G36*
X113977691Y-73176053D02*
X113998926Y-73179203D01*
X114019750Y-73184419D01*
X114039962Y-73191651D01*
X114059368Y-73200830D01*
X114077781Y-73211866D01*
X114095024Y-73224654D01*
X114110930Y-73239070D01*
X114125346Y-73254976D01*
X114138134Y-73272219D01*
X114149170Y-73290632D01*
X114158349Y-73310038D01*
X114165581Y-73330250D01*
X114170797Y-73351074D01*
X114173947Y-73372309D01*
X114175000Y-73393750D01*
X114175000Y-73831250D01*
X114173947Y-73852691D01*
X114170797Y-73873926D01*
X114165581Y-73894750D01*
X114158349Y-73914962D01*
X114149170Y-73934368D01*
X114138134Y-73952781D01*
X114125346Y-73970024D01*
X114110930Y-73985930D01*
X114095024Y-74000346D01*
X114077781Y-74013134D01*
X114059368Y-74024170D01*
X114039962Y-74033349D01*
X114019750Y-74040581D01*
X113998926Y-74045797D01*
X113977691Y-74048947D01*
X113956250Y-74050000D01*
X113443750Y-74050000D01*
X113422309Y-74048947D01*
X113401074Y-74045797D01*
X113380250Y-74040581D01*
X113360038Y-74033349D01*
X113340632Y-74024170D01*
X113322219Y-74013134D01*
X113304976Y-74000346D01*
X113289070Y-73985930D01*
X113274654Y-73970024D01*
X113261866Y-73952781D01*
X113250830Y-73934368D01*
X113241651Y-73914962D01*
X113234419Y-73894750D01*
X113229203Y-73873926D01*
X113226053Y-73852691D01*
X113225000Y-73831250D01*
X113225000Y-73393750D01*
X113226053Y-73372309D01*
X113229203Y-73351074D01*
X113234419Y-73330250D01*
X113241651Y-73310038D01*
X113250830Y-73290632D01*
X113261866Y-73272219D01*
X113274654Y-73254976D01*
X113289070Y-73239070D01*
X113304976Y-73224654D01*
X113322219Y-73211866D01*
X113340632Y-73200830D01*
X113360038Y-73191651D01*
X113380250Y-73184419D01*
X113401074Y-73179203D01*
X113422309Y-73176053D01*
X113443750Y-73175000D01*
X113956250Y-73175000D01*
X113977691Y-73176053D01*
X113977691Y-73176053D01*
G37*
D12*
G04 #@! TD*
G04 #@! TO.P,C4,1*
G04 #@! TO.N,Net-(C4-Pad1)*
X113700000Y-73612500D03*
D11*
G04 #@! TO.N,Net-(C5-Pad1)*
G04 #@! TO.C,C5*
G36*
X112577691Y-78576053D02*
X112598926Y-78579203D01*
X112619750Y-78584419D01*
X112639962Y-78591651D01*
X112659368Y-78600830D01*
X112677781Y-78611866D01*
X112695024Y-78624654D01*
X112710930Y-78639070D01*
X112725346Y-78654976D01*
X112738134Y-78672219D01*
X112749170Y-78690632D01*
X112758349Y-78710038D01*
X112765581Y-78730250D01*
X112770797Y-78751074D01*
X112773947Y-78772309D01*
X112775000Y-78793750D01*
X112775000Y-79231250D01*
X112773947Y-79252691D01*
X112770797Y-79273926D01*
X112765581Y-79294750D01*
X112758349Y-79314962D01*
X112749170Y-79334368D01*
X112738134Y-79352781D01*
X112725346Y-79370024D01*
X112710930Y-79385930D01*
X112695024Y-79400346D01*
X112677781Y-79413134D01*
X112659368Y-79424170D01*
X112639962Y-79433349D01*
X112619750Y-79440581D01*
X112598926Y-79445797D01*
X112577691Y-79448947D01*
X112556250Y-79450000D01*
X112043750Y-79450000D01*
X112022309Y-79448947D01*
X112001074Y-79445797D01*
X111980250Y-79440581D01*
X111960038Y-79433349D01*
X111940632Y-79424170D01*
X111922219Y-79413134D01*
X111904976Y-79400346D01*
X111889070Y-79385930D01*
X111874654Y-79370024D01*
X111861866Y-79352781D01*
X111850830Y-79334368D01*
X111841651Y-79314962D01*
X111834419Y-79294750D01*
X111829203Y-79273926D01*
X111826053Y-79252691D01*
X111825000Y-79231250D01*
X111825000Y-78793750D01*
X111826053Y-78772309D01*
X111829203Y-78751074D01*
X111834419Y-78730250D01*
X111841651Y-78710038D01*
X111850830Y-78690632D01*
X111861866Y-78672219D01*
X111874654Y-78654976D01*
X111889070Y-78639070D01*
X111904976Y-78624654D01*
X111922219Y-78611866D01*
X111940632Y-78600830D01*
X111960038Y-78591651D01*
X111980250Y-78584419D01*
X112001074Y-78579203D01*
X112022309Y-78576053D01*
X112043750Y-78575000D01*
X112556250Y-78575000D01*
X112577691Y-78576053D01*
X112577691Y-78576053D01*
G37*
D12*
G04 #@! TD*
G04 #@! TO.P,C5,1*
G04 #@! TO.N,Net-(C5-Pad1)*
X112300000Y-79012500D03*
D11*
G04 #@! TO.N,GNDREF*
G04 #@! TO.C,C5*
G36*
X112577691Y-80151053D02*
X112598926Y-80154203D01*
X112619750Y-80159419D01*
X112639962Y-80166651D01*
X112659368Y-80175830D01*
X112677781Y-80186866D01*
X112695024Y-80199654D01*
X112710930Y-80214070D01*
X112725346Y-80229976D01*
X112738134Y-80247219D01*
X112749170Y-80265632D01*
X112758349Y-80285038D01*
X112765581Y-80305250D01*
X112770797Y-80326074D01*
X112773947Y-80347309D01*
X112775000Y-80368750D01*
X112775000Y-80806250D01*
X112773947Y-80827691D01*
X112770797Y-80848926D01*
X112765581Y-80869750D01*
X112758349Y-80889962D01*
X112749170Y-80909368D01*
X112738134Y-80927781D01*
X112725346Y-80945024D01*
X112710930Y-80960930D01*
X112695024Y-80975346D01*
X112677781Y-80988134D01*
X112659368Y-80999170D01*
X112639962Y-81008349D01*
X112619750Y-81015581D01*
X112598926Y-81020797D01*
X112577691Y-81023947D01*
X112556250Y-81025000D01*
X112043750Y-81025000D01*
X112022309Y-81023947D01*
X112001074Y-81020797D01*
X111980250Y-81015581D01*
X111960038Y-81008349D01*
X111940632Y-80999170D01*
X111922219Y-80988134D01*
X111904976Y-80975346D01*
X111889070Y-80960930D01*
X111874654Y-80945024D01*
X111861866Y-80927781D01*
X111850830Y-80909368D01*
X111841651Y-80889962D01*
X111834419Y-80869750D01*
X111829203Y-80848926D01*
X111826053Y-80827691D01*
X111825000Y-80806250D01*
X111825000Y-80368750D01*
X111826053Y-80347309D01*
X111829203Y-80326074D01*
X111834419Y-80305250D01*
X111841651Y-80285038D01*
X111850830Y-80265632D01*
X111861866Y-80247219D01*
X111874654Y-80229976D01*
X111889070Y-80214070D01*
X111904976Y-80199654D01*
X111922219Y-80186866D01*
X111940632Y-80175830D01*
X111960038Y-80166651D01*
X111980250Y-80159419D01*
X112001074Y-80154203D01*
X112022309Y-80151053D01*
X112043750Y-80150000D01*
X112556250Y-80150000D01*
X112577691Y-80151053D01*
X112577691Y-80151053D01*
G37*
D12*
G04 #@! TD*
G04 #@! TO.P,C5,2*
G04 #@! TO.N,GNDREF*
X112300000Y-80587500D03*
D11*
G04 #@! TO.N,GNDREF*
G04 #@! TO.C,C6*
G36*
X115327691Y-70926053D02*
X115348926Y-70929203D01*
X115369750Y-70934419D01*
X115389962Y-70941651D01*
X115409368Y-70950830D01*
X115427781Y-70961866D01*
X115445024Y-70974654D01*
X115460930Y-70989070D01*
X115475346Y-71004976D01*
X115488134Y-71022219D01*
X115499170Y-71040632D01*
X115508349Y-71060038D01*
X115515581Y-71080250D01*
X115520797Y-71101074D01*
X115523947Y-71122309D01*
X115525000Y-71143750D01*
X115525000Y-71656250D01*
X115523947Y-71677691D01*
X115520797Y-71698926D01*
X115515581Y-71719750D01*
X115508349Y-71739962D01*
X115499170Y-71759368D01*
X115488134Y-71777781D01*
X115475346Y-71795024D01*
X115460930Y-71810930D01*
X115445024Y-71825346D01*
X115427781Y-71838134D01*
X115409368Y-71849170D01*
X115389962Y-71858349D01*
X115369750Y-71865581D01*
X115348926Y-71870797D01*
X115327691Y-71873947D01*
X115306250Y-71875000D01*
X114868750Y-71875000D01*
X114847309Y-71873947D01*
X114826074Y-71870797D01*
X114805250Y-71865581D01*
X114785038Y-71858349D01*
X114765632Y-71849170D01*
X114747219Y-71838134D01*
X114729976Y-71825346D01*
X114714070Y-71810930D01*
X114699654Y-71795024D01*
X114686866Y-71777781D01*
X114675830Y-71759368D01*
X114666651Y-71739962D01*
X114659419Y-71719750D01*
X114654203Y-71698926D01*
X114651053Y-71677691D01*
X114650000Y-71656250D01*
X114650000Y-71143750D01*
X114651053Y-71122309D01*
X114654203Y-71101074D01*
X114659419Y-71080250D01*
X114666651Y-71060038D01*
X114675830Y-71040632D01*
X114686866Y-71022219D01*
X114699654Y-71004976D01*
X114714070Y-70989070D01*
X114729976Y-70974654D01*
X114747219Y-70961866D01*
X114765632Y-70950830D01*
X114785038Y-70941651D01*
X114805250Y-70934419D01*
X114826074Y-70929203D01*
X114847309Y-70926053D01*
X114868750Y-70925000D01*
X115306250Y-70925000D01*
X115327691Y-70926053D01*
X115327691Y-70926053D01*
G37*
D12*
G04 #@! TD*
G04 #@! TO.P,C6,2*
G04 #@! TO.N,GNDREF*
X115087500Y-71400000D03*
D11*
G04 #@! TO.N,Net-(C6-Pad1)*
G04 #@! TO.C,C6*
G36*
X113752691Y-70926053D02*
X113773926Y-70929203D01*
X113794750Y-70934419D01*
X113814962Y-70941651D01*
X113834368Y-70950830D01*
X113852781Y-70961866D01*
X113870024Y-70974654D01*
X113885930Y-70989070D01*
X113900346Y-71004976D01*
X113913134Y-71022219D01*
X113924170Y-71040632D01*
X113933349Y-71060038D01*
X113940581Y-71080250D01*
X113945797Y-71101074D01*
X113948947Y-71122309D01*
X113950000Y-71143750D01*
X113950000Y-71656250D01*
X113948947Y-71677691D01*
X113945797Y-71698926D01*
X113940581Y-71719750D01*
X113933349Y-71739962D01*
X113924170Y-71759368D01*
X113913134Y-71777781D01*
X113900346Y-71795024D01*
X113885930Y-71810930D01*
X113870024Y-71825346D01*
X113852781Y-71838134D01*
X113834368Y-71849170D01*
X113814962Y-71858349D01*
X113794750Y-71865581D01*
X113773926Y-71870797D01*
X113752691Y-71873947D01*
X113731250Y-71875000D01*
X113293750Y-71875000D01*
X113272309Y-71873947D01*
X113251074Y-71870797D01*
X113230250Y-71865581D01*
X113210038Y-71858349D01*
X113190632Y-71849170D01*
X113172219Y-71838134D01*
X113154976Y-71825346D01*
X113139070Y-71810930D01*
X113124654Y-71795024D01*
X113111866Y-71777781D01*
X113100830Y-71759368D01*
X113091651Y-71739962D01*
X113084419Y-71719750D01*
X113079203Y-71698926D01*
X113076053Y-71677691D01*
X113075000Y-71656250D01*
X113075000Y-71143750D01*
X113076053Y-71122309D01*
X113079203Y-71101074D01*
X113084419Y-71080250D01*
X113091651Y-71060038D01*
X113100830Y-71040632D01*
X113111866Y-71022219D01*
X113124654Y-71004976D01*
X113139070Y-70989070D01*
X113154976Y-70974654D01*
X113172219Y-70961866D01*
X113190632Y-70950830D01*
X113210038Y-70941651D01*
X113230250Y-70934419D01*
X113251074Y-70929203D01*
X113272309Y-70926053D01*
X113293750Y-70925000D01*
X113731250Y-70925000D01*
X113752691Y-70926053D01*
X113752691Y-70926053D01*
G37*
D12*
G04 #@! TD*
G04 #@! TO.P,C6,1*
G04 #@! TO.N,Net-(C6-Pad1)*
X113512500Y-71400000D03*
D11*
G04 #@! TO.N,/ANT*
G04 #@! TO.C,C7*
G36*
X109052691Y-78526053D02*
X109073926Y-78529203D01*
X109094750Y-78534419D01*
X109114962Y-78541651D01*
X109134368Y-78550830D01*
X109152781Y-78561866D01*
X109170024Y-78574654D01*
X109185930Y-78589070D01*
X109200346Y-78604976D01*
X109213134Y-78622219D01*
X109224170Y-78640632D01*
X109233349Y-78660038D01*
X109240581Y-78680250D01*
X109245797Y-78701074D01*
X109248947Y-78722309D01*
X109250000Y-78743750D01*
X109250000Y-79256250D01*
X109248947Y-79277691D01*
X109245797Y-79298926D01*
X109240581Y-79319750D01*
X109233349Y-79339962D01*
X109224170Y-79359368D01*
X109213134Y-79377781D01*
X109200346Y-79395024D01*
X109185930Y-79410930D01*
X109170024Y-79425346D01*
X109152781Y-79438134D01*
X109134368Y-79449170D01*
X109114962Y-79458349D01*
X109094750Y-79465581D01*
X109073926Y-79470797D01*
X109052691Y-79473947D01*
X109031250Y-79475000D01*
X108593750Y-79475000D01*
X108572309Y-79473947D01*
X108551074Y-79470797D01*
X108530250Y-79465581D01*
X108510038Y-79458349D01*
X108490632Y-79449170D01*
X108472219Y-79438134D01*
X108454976Y-79425346D01*
X108439070Y-79410930D01*
X108424654Y-79395024D01*
X108411866Y-79377781D01*
X108400830Y-79359368D01*
X108391651Y-79339962D01*
X108384419Y-79319750D01*
X108379203Y-79298926D01*
X108376053Y-79277691D01*
X108375000Y-79256250D01*
X108375000Y-78743750D01*
X108376053Y-78722309D01*
X108379203Y-78701074D01*
X108384419Y-78680250D01*
X108391651Y-78660038D01*
X108400830Y-78640632D01*
X108411866Y-78622219D01*
X108424654Y-78604976D01*
X108439070Y-78589070D01*
X108454976Y-78574654D01*
X108472219Y-78561866D01*
X108490632Y-78550830D01*
X108510038Y-78541651D01*
X108530250Y-78534419D01*
X108551074Y-78529203D01*
X108572309Y-78526053D01*
X108593750Y-78525000D01*
X109031250Y-78525000D01*
X109052691Y-78526053D01*
X109052691Y-78526053D01*
G37*
D12*
G04 #@! TD*
G04 #@! TO.P,C7,1*
G04 #@! TO.N,/ANT*
X108812500Y-79000000D03*
D11*
G04 #@! TO.N,GNDREF*
G04 #@! TO.C,C7*
G36*
X110627691Y-78526053D02*
X110648926Y-78529203D01*
X110669750Y-78534419D01*
X110689962Y-78541651D01*
X110709368Y-78550830D01*
X110727781Y-78561866D01*
X110745024Y-78574654D01*
X110760930Y-78589070D01*
X110775346Y-78604976D01*
X110788134Y-78622219D01*
X110799170Y-78640632D01*
X110808349Y-78660038D01*
X110815581Y-78680250D01*
X110820797Y-78701074D01*
X110823947Y-78722309D01*
X110825000Y-78743750D01*
X110825000Y-79256250D01*
X110823947Y-79277691D01*
X110820797Y-79298926D01*
X110815581Y-79319750D01*
X110808349Y-79339962D01*
X110799170Y-79359368D01*
X110788134Y-79377781D01*
X110775346Y-79395024D01*
X110760930Y-79410930D01*
X110745024Y-79425346D01*
X110727781Y-79438134D01*
X110709368Y-79449170D01*
X110689962Y-79458349D01*
X110669750Y-79465581D01*
X110648926Y-79470797D01*
X110627691Y-79473947D01*
X110606250Y-79475000D01*
X110168750Y-79475000D01*
X110147309Y-79473947D01*
X110126074Y-79470797D01*
X110105250Y-79465581D01*
X110085038Y-79458349D01*
X110065632Y-79449170D01*
X110047219Y-79438134D01*
X110029976Y-79425346D01*
X110014070Y-79410930D01*
X109999654Y-79395024D01*
X109986866Y-79377781D01*
X109975830Y-79359368D01*
X109966651Y-79339962D01*
X109959419Y-79319750D01*
X109954203Y-79298926D01*
X109951053Y-79277691D01*
X109950000Y-79256250D01*
X109950000Y-78743750D01*
X109951053Y-78722309D01*
X109954203Y-78701074D01*
X109959419Y-78680250D01*
X109966651Y-78660038D01*
X109975830Y-78640632D01*
X109986866Y-78622219D01*
X109999654Y-78604976D01*
X110014070Y-78589070D01*
X110029976Y-78574654D01*
X110047219Y-78561866D01*
X110065632Y-78550830D01*
X110085038Y-78541651D01*
X110105250Y-78534419D01*
X110126074Y-78529203D01*
X110147309Y-78526053D01*
X110168750Y-78525000D01*
X110606250Y-78525000D01*
X110627691Y-78526053D01*
X110627691Y-78526053D01*
G37*
D12*
G04 #@! TD*
G04 #@! TO.P,C7,2*
G04 #@! TO.N,GNDREF*
X110387500Y-79000000D03*
D11*
G04 #@! TO.N,Net-(AE1-Pad1)*
G04 #@! TO.C,L1*
G36*
X109157691Y-81851053D02*
X109178926Y-81854203D01*
X109199750Y-81859419D01*
X109219962Y-81866651D01*
X109239368Y-81875830D01*
X109257781Y-81886866D01*
X109275024Y-81899654D01*
X109290930Y-81914070D01*
X109305346Y-81929976D01*
X109318134Y-81947219D01*
X109329170Y-81965632D01*
X109338349Y-81985038D01*
X109345581Y-82005250D01*
X109350797Y-82026074D01*
X109353947Y-82047309D01*
X109355000Y-82068750D01*
X109355000Y-82506250D01*
X109353947Y-82527691D01*
X109350797Y-82548926D01*
X109345581Y-82569750D01*
X109338349Y-82589962D01*
X109329170Y-82609368D01*
X109318134Y-82627781D01*
X109305346Y-82645024D01*
X109290930Y-82660930D01*
X109275024Y-82675346D01*
X109257781Y-82688134D01*
X109239368Y-82699170D01*
X109219962Y-82708349D01*
X109199750Y-82715581D01*
X109178926Y-82720797D01*
X109157691Y-82723947D01*
X109136250Y-82725000D01*
X108623750Y-82725000D01*
X108602309Y-82723947D01*
X108581074Y-82720797D01*
X108560250Y-82715581D01*
X108540038Y-82708349D01*
X108520632Y-82699170D01*
X108502219Y-82688134D01*
X108484976Y-82675346D01*
X108469070Y-82660930D01*
X108454654Y-82645024D01*
X108441866Y-82627781D01*
X108430830Y-82609368D01*
X108421651Y-82589962D01*
X108414419Y-82569750D01*
X108409203Y-82548926D01*
X108406053Y-82527691D01*
X108405000Y-82506250D01*
X108405000Y-82068750D01*
X108406053Y-82047309D01*
X108409203Y-82026074D01*
X108414419Y-82005250D01*
X108421651Y-81985038D01*
X108430830Y-81965632D01*
X108441866Y-81947219D01*
X108454654Y-81929976D01*
X108469070Y-81914070D01*
X108484976Y-81899654D01*
X108502219Y-81886866D01*
X108520632Y-81875830D01*
X108540038Y-81866651D01*
X108560250Y-81859419D01*
X108581074Y-81854203D01*
X108602309Y-81851053D01*
X108623750Y-81850000D01*
X109136250Y-81850000D01*
X109157691Y-81851053D01*
X109157691Y-81851053D01*
G37*
D12*
G04 #@! TD*
G04 #@! TO.P,L1,1*
G04 #@! TO.N,Net-(AE1-Pad1)*
X108880000Y-82287500D03*
D11*
G04 #@! TO.N,/ANT*
G04 #@! TO.C,L1*
G36*
X109157691Y-80276053D02*
X109178926Y-80279203D01*
X109199750Y-80284419D01*
X109219962Y-80291651D01*
X109239368Y-80300830D01*
X109257781Y-80311866D01*
X109275024Y-80324654D01*
X109290930Y-80339070D01*
X109305346Y-80354976D01*
X109318134Y-80372219D01*
X109329170Y-80390632D01*
X109338349Y-80410038D01*
X109345581Y-80430250D01*
X109350797Y-80451074D01*
X109353947Y-80472309D01*
X109355000Y-80493750D01*
X109355000Y-80931250D01*
X109353947Y-80952691D01*
X109350797Y-80973926D01*
X109345581Y-80994750D01*
X109338349Y-81014962D01*
X109329170Y-81034368D01*
X109318134Y-81052781D01*
X109305346Y-81070024D01*
X109290930Y-81085930D01*
X109275024Y-81100346D01*
X109257781Y-81113134D01*
X109239368Y-81124170D01*
X109219962Y-81133349D01*
X109199750Y-81140581D01*
X109178926Y-81145797D01*
X109157691Y-81148947D01*
X109136250Y-81150000D01*
X108623750Y-81150000D01*
X108602309Y-81148947D01*
X108581074Y-81145797D01*
X108560250Y-81140581D01*
X108540038Y-81133349D01*
X108520632Y-81124170D01*
X108502219Y-81113134D01*
X108484976Y-81100346D01*
X108469070Y-81085930D01*
X108454654Y-81070024D01*
X108441866Y-81052781D01*
X108430830Y-81034368D01*
X108421651Y-81014962D01*
X108414419Y-80994750D01*
X108409203Y-80973926D01*
X108406053Y-80952691D01*
X108405000Y-80931250D01*
X108405000Y-80493750D01*
X108406053Y-80472309D01*
X108409203Y-80451074D01*
X108414419Y-80430250D01*
X108421651Y-80410038D01*
X108430830Y-80390632D01*
X108441866Y-80372219D01*
X108454654Y-80354976D01*
X108469070Y-80339070D01*
X108484976Y-80324654D01*
X108502219Y-80311866D01*
X108520632Y-80300830D01*
X108540038Y-80291651D01*
X108560250Y-80284419D01*
X108581074Y-80279203D01*
X108602309Y-80276053D01*
X108623750Y-80275000D01*
X109136250Y-80275000D01*
X109157691Y-80276053D01*
X109157691Y-80276053D01*
G37*
D12*
G04 #@! TD*
G04 #@! TO.P,L1,2*
G04 #@! TO.N,/ANT*
X108880000Y-80712500D03*
D19*
G04 #@! TO.P,U1,1*
G04 #@! TO.N,Net-(C6-Pad1)*
X111375000Y-72062500D03*
D20*
G04 #@! TO.P,U1,9*
G04 #@! TO.N,+BATT*
X107187500Y-72750000D03*
D19*
G04 #@! TO.P,U1,17*
G04 #@! TO.N,/SWDCLK*
X107875000Y-76937500D03*
D20*
G04 #@! TO.P,U1,25*
G04 #@! TO.N,+BATT*
X112062500Y-76250000D03*
D21*
G04 #@! TO.P,U1,33*
G04 #@! TO.N,GNDREF*
X109625000Y-74500000D03*
D19*
G04 #@! TO.P,U1,2*
G04 #@! TO.N,Net-(C8-Pad2)*
X110875000Y-72062500D03*
G04 #@! TO.P,U1,3*
G04 #@! TO.N,Net-(C9-Pad2)*
X110375000Y-72062500D03*
G04 #@! TO.P,U1,4*
G04 #@! TO.N,Net-(U1-Pad4)*
X109875000Y-72062500D03*
G04 #@! TO.P,U1,5*
G04 #@! TO.N,Net-(U1-Pad5)*
X109375000Y-72062500D03*
G04 #@! TO.P,U1,6*
G04 #@! TO.N,/SDA*
X108875000Y-72062500D03*
G04 #@! TO.P,U1,7*
G04 #@! TO.N,/SCL*
X108375000Y-72062500D03*
G04 #@! TO.P,U1,8*
G04 #@! TO.N,Net-(U1-Pad8)*
X107875000Y-72062500D03*
D20*
G04 #@! TO.P,U1,10*
G04 #@! TO.N,Net-(D1-Pad2)*
X107187500Y-73250000D03*
G04 #@! TO.P,U1,11*
G04 #@! TO.N,Net-(U1-Pad11)*
X107187500Y-73750000D03*
G04 #@! TO.P,U1,12*
G04 #@! TO.N,/TX*
X107187500Y-74250000D03*
G04 #@! TO.P,U1,13*
G04 #@! TO.N,/RX*
X107187500Y-74750000D03*
G04 #@! TO.P,U1,14*
G04 #@! TO.N,Net-(U1-Pad14)*
X107187500Y-75250000D03*
G04 #@! TO.P,U1,15*
G04 #@! TO.N,Net-(U1-Pad15)*
X107187500Y-75750000D03*
G04 #@! TO.P,U1,16*
G04 #@! TO.N,Net-(U1-Pad16)*
X107187500Y-76250000D03*
D19*
G04 #@! TO.P,U1,18*
G04 #@! TO.N,/SWDIO*
X108375000Y-76937500D03*
G04 #@! TO.P,U1,19*
G04 #@! TO.N,/ANT*
X108875000Y-76937500D03*
G04 #@! TO.P,U1,20*
G04 #@! TO.N,GNDREF*
X109375000Y-76937500D03*
G04 #@! TO.P,U1,21*
G04 #@! TO.N,Net-(U1-Pad21)*
X109875000Y-76937500D03*
G04 #@! TO.P,U1,22*
G04 #@! TO.N,Net-(C5-Pad1)*
X110375000Y-76937500D03*
G04 #@! TO.P,U1,23*
G04 #@! TO.N,Net-(C1-Pad1)*
X110875000Y-76937500D03*
G04 #@! TO.P,U1,24*
G04 #@! TO.N,Net-(C2-Pad1)*
X111375000Y-76937500D03*
D20*
G04 #@! TO.P,U1,26*
G04 #@! TO.N,Net-(U1-Pad26)*
X112062500Y-75750000D03*
G04 #@! TO.P,U1,27*
G04 #@! TO.N,Net-(U1-Pad27)*
X112062500Y-75250000D03*
G04 #@! TO.P,U1,28*
G04 #@! TO.N,Net-(U1-Pad28)*
X112062500Y-74750000D03*
G04 #@! TO.P,U1,29*
G04 #@! TO.N,GNDREF*
X112062500Y-74250000D03*
G04 #@! TO.P,U1,30*
G04 #@! TO.N,Net-(C4-Pad1)*
X112062500Y-73750000D03*
G04 #@! TO.P,U1,31*
G04 #@! TO.N,Net-(U1-Pad31)*
X112062500Y-73250000D03*
G04 #@! TO.P,U1,32*
G04 #@! TO.N,+BATT*
X112062500Y-72750000D03*
G04 #@! TD*
D22*
G04 #@! TO.N,GNDREF*
X107050000Y-81050000D03*
X107000000Y-85400000D03*
X113450000Y-67600000D03*
X110800000Y-70050000D03*
X107050000Y-83050000D03*
X111700000Y-80000000D03*
X118950000Y-81400000D03*
X117600000Y-82850000D03*
X115450000Y-84150000D03*
X113100000Y-84750000D03*
X111700000Y-83500000D03*
X108425000Y-75675000D03*
X110875000Y-73250000D03*
X108425000Y-73300000D03*
X110825000Y-75700000D03*
X114500000Y-74475000D03*
X113400000Y-77700000D03*
X119900000Y-79750000D03*
X111700000Y-81800000D03*
X116400000Y-81900000D03*
X114200000Y-80200000D03*
X114550000Y-71400000D03*
X118200000Y-72900000D03*
X118200000Y-69850000D03*
X115200000Y-69200000D03*
X106775000Y-70475000D03*
X109600000Y-74500000D03*
X107000000Y-87050000D03*
X121700000Y-79350000D03*
X104200000Y-70600000D03*
X107315332Y-79465332D03*
X105425000Y-77625000D03*
X102850000Y-76250000D03*
G04 #@! TD*
D23*
G04 #@! TO.N,/RX*
X102684699Y-80887273D02*
X103171375Y-81373949D01*
X102684699Y-79968550D02*
X102684699Y-80887273D01*
X103171375Y-81373949D02*
X103565074Y-81767648D01*
X103098255Y-79554994D02*
X102684699Y-79968550D01*
X107112501Y-74824999D02*
X106600697Y-74824999D01*
X107187500Y-74750000D02*
X107112501Y-74824999D01*
X106600697Y-74824999D02*
X106450000Y-74975696D01*
X106450000Y-74975696D02*
X106450000Y-78200000D01*
X106450000Y-78200000D02*
X105095006Y-79554994D01*
X105095006Y-79554994D02*
X103098255Y-79554994D01*
G04 #@! TO.N,/TX*
X103643299Y-82867500D02*
X104200074Y-82867500D01*
X102275000Y-81499201D02*
X103643299Y-82867500D01*
X102466001Y-79250001D02*
X102275000Y-79250001D01*
X102275000Y-79250001D02*
X102275000Y-81499201D01*
X104725010Y-75578870D02*
X104725010Y-76990992D01*
X106609998Y-74250000D02*
X106059998Y-74800000D01*
X106046140Y-74800000D02*
X105571140Y-75275000D01*
X105571140Y-75275000D02*
X105028880Y-75275000D01*
X104725010Y-76990992D02*
X102466001Y-79250001D01*
X107187500Y-74250000D02*
X106609998Y-74250000D01*
X106059998Y-74800000D02*
X106046140Y-74800000D01*
X105028880Y-75275000D02*
X104725010Y-75578870D01*
G04 #@! TO.N,/SWDIO*
X105693625Y-80097075D02*
X108375000Y-77415700D01*
X105693625Y-81838801D02*
X105693625Y-80097075D01*
X105299926Y-82232500D02*
X105693625Y-81838801D01*
X108375000Y-77415700D02*
X108375000Y-76937500D01*
G04 #@! TO.N,/SWDCLK*
X107875000Y-77350000D02*
X104664926Y-80560074D01*
X104664926Y-80575873D02*
X104664926Y-81132648D01*
X104664926Y-80560074D02*
X104664926Y-80575873D01*
X107875000Y-76937500D02*
X107875000Y-77350000D01*
D24*
G04 #@! TO.N,Net-(AE1-Pad1)*
X122019244Y-83124431D02*
X122127776Y-82943760D01*
X122528478Y-82202213D02*
X122620123Y-82012435D01*
X121907430Y-83303113D02*
X122019244Y-83124431D01*
X122433369Y-82390335D02*
X122528478Y-82202213D01*
X121792398Y-83479703D02*
X121907430Y-83303113D01*
X120760413Y-84811262D02*
X120899865Y-84653244D01*
X120618093Y-84966728D02*
X120760413Y-84811262D01*
X120899865Y-84653244D02*
X121036455Y-84492667D01*
X120021248Y-85561891D02*
X120174507Y-85417196D01*
X119865375Y-85703777D02*
X120021248Y-85561891D01*
X121552761Y-83826481D02*
X121674162Y-83654178D01*
X119706971Y-85842778D02*
X119865375Y-85703777D01*
X121428255Y-83996527D02*
X121552761Y-83826481D01*
X120472972Y-85119571D02*
X120618093Y-84966728D01*
X119546070Y-85978863D02*
X119706971Y-85842778D01*
X122708310Y-81820994D02*
X122792985Y-81627999D01*
X121300667Y-84164285D02*
X121428255Y-83996527D01*
X120325123Y-85269714D02*
X120472972Y-85119571D01*
X119382694Y-86112014D02*
X119546070Y-85978863D01*
X121170047Y-84329691D02*
X121300667Y-84164285D01*
X121036455Y-84492667D02*
X121170047Y-84329691D01*
X120174507Y-85417196D02*
X120325123Y-85269714D01*
X119216875Y-86242203D02*
X119382694Y-86112014D01*
X118530912Y-86731998D02*
X118705745Y-86614237D01*
X114051717Y-88491054D02*
X114259297Y-88454592D01*
X113843527Y-88523727D02*
X114051717Y-88491054D01*
X113634704Y-88552614D02*
X113843527Y-88523727D01*
X113425451Y-88577685D02*
X113634704Y-88552614D01*
X112584906Y-88639757D02*
X112795417Y-88629984D01*
X122874127Y-81433511D02*
X122951737Y-81237512D01*
X122127776Y-82943760D02*
X122232997Y-82761145D01*
X118705745Y-86614237D02*
X118878389Y-86493322D01*
X115889120Y-88028285D02*
X116087966Y-87958440D01*
X117811163Y-87170539D02*
X117994064Y-87065839D01*
X116481668Y-87807949D02*
X116676440Y-87727334D01*
X114259297Y-88454592D02*
X114466230Y-88414346D01*
X108880000Y-85680000D02*
X111843163Y-88643163D01*
X108880000Y-82287500D02*
X108880000Y-85680000D01*
X114466230Y-88414346D02*
X114672302Y-88370357D01*
X111843163Y-88643163D02*
X111952742Y-88646061D01*
X114672302Y-88370357D02*
X114877576Y-88322615D01*
X117626367Y-87271902D02*
X117811163Y-87170539D01*
X111952742Y-88646061D02*
X112163474Y-88647798D01*
X112374205Y-88645697D02*
X112584906Y-88639757D01*
X122951737Y-81237512D02*
X123025739Y-81040204D01*
X114877576Y-88322615D02*
X115081998Y-88271129D01*
X115081998Y-88271129D02*
X115285405Y-88215940D01*
X115285405Y-88215940D02*
X115487785Y-88157053D01*
X115487785Y-88157053D02*
X115689000Y-88094508D01*
X122792985Y-81627999D02*
X122874127Y-81433511D01*
X122620123Y-82012435D02*
X122708310Y-81820994D01*
X115689000Y-88094508D02*
X115889120Y-88028285D01*
X122232997Y-82761145D02*
X122334876Y-82576644D01*
X118878389Y-86493322D02*
X119048811Y-86369278D01*
X116087966Y-87958440D02*
X116285485Y-87884994D01*
X117994064Y-87065839D02*
X118175036Y-86957821D01*
X116676440Y-87727334D02*
X116869652Y-87643211D01*
X112163474Y-88647798D02*
X112374205Y-88645697D01*
X117251408Y-87464441D02*
X117439751Y-87369885D01*
X122334876Y-82576644D02*
X122433369Y-82390335D01*
X121674162Y-83654178D02*
X121792398Y-83479703D01*
X119048811Y-86369278D02*
X119216875Y-86242203D01*
X116285485Y-87884994D02*
X116481668Y-87807949D01*
X118175036Y-86957821D02*
X118354015Y-86846521D01*
X112795417Y-88629984D02*
X113005710Y-88616378D01*
X116869652Y-87643211D02*
X117061380Y-87555548D01*
X118354015Y-86846521D02*
X118530912Y-86731998D01*
X113005710Y-88616378D02*
X113215785Y-88598940D01*
X117061380Y-87555548D02*
X117251408Y-87464441D01*
X113215785Y-88598940D02*
X113425451Y-88577685D01*
X117439751Y-87369885D02*
X117626367Y-87271902D01*
D25*
G04 #@! TO.N,GNDREF*
X109375000Y-77987500D02*
X109375000Y-76937500D01*
X110387500Y-79000000D02*
X109375000Y-77987500D01*
X109375000Y-74725000D02*
X109600000Y-74500000D01*
X109375000Y-76937500D02*
X109375000Y-74725000D01*
X109875000Y-74250000D02*
X109625000Y-74500000D01*
X112062500Y-74250000D02*
X109875000Y-74250000D01*
X109650000Y-74450000D02*
X109650000Y-74450000D01*
X109650000Y-74450000D02*
X109650000Y-74450000D01*
X109600000Y-74500000D02*
X109650000Y-74450000D01*
D23*
X113250000Y-67800000D02*
X113450000Y-67600000D01*
X112000000Y-67800000D02*
X113250000Y-67800000D01*
G04 #@! TO.N,/SDA*
X109487500Y-70612500D02*
X109487500Y-70400000D01*
X108875000Y-71225000D02*
X109487500Y-70612500D01*
X108875000Y-72062500D02*
X108875000Y-71225000D01*
X112000000Y-69150000D02*
X112000000Y-68750000D01*
X111850000Y-69300000D02*
X112000000Y-69150000D01*
X109487500Y-70400000D02*
X109487500Y-70112500D01*
X110300000Y-69300000D02*
X111850000Y-69300000D01*
X109487500Y-70112500D02*
X110300000Y-69300000D01*
G04 #@! TO.N,+BATT*
X106300000Y-68700000D02*
X106012500Y-68700000D01*
X109200000Y-67800000D02*
X107200000Y-67800000D01*
X107200000Y-67800000D02*
X106300000Y-68700000D01*
X107912500Y-70400000D02*
X107700000Y-70400000D01*
X106900000Y-69587500D02*
X106012500Y-68700000D01*
X106900000Y-69600000D02*
X106900000Y-69587500D01*
X107700000Y-70400000D02*
X106900000Y-69600000D01*
X107400000Y-72537500D02*
X107187500Y-72750000D01*
X107912500Y-70400000D02*
X107400000Y-70912500D01*
X107400000Y-70912500D02*
X107400000Y-72537500D01*
D24*
X112835001Y-76325001D02*
X112062500Y-76325001D01*
X114762501Y-76325001D02*
X112835001Y-76325001D01*
X114825000Y-76387500D02*
X114762501Y-76325001D01*
X115400000Y-76387500D02*
X114825000Y-76387500D01*
X114750888Y-72438388D02*
X112374112Y-72438388D01*
X112374112Y-72438388D02*
X112137501Y-72674999D01*
X115212500Y-72900000D02*
X114750888Y-72438388D01*
X116612500Y-76387500D02*
X115400000Y-76387500D01*
X122600000Y-77800000D02*
X118025000Y-77800000D01*
X118025000Y-77800000D02*
X116612500Y-76387500D01*
X116987500Y-74675000D02*
X115212500Y-72900000D01*
X122565000Y-74675000D02*
X116987500Y-74675000D01*
X122570000Y-74700000D02*
X122570000Y-74670000D01*
X122570000Y-74670000D02*
X122565000Y-74675000D01*
X107074999Y-72674999D02*
X107174999Y-72674999D01*
X106600000Y-72200000D02*
X107074999Y-72674999D01*
X103575000Y-72200000D02*
X106600000Y-72200000D01*
X101770000Y-74700000D02*
X101770000Y-74005000D01*
X101770000Y-74005000D02*
X103575000Y-72200000D01*
D26*
X102919435Y-83967352D02*
X104278299Y-83967352D01*
X102806383Y-83813509D02*
X102919435Y-83967352D01*
X102452354Y-83293029D02*
X102567204Y-83468671D01*
X102685242Y-83642206D02*
X102806383Y-83813509D01*
X102025504Y-82570441D02*
X102127283Y-82754010D01*
X101674990Y-77895010D02*
X101674990Y-81867562D01*
X104278299Y-83967352D02*
X104835074Y-83967352D01*
X102340719Y-83115320D02*
X102452354Y-83293029D01*
X102127283Y-82754010D02*
X102232327Y-82935588D01*
X101770000Y-77800000D02*
X101674990Y-77895010D01*
X102567204Y-83468671D02*
X102685242Y-83642206D01*
X102232327Y-82935588D02*
X102340719Y-83115320D01*
X101674990Y-81867562D02*
X101740517Y-82009166D01*
X101740517Y-82009166D02*
X101832105Y-82197990D01*
X101832105Y-82197990D02*
X101927093Y-82385066D01*
X101927093Y-82385066D02*
X102025504Y-82570441D01*
D23*
G04 #@! TO.N,/SCL*
X108387510Y-69500010D02*
X107587500Y-68700000D01*
X108749990Y-69500010D02*
X108387510Y-69500010D01*
X108849990Y-69500010D02*
X108749990Y-69500010D01*
X109200000Y-69150000D02*
X108849990Y-69500010D01*
X109200000Y-68750000D02*
X109200000Y-69150000D01*
X108375000Y-71159300D02*
X108749990Y-70784310D01*
X108749990Y-70784310D02*
X108749990Y-69500010D01*
X108375000Y-72062500D02*
X108375000Y-71159300D01*
D25*
G04 #@! TO.N,Net-(C6-Pad1)*
X113500000Y-71400000D02*
X111800000Y-71400000D01*
X111375000Y-71825000D02*
X111375000Y-72062500D01*
X111800000Y-71400000D02*
X111375000Y-71825000D01*
G04 #@! TO.N,/ANT*
X108875000Y-78937500D02*
X108875000Y-76937500D01*
X108812500Y-79000000D02*
X108875000Y-78937500D01*
X108880000Y-79067500D02*
X108812500Y-79000000D01*
X108880000Y-80712500D02*
X108880000Y-79067500D01*
G04 #@! TO.N,Net-(C5-Pad1)*
X110375000Y-77650000D02*
X110375000Y-76937500D01*
X110375000Y-77686410D02*
X110375000Y-77650000D01*
X110788601Y-78100011D02*
X110375000Y-77686410D01*
X111387511Y-78100011D02*
X110788601Y-78100011D01*
X112300000Y-79012500D02*
X111387511Y-78100011D01*
D23*
G04 #@! TO.N,Net-(C1-Pad1)*
X114412500Y-82162500D02*
X114200000Y-81950000D01*
X114412500Y-83700000D02*
X114412500Y-82162500D01*
X114100000Y-81950000D02*
X114200000Y-81950000D01*
X110875000Y-77550000D02*
X110975001Y-77650001D01*
X110875000Y-76937500D02*
X110875000Y-77550000D01*
X110975001Y-77650001D02*
X112146141Y-77650001D01*
X112146141Y-77650001D02*
X113199999Y-78703859D01*
X113199999Y-78703859D02*
X113199999Y-81049999D01*
X113199999Y-81049999D02*
X114100000Y-81950000D01*
G04 #@! TO.N,Net-(C2-Pad1)*
X115987500Y-79837500D02*
X116400000Y-80250000D01*
X115987500Y-78600000D02*
X115987500Y-79837500D01*
X111412500Y-76900000D02*
X111375000Y-76937500D01*
X114300000Y-76900000D02*
X111412500Y-76900000D01*
X115262500Y-77300000D02*
X114700000Y-77300000D01*
X114700000Y-77300000D02*
X114300000Y-76900000D01*
X115987500Y-78600000D02*
X115987500Y-78025000D01*
X115987500Y-78025000D02*
X115262500Y-77300000D01*
D25*
G04 #@! TO.N,Net-(C4-Pad1)*
X113562500Y-73750000D02*
X113700000Y-73612500D01*
X112062500Y-73750000D02*
X113562500Y-73750000D01*
D23*
G04 #@! TO.N,Net-(C8-Pad2)*
X110875000Y-71590700D02*
X110875000Y-72062500D01*
X111840710Y-70624990D02*
X110875000Y-71590700D01*
X115075010Y-70624990D02*
X111840710Y-70624990D01*
X116450000Y-69200000D02*
X116450000Y-69250000D01*
X116450000Y-69250000D02*
X115075010Y-70624990D01*
X116600000Y-69350000D02*
X116450000Y-69200000D01*
X116600000Y-71400000D02*
X116600000Y-69350000D01*
G04 #@! TO.N,Net-(C9-Pad2)*
X114200000Y-68950000D02*
X113950000Y-69200000D01*
X114512500Y-67100000D02*
X114200000Y-67412500D01*
X114200000Y-67412500D02*
X114200000Y-68950000D01*
X110375000Y-72025000D02*
X110375000Y-72062500D01*
X113950000Y-69550000D02*
X113300000Y-70200000D01*
X113300000Y-70200000D02*
X111700000Y-70200000D01*
X111700000Y-70200000D02*
X110400000Y-71500000D01*
X113950000Y-69200000D02*
X113950000Y-69550000D01*
X110400000Y-71500000D02*
X110400000Y-72000000D01*
X110400000Y-72000000D02*
X110375000Y-72025000D01*
G04 #@! TO.N,Net-(D1-Pad2)*
X106725000Y-73250000D02*
X107187500Y-73250000D01*
X105587500Y-74050000D02*
X105925000Y-74050000D01*
X105925000Y-74050000D02*
X106725000Y-73250000D01*
G04 #@! TO.N,Net-(D1-Pad1)*
X104012500Y-76025000D02*
X103987500Y-76050000D01*
X104012500Y-74050000D02*
X104012500Y-76025000D01*
G04 #@! TD*
D11*
G04 #@! TO.N,GNDREF*
G36*
X107450000Y-83737810D02*
X107322060Y-83609870D01*
X107048131Y-83496405D01*
X106751633Y-83496405D01*
X106477704Y-83609870D01*
X106451707Y-83635867D01*
X106451079Y-83625946D01*
X106436838Y-83622130D01*
X106161202Y-83346493D01*
X105949067Y-83558628D01*
X106012571Y-83622132D01*
X105931110Y-83926150D01*
X106017317Y-83983471D01*
X106229478Y-83912641D01*
X106154582Y-84093456D01*
X106154582Y-84389954D01*
X106268047Y-84663883D01*
X106477704Y-84873540D01*
X106751633Y-84987005D01*
X107048131Y-84987005D01*
X107322060Y-84873540D01*
X107450000Y-84745600D01*
X107450000Y-87860944D01*
X106356219Y-87321551D01*
X105233542Y-86599421D01*
X104199829Y-85754842D01*
X103268370Y-84798673D01*
X103050548Y-84517352D01*
X104480821Y-84517352D01*
X104707034Y-84611052D01*
X104753714Y-84611052D01*
X104717940Y-84625870D01*
X104508283Y-84835527D01*
X104394818Y-85109456D01*
X104394818Y-85405954D01*
X104508283Y-85679883D01*
X104717940Y-85889540D01*
X104991869Y-86003005D01*
X105288367Y-86003005D01*
X105562296Y-85889540D01*
X105771953Y-85679883D01*
X105885418Y-85405954D01*
X105885418Y-85109456D01*
X105771953Y-84835527D01*
X105562296Y-84625870D01*
X105288367Y-84512405D01*
X105200351Y-84512405D01*
X105380777Y-84331979D01*
X105478774Y-84095392D01*
X105478774Y-83839312D01*
X105438773Y-83742740D01*
X105532774Y-83851022D01*
X105538014Y-83855042D01*
X105641332Y-83848505D01*
X105751214Y-83438418D01*
X105341128Y-83328536D01*
X105283807Y-83414743D01*
X105329419Y-83551367D01*
X105199701Y-83421649D01*
X104963114Y-83323652D01*
X104707034Y-83323652D01*
X104616930Y-83360974D01*
X104745777Y-83232127D01*
X104748196Y-83226286D01*
X106118638Y-83226286D01*
X106528724Y-83336168D01*
X106586045Y-83249961D01*
X106504952Y-83007060D01*
X106337078Y-82813682D01*
X106331838Y-82809662D01*
X106228520Y-82816199D01*
X106118638Y-83226286D01*
X104748196Y-83226286D01*
X104843774Y-82995540D01*
X104843774Y-82739460D01*
X104806452Y-82649356D01*
X104935299Y-82778203D01*
X105171886Y-82876200D01*
X105427966Y-82876200D01*
X105524538Y-82836199D01*
X105416256Y-82930200D01*
X105412236Y-82935440D01*
X105418773Y-83038758D01*
X105828860Y-83148640D01*
X105938742Y-82738554D01*
X105852535Y-82681233D01*
X105715911Y-82726845D01*
X105845629Y-82597127D01*
X105943626Y-82360540D01*
X105943626Y-82104460D01*
X105939809Y-82095245D01*
X105945959Y-82091136D01*
X105965481Y-82061920D01*
X105965484Y-82061917D01*
X106015980Y-81986344D01*
X106023317Y-81975364D01*
X106043625Y-81873269D01*
X106043625Y-81873265D01*
X106050480Y-81838802D01*
X106043625Y-81804339D01*
X106043625Y-80242048D01*
X107450000Y-78835674D01*
X107450000Y-83737810D01*
X107450000Y-83737810D01*
G37*
X107450000Y-83737810D02*
X107322060Y-83609870D01*
X107048131Y-83496405D01*
X106751633Y-83496405D01*
X106477704Y-83609870D01*
X106451707Y-83635867D01*
X106451079Y-83625946D01*
X106436838Y-83622130D01*
X106161202Y-83346493D01*
X105949067Y-83558628D01*
X106012571Y-83622132D01*
X105931110Y-83926150D01*
X106017317Y-83983471D01*
X106229478Y-83912641D01*
X106154582Y-84093456D01*
X106154582Y-84389954D01*
X106268047Y-84663883D01*
X106477704Y-84873540D01*
X106751633Y-84987005D01*
X107048131Y-84987005D01*
X107322060Y-84873540D01*
X107450000Y-84745600D01*
X107450000Y-87860944D01*
X106356219Y-87321551D01*
X105233542Y-86599421D01*
X104199829Y-85754842D01*
X103268370Y-84798673D01*
X103050548Y-84517352D01*
X104480821Y-84517352D01*
X104707034Y-84611052D01*
X104753714Y-84611052D01*
X104717940Y-84625870D01*
X104508283Y-84835527D01*
X104394818Y-85109456D01*
X104394818Y-85405954D01*
X104508283Y-85679883D01*
X104717940Y-85889540D01*
X104991869Y-86003005D01*
X105288367Y-86003005D01*
X105562296Y-85889540D01*
X105771953Y-85679883D01*
X105885418Y-85405954D01*
X105885418Y-85109456D01*
X105771953Y-84835527D01*
X105562296Y-84625870D01*
X105288367Y-84512405D01*
X105200351Y-84512405D01*
X105380777Y-84331979D01*
X105478774Y-84095392D01*
X105478774Y-83839312D01*
X105438773Y-83742740D01*
X105532774Y-83851022D01*
X105538014Y-83855042D01*
X105641332Y-83848505D01*
X105751214Y-83438418D01*
X105341128Y-83328536D01*
X105283807Y-83414743D01*
X105329419Y-83551367D01*
X105199701Y-83421649D01*
X104963114Y-83323652D01*
X104707034Y-83323652D01*
X104616930Y-83360974D01*
X104745777Y-83232127D01*
X104748196Y-83226286D01*
X106118638Y-83226286D01*
X106528724Y-83336168D01*
X106586045Y-83249961D01*
X106504952Y-83007060D01*
X106337078Y-82813682D01*
X106331838Y-82809662D01*
X106228520Y-82816199D01*
X106118638Y-83226286D01*
X104748196Y-83226286D01*
X104843774Y-82995540D01*
X104843774Y-82739460D01*
X104806452Y-82649356D01*
X104935299Y-82778203D01*
X105171886Y-82876200D01*
X105427966Y-82876200D01*
X105524538Y-82836199D01*
X105416256Y-82930200D01*
X105412236Y-82935440D01*
X105418773Y-83038758D01*
X105828860Y-83148640D01*
X105938742Y-82738554D01*
X105852535Y-82681233D01*
X105715911Y-82726845D01*
X105845629Y-82597127D01*
X105943626Y-82360540D01*
X105943626Y-82104460D01*
X105939809Y-82095245D01*
X105945959Y-82091136D01*
X105965481Y-82061920D01*
X105965484Y-82061917D01*
X106015980Y-81986344D01*
X106023317Y-81975364D01*
X106043625Y-81873269D01*
X106043625Y-81873265D01*
X106050480Y-81838802D01*
X106043625Y-81804339D01*
X106043625Y-80242048D01*
X107450000Y-78835674D01*
X107450000Y-83737810D01*
G36*
X117636625Y-78118732D02*
X117664520Y-78160480D01*
X117829910Y-78270989D01*
X117959972Y-78296860D01*
X118025000Y-78309795D01*
X118074243Y-78300000D01*
X121261758Y-78300000D01*
X121383137Y-78593037D01*
X121776963Y-78986863D01*
X122291523Y-79200000D01*
X122848477Y-79200000D01*
X123363037Y-78986863D01*
X123756863Y-78593037D01*
X123832241Y-78411057D01*
X123781328Y-78916677D01*
X123600396Y-79750000D01*
X120500000Y-79750000D01*
X120484189Y-79752566D01*
X120467240Y-79762227D01*
X120455279Y-79777639D01*
X119757959Y-81172279D01*
X118663948Y-82465201D01*
X117570192Y-83459525D01*
X116675000Y-83986108D01*
X116675000Y-83912500D01*
X116612500Y-83850000D01*
X116137500Y-83850000D01*
X116137500Y-83870000D01*
X115837500Y-83870000D01*
X115837500Y-83850000D01*
X115362500Y-83850000D01*
X115300000Y-83912500D01*
X115300000Y-84224728D01*
X115338060Y-84316614D01*
X115408386Y-84386940D01*
X115500272Y-84425000D01*
X115775000Y-84425000D01*
X115837498Y-84362502D01*
X115837498Y-84425000D01*
X115928884Y-84425000D01*
X115878669Y-84454538D01*
X114636807Y-84901608D01*
X112816669Y-85245959D01*
X111250000Y-83679290D01*
X111250000Y-80800000D01*
X111575000Y-80800000D01*
X111575000Y-81074728D01*
X111613060Y-81166614D01*
X111683386Y-81236940D01*
X111775272Y-81275000D01*
X112087500Y-81275000D01*
X112150000Y-81212500D01*
X112150000Y-80737500D01*
X111637500Y-80737500D01*
X111575000Y-80800000D01*
X111250000Y-80800000D01*
X111250000Y-80100272D01*
X111575000Y-80100272D01*
X111575000Y-80375000D01*
X111637500Y-80437500D01*
X112150000Y-80437500D01*
X112150000Y-79962500D01*
X112087500Y-79900000D01*
X111775272Y-79900000D01*
X111683386Y-79938060D01*
X111613060Y-80008386D01*
X111575000Y-80100272D01*
X111250000Y-80100272D01*
X111250000Y-78528184D01*
X111570103Y-78848288D01*
X111570103Y-79231250D01*
X111606157Y-79412507D01*
X111708831Y-79566169D01*
X111862493Y-79668843D01*
X112043750Y-79704897D01*
X112556250Y-79704897D01*
X112737507Y-79668843D01*
X112849999Y-79593678D01*
X112850000Y-79910468D01*
X112824728Y-79900000D01*
X112512500Y-79900000D01*
X112450000Y-79962500D01*
X112450000Y-80437500D01*
X112470000Y-80437500D01*
X112470000Y-80737500D01*
X112450000Y-80737500D01*
X112450000Y-81212500D01*
X112512500Y-81275000D01*
X112824728Y-81275000D01*
X112906711Y-81241042D01*
X112919456Y-81260117D01*
X112947665Y-81302334D01*
X112976886Y-81321859D01*
X113245103Y-81590077D01*
X113245103Y-82550000D01*
X113264506Y-82647545D01*
X113319761Y-82730239D01*
X113402455Y-82785494D01*
X113500000Y-82804897D01*
X114062501Y-82804897D01*
X114062500Y-82996210D01*
X114012493Y-83006157D01*
X113858831Y-83108831D01*
X113756157Y-83262493D01*
X113720103Y-83443750D01*
X113720103Y-83956250D01*
X113756157Y-84137507D01*
X113858831Y-84291169D01*
X114012493Y-84393843D01*
X114193750Y-84429897D01*
X114631250Y-84429897D01*
X114812507Y-84393843D01*
X114966169Y-84291169D01*
X115068843Y-84137507D01*
X115104897Y-83956250D01*
X115104897Y-83443750D01*
X115068843Y-83262493D01*
X115010564Y-83175272D01*
X115300000Y-83175272D01*
X115300000Y-83487500D01*
X115362500Y-83550000D01*
X115837500Y-83550000D01*
X115837500Y-83037500D01*
X116137500Y-83037500D01*
X116137500Y-83550000D01*
X116612500Y-83550000D01*
X116675000Y-83487500D01*
X116675000Y-83175272D01*
X116636940Y-83083386D01*
X116566614Y-83013060D01*
X116474728Y-82975000D01*
X116200000Y-82975000D01*
X116137500Y-83037500D01*
X115837500Y-83037500D01*
X115775000Y-82975000D01*
X115500272Y-82975000D01*
X115408386Y-83013060D01*
X115338060Y-83083386D01*
X115300000Y-83175272D01*
X115010564Y-83175272D01*
X114966169Y-83108831D01*
X114812507Y-83006157D01*
X114762500Y-82996210D01*
X114762500Y-82804897D01*
X114900000Y-82804897D01*
X114997545Y-82785494D01*
X115080239Y-82730239D01*
X115135494Y-82647545D01*
X115154897Y-82550000D01*
X115154897Y-82162500D01*
X115450000Y-82162500D01*
X115450000Y-82599728D01*
X115488060Y-82691614D01*
X115558386Y-82761940D01*
X115650272Y-82800000D01*
X116187500Y-82800000D01*
X116250000Y-82737500D01*
X116250000Y-82100000D01*
X116550000Y-82100000D01*
X116550000Y-82737500D01*
X116612500Y-82800000D01*
X117149728Y-82800000D01*
X117241614Y-82761940D01*
X117311940Y-82691614D01*
X117350000Y-82599728D01*
X117350000Y-82162500D01*
X117287500Y-82100000D01*
X116550000Y-82100000D01*
X116250000Y-82100000D01*
X115512500Y-82100000D01*
X115450000Y-82162500D01*
X115154897Y-82162500D01*
X115154897Y-81350000D01*
X115135494Y-81252455D01*
X115080239Y-81169761D01*
X114997545Y-81114506D01*
X114924619Y-81100000D01*
X114949728Y-81100000D01*
X115041614Y-81061940D01*
X115111940Y-80991614D01*
X115150000Y-80899728D01*
X115150000Y-80462500D01*
X115087500Y-80400000D01*
X114350000Y-80400000D01*
X114350000Y-80420000D01*
X114050000Y-80420000D01*
X114050000Y-80400000D01*
X114030000Y-80400000D01*
X114030000Y-80100000D01*
X114050000Y-80100000D01*
X114050000Y-79462500D01*
X114350000Y-79462500D01*
X114350000Y-80100000D01*
X115087500Y-80100000D01*
X115150000Y-80037500D01*
X115150000Y-79600272D01*
X115111940Y-79508386D01*
X115041614Y-79438060D01*
X114949728Y-79400000D01*
X114412500Y-79400000D01*
X114350000Y-79462500D01*
X114050000Y-79462500D01*
X113987500Y-79400000D01*
X113549999Y-79400000D01*
X113549999Y-78812500D01*
X113725000Y-78812500D01*
X113725000Y-79124728D01*
X113763060Y-79216614D01*
X113833386Y-79286940D01*
X113925272Y-79325000D01*
X114200000Y-79325000D01*
X114262500Y-79262500D01*
X114262500Y-78750000D01*
X114562500Y-78750000D01*
X114562500Y-79262500D01*
X114625000Y-79325000D01*
X114899728Y-79325000D01*
X114991614Y-79286940D01*
X115061940Y-79216614D01*
X115100000Y-79124728D01*
X115100000Y-78812500D01*
X115037500Y-78750000D01*
X114562500Y-78750000D01*
X114262500Y-78750000D01*
X113787500Y-78750000D01*
X113725000Y-78812500D01*
X113549999Y-78812500D01*
X113549999Y-78738321D01*
X113556854Y-78703858D01*
X113549999Y-78669395D01*
X113549999Y-78669391D01*
X113529691Y-78567296D01*
X113516087Y-78546936D01*
X113471858Y-78480743D01*
X113471855Y-78480740D01*
X113452333Y-78451524D01*
X113423118Y-78432003D01*
X113066387Y-78075272D01*
X113725000Y-78075272D01*
X113725000Y-78387500D01*
X113787500Y-78450000D01*
X114262500Y-78450000D01*
X114262500Y-77937500D01*
X114562500Y-77937500D01*
X114562500Y-78450000D01*
X115037500Y-78450000D01*
X115100000Y-78387500D01*
X115100000Y-78075272D01*
X115061940Y-77983386D01*
X114991614Y-77913060D01*
X114899728Y-77875000D01*
X114625000Y-77875000D01*
X114562500Y-77937500D01*
X114262500Y-77937500D01*
X114200000Y-77875000D01*
X113925272Y-77875000D01*
X113833386Y-77913060D01*
X113763060Y-77983386D01*
X113725000Y-78075272D01*
X113066387Y-78075272D01*
X112418003Y-77426890D01*
X112398476Y-77397666D01*
X112282704Y-77320309D01*
X112180609Y-77300001D01*
X112180605Y-77300001D01*
X112146141Y-77293146D01*
X112111677Y-77300001D01*
X111754897Y-77300001D01*
X111754897Y-77250000D01*
X114155026Y-77250000D01*
X114428142Y-77523116D01*
X114447665Y-77552335D01*
X114476883Y-77571858D01*
X114476884Y-77571859D01*
X114501825Y-77588524D01*
X114563437Y-77629692D01*
X114665532Y-77650000D01*
X114665536Y-77650000D01*
X114699999Y-77656855D01*
X114734462Y-77650000D01*
X115117527Y-77650000D01*
X115459323Y-77991798D01*
X115433831Y-78008831D01*
X115331157Y-78162493D01*
X115295103Y-78343750D01*
X115295103Y-78856250D01*
X115331157Y-79037507D01*
X115433831Y-79191169D01*
X115587493Y-79293843D01*
X115637501Y-79303790D01*
X115637501Y-79407535D01*
X115602455Y-79414506D01*
X115519761Y-79469761D01*
X115464506Y-79552455D01*
X115445103Y-79650000D01*
X115445103Y-80850000D01*
X115464506Y-80947545D01*
X115519761Y-81030239D01*
X115602455Y-81085494D01*
X115675381Y-81100000D01*
X115650272Y-81100000D01*
X115558386Y-81138060D01*
X115488060Y-81208386D01*
X115450000Y-81300272D01*
X115450000Y-81737500D01*
X115512500Y-81800000D01*
X116250000Y-81800000D01*
X116250000Y-81780000D01*
X116550000Y-81780000D01*
X116550000Y-81800000D01*
X117287500Y-81800000D01*
X117350000Y-81737500D01*
X117350000Y-81300272D01*
X117311940Y-81208386D01*
X117241614Y-81138060D01*
X117149728Y-81100000D01*
X117124619Y-81100000D01*
X117197545Y-81085494D01*
X117280239Y-81030239D01*
X117335494Y-80947545D01*
X117354897Y-80850000D01*
X117354897Y-79650000D01*
X117335494Y-79552455D01*
X117280239Y-79469761D01*
X117197545Y-79414506D01*
X117100000Y-79395103D01*
X116337500Y-79395103D01*
X116337500Y-79303790D01*
X116387507Y-79293843D01*
X116541169Y-79191169D01*
X116643843Y-79037507D01*
X116679897Y-78856250D01*
X116679897Y-78343750D01*
X116643843Y-78162493D01*
X116541169Y-78008831D01*
X116387507Y-77906157D01*
X116317965Y-77892324D01*
X116317192Y-77888437D01*
X116306954Y-77873115D01*
X116259360Y-77801885D01*
X116259358Y-77801883D01*
X116239835Y-77772665D01*
X116210617Y-77753142D01*
X115537370Y-77079897D01*
X115656250Y-77079897D01*
X115837507Y-77043843D01*
X115991169Y-76941169D01*
X116027030Y-76887500D01*
X116405394Y-76887500D01*
X117636625Y-78118732D01*
X117636625Y-78118732D01*
G37*
X117636625Y-78118732D02*
X117664520Y-78160480D01*
X117829910Y-78270989D01*
X117959972Y-78296860D01*
X118025000Y-78309795D01*
X118074243Y-78300000D01*
X121261758Y-78300000D01*
X121383137Y-78593037D01*
X121776963Y-78986863D01*
X122291523Y-79200000D01*
X122848477Y-79200000D01*
X123363037Y-78986863D01*
X123756863Y-78593037D01*
X123832241Y-78411057D01*
X123781328Y-78916677D01*
X123600396Y-79750000D01*
X120500000Y-79750000D01*
X120484189Y-79752566D01*
X120467240Y-79762227D01*
X120455279Y-79777639D01*
X119757959Y-81172279D01*
X118663948Y-82465201D01*
X117570192Y-83459525D01*
X116675000Y-83986108D01*
X116675000Y-83912500D01*
X116612500Y-83850000D01*
X116137500Y-83850000D01*
X116137500Y-83870000D01*
X115837500Y-83870000D01*
X115837500Y-83850000D01*
X115362500Y-83850000D01*
X115300000Y-83912500D01*
X115300000Y-84224728D01*
X115338060Y-84316614D01*
X115408386Y-84386940D01*
X115500272Y-84425000D01*
X115775000Y-84425000D01*
X115837498Y-84362502D01*
X115837498Y-84425000D01*
X115928884Y-84425000D01*
X115878669Y-84454538D01*
X114636807Y-84901608D01*
X112816669Y-85245959D01*
X111250000Y-83679290D01*
X111250000Y-80800000D01*
X111575000Y-80800000D01*
X111575000Y-81074728D01*
X111613060Y-81166614D01*
X111683386Y-81236940D01*
X111775272Y-81275000D01*
X112087500Y-81275000D01*
X112150000Y-81212500D01*
X112150000Y-80737500D01*
X111637500Y-80737500D01*
X111575000Y-80800000D01*
X111250000Y-80800000D01*
X111250000Y-80100272D01*
X111575000Y-80100272D01*
X111575000Y-80375000D01*
X111637500Y-80437500D01*
X112150000Y-80437500D01*
X112150000Y-79962500D01*
X112087500Y-79900000D01*
X111775272Y-79900000D01*
X111683386Y-79938060D01*
X111613060Y-80008386D01*
X111575000Y-80100272D01*
X111250000Y-80100272D01*
X111250000Y-78528184D01*
X111570103Y-78848288D01*
X111570103Y-79231250D01*
X111606157Y-79412507D01*
X111708831Y-79566169D01*
X111862493Y-79668843D01*
X112043750Y-79704897D01*
X112556250Y-79704897D01*
X112737507Y-79668843D01*
X112849999Y-79593678D01*
X112850000Y-79910468D01*
X112824728Y-79900000D01*
X112512500Y-79900000D01*
X112450000Y-79962500D01*
X112450000Y-80437500D01*
X112470000Y-80437500D01*
X112470000Y-80737500D01*
X112450000Y-80737500D01*
X112450000Y-81212500D01*
X112512500Y-81275000D01*
X112824728Y-81275000D01*
X112906711Y-81241042D01*
X112919456Y-81260117D01*
X112947665Y-81302334D01*
X112976886Y-81321859D01*
X113245103Y-81590077D01*
X113245103Y-82550000D01*
X113264506Y-82647545D01*
X113319761Y-82730239D01*
X113402455Y-82785494D01*
X113500000Y-82804897D01*
X114062501Y-82804897D01*
X114062500Y-82996210D01*
X114012493Y-83006157D01*
X113858831Y-83108831D01*
X113756157Y-83262493D01*
X113720103Y-83443750D01*
X113720103Y-83956250D01*
X113756157Y-84137507D01*
X113858831Y-84291169D01*
X114012493Y-84393843D01*
X114193750Y-84429897D01*
X114631250Y-84429897D01*
X114812507Y-84393843D01*
X114966169Y-84291169D01*
X115068843Y-84137507D01*
X115104897Y-83956250D01*
X115104897Y-83443750D01*
X115068843Y-83262493D01*
X115010564Y-83175272D01*
X115300000Y-83175272D01*
X115300000Y-83487500D01*
X115362500Y-83550000D01*
X115837500Y-83550000D01*
X115837500Y-83037500D01*
X116137500Y-83037500D01*
X116137500Y-83550000D01*
X116612500Y-83550000D01*
X116675000Y-83487500D01*
X116675000Y-83175272D01*
X116636940Y-83083386D01*
X116566614Y-83013060D01*
X116474728Y-82975000D01*
X116200000Y-82975000D01*
X116137500Y-83037500D01*
X115837500Y-83037500D01*
X115775000Y-82975000D01*
X115500272Y-82975000D01*
X115408386Y-83013060D01*
X115338060Y-83083386D01*
X115300000Y-83175272D01*
X115010564Y-83175272D01*
X114966169Y-83108831D01*
X114812507Y-83006157D01*
X114762500Y-82996210D01*
X114762500Y-82804897D01*
X114900000Y-82804897D01*
X114997545Y-82785494D01*
X115080239Y-82730239D01*
X115135494Y-82647545D01*
X115154897Y-82550000D01*
X115154897Y-82162500D01*
X115450000Y-82162500D01*
X115450000Y-82599728D01*
X115488060Y-82691614D01*
X115558386Y-82761940D01*
X115650272Y-82800000D01*
X116187500Y-82800000D01*
X116250000Y-82737500D01*
X116250000Y-82100000D01*
X116550000Y-82100000D01*
X116550000Y-82737500D01*
X116612500Y-82800000D01*
X117149728Y-82800000D01*
X117241614Y-82761940D01*
X117311940Y-82691614D01*
X117350000Y-82599728D01*
X117350000Y-82162500D01*
X117287500Y-82100000D01*
X116550000Y-82100000D01*
X116250000Y-82100000D01*
X115512500Y-82100000D01*
X115450000Y-82162500D01*
X115154897Y-82162500D01*
X115154897Y-81350000D01*
X115135494Y-81252455D01*
X115080239Y-81169761D01*
X114997545Y-81114506D01*
X114924619Y-81100000D01*
X114949728Y-81100000D01*
X115041614Y-81061940D01*
X115111940Y-80991614D01*
X115150000Y-80899728D01*
X115150000Y-80462500D01*
X115087500Y-80400000D01*
X114350000Y-80400000D01*
X114350000Y-80420000D01*
X114050000Y-80420000D01*
X114050000Y-80400000D01*
X114030000Y-80400000D01*
X114030000Y-80100000D01*
X114050000Y-80100000D01*
X114050000Y-79462500D01*
X114350000Y-79462500D01*
X114350000Y-80100000D01*
X115087500Y-80100000D01*
X115150000Y-80037500D01*
X115150000Y-79600272D01*
X115111940Y-79508386D01*
X115041614Y-79438060D01*
X114949728Y-79400000D01*
X114412500Y-79400000D01*
X114350000Y-79462500D01*
X114050000Y-79462500D01*
X113987500Y-79400000D01*
X113549999Y-79400000D01*
X113549999Y-78812500D01*
X113725000Y-78812500D01*
X113725000Y-79124728D01*
X113763060Y-79216614D01*
X113833386Y-79286940D01*
X113925272Y-79325000D01*
X114200000Y-79325000D01*
X114262500Y-79262500D01*
X114262500Y-78750000D01*
X114562500Y-78750000D01*
X114562500Y-79262500D01*
X114625000Y-79325000D01*
X114899728Y-79325000D01*
X114991614Y-79286940D01*
X115061940Y-79216614D01*
X115100000Y-79124728D01*
X115100000Y-78812500D01*
X115037500Y-78750000D01*
X114562500Y-78750000D01*
X114262500Y-78750000D01*
X113787500Y-78750000D01*
X113725000Y-78812500D01*
X113549999Y-78812500D01*
X113549999Y-78738321D01*
X113556854Y-78703858D01*
X113549999Y-78669395D01*
X113549999Y-78669391D01*
X113529691Y-78567296D01*
X113516087Y-78546936D01*
X113471858Y-78480743D01*
X113471855Y-78480740D01*
X113452333Y-78451524D01*
X113423118Y-78432003D01*
X113066387Y-78075272D01*
X113725000Y-78075272D01*
X113725000Y-78387500D01*
X113787500Y-78450000D01*
X114262500Y-78450000D01*
X114262500Y-77937500D01*
X114562500Y-77937500D01*
X114562500Y-78450000D01*
X115037500Y-78450000D01*
X115100000Y-78387500D01*
X115100000Y-78075272D01*
X115061940Y-77983386D01*
X114991614Y-77913060D01*
X114899728Y-77875000D01*
X114625000Y-77875000D01*
X114562500Y-77937500D01*
X114262500Y-77937500D01*
X114200000Y-77875000D01*
X113925272Y-77875000D01*
X113833386Y-77913060D01*
X113763060Y-77983386D01*
X113725000Y-78075272D01*
X113066387Y-78075272D01*
X112418003Y-77426890D01*
X112398476Y-77397666D01*
X112282704Y-77320309D01*
X112180609Y-77300001D01*
X112180605Y-77300001D01*
X112146141Y-77293146D01*
X112111677Y-77300001D01*
X111754897Y-77300001D01*
X111754897Y-77250000D01*
X114155026Y-77250000D01*
X114428142Y-77523116D01*
X114447665Y-77552335D01*
X114476883Y-77571858D01*
X114476884Y-77571859D01*
X114501825Y-77588524D01*
X114563437Y-77629692D01*
X114665532Y-77650000D01*
X114665536Y-77650000D01*
X114699999Y-77656855D01*
X114734462Y-77650000D01*
X115117527Y-77650000D01*
X115459323Y-77991798D01*
X115433831Y-78008831D01*
X115331157Y-78162493D01*
X115295103Y-78343750D01*
X115295103Y-78856250D01*
X115331157Y-79037507D01*
X115433831Y-79191169D01*
X115587493Y-79293843D01*
X115637501Y-79303790D01*
X115637501Y-79407535D01*
X115602455Y-79414506D01*
X115519761Y-79469761D01*
X115464506Y-79552455D01*
X115445103Y-79650000D01*
X115445103Y-80850000D01*
X115464506Y-80947545D01*
X115519761Y-81030239D01*
X115602455Y-81085494D01*
X115675381Y-81100000D01*
X115650272Y-81100000D01*
X115558386Y-81138060D01*
X115488060Y-81208386D01*
X115450000Y-81300272D01*
X115450000Y-81737500D01*
X115512500Y-81800000D01*
X116250000Y-81800000D01*
X116250000Y-81780000D01*
X116550000Y-81780000D01*
X116550000Y-81800000D01*
X117287500Y-81800000D01*
X117350000Y-81737500D01*
X117350000Y-81300272D01*
X117311940Y-81208386D01*
X117241614Y-81138060D01*
X117149728Y-81100000D01*
X117124619Y-81100000D01*
X117197545Y-81085494D01*
X117280239Y-81030239D01*
X117335494Y-80947545D01*
X117354897Y-80850000D01*
X117354897Y-79650000D01*
X117335494Y-79552455D01*
X117280239Y-79469761D01*
X117197545Y-79414506D01*
X117100000Y-79395103D01*
X116337500Y-79395103D01*
X116337500Y-79303790D01*
X116387507Y-79293843D01*
X116541169Y-79191169D01*
X116643843Y-79037507D01*
X116679897Y-78856250D01*
X116679897Y-78343750D01*
X116643843Y-78162493D01*
X116541169Y-78008831D01*
X116387507Y-77906157D01*
X116317965Y-77892324D01*
X116317192Y-77888437D01*
X116306954Y-77873115D01*
X116259360Y-77801885D01*
X116259358Y-77801883D01*
X116239835Y-77772665D01*
X116210617Y-77753142D01*
X115537370Y-77079897D01*
X115656250Y-77079897D01*
X115837507Y-77043843D01*
X115991169Y-76941169D01*
X116027030Y-76887500D01*
X116405394Y-76887500D01*
X117636625Y-78118732D01*
G36*
X105712500Y-75900000D02*
X105732500Y-75900000D01*
X105732500Y-76200000D01*
X105712500Y-76200000D01*
X105712500Y-76712500D01*
X105775000Y-76775000D01*
X106049728Y-76775000D01*
X106100001Y-76754177D01*
X106100001Y-78055024D01*
X104950033Y-79204994D01*
X103132719Y-79204994D01*
X103098255Y-79198139D01*
X103063791Y-79204994D01*
X103063787Y-79204994D01*
X102991628Y-79219347D01*
X104948124Y-77262852D01*
X104977345Y-77243327D01*
X105054702Y-77127555D01*
X105075010Y-77025460D01*
X105075010Y-77025455D01*
X105081865Y-76990993D01*
X105075010Y-76956530D01*
X105075010Y-76774891D01*
X105075272Y-76775000D01*
X105350000Y-76775000D01*
X105412500Y-76712500D01*
X105412500Y-76200000D01*
X105392500Y-76200000D01*
X105392500Y-75900000D01*
X105412500Y-75900000D01*
X105412500Y-75880000D01*
X105712500Y-75880000D01*
X105712500Y-75900000D01*
X105712500Y-75900000D01*
G37*
X105712500Y-75900000D02*
X105732500Y-75900000D01*
X105732500Y-76200000D01*
X105712500Y-76200000D01*
X105712500Y-76712500D01*
X105775000Y-76775000D01*
X106049728Y-76775000D01*
X106100001Y-76754177D01*
X106100001Y-78055024D01*
X104950033Y-79204994D01*
X103132719Y-79204994D01*
X103098255Y-79198139D01*
X103063791Y-79204994D01*
X103063787Y-79204994D01*
X102991628Y-79219347D01*
X104948124Y-77262852D01*
X104977345Y-77243327D01*
X105054702Y-77127555D01*
X105075010Y-77025460D01*
X105075010Y-77025455D01*
X105081865Y-76990993D01*
X105075010Y-76956530D01*
X105075010Y-76774891D01*
X105075272Y-76775000D01*
X105350000Y-76775000D01*
X105412500Y-76712500D01*
X105412500Y-76200000D01*
X105392500Y-76200000D01*
X105392500Y-75900000D01*
X105412500Y-75900000D01*
X105412500Y-75880000D01*
X105712500Y-75880000D01*
X105712500Y-75900000D01*
G36*
X105108831Y-72741169D02*
X105262493Y-72843843D01*
X105443750Y-72879897D01*
X105956250Y-72879897D01*
X106137507Y-72843843D01*
X106291169Y-72741169D01*
X106318677Y-72700000D01*
X106392894Y-72700000D01*
X106520103Y-72827210D01*
X106520103Y-72875000D01*
X106536075Y-72955295D01*
X106501885Y-72978140D01*
X106501883Y-72978142D01*
X106472665Y-72997665D01*
X106453142Y-73026883D01*
X106069250Y-73410776D01*
X105987507Y-73356157D01*
X105806250Y-73320103D01*
X105368750Y-73320103D01*
X105187493Y-73356157D01*
X105033831Y-73458831D01*
X104931157Y-73612493D01*
X104895103Y-73793750D01*
X104895103Y-74306250D01*
X104931157Y-74487507D01*
X105033831Y-74641169D01*
X105187493Y-74743843D01*
X105368750Y-74779897D01*
X105571269Y-74779897D01*
X105426167Y-74925000D01*
X105063343Y-74925000D01*
X105028879Y-74918145D01*
X104994415Y-74925000D01*
X104994412Y-74925000D01*
X104892317Y-74945308D01*
X104776545Y-75022665D01*
X104757020Y-75051886D01*
X104501896Y-75307011D01*
X104472675Y-75326536D01*
X104432704Y-75386357D01*
X104387507Y-75356157D01*
X104362500Y-75351183D01*
X104362500Y-74753790D01*
X104412507Y-74743843D01*
X104566169Y-74641169D01*
X104668843Y-74487507D01*
X104704897Y-74306250D01*
X104704897Y-73793750D01*
X104668843Y-73612493D01*
X104566169Y-73458831D01*
X104412507Y-73356157D01*
X104231250Y-73320103D01*
X103793750Y-73320103D01*
X103612493Y-73356157D01*
X103458831Y-73458831D01*
X103356157Y-73612493D01*
X103320103Y-73793750D01*
X103320103Y-74306250D01*
X103356157Y-74487507D01*
X103458831Y-74641169D01*
X103612493Y-74743843D01*
X103662500Y-74753790D01*
X103662501Y-75341237D01*
X103587493Y-75356157D01*
X103433831Y-75458831D01*
X103331157Y-75612493D01*
X103295103Y-75793750D01*
X103295103Y-76306250D01*
X103331157Y-76487507D01*
X103433831Y-76641169D01*
X103587493Y-76743843D01*
X103768750Y-76779897D01*
X104206250Y-76779897D01*
X104375011Y-76746329D01*
X104375011Y-76846017D01*
X103170000Y-78051029D01*
X103170000Y-77521523D01*
X102956863Y-77006963D01*
X102563037Y-76613137D01*
X102048477Y-76400000D01*
X101491523Y-76400000D01*
X100976963Y-76613137D01*
X100583137Y-77006963D01*
X100387946Y-77478197D01*
X100416899Y-76151314D01*
X100525443Y-75353750D01*
X100583137Y-75493037D01*
X100976963Y-75886863D01*
X101491523Y-76100000D01*
X102048477Y-76100000D01*
X102563037Y-75886863D01*
X102956863Y-75493037D01*
X103170000Y-74978477D01*
X103170000Y-74421523D01*
X102956863Y-73906963D01*
X102766003Y-73716103D01*
X103782107Y-72700000D01*
X105081323Y-72700000D01*
X105108831Y-72741169D01*
X105108831Y-72741169D01*
G37*
X105108831Y-72741169D02*
X105262493Y-72843843D01*
X105443750Y-72879897D01*
X105956250Y-72879897D01*
X106137507Y-72843843D01*
X106291169Y-72741169D01*
X106318677Y-72700000D01*
X106392894Y-72700000D01*
X106520103Y-72827210D01*
X106520103Y-72875000D01*
X106536075Y-72955295D01*
X106501885Y-72978140D01*
X106501883Y-72978142D01*
X106472665Y-72997665D01*
X106453142Y-73026883D01*
X106069250Y-73410776D01*
X105987507Y-73356157D01*
X105806250Y-73320103D01*
X105368750Y-73320103D01*
X105187493Y-73356157D01*
X105033831Y-73458831D01*
X104931157Y-73612493D01*
X104895103Y-73793750D01*
X104895103Y-74306250D01*
X104931157Y-74487507D01*
X105033831Y-74641169D01*
X105187493Y-74743843D01*
X105368750Y-74779897D01*
X105571269Y-74779897D01*
X105426167Y-74925000D01*
X105063343Y-74925000D01*
X105028879Y-74918145D01*
X104994415Y-74925000D01*
X104994412Y-74925000D01*
X104892317Y-74945308D01*
X104776545Y-75022665D01*
X104757020Y-75051886D01*
X104501896Y-75307011D01*
X104472675Y-75326536D01*
X104432704Y-75386357D01*
X104387507Y-75356157D01*
X104362500Y-75351183D01*
X104362500Y-74753790D01*
X104412507Y-74743843D01*
X104566169Y-74641169D01*
X104668843Y-74487507D01*
X104704897Y-74306250D01*
X104704897Y-73793750D01*
X104668843Y-73612493D01*
X104566169Y-73458831D01*
X104412507Y-73356157D01*
X104231250Y-73320103D01*
X103793750Y-73320103D01*
X103612493Y-73356157D01*
X103458831Y-73458831D01*
X103356157Y-73612493D01*
X103320103Y-73793750D01*
X103320103Y-74306250D01*
X103356157Y-74487507D01*
X103458831Y-74641169D01*
X103612493Y-74743843D01*
X103662500Y-74753790D01*
X103662501Y-75341237D01*
X103587493Y-75356157D01*
X103433831Y-75458831D01*
X103331157Y-75612493D01*
X103295103Y-75793750D01*
X103295103Y-76306250D01*
X103331157Y-76487507D01*
X103433831Y-76641169D01*
X103587493Y-76743843D01*
X103768750Y-76779897D01*
X104206250Y-76779897D01*
X104375011Y-76746329D01*
X104375011Y-76846017D01*
X103170000Y-78051029D01*
X103170000Y-77521523D01*
X102956863Y-77006963D01*
X102563037Y-76613137D01*
X102048477Y-76400000D01*
X101491523Y-76400000D01*
X100976963Y-76613137D01*
X100583137Y-77006963D01*
X100387946Y-77478197D01*
X100416899Y-76151314D01*
X100525443Y-75353750D01*
X100583137Y-75493037D01*
X100976963Y-75886863D01*
X101491523Y-76100000D01*
X102048477Y-76100000D01*
X102563037Y-75886863D01*
X102956863Y-75493037D01*
X103170000Y-74978477D01*
X103170000Y-74421523D01*
X102956863Y-73906963D01*
X102766003Y-73716103D01*
X103782107Y-72700000D01*
X105081323Y-72700000D01*
X105108831Y-72741169D01*
G36*
X114520103Y-73156250D02*
X114556157Y-73337507D01*
X114658831Y-73491169D01*
X114812493Y-73593843D01*
X114993750Y-73629897D01*
X115235291Y-73629897D01*
X115730394Y-74125000D01*
X115612500Y-74125000D01*
X115550000Y-74187500D01*
X115550000Y-74662500D01*
X116062500Y-74662500D01*
X116125000Y-74600000D01*
X116125000Y-74519607D01*
X116599125Y-74993732D01*
X116627020Y-75035480D01*
X116792410Y-75145989D01*
X116938257Y-75175000D01*
X116938258Y-75175000D01*
X116987499Y-75184795D01*
X117036741Y-75175000D01*
X119892975Y-75175000D01*
X119780649Y-75318517D01*
X120525000Y-76062868D01*
X120539143Y-76048726D01*
X120751275Y-76260858D01*
X120737132Y-76275000D01*
X120751275Y-76289143D01*
X120539143Y-76501275D01*
X120525000Y-76487132D01*
X119780649Y-77231483D01*
X119834275Y-77300000D01*
X118232107Y-77300000D01*
X117057507Y-76125400D01*
X119259321Y-76125400D01*
X119298417Y-76621142D01*
X119412915Y-76897567D01*
X119568517Y-77019351D01*
X120312868Y-76275000D01*
X119568517Y-75530649D01*
X119412915Y-75652433D01*
X119259321Y-76125400D01*
X117057507Y-76125400D01*
X117000876Y-76068770D01*
X116972980Y-76027020D01*
X116807590Y-75916511D01*
X116661743Y-75887500D01*
X116661741Y-75887500D01*
X116612500Y-75877705D01*
X116563259Y-75887500D01*
X116027030Y-75887500D01*
X115991169Y-75833831D01*
X115837507Y-75731157D01*
X115656250Y-75695103D01*
X115143750Y-75695103D01*
X114962493Y-75731157D01*
X114819683Y-75826580D01*
X114811744Y-75825001D01*
X114811742Y-75825001D01*
X114762501Y-75815206D01*
X114713260Y-75825001D01*
X114328553Y-75825001D01*
X114386940Y-75766614D01*
X114425000Y-75674728D01*
X114425000Y-75400000D01*
X114362500Y-75337500D01*
X113850000Y-75337500D01*
X113850000Y-75357500D01*
X113550000Y-75357500D01*
X113550000Y-75337500D01*
X113037500Y-75337500D01*
X112975000Y-75400000D01*
X112975000Y-75674728D01*
X113013060Y-75766614D01*
X113071447Y-75825001D01*
X112729897Y-75825001D01*
X112729897Y-75625000D01*
X112710494Y-75527455D01*
X112692149Y-75500000D01*
X112710494Y-75472545D01*
X112729897Y-75375000D01*
X112729897Y-75125000D01*
X112710494Y-75027455D01*
X112692149Y-75000000D01*
X112710494Y-74972545D01*
X112729897Y-74875000D01*
X112729897Y-74700272D01*
X112975000Y-74700272D01*
X112975000Y-74975000D01*
X113037500Y-75037500D01*
X113550000Y-75037500D01*
X113550000Y-74562500D01*
X113850000Y-74562500D01*
X113850000Y-75037500D01*
X114362500Y-75037500D01*
X114375000Y-75025000D01*
X114675000Y-75025000D01*
X114675000Y-75299728D01*
X114713060Y-75391614D01*
X114783386Y-75461940D01*
X114875272Y-75500000D01*
X115187500Y-75500000D01*
X115250000Y-75437500D01*
X115250000Y-74962500D01*
X115550000Y-74962500D01*
X115550000Y-75437500D01*
X115612500Y-75500000D01*
X115924728Y-75500000D01*
X116016614Y-75461940D01*
X116086940Y-75391614D01*
X116125000Y-75299728D01*
X116125000Y-75025000D01*
X116062500Y-74962500D01*
X115550000Y-74962500D01*
X115250000Y-74962500D01*
X114737500Y-74962500D01*
X114675000Y-75025000D01*
X114375000Y-75025000D01*
X114425000Y-74975000D01*
X114425000Y-74700272D01*
X114386940Y-74608386D01*
X114316614Y-74538060D01*
X114224728Y-74500000D01*
X113912500Y-74500000D01*
X113850000Y-74562500D01*
X113550000Y-74562500D01*
X113487500Y-74500000D01*
X113175272Y-74500000D01*
X113083386Y-74538060D01*
X113013060Y-74608386D01*
X112975000Y-74700272D01*
X112729897Y-74700272D01*
X112729897Y-74625000D01*
X112710494Y-74527455D01*
X112693182Y-74501545D01*
X112725000Y-74424728D01*
X112725000Y-74375000D01*
X112675272Y-74325272D01*
X114675000Y-74325272D01*
X114675000Y-74600000D01*
X114737500Y-74662500D01*
X115250000Y-74662500D01*
X115250000Y-74187500D01*
X115187500Y-74125000D01*
X114875272Y-74125000D01*
X114783386Y-74163060D01*
X114713060Y-74233386D01*
X114675000Y-74325272D01*
X112675272Y-74325272D01*
X112662500Y-74312500D01*
X112212500Y-74312500D01*
X112212500Y-74370103D01*
X111912500Y-74370103D01*
X111912500Y-74312500D01*
X111892500Y-74312500D01*
X111892500Y-74187500D01*
X111912500Y-74187500D01*
X111912500Y-74129897D01*
X111922043Y-74129897D01*
X112023106Y-74150000D01*
X112212500Y-74150000D01*
X112212500Y-74187500D01*
X112662500Y-74187500D01*
X112700000Y-74150000D01*
X113098027Y-74150000D01*
X113108831Y-74166169D01*
X113262493Y-74268843D01*
X113443750Y-74304897D01*
X113956250Y-74304897D01*
X114137507Y-74268843D01*
X114291169Y-74166169D01*
X114393843Y-74012507D01*
X114429897Y-73831250D01*
X114429897Y-73393750D01*
X114393843Y-73212493D01*
X114291169Y-73058831D01*
X114137507Y-72956157D01*
X114048176Y-72938388D01*
X114520103Y-72938388D01*
X114520103Y-73156250D01*
X114520103Y-73156250D01*
G37*
X114520103Y-73156250D02*
X114556157Y-73337507D01*
X114658831Y-73491169D01*
X114812493Y-73593843D01*
X114993750Y-73629897D01*
X115235291Y-73629897D01*
X115730394Y-74125000D01*
X115612500Y-74125000D01*
X115550000Y-74187500D01*
X115550000Y-74662500D01*
X116062500Y-74662500D01*
X116125000Y-74600000D01*
X116125000Y-74519607D01*
X116599125Y-74993732D01*
X116627020Y-75035480D01*
X116792410Y-75145989D01*
X116938257Y-75175000D01*
X116938258Y-75175000D01*
X116987499Y-75184795D01*
X117036741Y-75175000D01*
X119892975Y-75175000D01*
X119780649Y-75318517D01*
X120525000Y-76062868D01*
X120539143Y-76048726D01*
X120751275Y-76260858D01*
X120737132Y-76275000D01*
X120751275Y-76289143D01*
X120539143Y-76501275D01*
X120525000Y-76487132D01*
X119780649Y-77231483D01*
X119834275Y-77300000D01*
X118232107Y-77300000D01*
X117057507Y-76125400D01*
X119259321Y-76125400D01*
X119298417Y-76621142D01*
X119412915Y-76897567D01*
X119568517Y-77019351D01*
X120312868Y-76275000D01*
X119568517Y-75530649D01*
X119412915Y-75652433D01*
X119259321Y-76125400D01*
X117057507Y-76125400D01*
X117000876Y-76068770D01*
X116972980Y-76027020D01*
X116807590Y-75916511D01*
X116661743Y-75887500D01*
X116661741Y-75887500D01*
X116612500Y-75877705D01*
X116563259Y-75887500D01*
X116027030Y-75887500D01*
X115991169Y-75833831D01*
X115837507Y-75731157D01*
X115656250Y-75695103D01*
X115143750Y-75695103D01*
X114962493Y-75731157D01*
X114819683Y-75826580D01*
X114811744Y-75825001D01*
X114811742Y-75825001D01*
X114762501Y-75815206D01*
X114713260Y-75825001D01*
X114328553Y-75825001D01*
X114386940Y-75766614D01*
X114425000Y-75674728D01*
X114425000Y-75400000D01*
X114362500Y-75337500D01*
X113850000Y-75337500D01*
X113850000Y-75357500D01*
X113550000Y-75357500D01*
X113550000Y-75337500D01*
X113037500Y-75337500D01*
X112975000Y-75400000D01*
X112975000Y-75674728D01*
X113013060Y-75766614D01*
X113071447Y-75825001D01*
X112729897Y-75825001D01*
X112729897Y-75625000D01*
X112710494Y-75527455D01*
X112692149Y-75500000D01*
X112710494Y-75472545D01*
X112729897Y-75375000D01*
X112729897Y-75125000D01*
X112710494Y-75027455D01*
X112692149Y-75000000D01*
X112710494Y-74972545D01*
X112729897Y-74875000D01*
X112729897Y-74700272D01*
X112975000Y-74700272D01*
X112975000Y-74975000D01*
X113037500Y-75037500D01*
X113550000Y-75037500D01*
X113550000Y-74562500D01*
X113850000Y-74562500D01*
X113850000Y-75037500D01*
X114362500Y-75037500D01*
X114375000Y-75025000D01*
X114675000Y-75025000D01*
X114675000Y-75299728D01*
X114713060Y-75391614D01*
X114783386Y-75461940D01*
X114875272Y-75500000D01*
X115187500Y-75500000D01*
X115250000Y-75437500D01*
X115250000Y-74962500D01*
X115550000Y-74962500D01*
X115550000Y-75437500D01*
X115612500Y-75500000D01*
X115924728Y-75500000D01*
X116016614Y-75461940D01*
X116086940Y-75391614D01*
X116125000Y-75299728D01*
X116125000Y-75025000D01*
X116062500Y-74962500D01*
X115550000Y-74962500D01*
X115250000Y-74962500D01*
X114737500Y-74962500D01*
X114675000Y-75025000D01*
X114375000Y-75025000D01*
X114425000Y-74975000D01*
X114425000Y-74700272D01*
X114386940Y-74608386D01*
X114316614Y-74538060D01*
X114224728Y-74500000D01*
X113912500Y-74500000D01*
X113850000Y-74562500D01*
X113550000Y-74562500D01*
X113487500Y-74500000D01*
X113175272Y-74500000D01*
X113083386Y-74538060D01*
X113013060Y-74608386D01*
X112975000Y-74700272D01*
X112729897Y-74700272D01*
X112729897Y-74625000D01*
X112710494Y-74527455D01*
X112693182Y-74501545D01*
X112725000Y-74424728D01*
X112725000Y-74375000D01*
X112675272Y-74325272D01*
X114675000Y-74325272D01*
X114675000Y-74600000D01*
X114737500Y-74662500D01*
X115250000Y-74662500D01*
X115250000Y-74187500D01*
X115187500Y-74125000D01*
X114875272Y-74125000D01*
X114783386Y-74163060D01*
X114713060Y-74233386D01*
X114675000Y-74325272D01*
X112675272Y-74325272D01*
X112662500Y-74312500D01*
X112212500Y-74312500D01*
X112212500Y-74370103D01*
X111912500Y-74370103D01*
X111912500Y-74312500D01*
X111892500Y-74312500D01*
X111892500Y-74187500D01*
X111912500Y-74187500D01*
X111912500Y-74129897D01*
X111922043Y-74129897D01*
X112023106Y-74150000D01*
X112212500Y-74150000D01*
X112212500Y-74187500D01*
X112662500Y-74187500D01*
X112700000Y-74150000D01*
X113098027Y-74150000D01*
X113108831Y-74166169D01*
X113262493Y-74268843D01*
X113443750Y-74304897D01*
X113956250Y-74304897D01*
X114137507Y-74268843D01*
X114291169Y-74166169D01*
X114393843Y-74012507D01*
X114429897Y-73831250D01*
X114429897Y-73393750D01*
X114393843Y-73212493D01*
X114291169Y-73058831D01*
X114137507Y-72956157D01*
X114048176Y-72938388D01*
X114520103Y-72938388D01*
X114520103Y-73156250D01*
G36*
X109437500Y-76787500D02*
X109495103Y-76787500D01*
X109495103Y-77087500D01*
X109437500Y-77087500D01*
X109437500Y-77107500D01*
X109312500Y-77107500D01*
X109312500Y-77087500D01*
X109275000Y-77087500D01*
X109275000Y-76898106D01*
X109254897Y-76797043D01*
X109254897Y-76787500D01*
X109312500Y-76787500D01*
X109312500Y-76767500D01*
X109437500Y-76767500D01*
X109437500Y-76787500D01*
X109437500Y-76787500D01*
G37*
X109437500Y-76787500D02*
X109495103Y-76787500D01*
X109495103Y-77087500D01*
X109437500Y-77087500D01*
X109437500Y-77107500D01*
X109312500Y-77107500D01*
X109312500Y-77087500D01*
X109275000Y-77087500D01*
X109275000Y-76898106D01*
X109254897Y-76797043D01*
X109254897Y-76787500D01*
X109312500Y-76787500D01*
X109312500Y-76767500D01*
X109437500Y-76767500D01*
X109437500Y-76787500D01*
G36*
X109775000Y-74350000D02*
X109795000Y-74350000D01*
X109795000Y-74650000D01*
X109775000Y-74650000D01*
X109775000Y-74670000D01*
X109475000Y-74670000D01*
X109475000Y-74650000D01*
X109455000Y-74650000D01*
X109455000Y-74350000D01*
X109475000Y-74350000D01*
X109475000Y-74330000D01*
X109775000Y-74330000D01*
X109775000Y-74350000D01*
X109775000Y-74350000D01*
G37*
X109775000Y-74350000D02*
X109795000Y-74350000D01*
X109795000Y-74650000D01*
X109775000Y-74650000D01*
X109775000Y-74670000D01*
X109475000Y-74670000D01*
X109475000Y-74650000D01*
X109455000Y-74650000D01*
X109455000Y-74350000D01*
X109475000Y-74350000D01*
X109475000Y-74330000D01*
X109775000Y-74330000D01*
X109775000Y-74350000D01*
G36*
X113281815Y-65356368D02*
X114601148Y-65559433D01*
X115889013Y-65910545D01*
X117128853Y-66405191D01*
X118304727Y-67037011D01*
X119401518Y-67797882D01*
X120405126Y-68678022D01*
X121302648Y-69666117D01*
X122082545Y-70749462D01*
X122734790Y-71914130D01*
X123250999Y-73145148D01*
X123357602Y-73510886D01*
X122848477Y-73300000D01*
X122291523Y-73300000D01*
X121776963Y-73513137D01*
X121383137Y-73906963D01*
X121272113Y-74175000D01*
X117194607Y-74175000D01*
X116609803Y-73590197D01*
X116637500Y-73562500D01*
X116637500Y-73050000D01*
X116937500Y-73050000D01*
X116937500Y-73562500D01*
X117000000Y-73625000D01*
X117274728Y-73625000D01*
X117366614Y-73586940D01*
X117436940Y-73516614D01*
X117475000Y-73424728D01*
X117475000Y-73112500D01*
X117412500Y-73050000D01*
X116937500Y-73050000D01*
X116637500Y-73050000D01*
X116162500Y-73050000D01*
X116116053Y-73096447D01*
X115904897Y-72885291D01*
X115904897Y-72643750D01*
X115868843Y-72462493D01*
X115810564Y-72375272D01*
X116100000Y-72375272D01*
X116100000Y-72687500D01*
X116162500Y-72750000D01*
X116637500Y-72750000D01*
X116637500Y-72237500D01*
X116937500Y-72237500D01*
X116937500Y-72750000D01*
X117412500Y-72750000D01*
X117475000Y-72687500D01*
X117475000Y-72375272D01*
X117436940Y-72283386D01*
X117366614Y-72213060D01*
X117274728Y-72175000D01*
X117000000Y-72175000D01*
X116937500Y-72237500D01*
X116637500Y-72237500D01*
X116575000Y-72175000D01*
X116300272Y-72175000D01*
X116208386Y-72213060D01*
X116138060Y-72283386D01*
X116100000Y-72375272D01*
X115810564Y-72375272D01*
X115766169Y-72308831D01*
X115612507Y-72206157D01*
X115431250Y-72170103D01*
X115189709Y-72170103D01*
X115144606Y-72125000D01*
X115237502Y-72125000D01*
X115237502Y-72062502D01*
X115300000Y-72125000D01*
X115574728Y-72125000D01*
X115666614Y-72086940D01*
X115736940Y-72016614D01*
X115775000Y-71924728D01*
X115775000Y-71612500D01*
X115712500Y-71550000D01*
X115237500Y-71550000D01*
X115237500Y-71570000D01*
X114937500Y-71570000D01*
X114937500Y-71550000D01*
X114462500Y-71550000D01*
X114400000Y-71612500D01*
X114400000Y-71924728D01*
X114405658Y-71938388D01*
X114101436Y-71938388D01*
X114168843Y-71837507D01*
X114204897Y-71656250D01*
X114204897Y-71143750D01*
X114171329Y-70974990D01*
X114400000Y-70974990D01*
X114400000Y-71187500D01*
X114462500Y-71250000D01*
X114937500Y-71250000D01*
X114937500Y-71230000D01*
X115237500Y-71230000D01*
X115237500Y-71250000D01*
X115712500Y-71250000D01*
X115775000Y-71187500D01*
X115775000Y-70875272D01*
X115736940Y-70783386D01*
X115666614Y-70713060D01*
X115574728Y-70675000D01*
X115519973Y-70675000D01*
X115858314Y-70336659D01*
X115950000Y-70354897D01*
X116250001Y-70354897D01*
X116250000Y-70698696D01*
X116212493Y-70706157D01*
X116058831Y-70808831D01*
X115956157Y-70962493D01*
X115920103Y-71143750D01*
X115920103Y-71656250D01*
X115956157Y-71837507D01*
X116058831Y-71991169D01*
X116212493Y-72093843D01*
X116393750Y-72129897D01*
X116831250Y-72129897D01*
X117012507Y-72093843D01*
X117166169Y-71991169D01*
X117268843Y-71837507D01*
X117304897Y-71656250D01*
X117304897Y-71612500D01*
X117500000Y-71612500D01*
X117500000Y-71924728D01*
X117538060Y-72016614D01*
X117608386Y-72086940D01*
X117700272Y-72125000D01*
X117975000Y-72125000D01*
X118037500Y-72062500D01*
X118037500Y-71550000D01*
X118337500Y-71550000D01*
X118337500Y-72062500D01*
X118400000Y-72125000D01*
X118674728Y-72125000D01*
X118766614Y-72086940D01*
X118836940Y-72016614D01*
X118875000Y-71924728D01*
X118875000Y-71612500D01*
X118812500Y-71550000D01*
X118337500Y-71550000D01*
X118037500Y-71550000D01*
X117562500Y-71550000D01*
X117500000Y-71612500D01*
X117304897Y-71612500D01*
X117304897Y-71143750D01*
X117268843Y-70962493D01*
X117210564Y-70875272D01*
X117500000Y-70875272D01*
X117500000Y-71187500D01*
X117562500Y-71250000D01*
X118037500Y-71250000D01*
X118037500Y-70737500D01*
X118337500Y-70737500D01*
X118337500Y-71250000D01*
X118812500Y-71250000D01*
X118875000Y-71187500D01*
X118875000Y-70875272D01*
X118836940Y-70783386D01*
X118766614Y-70713060D01*
X118674728Y-70675000D01*
X118400000Y-70675000D01*
X118337500Y-70737500D01*
X118037500Y-70737500D01*
X117975000Y-70675000D01*
X117700272Y-70675000D01*
X117608386Y-70713060D01*
X117538060Y-70783386D01*
X117500000Y-70875272D01*
X117210564Y-70875272D01*
X117166169Y-70808831D01*
X117012507Y-70706157D01*
X116950000Y-70693724D01*
X116950000Y-70354897D01*
X117047545Y-70335494D01*
X117130239Y-70280239D01*
X117185494Y-70197545D01*
X117204897Y-70100000D01*
X117204897Y-68300000D01*
X117185494Y-68202455D01*
X117130239Y-68119761D01*
X117047545Y-68064506D01*
X116950000Y-68045103D01*
X115950000Y-68045103D01*
X115852455Y-68064506D01*
X115769761Y-68119761D01*
X115714506Y-68202455D01*
X115695103Y-68300000D01*
X115695103Y-69509923D01*
X114930037Y-70274990D01*
X114633746Y-70274990D01*
X114685494Y-70197545D01*
X114704897Y-70100000D01*
X114704897Y-68300000D01*
X114685494Y-68202455D01*
X114630239Y-68119761D01*
X114550000Y-68066146D01*
X114550000Y-67829897D01*
X114731250Y-67829897D01*
X114912507Y-67793843D01*
X115066169Y-67691169D01*
X115168843Y-67537507D01*
X115204897Y-67356250D01*
X115204897Y-67312500D01*
X115400000Y-67312500D01*
X115400000Y-67624728D01*
X115438060Y-67716614D01*
X115508386Y-67786940D01*
X115600272Y-67825000D01*
X115875000Y-67825000D01*
X115937500Y-67762500D01*
X115937500Y-67250000D01*
X116237500Y-67250000D01*
X116237500Y-67762500D01*
X116300000Y-67825000D01*
X116574728Y-67825000D01*
X116666614Y-67786940D01*
X116736940Y-67716614D01*
X116775000Y-67624728D01*
X116775000Y-67312500D01*
X116712500Y-67250000D01*
X116237500Y-67250000D01*
X115937500Y-67250000D01*
X115462500Y-67250000D01*
X115400000Y-67312500D01*
X115204897Y-67312500D01*
X115204897Y-66843750D01*
X115168843Y-66662493D01*
X115110564Y-66575272D01*
X115400000Y-66575272D01*
X115400000Y-66887500D01*
X115462500Y-66950000D01*
X115937500Y-66950000D01*
X115937500Y-66437500D01*
X116237500Y-66437500D01*
X116237500Y-66950000D01*
X116712500Y-66950000D01*
X116775000Y-66887500D01*
X116775000Y-66575272D01*
X116736940Y-66483386D01*
X116666614Y-66413060D01*
X116574728Y-66375000D01*
X116300000Y-66375000D01*
X116237500Y-66437500D01*
X115937500Y-66437500D01*
X115875000Y-66375000D01*
X115600272Y-66375000D01*
X115508386Y-66413060D01*
X115438060Y-66483386D01*
X115400000Y-66575272D01*
X115110564Y-66575272D01*
X115066169Y-66508831D01*
X114912507Y-66406157D01*
X114731250Y-66370103D01*
X114293750Y-66370103D01*
X114112493Y-66406157D01*
X113958831Y-66508831D01*
X113856157Y-66662493D01*
X113820103Y-66843750D01*
X113820103Y-67356250D01*
X113850000Y-67506554D01*
X113850000Y-68045103D01*
X113450000Y-68045103D01*
X113352455Y-68064506D01*
X113269761Y-68119761D01*
X113214506Y-68202455D01*
X113195103Y-68300000D01*
X113195103Y-69809924D01*
X113155027Y-69850000D01*
X111734464Y-69850000D01*
X111700000Y-69843145D01*
X111665536Y-69850000D01*
X111665532Y-69850000D01*
X111563437Y-69870308D01*
X111476885Y-69928140D01*
X111476883Y-69928142D01*
X111447665Y-69947665D01*
X111428142Y-69976883D01*
X110176887Y-71228140D01*
X110147665Y-71247666D01*
X110070308Y-71363438D01*
X110061573Y-71407351D01*
X110000000Y-71395103D01*
X109750000Y-71395103D01*
X109652455Y-71414506D01*
X109625000Y-71432851D01*
X109597545Y-71414506D01*
X109500000Y-71395103D01*
X109250000Y-71395103D01*
X109225000Y-71400076D01*
X109225000Y-71369973D01*
X109465077Y-71129897D01*
X109706250Y-71129897D01*
X109887507Y-71093843D01*
X110041169Y-70991169D01*
X110143843Y-70837507D01*
X110179897Y-70656250D01*
X110179897Y-70143750D01*
X110143843Y-69962493D01*
X110139292Y-69955682D01*
X110444975Y-69650000D01*
X111815536Y-69650000D01*
X111850000Y-69656855D01*
X111884464Y-69650000D01*
X113000000Y-69650000D01*
X113019134Y-69646194D01*
X113035355Y-69635355D01*
X113046194Y-69619134D01*
X113050000Y-69600000D01*
X113050000Y-65347260D01*
X113281815Y-65356368D01*
X113281815Y-65356368D01*
G37*
X113281815Y-65356368D02*
X114601148Y-65559433D01*
X115889013Y-65910545D01*
X117128853Y-66405191D01*
X118304727Y-67037011D01*
X119401518Y-67797882D01*
X120405126Y-68678022D01*
X121302648Y-69666117D01*
X122082545Y-70749462D01*
X122734790Y-71914130D01*
X123250999Y-73145148D01*
X123357602Y-73510886D01*
X122848477Y-73300000D01*
X122291523Y-73300000D01*
X121776963Y-73513137D01*
X121383137Y-73906963D01*
X121272113Y-74175000D01*
X117194607Y-74175000D01*
X116609803Y-73590197D01*
X116637500Y-73562500D01*
X116637500Y-73050000D01*
X116937500Y-73050000D01*
X116937500Y-73562500D01*
X117000000Y-73625000D01*
X117274728Y-73625000D01*
X117366614Y-73586940D01*
X117436940Y-73516614D01*
X117475000Y-73424728D01*
X117475000Y-73112500D01*
X117412500Y-73050000D01*
X116937500Y-73050000D01*
X116637500Y-73050000D01*
X116162500Y-73050000D01*
X116116053Y-73096447D01*
X115904897Y-72885291D01*
X115904897Y-72643750D01*
X115868843Y-72462493D01*
X115810564Y-72375272D01*
X116100000Y-72375272D01*
X116100000Y-72687500D01*
X116162500Y-72750000D01*
X116637500Y-72750000D01*
X116637500Y-72237500D01*
X116937500Y-72237500D01*
X116937500Y-72750000D01*
X117412500Y-72750000D01*
X117475000Y-72687500D01*
X117475000Y-72375272D01*
X117436940Y-72283386D01*
X117366614Y-72213060D01*
X117274728Y-72175000D01*
X117000000Y-72175000D01*
X116937500Y-72237500D01*
X116637500Y-72237500D01*
X116575000Y-72175000D01*
X116300272Y-72175000D01*
X116208386Y-72213060D01*
X116138060Y-72283386D01*
X116100000Y-72375272D01*
X115810564Y-72375272D01*
X115766169Y-72308831D01*
X115612507Y-72206157D01*
X115431250Y-72170103D01*
X115189709Y-72170103D01*
X115144606Y-72125000D01*
X115237502Y-72125000D01*
X115237502Y-72062502D01*
X115300000Y-72125000D01*
X115574728Y-72125000D01*
X115666614Y-72086940D01*
X115736940Y-72016614D01*
X115775000Y-71924728D01*
X115775000Y-71612500D01*
X115712500Y-71550000D01*
X115237500Y-71550000D01*
X115237500Y-71570000D01*
X114937500Y-71570000D01*
X114937500Y-71550000D01*
X114462500Y-71550000D01*
X114400000Y-71612500D01*
X114400000Y-71924728D01*
X114405658Y-71938388D01*
X114101436Y-71938388D01*
X114168843Y-71837507D01*
X114204897Y-71656250D01*
X114204897Y-71143750D01*
X114171329Y-70974990D01*
X114400000Y-70974990D01*
X114400000Y-71187500D01*
X114462500Y-71250000D01*
X114937500Y-71250000D01*
X114937500Y-71230000D01*
X115237500Y-71230000D01*
X115237500Y-71250000D01*
X115712500Y-71250000D01*
X115775000Y-71187500D01*
X115775000Y-70875272D01*
X115736940Y-70783386D01*
X115666614Y-70713060D01*
X115574728Y-70675000D01*
X115519973Y-70675000D01*
X115858314Y-70336659D01*
X115950000Y-70354897D01*
X116250001Y-70354897D01*
X116250000Y-70698696D01*
X116212493Y-70706157D01*
X116058831Y-70808831D01*
X115956157Y-70962493D01*
X115920103Y-71143750D01*
X115920103Y-71656250D01*
X115956157Y-71837507D01*
X116058831Y-71991169D01*
X116212493Y-72093843D01*
X116393750Y-72129897D01*
X116831250Y-72129897D01*
X117012507Y-72093843D01*
X117166169Y-71991169D01*
X117268843Y-71837507D01*
X117304897Y-71656250D01*
X117304897Y-71612500D01*
X117500000Y-71612500D01*
X117500000Y-71924728D01*
X117538060Y-72016614D01*
X117608386Y-72086940D01*
X117700272Y-72125000D01*
X117975000Y-72125000D01*
X118037500Y-72062500D01*
X118037500Y-71550000D01*
X118337500Y-71550000D01*
X118337500Y-72062500D01*
X118400000Y-72125000D01*
X118674728Y-72125000D01*
X118766614Y-72086940D01*
X118836940Y-72016614D01*
X118875000Y-71924728D01*
X118875000Y-71612500D01*
X118812500Y-71550000D01*
X118337500Y-71550000D01*
X118037500Y-71550000D01*
X117562500Y-71550000D01*
X117500000Y-71612500D01*
X117304897Y-71612500D01*
X117304897Y-71143750D01*
X117268843Y-70962493D01*
X117210564Y-70875272D01*
X117500000Y-70875272D01*
X117500000Y-71187500D01*
X117562500Y-71250000D01*
X118037500Y-71250000D01*
X118037500Y-70737500D01*
X118337500Y-70737500D01*
X118337500Y-71250000D01*
X118812500Y-71250000D01*
X118875000Y-71187500D01*
X118875000Y-70875272D01*
X118836940Y-70783386D01*
X118766614Y-70713060D01*
X118674728Y-70675000D01*
X118400000Y-70675000D01*
X118337500Y-70737500D01*
X118037500Y-70737500D01*
X117975000Y-70675000D01*
X117700272Y-70675000D01*
X117608386Y-70713060D01*
X117538060Y-70783386D01*
X117500000Y-70875272D01*
X117210564Y-70875272D01*
X117166169Y-70808831D01*
X117012507Y-70706157D01*
X116950000Y-70693724D01*
X116950000Y-70354897D01*
X117047545Y-70335494D01*
X117130239Y-70280239D01*
X117185494Y-70197545D01*
X117204897Y-70100000D01*
X117204897Y-68300000D01*
X117185494Y-68202455D01*
X117130239Y-68119761D01*
X117047545Y-68064506D01*
X116950000Y-68045103D01*
X115950000Y-68045103D01*
X115852455Y-68064506D01*
X115769761Y-68119761D01*
X115714506Y-68202455D01*
X115695103Y-68300000D01*
X115695103Y-69509923D01*
X114930037Y-70274990D01*
X114633746Y-70274990D01*
X114685494Y-70197545D01*
X114704897Y-70100000D01*
X114704897Y-68300000D01*
X114685494Y-68202455D01*
X114630239Y-68119761D01*
X114550000Y-68066146D01*
X114550000Y-67829897D01*
X114731250Y-67829897D01*
X114912507Y-67793843D01*
X115066169Y-67691169D01*
X115168843Y-67537507D01*
X115204897Y-67356250D01*
X115204897Y-67312500D01*
X115400000Y-67312500D01*
X115400000Y-67624728D01*
X115438060Y-67716614D01*
X115508386Y-67786940D01*
X115600272Y-67825000D01*
X115875000Y-67825000D01*
X115937500Y-67762500D01*
X115937500Y-67250000D01*
X116237500Y-67250000D01*
X116237500Y-67762500D01*
X116300000Y-67825000D01*
X116574728Y-67825000D01*
X116666614Y-67786940D01*
X116736940Y-67716614D01*
X116775000Y-67624728D01*
X116775000Y-67312500D01*
X116712500Y-67250000D01*
X116237500Y-67250000D01*
X115937500Y-67250000D01*
X115462500Y-67250000D01*
X115400000Y-67312500D01*
X115204897Y-67312500D01*
X115204897Y-66843750D01*
X115168843Y-66662493D01*
X115110564Y-66575272D01*
X115400000Y-66575272D01*
X115400000Y-66887500D01*
X115462500Y-66950000D01*
X115937500Y-66950000D01*
X115937500Y-66437500D01*
X116237500Y-66437500D01*
X116237500Y-66950000D01*
X116712500Y-66950000D01*
X116775000Y-66887500D01*
X116775000Y-66575272D01*
X116736940Y-66483386D01*
X116666614Y-66413060D01*
X116574728Y-66375000D01*
X116300000Y-66375000D01*
X116237500Y-66437500D01*
X115937500Y-66437500D01*
X115875000Y-66375000D01*
X115600272Y-66375000D01*
X115508386Y-66413060D01*
X115438060Y-66483386D01*
X115400000Y-66575272D01*
X115110564Y-66575272D01*
X115066169Y-66508831D01*
X114912507Y-66406157D01*
X114731250Y-66370103D01*
X114293750Y-66370103D01*
X114112493Y-66406157D01*
X113958831Y-66508831D01*
X113856157Y-66662493D01*
X113820103Y-66843750D01*
X113820103Y-67356250D01*
X113850000Y-67506554D01*
X113850000Y-68045103D01*
X113450000Y-68045103D01*
X113352455Y-68064506D01*
X113269761Y-68119761D01*
X113214506Y-68202455D01*
X113195103Y-68300000D01*
X113195103Y-69809924D01*
X113155027Y-69850000D01*
X111734464Y-69850000D01*
X111700000Y-69843145D01*
X111665536Y-69850000D01*
X111665532Y-69850000D01*
X111563437Y-69870308D01*
X111476885Y-69928140D01*
X111476883Y-69928142D01*
X111447665Y-69947665D01*
X111428142Y-69976883D01*
X110176887Y-71228140D01*
X110147665Y-71247666D01*
X110070308Y-71363438D01*
X110061573Y-71407351D01*
X110000000Y-71395103D01*
X109750000Y-71395103D01*
X109652455Y-71414506D01*
X109625000Y-71432851D01*
X109597545Y-71414506D01*
X109500000Y-71395103D01*
X109250000Y-71395103D01*
X109225000Y-71400076D01*
X109225000Y-71369973D01*
X109465077Y-71129897D01*
X109706250Y-71129897D01*
X109887507Y-71093843D01*
X110041169Y-70991169D01*
X110143843Y-70837507D01*
X110179897Y-70656250D01*
X110179897Y-70143750D01*
X110143843Y-69962493D01*
X110139292Y-69955682D01*
X110444975Y-69650000D01*
X111815536Y-69650000D01*
X111850000Y-69656855D01*
X111884464Y-69650000D01*
X113000000Y-69650000D01*
X113019134Y-69646194D01*
X113035355Y-69635355D01*
X113046194Y-69619134D01*
X113050000Y-69600000D01*
X113050000Y-65347260D01*
X113281815Y-65356368D01*
G36*
X108150000Y-67450000D02*
X107234462Y-67450000D01*
X107199999Y-67443145D01*
X107165537Y-67450000D01*
X107165532Y-67450000D01*
X107063437Y-67470308D01*
X106947665Y-67547665D01*
X106928140Y-67576886D01*
X106464277Y-68040749D01*
X106412507Y-68006157D01*
X106231250Y-67970103D01*
X105793750Y-67970103D01*
X105612493Y-68006157D01*
X105458831Y-68108831D01*
X105356157Y-68262493D01*
X105320103Y-68443750D01*
X105320103Y-68956250D01*
X105356157Y-69137507D01*
X105458831Y-69291169D01*
X105612493Y-69393843D01*
X105793750Y-69429897D01*
X106231250Y-69429897D01*
X106244740Y-69427214D01*
X106602972Y-69785447D01*
X106647665Y-69852334D01*
X106676886Y-69871860D01*
X107220103Y-70415077D01*
X107220103Y-70597424D01*
X107176886Y-70640641D01*
X107147665Y-70660166D01*
X107070308Y-70775938D01*
X107050000Y-70878033D01*
X107050000Y-70878036D01*
X107043145Y-70912500D01*
X107050000Y-70946964D01*
X107050001Y-71942894D01*
X106988376Y-71881270D01*
X106960480Y-71839520D01*
X106795090Y-71729011D01*
X106649243Y-71700000D01*
X106649241Y-71700000D01*
X106600000Y-71690205D01*
X106550759Y-71700000D01*
X106335382Y-71700000D01*
X106291169Y-71633831D01*
X106137507Y-71531157D01*
X105956250Y-71495103D01*
X105443750Y-71495103D01*
X105262493Y-71531157D01*
X105108831Y-71633831D01*
X105064618Y-71700000D01*
X103624240Y-71700000D01*
X103574999Y-71690205D01*
X103525758Y-71700000D01*
X103525757Y-71700000D01*
X103379910Y-71729011D01*
X103214520Y-71839520D01*
X103186625Y-71881268D01*
X101767894Y-73300000D01*
X101491523Y-73300000D01*
X100976963Y-73513137D01*
X100915356Y-73574744D01*
X100925490Y-73534841D01*
X101398422Y-72286558D01*
X102009624Y-71099836D01*
X102193263Y-70825000D01*
X104975000Y-70825000D01*
X104975000Y-71099728D01*
X105013060Y-71191614D01*
X105083386Y-71261940D01*
X105175272Y-71300000D01*
X105487500Y-71300000D01*
X105550000Y-71237500D01*
X105550000Y-70762500D01*
X105850000Y-70762500D01*
X105850000Y-71237500D01*
X105912500Y-71300000D01*
X106224728Y-71300000D01*
X106316614Y-71261940D01*
X106386940Y-71191614D01*
X106425000Y-71099728D01*
X106425000Y-70825000D01*
X106362500Y-70762500D01*
X105850000Y-70762500D01*
X105550000Y-70762500D01*
X105037500Y-70762500D01*
X104975000Y-70825000D01*
X102193263Y-70825000D01*
X102660806Y-70125272D01*
X104975000Y-70125272D01*
X104975000Y-70400000D01*
X105037500Y-70462500D01*
X105550000Y-70462500D01*
X105550000Y-69987500D01*
X105850000Y-69987500D01*
X105850000Y-70462500D01*
X106362500Y-70462500D01*
X106425000Y-70400000D01*
X106425000Y-70125272D01*
X106386940Y-70033386D01*
X106316614Y-69963060D01*
X106224728Y-69925000D01*
X105912500Y-69925000D01*
X105850000Y-69987500D01*
X105550000Y-69987500D01*
X105487500Y-69925000D01*
X105175272Y-69925000D01*
X105083386Y-69963060D01*
X105013060Y-70033386D01*
X104975000Y-70125272D01*
X102660806Y-70125272D01*
X102751237Y-69989933D01*
X103613728Y-68971117D01*
X104586008Y-68056487D01*
X105655578Y-67257802D01*
X106808685Y-66585330D01*
X108030506Y-66047716D01*
X108150000Y-66010612D01*
X108150000Y-67450000D01*
X108150000Y-67450000D01*
G37*
X108150000Y-67450000D02*
X107234462Y-67450000D01*
X107199999Y-67443145D01*
X107165537Y-67450000D01*
X107165532Y-67450000D01*
X107063437Y-67470308D01*
X106947665Y-67547665D01*
X106928140Y-67576886D01*
X106464277Y-68040749D01*
X106412507Y-68006157D01*
X106231250Y-67970103D01*
X105793750Y-67970103D01*
X105612493Y-68006157D01*
X105458831Y-68108831D01*
X105356157Y-68262493D01*
X105320103Y-68443750D01*
X105320103Y-68956250D01*
X105356157Y-69137507D01*
X105458831Y-69291169D01*
X105612493Y-69393843D01*
X105793750Y-69429897D01*
X106231250Y-69429897D01*
X106244740Y-69427214D01*
X106602972Y-69785447D01*
X106647665Y-69852334D01*
X106676886Y-69871860D01*
X107220103Y-70415077D01*
X107220103Y-70597424D01*
X107176886Y-70640641D01*
X107147665Y-70660166D01*
X107070308Y-70775938D01*
X107050000Y-70878033D01*
X107050000Y-70878036D01*
X107043145Y-70912500D01*
X107050000Y-70946964D01*
X107050001Y-71942894D01*
X106988376Y-71881270D01*
X106960480Y-71839520D01*
X106795090Y-71729011D01*
X106649243Y-71700000D01*
X106649241Y-71700000D01*
X106600000Y-71690205D01*
X106550759Y-71700000D01*
X106335382Y-71700000D01*
X106291169Y-71633831D01*
X106137507Y-71531157D01*
X105956250Y-71495103D01*
X105443750Y-71495103D01*
X105262493Y-71531157D01*
X105108831Y-71633831D01*
X105064618Y-71700000D01*
X103624240Y-71700000D01*
X103574999Y-71690205D01*
X103525758Y-71700000D01*
X103525757Y-71700000D01*
X103379910Y-71729011D01*
X103214520Y-71839520D01*
X103186625Y-71881268D01*
X101767894Y-73300000D01*
X101491523Y-73300000D01*
X100976963Y-73513137D01*
X100915356Y-73574744D01*
X100925490Y-73534841D01*
X101398422Y-72286558D01*
X102009624Y-71099836D01*
X102193263Y-70825000D01*
X104975000Y-70825000D01*
X104975000Y-71099728D01*
X105013060Y-71191614D01*
X105083386Y-71261940D01*
X105175272Y-71300000D01*
X105487500Y-71300000D01*
X105550000Y-71237500D01*
X105550000Y-70762500D01*
X105850000Y-70762500D01*
X105850000Y-71237500D01*
X105912500Y-71300000D01*
X106224728Y-71300000D01*
X106316614Y-71261940D01*
X106386940Y-71191614D01*
X106425000Y-71099728D01*
X106425000Y-70825000D01*
X106362500Y-70762500D01*
X105850000Y-70762500D01*
X105550000Y-70762500D01*
X105037500Y-70762500D01*
X104975000Y-70825000D01*
X102193263Y-70825000D01*
X102660806Y-70125272D01*
X104975000Y-70125272D01*
X104975000Y-70400000D01*
X105037500Y-70462500D01*
X105550000Y-70462500D01*
X105550000Y-69987500D01*
X105850000Y-69987500D01*
X105850000Y-70462500D01*
X106362500Y-70462500D01*
X106425000Y-70400000D01*
X106425000Y-70125272D01*
X106386940Y-70033386D01*
X106316614Y-69963060D01*
X106224728Y-69925000D01*
X105912500Y-69925000D01*
X105850000Y-69987500D01*
X105550000Y-69987500D01*
X105487500Y-69925000D01*
X105175272Y-69925000D01*
X105083386Y-69963060D01*
X105013060Y-70033386D01*
X104975000Y-70125272D01*
X102660806Y-70125272D01*
X102751237Y-69989933D01*
X103613728Y-68971117D01*
X104586008Y-68056487D01*
X105655578Y-67257802D01*
X106808685Y-66585330D01*
X108030506Y-66047716D01*
X108150000Y-66010612D01*
X108150000Y-67450000D01*
G04 #@! TD*
M02*
